<?xml version="1.0" encoding="UTF-8" standalone="no"?>
<!-- Created with Inkscape (http://www.inkscape.org/) -->
<svg
   xmlns:dc="http://purl.org/dc/elements/1.1/"
   xmlns:cc="http://web.resource.org/cc/"
   xmlns:rdf="http://www.w3.org/1999/02/22-rdf-syntax-ns#"
   xmlns:svg="http://www.w3.org/2000/svg"
   xmlns="http://www.w3.org/2000/svg"
   xmlns:xlink="http://www.w3.org/1999/xlink"
   xmlns:sodipodi="http://sodipodi.sourceforge.net/DTD/sodipodi-0.dtd"
   xmlns:inkscape="http://www.inkscape.org/namespaces/inkscape"
   width="346.70999"
   height="79.290001"
   id="svg2"
   sodipodi:version="0.32"
   inkscape:version="0.45"
   sodipodi:docbase="F:\License plates"
   sodipodi:docname="Austrian license plate.svg"
   inkscape:output_extension="org.inkscape.output.svg.inkscape"
   version="1.0"
   sodipodi:modified="true">
  <defs
     id="defs4">
    <g
       id="s">
      <g
         id="c">
        <path
           transform="matrix(0.9510565,0.309017,-0.309017,0.9510565,0,-1)"
           d="M 0,0 L 0,1 L 0.5,1 L 0,0 z "
           id="t" />
        <use
           id="use3302"
           transform="scale(-1,1)"
           xlink:href="#t"
           x="0"
           y="0"
           width="744.09448"
           height="1052.3622" />
      </g>
      <g
         id="a">
        <use
           id="use3305"
           transform="matrix(0.309017,0.9510565,-0.9510565,0.309017,0,0)"
           xlink:href="#c"
           x="0"
           y="0"
           width="744.09448"
           height="1052.3622" />
        <use
           id="use3307"
           transform="matrix(-0.809017,0.5877853,-0.5877853,-0.809017,0,0)"
           xlink:href="#c"
           x="0"
           y="0"
           width="744.09448"
           height="1052.3622" />
      </g>
      <use
         id="use3309"
         transform="scale(-1,1)"
         xlink:href="#a"
         x="0"
         y="0"
         width="744.09448"
         height="1052.3622" />
    </g>
  </defs>
  <sodipodi:namedview
     id="base"
     pagecolor="#ffffff"
     bordercolor="#666666"
     borderopacity="1.0"
     inkscape:pageopacity="0.0"
     inkscape:pageshadow="2"
     inkscape:zoom="1.6023891"
     inkscape:cx="200.78324"
     inkscape:cy="22.169906"
     inkscape:document-units="px"
     inkscape:current-layer="layer1"
     inkscape:window-width="1024"
     inkscape:window-height="742"
     inkscape:window-x="0"
     inkscape:window-y="0"
     showgrid="true"
     showguides="true"
     inkscape:guide-bbox="true"
     width="346.71px"
     height="79.29px" />
  <metadata
     id="metadata7">
    <rdf:RDF>
      <cc:Work
         rdf:about="">
        <dc:format>image/svg+xml</dc:format>
        <dc:type
           rdf:resource="http://purl.org/dc/dcmitype/StillImage" />
      </cc:Work>
    </rdf:RDF>
  </metadata>
  <g
     inkscape:label="Capa 1"
     inkscape:groupmode="layer"
     id="layer1"
     transform="translate(-5.5279208,-5.095195)">
    <g
       id="g2245">
      <rect
         ry="4.8052483"
         y="13.629746"
         x="12.446781"
         height="64.377266"
         width="331.70297"
         id="rect2243"
         style="fill:#ffffff;fill-opacity:1;stroke:#ffffff;stroke-width:2.75635719;stroke-linecap:round;stroke-miterlimit:4;stroke-dasharray:none;stroke-opacity:1" />
      <path
         id="rect2221"
         d="M 16.1875,9.8125 C 11.873487,9.8125 8.3125,13.342238 8.3125,17.65625 L 8.3125,74.21875 C 8.3125,78.532763 11.873487,82.093751 16.1875,82.09375 L 339.15625,82.09375 C 343.47026,82.09375 347.03124,78.53276 347.03125,74.21875 L 347.03125,17.65625 C 347.03125,13.342237 343.47026,9.8125 339.15625,9.8125 L 16.1875,9.8125 z M 16.1875,15.1875 L 339.15625,15.1875 C 340.58125,15.1875 341.65625,16.231245 341.65625,17.65625 L 341.65625,74.21875 C 341.65625,75.64376 340.58125,76.6875 339.15625,76.6875 L 16.1875,76.6875 C 14.762496,76.6875 13.71875,75.643755 13.71875,74.21875 L 13.71875,17.65625 C 13.71875,16.231247 14.762495,15.1875 16.1875,15.1875 z "
         style="fill:#ffffff;fill-opacity:1;stroke:none;stroke-width:5.38288307;stroke-miterlimit:4;stroke-dasharray:none;stroke-opacity:1" />
      <path
         sodipodi:nodetypes="ccccccc"
         id="path3214"
         d="M 42.868685,11.16329 L 42.868685,80.106196 L 16.327325,80.106196 C 13.202305,80.094406 11.615076,78.544836 11.182541,75.840566 L 11.276562,16.466591 C 11.655475,13.30997 13.25521,11.374171 16.327325,10.910752 L 42.868685,11.16329 z "
         style="fill:#003399;fill-opacity:1;fill-rule:evenodd;stroke:#003399;stroke-width:1px;stroke-linecap:butt;stroke-linejoin:miter;stroke-opacity:1" />
      <g
         id="g3313"
         transform="matrix(1.6138444,0,0,1.6138444,27.337182,32.052517)"
         style="fill:#ffcc00">
        <use
           id="use3315"
           y="-6"
           xlink:href="#s"
           x="0"
           width="744.09448"
           height="1052.3622" />
        <use
           id="use3317"
           y="6"
           xlink:href="#s"
           x="0"
           width="744.09448"
           height="1052.3622" />
        <g
           id="l">
          <use
             id="use3320"
             x="-6"
             xlink:href="#s"
             y="0"
             width="744.09448"
             height="1052.3622" />
          <use
             id="use3322"
             transform="matrix(-0.809017,-0.5877853,0.5877853,-0.809017,-3,-5.1961524)"
             xlink:href="#s"
             x="0"
             y="0"
             width="744.09448"
             height="1052.3622" />
          <use
             id="use3324"
             transform="matrix(-0.809017,0.5877853,-0.5877853,-0.809017,-5.1961524,-3)"
             xlink:href="#s"
             x="0"
             y="0"
             width="744.09448"
             height="1052.3622" />
          <use
             id="use3326"
             transform="matrix(0.309017,0.9510565,-0.9510565,0.309017,-5.1961524,3)"
             xlink:href="#s"
             x="0"
             y="0"
             width="744.09448"
             height="1052.3622" />
          <use
             id="use3328"
             transform="matrix(0.309017,0.9510565,-0.9510565,0.309017,-3,5.1961524)"
             xlink:href="#s"
             x="0"
             y="0"
             width="744.09448"
             height="1052.3622" />
        </g>
        <use
           id="use3330"
           transform="scale(-1,1)"
           xlink:href="#l"
           x="0"
           y="0"
           width="744.09448"
           height="1052.3622" />
      </g>
      <path
         id="path6188"
         d="M 16.187921,9.8129459 C 11.873908,9.8129459 8.3129208,13.342684 8.3129208,17.656696 L 8.3129208,74.219196 C 8.3129208,78.533209 11.873908,82.094197 16.187921,82.094196 L 339.15667,82.094196 C 343.47068,82.094196 347.03166,78.533206 347.03167,74.219196 L 347.03167,17.656696 C 347.03167,13.342683 343.47068,9.8129459 339.15667,9.8129459 L 16.187921,9.8129459 z M 16.187921,15.187946 L 339.15667,15.187946 C 340.58167,15.187946 341.65667,16.231691 341.65667,17.656696 L 341.65667,74.219196 C 341.65667,75.644206 340.58167,76.687946 339.15667,76.687946 L 16.187921,76.687946 C 14.762917,76.687946 13.719171,75.644201 13.719171,74.219196 L 13.719171,17.656696 C 13.719171,16.231693 14.762916,15.187946 16.187921,15.187946 z "
         style="fill:#ffffff;fill-opacity:1;stroke:#000000;stroke-width:0.2;stroke-miterlimit:4;stroke-dasharray:none;stroke-opacity:1" />
      <path
         id="text3367"
         d="M 24.618426,60.342175 L 29.082758,48.10722 L 30.610029,48.10722 L 35.074361,60.342175 L 33.127509,60.342175 L 32.18765,57.581338 L 27.547095,57.581338 L 26.573669,60.342175 L 24.618426,60.342175 z M 28.092549,55.944976 L 31.633804,55.944976 C 31.376455,55.189737 31.173658,54.598129 31.025413,54.170152 C 30.877155,53.742187 30.748484,53.363167 30.6394,53.03309 C 30.530303,52.703028 30.419814,52.367364 30.307931,52.026098 C 30.196038,51.684848 30.047786,51.223311 29.863176,50.641484 C 29.667367,51.245688 29.510724,51.728205 29.393247,52.089035 C 29.27576,52.449882 29.162473,52.798133 29.053387,53.133789 C 28.944292,53.46946 28.818418,53.844285 28.675765,54.258264 C 28.533104,54.672255 28.338699,55.234492 28.092549,55.944976 L 28.092549,55.944976 z "
         style="font-size:17.18599892px;font-style:normal;font-weight:normal;fill:#ffffff;fill-opacity:1;stroke:#ffffff;stroke-width:0.42840865;stroke-linecap:butt;stroke-linejoin:miter;stroke-miterlimit:4;stroke-opacity:1;font-family:Bitstream Vera Sans"
         transform="scale(0.9191116,1.0880072)" />
      <g
         id="g8162">
        <path
           style="fill:#da121a;fill-opacity:1;fill-rule:evenodd;stroke:none;stroke-width:1.39999998;stroke-linecap:butt;stroke-linejoin:miter;stroke-miterlimit:4;stroke-opacity:1"
           d="M 10.920103,11.96875 L 344.3873,11.96875 C 343.82474,11.369847 343.0768,10.956325 342.30917,10.5625 L 13.093073,10.5625 C 12.485181,10.792135 11.541959,11.357107 10.920103,11.96875 z "
           id="path6204"
           sodipodi:nodetypes="ccccc" />
        <path
           style="fill:#da121a;fill-opacity:1;fill-rule:evenodd;stroke:none;stroke-width:1.39999998;stroke-linecap:butt;stroke-linejoin:miter;stroke-miterlimit:4;stroke-dasharray:none;stroke-opacity:1"
           d="M 8.8410281,15.0625 L 346.4498,15.0625 C 346.42048,14.67642 346.1754,14.197876 345.85605,13.6875 L 9.5116976,13.6875 C 9.2142593,14.071952 9.0354816,14.575064 8.8410281,15.0625 z "
           id="path7175"
           sodipodi:nodetypes="ccccc" />
      </g>
      <g
         transform="matrix(1,0,0,-1,-1.073e-4,91.897696)"
         id="g8166">
        <path
           style="fill:#da121a;fill-opacity:1;fill-rule:evenodd;stroke:none;stroke-width:1.39999998;stroke-linecap:butt;stroke-linejoin:miter;stroke-miterlimit:4;stroke-opacity:1"
           d="M 10.920103,11.96875 L 344.3873,11.96875 C 343.82474,11.369847 343.0768,10.956325 342.30917,10.5625 L 13.093073,10.5625 C 12.485181,10.792135 11.541959,11.357107 10.920103,11.96875 z "
           id="path8168"
           sodipodi:nodetypes="ccccc" />
        <path
           style="fill:#da121a;fill-opacity:1;fill-rule:evenodd;stroke:none;stroke-width:1.39999998;stroke-linecap:butt;stroke-linejoin:miter;stroke-miterlimit:4;stroke-dasharray:none;stroke-opacity:1"
           d="M 8.8410281,15.0625 L 346.4498,15.0625 C 346.42048,14.67642 346.1754,14.197876 345.85605,13.6875 L 9.5116976,13.6875 C 9.2142593,14.071952 9.0354816,14.575064 8.8410281,15.0625 z "
           id="path8170"
           sodipodi:nodetypes="ccccc" />
      </g>
      <g
         transform="matrix(5.7553221e-2,0,0,5.7553221e-2,125.03672,22.812778)"
         id="g2399">
        <path
           d="M 206,85 C 205.435,77.435 213.073,78.073 215,73 L 218,66 C 218,65 218,64 218,63 L 214,57 C 214,54.455 209.482,49.379 203,51 L 203,47 C 202.146,39.842 200,23 200,23 L 213,25 L 213,16 C 213,16 205.016,16.776 200,18 C 201.515,13.182 204,2 204,2 L 189,2 L 193,18 L 179,16 L 179,25 C 179,25 187.082,22.415 193,23 C 193.431,32.431 190,47 190,47 L 190,51 C 183.167,50.167 180.708,53.708 179,58 L 174,62 C 174,63 174,66 174,67 L 177,72 C 180.749,75.585 186.14,77.526 187,84 L 183,95 C 132.941,93.485 70.817,69.91 40,105 C 26.05,120.885 26.918,157.216 36,182 C 46.149,179.535 51.764,191.085 56,188 C 34.813,152.237 39.921,91.004 94,97 C 97,97 100,97 103,97 C 129.267,100.474 164.461,100.432 185,106 L 184,118 C 184.118,136.118 180.861,150.861 174,162 C 177.868,162.535 178.882,160.215 183,161 L 209,161 C 214.031,159.679 218.505,164.104 221,162 C 211.533,152.464 210.136,129.535 208,116 L 207,105 C 254.142,103.158 342.057,75.416 349,132 C 351.959,156.113 344.874,174.757 339,193 C 343.513,191.356 352.23,185.679 359,183 C 362.166,172.5 364.063,160.73 364,147 C 364,145 364,143 364,141 C 366.543,98.824 329.709,86.156 290,88 C 266.097,89.11 241.539,98.552 220,96 C 216.305,96.638 210.038,94.705 208,97 L 206,85 z "
           style="fill:#f5be15;fill-rule:evenodd"
           id="Goldreif" />
        <path
           d="M 379,181 C 378.54,185.23 368.46,185.23 368,181 L 368,177 C 368.12,174.46 369.46,173.12 372,173 L 377,173 C 378.71,175.49 380.49,177.91 379,181 z M 378,179 C 377.03,178.97 377.22,177.78 377,177 C 376.03,177.03 376.22,178.22 376,179 C 376,179.33 376,179.67 376,180 C 374.25,183.62 376.67,183.62 377,180 C 377.33,180 377.67,180 378,180 C 378,179.67 378,179.33 378,179 z M 378,167 C 380.68,169.88 383.94,160.88 381,158 C 378.14,158.14 381.86,164.86 379,165 C 379,165.33 379,165.67 379,166 C 379.18,166.85 378.61,166.94 378,167 z M 380,156 C 388.28,158.36 382.25,173.69 374,168 C 365.97,165.15 372.09,151.16 380,156 z M 386,146 C 386,144.33 386,142.67 386,141 C 385.81,140.19 385,140 385,139 C 382.57,140.57 385.42,147.41 382,148 C 382.1,149.9 385.9,147.38 386,146 z M 388,146 C 388.18,146.85 387.61,146.94 387,147 L 387,148 C 385.93,150.27 383.97,151.63 381,152 C 368.68,153.91 367.5,138.28 375,134 C 385.16,132.25 389.95,138.68 388,146 z M 383,124 C 383,122.33 383,120.67 383,119 C 381.28,114.4 380.52,119.8 381,123 C 382.32,125.5 377.05,126.13 380,127 C 381.44,126.44 382.44,125.44 383,124 z M 385,123 C 383.57,131.67 369.43,131.67 368,123 C 366.37,123.45 366.37,117.55 368,118 C 368.36,114.36 370.36,112.36 374,112 C 373.55,110.37 379.45,110.37 379,112 C 382.64,112.36 384.64,114.36 385,118 C 386.63,117.55 386.63,123.45 385,123 z M 369,107 C 372.87,105.84 372.87,98.16 369,97 C 370.15,99.8 370.15,102.2 369,105 C 368.38,105.89 367.79,106.79 369,107 z M 356,99 C 359.13,76.53 390.57,111.58 363,110 C 359.63,106.47 355.22,104.64 356,99 z M 356,89 C 356.21,86.13 355.75,83.92 354,83 C 352.06,84.08 355.91,89.92 352,91 C 351.82,91.85 352.39,91.94 353,92 C 355.31,92.31 354.11,89.11 356,89 z M 356,91 C 353.71,98.31 344.17,95.67 340,92 C 331.3,76.71 360.41,71.62 357,89 C 357.16,90.16 356.78,90.78 356,91 z M 334,83 C 334,82.67 334,82.33 334,82 C 334,80.67 334,79.33 334,78 C 334,77.67 334,77.33 334,77 C 333.11,76.39 332.21,75.79 332,77 C 332.48,80.82 331.72,83.38 330,85 C 332.73,85.73 332.01,83.01 334,83 z M 323,70 C 328.28,68.08 336.96,69.43 336,81 C 336.16,82.16 335.78,82.78 335,83 C 330.36,99.11 306.87,75.87 323,70 z M 312,80 C 312,79.67 312,79.33 312,79 C 312,77.67 312,76.33 312,75 C 312,74.67 312,74.33 312,74 C 310.77,72.88 309.95,73.13 310,75 C 310.65,78.65 309.33,80.33 308,82 C 310.73,82.73 310.01,80.01 312,80 z M 313,73 C 314.65,73.14 314.65,79.86 313,80 C 311.75,86.9 306.23,83.32 299,84 C 294.32,80.4 295.06,68.44 302,68 C 301.84,66.36 308.16,66.36 308,68 C 310.89,68.44 312.56,70.11 313,73 z M 289,74 C 288,74 287.81,73.19 287,73 C 286.42,74.76 288.21,78.88 286,79 C 286.04,80.38 285.53,81.2 285,82 C 288.86,81.86 289.1,78.1 289,74 z M 278,84 C 257.01,67.73 303.18,58.35 288,84 L 284,84 C 284.16,85.64 277.84,85.64 278,84 z M 263,84 C 263.62,85.83 267.18,82.27 267,80 C 267,79.33 267,78.67 267,78 C 267,77.67 267,77.33 267,77 C 266.03,76.97 266.22,75.78 266,75 C 263.57,76.57 266.42,83.41 263,84 z M 269,78 C 270.2,89.49 255.04,90.21 251,83 C 247.37,69.08 264.56,65.16 268,75 C 269.17,75.16 268.84,76.82 269,78 z M 229,79 C 232.06,66.17 253.92,76.52 245,87 C 244.99,88.99 242.27,88.27 243,91 L 233,91 C 232.38,88.29 228.82,88.51 229,85 C 227.36,85.16 227.36,78.84 229,79 z M 240,87 C 242.73,87.73 242.01,85.01 244,85 C 244,83 244,81 244,79 C 242.74,78.78 241.96,77.44 242,80 C 242.65,83.65 241.33,85.33 240,87 z M 223,81 C 222.78,80.76 222.56,80.53 222.33,80.32 C 217.25,75.62 209.9,79.48 208.94,85.19 C 208.589,87.32 209.12,89.7 211,92 L 217,92 C 219.17,89.61 221.11,85.89 219,82 C 221.15,82.85 222.54,84.46 222,88 L 221,88 C 221.73,90.73 219.01,90.01 219,92 C 223.94,93.23 225.32,85.72 223,83 L 223,81 z M 199,146 C 199.16,144.36 192.84,144.36 193,146 C 187.19,147.19 185.09,152.09 186,160 L 191,160 C 194.47,159.47 200.49,161.49 201,158 C 202.04,155.17 202.04,153.83 201,151 C 203.31,150.69 202.11,153.89 204,154 C 205.47,157.16 199.41,159.96 204,160 C 209.05,155.83 204.15,146.41 199,146 z M 198,139 C 203.78,140.41 204.48,127.31 200,130 C 201.63,129.55 201.63,135.45 200,135 C 200.73,137.73 198.01,137.01 198,139 z M 188,130 C 203.36,107.38 214.01,155.6 188,138 L 188,136 C 186.36,136.16 186.36,129.84 188,130 z M 201,120 C 197.71,122.09 194.29,122.09 191,120 C 189.29,118.71 187.07,117.93 187,115 C 181.48,103.18 202.72,96.61 205,109 C 206.63,108.55 206.63,114.45 205,114 L 205,115 C 204.93,117.93 202.71,118.71 201,120 z M 203,109 C 201.74,108.78 200.96,107.44 201,110 C 201.58,113.91 200.14,115.81 199,118 C 201.5,118.17 202.13,116.46 203,115 C 203,113.33 203,111.67 203,110 C 203,109.67 203,109.33 203,109 z M 190,101 C 190.99,97.66 197.83,100.16 200,98 L 200,97 C 202.71,96.59 199.06,87.18 203,91 C 205.7,96.27 197.58,99.45 202,100 C 209.24,93.76 203.15,80.25 191,84 C 186.32,86.56 183.14,98.19 190,101 z M 181,86 C 181.59,83.63 179.84,78.65 179,81 C 178.45,82.45 180.17,86.17 178,86 C 178.28,87.62 177.05,87.72 177,89 C 180.21,89.88 179.07,86.41 181,86 z M 181.23,78.77 C 182.73,80.27 183.32,82.68 183,86 C 183.27,90.31 176.49,92.77 173,90 L 170,90 C 169.47,89.2 168.96,88.38 169,87 C 167.95,87.29 167.58,84.94 167.88,83.36 C 168.05,82.48 168.42,81.84 169,82 L 169,81 C 170.29,79.29 171.07,77.07 174,77 C 177.32,76.68 179.73,77.27 181.23,78.77 z M 160,87 C 163.06,85.9 164.46,78.88 161,77 C 161,77.33 161,77.67 161,78 C 160.42,79.76 162.21,83.88 160,84 C 159.86,85.18 158.22,86.27 160,87 z M 148,78 C 151.69,65.43 167.67,73.38 165.73,83.01 C 165.39,84.65 164.53,86.35 163,88 C 158.35,89.92 150.42,89.34 148,86 L 148,84 C 146.98,84.1 146.59,81.69 146.84,79.9 C 146.99,78.81 147.38,77.94 148,78 z M 142,80 C 142.21,77.13 141.75,74.92 140,74 C 140,74.33 140,74.67 140,75 C 139.45,76.45 141.17,80.17 139,80 C 139.04,81.38 138.53,82.2 138,83 C 141.21,83.88 140.07,80.41 142,80 z M 134.92,67.55 C 140.26,67.55 145.19,74.2 144.62,79.67 C 144.34,82.4 142.68,84.84 139,86 C 133.53,87.72 130.57,84.34 127,82 L 127,80 C 125.36,80.16 125.36,73.84 127,74 C 129.27,69.34 132.15,67.55 134.92,67.55 z M 119,77 C 119,75.33 119,73.67 119,72 C 118.81,71.19 118,71 118,70 C 115.79,70.12 117.58,74.24 117,76 C 118.32,78.5 113.05,79.13 116,80 C 117.44,79.44 118.44,78.44 119,77 z M 121,69 C 123.6,74.28 121.25,82.33 115,82 C 113.55,81.45 109.83,83.17 110,81 L 107,81 C 104.62,78.97 102.49,72.75 105,69 C 106.29,67.29 107.07,65.07 110,65 C 111.28,63.63 114.72,63.63 116,65 C 118.93,65.07 119.71,67.29 121,69 z M 95,79 C 97.98,78.32 98.35,75.02 98,71 C 96.77,69.88 95.95,70.13 96,72 C 96.32,74.32 95.84,75.84 95,77 C 94.39,77.89 93.79,78.79 95,79 z M 100,70 C 101.63,69.55 101.63,75.45 100,75 C 99.67,77.33 98.98,79.31 97,80 L 96,80 C 95.24,81.65 87.76,81.65 87,80 L 85,80 C 84.57,78.1 82.85,77.49 83,75 C 81.37,75.45 81.37,69.55 83,70 C 83.36,66.36 85.36,64.36 89,64 C 88.55,62.37 94.45,62.37 94,64 C 97.64,64.36 99.64,66.36 100,70 z M 74,78 C 74.86,79.91 74.59,76.92 76,77 C 76.35,73.27 72.95,68.12 70,71 C 72.39,72.27 74.07,74.26 74,78 z M 65,66 C 71.57,63.9 80.26,67.88 77,79 C 77.18,79.85 76.61,79.94 76,80 C 67.4,94.68 50.29,70.7 65,66 z M 56,87 C 54.25,90.68 50.39,93.18 47,93 C 24.13,91.76 55.45,55.68 57,86 C 57.18,86.85 56.61,86.94 56,87 z M 55,83 C 54.14,82.19 54.41,80.26 53,80 C 51.82,78.85 49.47,78.87 47,79 C 46.67,79 46.33,79 46,79 C 48.13,81.54 54.25,80.08 54,85 C 54.97,84.97 54.78,83.78 55,83 z M 37,101 C 37,99.33 37,97.67 37,96 C 36.44,94.56 35.44,93.56 34,93 C 32.84,92.84 32.22,93.22 32,94 C 33.44,94.56 34.44,95.56 35,97 C 35,97.33 35,97.67 35,98 C 36.44,98.23 35.35,100.98 37,101 z M 38,94 C 40.96,97.03 37.93,102.55 36,104 L 35,104 C 32.4,110.71 23.1,104.98 21,102 C 16.29,88.84 34.98,84.42 38,94 z M 26,116 C 25.16,114.43 22.07,110.04 20,113 C 23.14,112.86 23.44,115.56 24,118 C 25.65,118.02 24.56,120.77 26,121 C 26,120.67 26,120.33 26,120 C 26,118.67 26,117.33 26,116 z M 27,121 C 25.94,124.35 23.91,126.51 22,127 C 0.8,132.4 13.16,93.7 27,114 C 28.65,114.14 28.65,120.86 27,121 z M 25,136 C 25.54,141.54 24.82,145.82 21,147 C 12.72,150.77 4.86,142.87 8,135 C 9.24,132.91 10.91,131.24 13,130 C 18.24,128.49 24.4,130.08 25,136 z M 23,137 C 22.16,135.43 19.07,131.04 17,134 C 18.76,134.9 20.1,136.24 21,138 C 23.72,137.28 20.28,142.72 23,142 C 23,141.67 23,141.33 23,141 C 23,139.67 23,138.33 23,137 z M 25,158 C 27.44,159.23 25.12,164.02 24,165 L 24,166 C -0.44,178.51 12.31,136.01 25,158 z M 24,160 C 23.93,157.07 21.71,156.29 20,155 C 17.44,154.96 18.78,155.74 19,157 C 20.46,157.87 22.17,158.5 22,161 C 23.23,162.12 24.05,161.87 24,160 z M 26,179 C 28.34,178.74 26.58,174.61 26,174 C 25.67,174 25.33,174 25,174 C 22.1,174.56 26.53,175.56 26,177 C 26,177.67 26,178.33 26,179 z M 27,181 C 24.6,181.6 22.44,182.44 19,182 C 14.03,177.45 19.55,167.79 26,172 C 29.31,171.97 30.65,180.18 27,181 z M 53,272 C 51.22,267.45 47.44,264.9 46,260 C 52.71,247.68 61.7,225.98 48,215 C 49.5,219.48 49.88,228.85 47,232 C 45.35,229.65 44.82,226.18 42,225 C 39.91,228.58 39.98,234.31 34,234 C 37.52,221.22 31.13,210.39 24,205 C 31.21,200.99 43.51,203.29 48,208 C 48,208.33 48,208.67 48,209 C 49.5,208.98 52.09,212.72 53,210 C 51.91,209.75 52.32,208.01 51,208 L 51,207 C 49.76,204.91 48.09,203.24 46,202 C 36.27,192.84 21.21,205.57 12,198 C 12.24,193.57 13.07,189.74 17,189 C 17.69,187.02 19.67,186.33 22,186 L 25,186 C 26.72,184.34 35.28,184.34 37,186 C 54.33,187.01 57.84,201.83 63,215 C 65.21,214.88 63.42,210.76 64,209 C 63.42,207.24 65.21,203.12 63,203 L 63,187 C 67.19,181.19 73.19,177.19 83,177 C 83,177 98.67,176 101,176 C 125.88,176.12 134.87,192.13 142,210 C 142.14,211.86 142.66,213.34 144,214 C 144.32,211.65 145.58,210.25 145,207 C 147.89,185.55 158.1,171.44 181,170 L 188,169 L 206,169 L 214,170 C 224.04,169.63 229.11,174.22 235,178 C 236.91,180.75 239.25,183.09 242,185 C 247.7,191.96 251.23,201.1 252,213 C 256.26,206.59 256.92,196.59 262,191 C 265.09,188.75 267.75,186.09 270,183 C 275.63,179.3 281.6,175.94 291,176 C 295.33,176 299.67,176 304,176 C 326.51,174.96 338.72,189.09 333,213 C 332.67,213 332.33,213 332,213 C 332,214 332,215 332,216 C 333.42,216.09 334.83,216.17 335,215 C 338.78,196.14 353.94,184.35 378,189 C 382.43,188.57 384.33,190.67 385,194 L 385,197 C 383.71,198.71 382.93,200.93 380,201 C 373.69,201.97 372.01,198.32 366,199 L 360,199 C 356.33,199.32 354.47,201.47 351,202 C 348.91,203.24 347.24,204.91 346,207 L 346,208 C 341.62,208.87 346.13,213.38 347,209 C 352.48,205.81 362.44,201.78 371,205 C 373.03,207.51 367.16,208.96 365,213 C 362.17,218.28 361.47,226.09 363,234 C 358.17,233.49 356.25,230.09 356,225 C 352.42,225.42 351.19,228.19 351,232 C 347.13,230.26 347.23,220.15 349,216 C 329.69,226.77 356.58,255.07 344,270 C 343,270.96 342.94,271.88 341,272 C 341,272 72,272 53,272 z "
           style="fill:#ffffff"
           id="Perlen_Hutrand" />
        <path
           d="M 386,146 C 386,144.33 386,142.67 386,141 C 385.81,140.19 385,140 385,139 C 382.57,140.57 385.42,147.41 382,148 C 382.1,149.9 385.9,147.38 386,146 z M 380,127 C 381.44,126.44 382.44,125.44 383,124 C 383,122.33 383,120.67 383,119 C 381.28,114.4 380.52,119.8 381,123 C 382.32,125.5 377.05,126.13 380,127 z M 379,165 C 379,165.33 379,165.67 379,166 C 379.18,166.85 378.61,166.94 378,167 C 380.68,169.88 383.94,160.88 381,158 C 378.14,158.14 381.86,164.86 379,165 z M 376,179 C 376,179.33 376,179.67 376,180 C 374.25,183.62 376.67,183.62 377,180 C 377.33,180 377.67,180 378,180 C 378,179.67 378,179.33 378,179 C 377.03,178.97 377.22,177.78 377,177 C 376.03,177.03 376.22,178.22 376,179 z M 369,107 C 372.87,105.84 372.87,98.16 369,97 C 370.15,99.8 370.15,102.2 369,105 C 368.38,105.89 367.79,106.79 369,107 z M 353,92 C 355.31,92.31 354.11,89.11 356,89 C 356.21,86.13 355.75,83.92 354,83 C 352.06,84.08 355.91,89.92 352,91 C 351.82,91.85 352.39,91.94 353,92 z M 334,83 C 334,82.67 334,82.33 334,82 C 334,80.67 334,79.33 334,78 C 334,77.67 334,77.33 334,77 C 333.11,76.39 332.21,75.79 332,77 C 332.48,80.82 331.72,83.38 330,85 C 332.73,85.73 332.01,83.01 334,83 z M 312,80 C 312,79.67 312,79.33 312,79 C 312,77.67 312,76.33 312,75 C 312,74.67 312,74.33 312,74 C 310.77,72.88 309.95,73.13 310,75 C 310.65,78.65 309.33,80.33 308,82 C 310.73,82.73 310.01,80.01 312,80 z M 304,223 C 297.96,221.71 294.54,217.79 292,213 C 290.83,217.16 291.18,222.84 288,225 C 285.71,217.96 286.3,208.03 282,203 C 276.28,212.06 283.92,221.67 283,231 C 282.13,239.81 274.79,248.58 282,257 C 283.91,259.75 286.25,262.09 289,264 C 290.39,264.61 289.15,267.85 291,268 C 295.94,262.9 294.84,256.84 298,249 C 303.25,235.99 319.2,228.98 308,210 C 308.35,216.02 306.61,219.95 304,223 z M 289,74 C 288,74 287.81,73.19 287,73 C 286.42,74.76 288.21,78.88 286,79 C 286.04,80.38 285.53,81.2 285,82 C 288.86,81.86 289.1,78.1 289,74 z M 275,192 C 271.91,194.25 269.25,196.91 267,200 C 267.39,201.72 265.52,202.56 267,203 C 275.38,196.72 284.77,191.43 299,191 C 300.67,191 302.33,191 304,191 C 315.73,190.93 322.46,195.88 330,200 C 325.14,181.36 288.87,182.07 275,192 z M 267,80 C 267,79.33 267,78.67 267,78 C 267,77.67 267,77.33 267,77 C 266.03,76.97 266.22,75.78 266,75 C 263.57,76.57 266.42,83.41 263,84 C 263.62,85.83 267.18,82.27 267,80 z M 244,85 C 244,83 244,81 244,79 C 242.74,78.78 241.96,77.44 242,80 C 242.65,83.65 241.33,85.33 240,87 C 242.73,87.73 242.01,85.01 244,85 z M 196.33,179.67 C 153,181 157,202.33 157,202.33 C 157,202.33 166.33,188 198.67,188 C 231,188 240,205.67 240,201.33 C 240,197 239.67,178.33 196.33,179.67 z M 209,203 C 200.6,204.94 203.75,218.42 197,222 C 197.1,218.9 196.55,216.45 195,215 C 192.44,217.1 192.48,221.81 190,224 C 184.46,218.21 182.63,208.7 180,200 C 178.29,201.29 176.07,202.07 176,205 C 175.71,215.62 179.85,221.81 183,229 C 183,231.33 183,233.67 183,236 C 181.24,239.81 180.45,243.34 183,247 C 184.62,251.72 188.72,253.95 192,257 C 194.04,260.29 195.65,264.01 198,267 C 199.32,264.32 200.68,261.68 202,259 C 203.64,259.16 203.64,252.84 202,253 C 199.97,234.3 209.64,227.31 211,212 C 212.98,210.92 212.89,198.21 209,203 z M 201,110 C 201.58,113.91 200.14,115.81 199,118 C 201.5,118.17 202.13,116.46 203,115 C 203,113.33 203,111.67 203,110 C 203,109.67 203,109.33 203,109 C 201.74,108.78 200.96,107.44 201,110 z M 200,130 C 201.63,129.55 201.63,135.45 200,135 C 200.73,137.73 198.01,137.01 198,139 C 203.78,140.41 204.48,127.31 200,130 z M 181,86 C 181.59,83.63 179.84,78.65 179,81 C 178.45,82.45 180.17,86.17 178,86 C 178.28,87.62 177.05,87.72 177,89 C 180.21,89.88 179.07,86.41 181,86 z M 160,87 C 163.06,85.9 164.46,78.88 161,77 C 161,77.33 161,77.67 161,78 C 160.42,79.76 162.21,83.88 160,84 C 159.86,85.18 158.22,86.27 160,87 z M 142,80 C 142.21,77.13 141.75,74.92 140,74 C 140,74.33 140,74.67 140,75 C 139.45,76.45 141.17,80.17 139,80 C 139.04,81.38 138.53,82.2 138,83 C 141.21,83.88 140.07,80.41 142,80 z M 101,186 C 71,186 72,203 72,203 C 72,203 81.67,193 101.33,193 C 121,193 131,206 131,206 C 131,206 131,186 101,186 z M 116,80 C 117.44,79.44 118.44,78.44 119,77 C 119,75.33 119,73.67 119,72 C 118.81,71.19 118,71 118,70 C 115.79,70.12 117.58,74.24 117,76 C 118.32,78.5 113.05,79.13 116,80 z M 95,79 C 97.98,78.32 98.35,75.02 98,71 C 96.77,69.88 95.95,70.13 96,72 C 96.32,74.32 95.84,75.84 95,77 C 94.39,77.89 93.79,78.79 95,79 z M 74,78 C 74.86,79.91 74.59,76.92 76,77 C 76.35,73.27 72.95,68.12 70,71 C 72.39,72.27 74.07,74.26 74,78 z M 54,85 C 54.97,84.97 54.78,83.78 55,83 C 54.14,82.19 54.41,80.26 53,80 C 51.82,78.85 49.47,78.87 47,79 C 46.67,79 46.33,79 46,79 C 48.13,81.54 54.25,80.08 54,85 z M 35,97 C 35,97.33 35,97.67 35,98 C 36.44,98.23 35.35,100.98 37,101 C 37,99.33 37,97.67 37,96 C 36.44,94.56 35.44,93.56 34,93 C 32.84,92.84 32.22,93.22 32,94 C 33.44,94.56 34.44,95.56 35,97 z M 25,174 C 22.1,174.56 26.53,175.56 26,177 C 26,177.67 26,178.33 26,179 C 28.34,178.74 26.58,174.61 26,174 C 25.67,174 25.33,174 25,174 z M 24,118 C 25.65,118.02 24.56,120.77 26,121 C 26,120.67 26,120.33 26,120 C 26,118.67 26,117.33 26,116 C 25.16,114.43 22.07,110.04 20,113 C 23.14,112.86 23.44,115.56 24,118 z M 21,138 C 23.72,137.28 20.28,142.72 23,142 C 23,141.67 23,141.33 23,141 C 23,139.67 23,138.33 23,137 C 22.16,135.43 19.07,131.04 17,134 C 18.76,134.9 20.1,136.24 21,138 z M 20,155 C 17.44,154.96 18.78,155.74 19,157 C 20.46,157.87 22.17,158.5 22,161 C 23.23,162.12 24.05,161.87 24,160 C 23.93,157.07 21.71,156.29 20,155 z M 369,271 C 368.99,269.01 366.27,269.73 367,267 C 367,264 367,261 367,258 C 374.98,246.62 371.42,234.97 370,219 C 381.35,211.07 405.38,194.38 381,184 C 383.71,180.27 382.93,174.98 380,172 C 387.11,170.48 388.93,159.25 384,154 C 394.66,151.1 392.82,134.47 384,131 C 393.3,123.46 387.64,107.68 376,107 C 375.96,105.62 376.47,104.8 377,104 L 377,99 C 375.57,91.76 370.6,88.06 361,89 C 359.62,92.18 360.01,85.47 360,84 C 358.32,74.59 346.87,72.3 339,77 C 339.07,71.27 334.79,69.88 332,67 L 324,67 C 319.78,67.12 318.94,70.61 316,72 C 314.06,61.13 296.55,62.82 293,71 C 291.78,67.22 288.93,65.07 285,64 L 279,64 C 276.52,65.52 273.05,66.05 272,69 C 271.47,69.8 270.96,70.62 271,72 C 269.24,71.1 267.9,69.76 267,68 C 260.18,64.25 251.85,67.25 249,73 C 248.81,73.81 248,74 248,75 C 246.24,74.1 244.9,72.76 244,71 C 242.11,71.22 241.79,69.87 240,70 L 234,70 C 229.24,71.24 227.01,75.01 225,79 C 223.5,76.83 219.26,77.4 219,74 C 225.7,67.55 219.97,57.6 216,53 C 214.76,50.91 213.09,49.24 211,48 C 206.44,47.54 204.21,43.19 203.27,38.21 C 202.47,33.93 202.6,29.17 203,26 C 208.04,26.63 216,30 216,30 L 216,12 C 216,12 208.32,14.66 203,15 C 204.29,9.63 208,0 208,0 L 185,0 C 185,0 191.07,13.14 190,15 C 184.48,14.026 177,12 177,12 L 177,30 C 177,30 184.55,26.22 190,26 C 190,26 189.33,40.17 189.01,41.66 C 187.89,46.92 183.06,47.91 178,52 C 171.51,57.24 168.37,68.45 170,68 C 168.75,71.35 175.07,72.13 172,74 C 167.21,78.65 164.41,68.68 158,68 C 153.25,67.5 151.12,70.17 146,72 C 145.25,68.08 142.05,66.62 139,65 L 134.92,65 L 132,65 C 129.22,66.22 126.49,67.49 125,70 C 124.95,68.72 123.72,68.62 124,67 C 121.72,65.61 120.13,63.54 118,62 C 111.19,58.68 106.32,63.73 102,66 C 97.51,56.67 81.22,59.89 79,69 C 78.5,64.83 74.48,64.19 71,63 L 66,63 C 60.23,64.23 57.74,68.74 56,74 C 49.02,68.8 38.3,72.33 36,80 C 35.88,81.66 36.55,89.06 35,86 C 27.13,83.83 21.29,87.79 18,93 L 18,101 C 18.52,102.48 19.48,103.52 20,105 C 13.63,105.63 9.79,108.79 7,113 L 7,121 C 8.12,123.54 9.46,125.88 11,128 C 1.75,130.89 2.83,146.84 11,150 C 2.81,155.84 6.09,170.61 16,172 C 12.51,175.05 14.89,180.18 16,184 C 14.62,183.96 13.8,184.47 13,185 C 10.87,186.54 9.28,188.61 7,190 C -3.2,207.91 19.34,205.08 26,216 C 32.31,226.36 24.31,231.27 24,240 C 23.68,249.06 35.95,261.87 29,270 C 23.2,274.86 7.34,269.67 0,273 L 0,553 C 0.3,553.1 0.75,560.01 1,561 C 3.98,585.3 11.38,605.18 21.29,622.55 C 53.68,682.97 119.73,722.33 196.5,722.33 C 290.88,722.33 369.78,661.82 389.34,578.25 C 391.901,568.84 393.83,558.8 395,548 L 395,274 C 388.81,270.53 373.6,276.07 369,271 z M 374,168 C 365.97,165.15 372.09,151.16 380,156 C 388.28,158.36 382.25,173.69 374,168 z M 379,181 C 378.54,185.23 368.46,185.23 368,181 L 368,177 C 368.12,174.46 369.46,173.12 372,173 L 377,173 C 378.71,175.49 380.49,177.91 379,181 z M 388,146 C 388.18,146.85 387.61,146.94 387,147 L 387,148 C 385.93,150.27 383.97,151.63 381,152 C 368.68,153.91 367.5,138.28 375,134 C 385.16,132.25 389.95,138.68 388,146 z M 379,112 C 382.64,112.36 384.64,114.36 385,118 C 386.63,117.55 386.63,123.45 385,123 C 383.57,131.67 369.43,131.67 368,123 C 366.37,123.45 366.37,117.55 368,118 C 368.36,114.36 370.36,112.36 374,112 C 373.55,110.37 379.45,110.37 379,112 z M 363,110 C 359.63,106.47 355.22,104.64 356,99 C 359.13,76.53 390.57,111.58 363,110 z M 357,89 C 357.16,90.16 356.78,90.78 356,91 C 353.71,98.31 344.17,95.67 340,92 C 331.3,76.71 360.41,71.62 357,89 z M 323,70 C 328.28,68.08 336.96,69.43 336,81 C 336.16,82.16 335.78,82.78 335,83 C 330.36,99.11 306.87,75.87 323,70 z M 302,68 C 301.84,66.36 308.16,66.36 308,68 C 310.89,68.44 312.56,70.11 313,73 C 314.65,73.14 314.65,79.86 313,80 C 311.75,86.9 306.23,83.32 299,84 C 294.32,80.4 295.06,68.44 302,68 z M 288,84 L 284,84 C 284.16,85.64 277.84,85.64 278,84 C 257.01,67.73 303.18,58.35 288,84 z M 268,75 C 269.17,75.16 268.84,76.82 269,78 C 270.2,89.49 255.04,90.21 251,83 C 247.37,69.08 264.56,65.16 268,75 z M 229,79 C 232.06,66.17 253.92,76.52 245,87 C 244.99,88.99 242.27,88.27 243,91 L 233,91 C 232.38,88.29 228.82,88.51 229,85 C 227.36,85.16 227.36,78.84 229,79 z M 290,88 C 329.71,86.16 366.54,98.82 364,141 L 364,147 C 364.06,160.73 362.17,172.5 359,183 C 352.23,185.68 343.51,191.36 339,193 C 344.87,174.76 351.96,156.11 349,132 C 342.06,75.42 254.14,103.16 207,105 C 203.7,102.56 206.77,100.15 208,97 C 210.04,94.71 216.3,96.64 220,96 C 241.54,98.55 266.1,89.11 290,88 z M 203,144 C 202.9,141.88 215.58,126.8 203,123 C 205.09,121.09 207.44,119.44 208,116 C 210.14,129.53 211.53,152.46 221,162 C 218.5,164.1 214.03,159.68 209,161 C 213.83,153.43 203.1,146.05 203,144 z M 204,154 C 202.11,153.89 203.31,150.69 201,151 C 202.04,153.83 202.04,155.17 201,158 C 200.49,161.49 194.47,159.47 191,160 L 186,160 C 185.09,152.09 187.19,147.19 193,146 C 192.84,144.36 199.16,144.36 199,146 C 204.15,146.41 209.05,155.83 204,160 C 199.41,159.96 205.47,157.16 204,154 z M 183,161 C 178.88,160.21 177.87,162.54 174,162 C 180.86,150.86 184.12,136.12 184,118 C 185.75,115.36 185.18,123.41 189,122 C 184.13,126.51 181.26,139.29 189,143 C 184.74,146.74 181.63,151.63 183,161 z M 206,85 C 202.01,80.08 191.37,78.27 187,84 C 186.62,81.16 185.38,79.2 183.78,77.59 C 181.74,75.51 179.11,74.01 177,72 C 189.34,72.66 204.33,70.67 215,73 C 213.07,78.07 205.43,77.44 206,85 z M 188,130 C 203.36,107.38 214.01,155.6 188,138 L 188,136 C 186.36,136.16 186.36,129.84 188,130 z M 191,120 C 189.29,118.71 187.07,117.93 187,115 C 181.48,103.18 202.72,96.61 205,109 C 206.63,108.55 206.63,114.45 205,114 L 205,115 C 204.93,117.93 202.71,118.71 201,120 C 197.71,122.09 194.29,122.09 191,120 z M 191,84 C 203.15,80.25 209.24,93.76 202,100 C 197.58,99.45 205.7,96.27 203,91 C 199.06,87.18 202.71,96.59 200,97 L 200,98 C 197.83,100.16 190.99,97.66 190,101 C 183.14,98.19 186.32,86.56 191,84 z M 222.33,80.32 C 222.559,80.53 222.78,80.76 223,81 L 223,83 C 225.32,85.72 223.94,93.23 219,92 C 219.01,90.01 221.73,90.73 221,88 L 222,88 C 222.54,84.46 221.15,82.85 219,82 C 221.11,85.89 219.17,89.61 217,92 L 211,92 C 209.12,89.7 208.59,87.32 208.94,85.19 C 209.9,79.48 217.25,75.62 222.33,80.32 z M 203,51 C 210.25,49.42 214,55.041 214,58 C 210.068,58 203,58 203,58 L 203,51 z M 191.5,42.28 C 192.9,36.75 193.33,30.25 193,23 C 187.08,22.41 179,25 179,25 L 179,16 L 193,18 L 190,3 L 203,3 C 201.34,7.67 200,18 200,18 L 213,16 L 213,25 L 200,23 C 200,23 199.28,33.45 200.42,38.8 C 201.04,41.69 203,47 203,47 L 190,47 C 190,47 191.09,43.94 191.5,42.28 z M 190,51 L 190,58 L 179,58 C 180.71,53.71 183.17,50.17 190,51 z M 174,62 L 193,62 L 193,51 L 200,51 L 200,62 L 218,62 L 218,67 L 174,67 L 174,62 z M 167.88,83.36 C 168.05,82.48 168.42,81.84 169,82 L 169,81 C 170.29,79.29 171.07,77.07 174,77 C 177.32,76.68 179.73,77.27 181.23,78.77 C 182.73,80.27 183.32,82.68 183,86 C 183.27,90.31 176.49,92.77 173,90 L 170,90 C 169.47,89.2 168.96,88.38 169,87 C 167.95,87.29 167.58,84.94 167.88,83.36 z M 146.84,79.9 C 146.99,78.81 147.38,77.94 148,78 C 151.69,65.43 167.67,73.38 165.73,83.01 C 165.39,84.65 164.53,86.35 163,88 C 158.35,89.92 150.42,89.34 148,86 L 148,84 C 146.98,84.1 146.59,81.69 146.84,79.9 z M 127,74 C 129.27,69.34 132.15,67.55 134.92,67.55 C 140.26,67.55 145.19,74.2 144.62,79.67 C 144.34,82.4 142.68,84.84 139,86 C 133.53,87.72 130.57,84.34 127,82 L 127,80 C 125.36,80.16 125.36,73.84 127,74 z M 105,69 C 106.29,67.29 107.07,65.07 110,65 C 111.28,63.63 114.72,63.63 116,65 C 118.93,65.07 119.71,67.29 121,69 C 123.6,74.28 121.25,82.33 115,82 C 113.55,81.45 109.83,83.17 110,81 L 107,81 C 104.62,78.97 102.49,72.75 105,69 z M 94,64 C 97.64,64.36 99.64,66.36 100,70 C 101.63,69.55 101.63,75.45 100,75 C 99.67,77.33 98.98,79.31 97,80 L 96,80 C 95.24,81.65 87.76,81.65 87,80 L 85,80 C 84.57,78.1 82.85,77.49 83,75 C 81.37,75.45 81.37,69.55 83,70 C 83.36,66.36 85.36,64.36 89,64 L 94,64 z M 183,95 C 182.63,100.13 188,101.08 185,106 C 164.46,100.43 129.27,100.47 103,97 L 94,97 C 39.92,91 34.81,152.24 56,188 C 51.76,191.08 46.15,179.54 36,182 C 26.92,157.22 26.05,120.88 40,105 C 70.82,69.91 132.94,93.49 183,95 z M 65,66 C 71.57,63.9 80.26,67.88 77,79 C 77.18,79.85 76.61,79.94 76,80 C 67.4,94.68 50.29,70.7 65,66 z M 57,86 C 57.18,86.85 56.61,86.94 56,87 C 54.25,90.68 50.39,93.18 47,93 C 24.13,91.76 55.45,55.68 57,86 z M 38,94 C 40.96,97.03 37.93,102.55 36,104 L 35,104 C 32.4,110.71 23.1,104.98 21,102 C 16.29,88.84 34.98,84.42 38,94 z M 27,114 C 28.65,114.14 28.65,120.86 27,121 C 25.94,124.35 23.91,126.51 22,127 C 0.8,132.4 13.16,93.7 27,114 z M 27,181 C 24.6,181.6 22.44,182.44 19,182 C 14.03,177.45 19.55,167.79 26,172 C 29.31,171.97 30.65,180.18 27,181 z M 8,135 C 9.24,132.91 10.91,131.24 13,130 C 18.24,128.49 24.4,130.08 25,136 C 25.54,141.54 24.82,145.82 21,147 C 12.72,150.77 4.86,142.87 8,135 z M 25,158 C 27.44,159.23 25.12,164.02 24,165 L 24,166 C -0.44,178.51 12.31,136.01 25,158 z M 194,713 C 126.89,711.74 75.53,682.51 44,644 C 31.73,629.01 19.94,609.74 12.98,588.47 C 10.31,579.9 8.45,571.03 7.65,562 L 7.65,486.01 C 7.43,486.75 7.21,487.49 7,488.24 L 7,279 L 194,279 L 194,713 z M 36,271 C 38.66,270 39.3,266.96 41,265 C 43.53,265.8 43.55,269.12 45,271 C 44.24,272.65 36.76,272.65 36,271 z M 351,272 C 351.52,268.86 352.75,266.42 354,264 C 355.84,265.5 356.49,268.17 359,269 C 364.26,273.27 355.34,271.76 351,272 z M 365,213 C 362.17,218.28 361.47,226.09 363,234 C 358.17,233.49 356.25,230.09 356,225 C 352.42,225.42 351.19,228.19 351,232 C 347.13,230.26 347.23,220.15 349,216 C 329.69,226.77 356.58,255.07 344,270 C 343,270.96 342.94,271.88 341,272 C 326.32,272.88 247,272 112,272 C 112.68,265.32 109.23,262.77 108,258 C 108,254.67 108,251.33 108,248 C 116.01,239.08 116.28,222.45 111,210 C 105.44,214.78 102.75,222.42 100,230 C 96.49,230.18 96.71,226.62 94,226 C 90.7,220.96 88.97,214.36 89,206 C 77.75,212.32 88.31,227.47 89,237 C 89.58,238.76 87.79,242.88 90,243 C 86.41,262.92 107.17,258.5 110,272 C 91,272 72,272 53,272 C 51.22,267.45 47.44,264.9 46,260 C 52.71,247.68 61.7,225.98 48,215 C 49.5,219.48 49.88,228.85 47,232 C 45.35,229.65 44.82,226.18 42,225 C 39.91,228.58 39.98,234.31 34,234 C 37.52,221.22 31.13,210.39 24,205 C 31.21,200.99 43.51,203.29 48,208 C 48,208.33 48,208.67 48,209 C 49.5,208.98 52.09,212.72 53,210 C 51.91,209.75 52.32,208.01 51,208 L 51,207 C 49.76,204.91 48.09,203.24 46,202 C 36.27,192.84 21.21,205.57 12,198 C 12.24,193.57 13.07,189.74 17,189 C 17.69,187.02 19.67,186.33 22,186 L 25,186 C 26.72,184.34 35.28,184.34 37,186 C 54.33,187.01 57.84,201.83 63,215 C 65.21,214.88 63.42,210.76 64,209 C 63.42,207.24 65.21,203.12 63,203 L 63,187 C 67.19,181.19 73.19,177.19 83,177 C 83,177 98.67,176 101,176 C 125.88,176.12 134.87,192.13 142,210 C 142.14,211.86 142.66,213.34 144,214 C 144.32,211.65 145.58,210.25 145,207 C 147.89,185.55 158.1,171.44 181,170 L 188,169 L 206,169 L 214,170 C 224.04,169.63 229.11,174.22 235,178 C 236.91,180.75 239.25,183.09 242,185 C 247.7,191.96 251.23,201.1 252,213 C 256.26,206.59 256.92,196.59 262,191 C 265.09,188.75 267.75,186.09 270,183 C 275.63,179.3 281.6,175.94 291,176 C 295.33,176 299.67,176 304,176 C 326.51,174.96 338.72,189.09 333,213 C 332.67,213 332.33,213 332,213 C 332,214 332,215 332,216 C 333.42,216.09 334.83,216.17 335,215 C 338.78,196.14 353.94,184.35 378,189 C 382.43,188.57 384.33,190.67 385,194 L 385,197 C 383.71,198.71 382.93,200.93 380,201 C 373.69,201.97 372.01,198.32 366,199 L 360,199 C 356.33,199.32 354.47,201.47 351,202 C 348.91,203.24 347.24,204.91 346,207 L 346,208 C 341.62,208.87 346.13,213.38 347,209 C 352.48,205.81 362.44,201.78 371,205 C 373.03,207.51 367.16,208.96 365,213 z "
           id="Kontur" />
        <text
           transform="translate(201.667,293.333)"
           id="text6">
          <tspan
             x="0"
             y="0"
             style="font-size:12px;fill:#ffffff;font-family:Myriad-Roman"
             id="tspan8">Wappen von Salzburg</tspan>
          <tspan
             x="0"
             y="14.4"
             style="font-size:12px;fill:#ffffff;font-family:Myriad-Roman"
             id="tspan10">David Liuzzo 2006</tspan>
        </text>
        <path
           d="M 179,108 C 184.938,154.605 157.434,167.768 142,193 C 131.772,175.263 97.358,162.654 72,173 C 66.218,175.359 63.522,179.852 58,181 C 51.516,163.605 44.758,136.175 53,120 C 71.444,83.807 137.208,110.942 179,108 z "
           style="fill:#c70c1e;fill-rule:evenodd"
           id="Hut" />
        <path
           d="M 338,182 C 319.892,169.437 287.919,162.841 268,178 C 261.363,183.05 260.156,189.568 253,194 C 237.396,167.617 209.946,156.757 213,109 C 251.786,111.422 303.016,88.173 332,109 C 350.51,122.3 345.564,158.884 338,182 z "
           style="fill:#c70c1e;fill-rule:evenodd"
           id="Hut_1_" />
        <path
           d="M 7,279 L 194,279 C 194,279 194,568.333 194,713 C 126.888,711.743 75.531,682.507 44,644 C 26.431,622.544 9.843,592.303 7,560 L 7,279 z "
           style="fill:#f5be15;fill-rule:evenodd"
           id="Gelb" />
        <path
           d="M 380,543 C 366.063,644.63 299.678,704.693 199,713 C 199,657.333 199,543 199,543 L 380,543 z "
           style="fill:#c70c1e;fill-rule:evenodd"
           id="Rot_1_" />
        <rect
           width="181"
           height="125"
           x="199"
           y="413"
           style="fill:#cbcbc9;fill-rule:evenodd"
           id="Silber" />
        <rect
           width="181"
           height="128"
           x="199"
           y="279"
           style="fill:#c70c1e;fill-rule:evenodd"
           id="Rot_2_" />
        <g
           id="Löwe">
          <g
             id="Grau">
            <path
               d="M 151,591 C 154.294,586.466 148.166,584.248 145,583 C 144.117,577.506 154.696,571.85 147,569 C 143.352,567.314 142.429,562.904 143,557 C 141.342,558.725 141.342,567.275 143,569 C 143.241,570.759 144.721,571.279 147,571 C 147.178,574.511 143.622,574.289 143,577 C 142.128,579.479 141.047,584.753 143,587 C 142.832,589.169 146.547,587.453 148,588 C 147.51,590.844 144.87,591.537 142,592 C 142,596.667 142,601.333 142,606 C 143.329,604.996 145.721,605.055 146,603 C 146,600.667 146,598.333 146,596 C 148.092,594.759 149.758,593.092 151,591 z "
               style="fill:#cbcbc9"
               id="path20" />
            <path
               d="M 107,482 C 117.115,477.681 114.212,459.686 110,451 C 109.027,451.027 109.224,452.224 109,453 C 107.359,452.836 107.359,459.164 109,459 C 109,460 109,461 109,462 C 109,464 109,466 109,468 C 107.758,471.091 105.699,473.365 103,475 C 101.573,475.239 101.313,476.646 100,477 C 101.578,479.423 103.578,481.423 106,483 C 106.61,482.943 107.184,482.851 107,482 z "
               style="fill:#cbcbc9"
               id="path22" />
            <path
               d="M 81,409 C 82.242,411.092 83.908,412.759 86,414 C 86.19,414.81 87.003,414.997 87,416 C 89.365,413.698 90.2,409.867 92,407 C 96.328,406.974 102.852,414.401 105,410 C 105,408.333 105,406.667 105,405 C 105.839,403.839 106.319,402.319 106,400 C 108.198,397.787 109.322,401.753 112,402 C 113.44,401.44 114.44,400.44 115,399 C 116.975,398.309 117.666,396.333 118,394 C 118.584,392.231 123.332,385.581 119,388 C 116.578,389.577 114.578,391.577 113,394 C 112.471,394.804 111.957,395.623 112,397 C 109.322,396.345 108.198,394.136 106,393 C 102.349,395.682 100.858,400.524 100,406 C 96.86,406.473 97.358,403.309 95,403 C 94.149,403.184 94.057,402.61 94,402 C 92.009,403.009 89.729,403.729 89,406 C 86.371,405.704 88.213,409.88 85,409 C 81.498,399.659 74.033,410.723 69,412 C 67.273,409.688 65.177,402.541 62,405 C 64.995,405.658 61.043,407.138 62,409 C 64.234,411.766 65.892,415.108 67,419 C 73.079,417.079 75.831,411.831 81,409 z "
               style="fill:#cbcbc9"
               id="path24" />
            <path
               d="M 163,607 C 162.845,609.802 165.827,610.262 167,609 C 169.092,607.759 170.758,606.092 172,604 C 172.677,601.677 175.323,601.323 176,599 C 171.341,599.341 167.083,600.083 164,602 C 162.04,601.517 160.779,606.584 163,607 z "
               style="fill:#cbcbc9"
               id="path26" />
            <path
               d="M 141,447 C 139,442.495 135.206,429.695 131,434 C 128.285,433.284 131.715,438.716 129,438 C 127.775,431.226 124.134,426.866 123,420 C 120.229,422.563 118.267,425.934 117,430 C 104.134,428.801 100.748,437.082 97,445 C 93.463,444.204 93.337,439.996 90,439 C 86.796,439.463 86.474,442.808 83,443 C 83.739,436.594 81.771,432.896 78,431 C 75.64,437.282 82.798,443.161 77,449 C 82.633,452.931 87.096,447.123 90,445 C 90.458,448.542 92.225,450.775 92,455 C 102.933,451.545 102.458,431.532 117,435 C 119.267,433.934 120.634,431.967 121,429 C 124.484,431.849 125.808,436.859 127,442 C 128.71,442.044 129.59,441.257 130,440 C 129.533,437.866 131.429,438.096 133,438 C 133.898,442.102 136.059,444.941 138,448 C 139.578,450.423 141.578,452.423 144,454 C 145.987,454.013 145.271,456.729 148,456 C 148.055,454.722 149.282,454.615 149,453 C 148.667,453 148.333,453 148,453 C 145.427,451.239 143.682,448.651 141,447 z "
               style="fill:#cbcbc9"
               id="path28" />
            <path
               d="M 129,342 C 128.779,341.221 128.163,340.837 127,341 C 122.578,347.578 117.944,353.944 118,365 C 124.654,360.32 128.461,352.795 129,342 z "
               style="fill:#cbcbc9"
               id="path30" />
            <path
               d="M 52,488 C 47.717,488.727 49.889,493.301 53,490 C 59.854,488.474 59.19,477.938 62,472 C 64.184,467.384 70.547,464.571 68,462 C 55.867,463.867 58.448,480.448 52,488 z "
               style="fill:#cbcbc9"
               id="path32" />
            <path
               d="M 47,424 C 45.242,424.575 41.125,422.791 41,425 C 40,425 39,425 38,425 C 35.09,425.064 33.96,438.446 36,434 C 37.386,432.386 38.833,430.834 40,429 C 46.165,427.498 55.148,428.814 56,422 C 52.023,421.689 50.977,424.311 47,424 z "
               style="fill:#cbcbc9"
               id="path34" />
            <path
               d="M 146,315 C 144.612,316.279 145.388,319.721 144,321 C 146.984,320.984 147.4,318.4 150,318 C 150.588,312.079 148.332,309.001 146,306 C 143.553,309.887 141.027,313.693 139,318 C 142.139,317.805 141.711,314.044 146,315 z "
               style="fill:#cbcbc9"
               id="path36" />
            <path
               d="M 49,337 C 48.941,350.059 55.481,356.519 61,364 C 58.761,353.239 55.842,343.158 49,337 z "
               style="fill:#cbcbc9"
               id="path38" />
            <path
               d="M 82,538 C 81,538 80,538 79,538 C 76.048,540.715 74.893,545.227 73,549 C 71.096,548.571 70.488,546.846 68,547 C 68.665,554.335 73.829,557.171 81,558 C 81.826,555.174 79.591,555.409 80,553 C 80,551.333 80,549.667 80,548 C 83.441,544.108 89.511,542.845 91,537 C 90,537 89,537 88,537 C 86.242,537.575 82.125,535.791 82,538 z "
               style="fill:#cbcbc9"
               id="path40" />
            <path
               d="M 101,541 C 110.913,541.913 113.81,535.81 117,530 C 109.472,531.472 104.578,535.577 101,541 z "
               style="fill:#cbcbc9"
               id="path42" />
            <path
               d="M 139,395 C 139.178,392.109 135.622,389.49 135,393 C 132.667,393 130.333,393 128,393 C 128.899,396.853 133.098,399.365 136,396 C 138.447,398.554 137.079,404.921 140,407 C 145.21,407.543 149.035,406.701 152,405 C 154.497,404.309 150.144,402.333 151,400 C 146.563,405.581 139.459,401.609 139,395 z "
               style="fill:#cbcbc9"
               id="path44" />
            <path
               d="M 163,560 C 164.292,555.958 165.734,552.067 166,547 C 168.206,546.942 167.183,536.669 165,541 C 159.075,542.678 158.167,556.282 163,560 z "
               style="fill:#cbcbc9"
               id="path46" />
            <path
               d="M 117,507 C 118.816,514.517 119.993,522.674 127,525 C 127.333,525 127.667,525 128,525 C 128.239,523.573 129.647,523.313 130,522 C 128.913,513.42 123.516,509.15 119,504 C 118.761,505.427 117.354,505.687 117,507 z "
               style="fill:#cbcbc9"
               id="path48" />
            <path
               d="M 97,307 C 97.027,307.973 98.224,307.776 99,308 C 98.549,309.633 104.451,309.633 104,308 C 105.793,308.127 106.109,306.776 108,307 C 108.18,310.26 105.649,311.813 110,312 C 114.47,312.168 112.581,308.481 111,307 C 110.816,306.149 111.39,306.057 112,306 C 114.242,307.091 113.758,310.909 116,312 C 110.855,316.904 105.152,311.027 99,311 C 98.667,311 98.333,311 98,311 C 98.656,314.677 101.687,315.98 104,318 C 104.044,316.29 103.257,315.41 102,315 C 106.203,314.145 114.508,317.348 120,314 C 118.066,310.601 116.149,307.184 113,305 C 113.164,303.359 106.836,303.359 107,305 C 104.652,305.319 103.247,306.58 100,306 C 99.471,305.196 98.957,304.376 99,303 C 97.624,302.957 96.804,303.471 96,304 C 95.914,305.419 95.835,306.832 97,307 z "
               style="fill:#cbcbc9"
               id="path50" />
            <path
               d="M 74,595 C 69.659,596.896 79.07,598.374 79,596 C 81.554,592.554 83.183,588.183 83,582 C 77.941,584.274 75.945,589.612 74,595 z "
               style="fill:#cbcbc9"
               id="path52" />
            <path
               d="M 72,610 C 71.686,611.352 70.577,611.91 71,614 C 69.637,615.273 69.456,618.898 72,619 C 72.221,618.221 72.837,617.838 74,618 C 74,615.667 74,613.333 74,611 C 73.779,610.221 73.163,609.838 72,610 z "
               style="fill:#cbcbc9"
               id="path54" />
            <path
               d="M 147,325 C 146.211,327.211 143.502,327.502 142,329 C 140.247,329.914 138.526,330.859 139,334 C 140.329,335.299 142.721,335.318 143,333 C 143.81,332.81 143.997,331.997 145,332 C 147.422,330.422 149.422,328.422 151,326 C 151,325 151,324 151,323 C 150.776,322.224 150.973,321.027 150,321 C 148.648,321.982 148.001,323.668 147,325 z "
               style="fill:#cbcbc9"
               id="path56" />
          </g>
          <g
             id="Bewehrung">
            <path
               d="M 40,296 C 44.267,296.733 46.917,299.083 47,304 C 44.644,303.978 44.056,305.723 41,305 C 40.159,302.508 39.691,299.643 40,296 z "
               style="fill:#c70c1e;fill-rule:evenodd"
               id="path59" />
            <path
               d="M 27,307 C 25.758,309.092 24.092,310.758 22,312 C 17.646,311.354 17.201,306.799 13,306 C 16.381,301.203 23.576,303.858 27,307 z "
               style="fill:#c70c1e;fill-rule:evenodd"
               id="path61" />
            <path
               d="M 70,323 C 73.921,322.079 70.726,328.274 73,329 C 78.25,341.083 108.742,327.924 111,343 C 99.823,331.993 66.334,350.331 66,326 C 67.332,324.999 69.018,324.352 70,323 z "
               style="fill:#c70c1e;fill-rule:evenodd"
               id="path63" />
            <path
               d="M 27,337 C 23.582,341.834 16.283,339.284 14,335 C 17.939,331.738 25.038,332.978 27,337 z "
               style="fill:#c70c1e;fill-rule:evenodd"
               id="path65" />
            <path
               d="M 35,354 C 33.842,358.926 25.638,357.045 24,354 C 28.156,351.788 31.813,350.229 35,354 z "
               style="fill:#c70c1e;fill-rule:evenodd"
               id="path67" />
            <path
               d="M 26,498 C 22.196,498.529 19.422,500.089 16,501 C 14.896,494.039 26.425,487.156 26,498 z "
               style="fill:#c70c1e;fill-rule:evenodd"
               id="path69" />
            <path
               d="M 64,507 C 67.928,507.738 68.764,511.569 69,516 C 66.933,517.773 63.437,514.912 61,514 C 61.357,511.023 62.593,508.926 64,507 z "
               style="fill:#c70c1e;fill-rule:evenodd"
               id="path71" />
            <path
               d="M 26,518 C 30.638,517.362 32.187,519.813 34,522 C 31.745,526.158 29.478,528.246 31,534 C 24.627,533.496 23.825,523.936 26,518 z "
               style="fill:#c70c1e;fill-rule:evenodd"
               id="path73" />
            <path
               d="M 48,520 C 49.314,521.02 51.686,520.98 53,522 C 51.98,526.314 50.103,529.77 44,529 C 45.882,526.549 47.392,523.726 48,520 z "
               style="fill:#c70c1e;fill-rule:evenodd"
               id="path75" />
            <path
               d="M 47,600 C 43.835,601.169 39.962,601.629 39,605 C 33.12,596.928 48.125,586.635 47,600 z "
               style="fill:#c70c1e;fill-rule:evenodd"
               id="path77" />
            <path
               d="M 47,617 C 52.364,616.303 53.324,620.009 55,623 C 52.979,626.979 50.389,630.389 47,633 C 43.517,629.246 45.266,621.242 47,617 z "
               style="fill:#c70c1e;fill-rule:evenodd"
               id="path79" />
            <path
               d="M 81,628 C 81.684,623.649 79.201,622.465 77,621 C 77.869,618.536 79.331,616.664 83,617 C 85.354,619.431 86.739,628.288 81,628 z "
               style="fill:#c70c1e;fill-rule:evenodd"
               id="path81" />
            <path
               d="M 65,628 C 67.656,628.01 70.711,627.622 72,629 C 72.448,635.781 67.958,637.625 63,639 C 64.7,636.366 63.1,630.434 65,628 z "
               style="fill:#c70c1e;fill-rule:evenodd"
               id="path83" />
            <path
               d="M 114,659 C 114.319,661.348 115.58,662.754 115,666 C 113.96,668.294 107.859,665.526 107,668 C 102.947,664.854 106.607,656.82 114,659 z "
               style="fill:#c70c1e;fill-rule:evenodd"
               id="path85" />
            <path
               d="M 159,676 C 159.085,680.418 159.194,684.86 155,685 C 156.123,679.544 151.935,679.398 151,676 C 153.876,674.545 156.899,673.207 159,676 z "
               style="fill:#c70c1e;fill-rule:evenodd"
               id="path87" />
            <path
               d="M 120,675 C 126.463,677.376 120.759,682.91 123,687 C 118.878,690.449 117.678,678.101 120,675 z "
               style="fill:#c70c1e;fill-rule:evenodd"
               id="path89" />
            <path
               d="M 142,685 C 141.764,689.431 139.808,692.141 136,693 C 136.846,689.433 137.013,681.253 142,685 z "
               style="fill:#c70c1e;fill-rule:evenodd"
               id="path91" />
          </g>
          <path
             d="M 191,524 C 196.803,501.199 175.039,470.985 186,463 C 188.306,462.694 187.111,465.889 189,466 C 189.954,456.046 186.998,450.002 179,449 C 174.784,449.45 174.393,453.726 171,455 C 169.761,450.171 163.664,442.586 170,439 C 174.557,437.776 173.923,441.743 178,441 C 178.357,434.643 176.623,430.377 173,428 C 175.004,426.289 181.106,426.544 182,429 C 183.83,431.17 181.812,437.188 184,439 C 192.221,434.883 193.359,420.846 189,412 C 173.309,400.988 155.721,423.15 154,435 C 149.272,467.554 184.362,485.15 180,514 C 178.013,514.013 178.729,516.729 176,516 C 159.538,503.129 158.339,474.994 148,456 C 145.271,456.729 145.987,454.013 144,454 C 141.578,452.423 139.578,450.423 138,448 C 136.059,444.941 133.898,442.102 133,438 C 131.429,438.096 129.533,437.866 130,440 C 129.59,441.257 128.71,442.044 127,442 C 125.808,436.859 124.484,431.849 121,429 C 120.634,431.967 119.267,433.934 117,435 C 102.458,431.532 102.933,451.545 92,455 C 92.225,450.775 90.458,448.542 90,445 C 87.096,447.123 82.633,452.931 77,449 C 82.798,443.161 75.64,437.282 78,431 C 81.771,432.896 83.739,436.594 83,443 C 86.474,442.808 86.796,439.463 90,439 C 93.337,439.996 93.463,444.204 97,445 C 100.748,437.082 104.134,428.801 117,430 C 118.267,425.934 120.229,422.562 123,420 C 124.134,426.866 127.775,431.226 129,438 C 131.715,438.716 128.285,433.284 131,434 C 135.206,429.695 139,442.495 141,447 C 143.682,448.651 145.427,451.239 148,453 C 148.333,453 148.667,453 149,453 C 149.667,453 150.333,453 151,453 C 150.988,449.675 145.163,440.284 149,433 C 147.028,429.972 142.592,429.407 141,426 C 148.663,422.996 151.797,415.464 152,405 C 149.035,406.701 145.21,407.543 140,407 C 137.079,404.921 138.447,398.554 136,396 C 133.098,399.365 128.899,396.853 128,393 C 130.333,393 132.667,393 135,393 C 135.622,389.49 139.178,392.109 139,395 C 139.459,401.609 146.563,405.581 151,400 C 150.271,397.271 152.987,397.987 153,396 C 148.356,394.644 145.951,391.049 147,384 C 148.289,385.378 151.344,384.989 154,385 C 157.233,381.232 158.363,375.363 161,371 C 154.294,369.295 155.497,375.496 150,375 C 146.589,370.076 152.78,367.484 153,363 C 149.534,362.133 146.17,361.163 146,357 C 149.457,358.209 152.626,359.708 158,359 C 159.729,356.729 160.413,353.413 160,349 C 145.388,353.894 150.331,332.792 151,326 C 149.422,328.422 147.422,330.422 145,332 C 143.997,331.997 143.81,332.81 143,333 C 142.721,335.318 140.329,335.299 139,334 C 138.526,330.859 140.247,329.914 142,329 C 143.502,327.502 146.211,327.211 147,325 C 148.001,323.668 148.648,321.982 150,321 C 154.625,313.424 150.982,300.26 149,293 C 143.172,298.505 142.682,309.349 137,315 C 137.51,307.843 141.632,304.299 143,298 C 131.241,303.396 111.229,287.047 99,299 C 99,300.333 99,301.667 99,303 C 98.957,304.376 99.471,305.196 100,306 C 103.247,306.58 104.652,305.319 107,305 C 106.836,303.359 113.164,303.359 113,305 C 116.149,307.184 118.066,310.601 120,314 C 114.508,317.348 106.203,314.145 102,315 C 103.257,315.41 104.044,316.29 104,318 C 101.687,315.98 98.656,314.677 98,311 C 98.333,311 98.667,311 99,311 C 105.152,311.027 110.855,316.904 116,312 C 113.758,310.909 114.242,307.091 112,306 C 111.39,306.057 110.816,306.149 111,307 C 112.581,308.481 114.47,312.168 110,312 C 105.649,311.813 108.18,310.26 108,307 C 106.109,306.776 105.793,308.127 104,308 C 104.451,309.633 98.549,309.633 99,308 C 98.224,307.776 97.027,307.973 97,307 C 95.835,306.832 95.914,305.419 96,304 C 88.202,304.202 83.187,307.188 83,315 C 85.555,315.773 87.598,311.087 89,314 C 87.402,315.402 86.445,317.445 86,320 C 90.591,334.067 96.103,323.848 103,331 C 103.797,328.797 105.007,327.007 108,327 C 110.687,328.313 111.591,331.409 114,333 C 114.892,329.892 115.029,326.029 119,326 C 121.054,326.279 120.996,328.671 122,330 C 119.958,334.292 116.573,337.24 112,339 C 105.832,326.799 68.713,340.335 75,319 C 67.857,319.983 63.845,322.615 63,325 C 53.407,352.076 106.823,333.628 112,349 C 110.624,348.957 109.804,349.471 109,350 C 105.261,345.765 99.906,345.386 95,345 C 92.935,349.354 95.424,354.34 98,357 C 101.333,357 104.667,357 108,357 C 107.957,358.376 108.471,359.196 109,360 C 104.63,369.8 91.611,368.61 82,374 C 75.302,377.756 71.548,382.394 65,385 C 67.235,379.235 71.59,375.591 76,372 C 71.676,365.602 70.116,357.275 64,348 C 57.894,338.741 44.654,330.799 45,323 C 45.339,315.34 54.399,316.549 56,308 C 48.822,302.845 47.433,291.9 35,292 C 39.448,298.198 37.217,305.185 35,312 C 35.872,314.461 39.428,314.239 39,318 C 37.678,318.012 38.086,319.752 37,320 C 30.135,320.841 30.088,311.886 32,307 C 25.816,301.509 12.463,296.438 8,307 C 12.292,308.374 16.068,310.265 18,314 C 15.736,320.813 28.004,321.17 28,329 C 21.688,327.014 17.401,332.586 11,329 C 9.198,341.816 22.019,345.518 30,340 C 30.105,344.105 30.164,348.164 28,350 C 26.108,351.984 23.276,350.485 21,350 C 20.458,358.012 27.81,361.868 35,359 C 36.55,356.216 36.176,351.509 39,350 C 59.976,357.347 22.732,375.129 41,386 C 41.135,382.802 40.014,378.348 44,379 C 50.827,382.898 41.525,397.923 51,400 C 50.224,395.224 53.089,394.089 57,394 C 57.012,395.321 58.753,394.914 59,396 C 57.609,408.354 34.721,407.966 39,391 C 32.197,395.068 29.345,404.466 33,410 C 40.23,420.947 55.848,412.112 62,405 C 65.177,402.541 67.273,409.688 69,412 C 74.033,410.723 81.498,399.659 85,409 C 88.213,409.88 86.371,405.704 89,406 C 89.729,403.729 92.009,403.009 94,402 C 94.057,402.61 94.149,403.184 95,403 C 97.358,403.309 96.86,406.473 100,406 C 100.858,400.524 102.349,395.682 106,393 C 108.198,394.136 109.322,396.345 112,397 C 111.957,395.623 112.471,394.804 113,394 C 114.578,391.577 116.578,389.577 119,388 C 123.332,385.581 118.584,392.231 118,394 C 117.666,396.333 116.975,398.309 115,399 C 114.44,400.44 113.44,401.44 112,402 C 109.322,401.753 108.198,397.787 106,400 C 106.319,402.319 105.839,403.839 105,405 C 105,406.667 105,408.333 105,410 C 102.852,414.401 96.328,406.974 92,407 C 90.2,409.867 89.365,413.698 87,416 C 87.003,414.997 86.19,414.81 86,414 C 83.908,412.759 82.242,411.092 81,409 C 75.831,411.831 73.079,417.079 67,419 C 65.892,415.108 64.234,411.766 62,409 C 56.286,421.619 34.335,418.002 27,429 C 22.299,440.858 36.065,457.151 45,446 C 42.484,444.183 38.149,444.185 38,440 C 38.636,433.952 47.316,430.673 53,433 C 47.903,436.548 45.799,448.01 52,452 C 58.093,452.76 61.983,451.317 65,449 C 65.562,444.438 61.23,444.771 62,440 C 61.596,435.886 69.121,434.513 72,437 C 73.92,440.433 71.132,446.428 71,451 C 51.694,457.361 56.483,487.816 38,495 C 32.931,491.735 33.581,482.753 23,485 C 20.153,492.153 11.399,493.398 13,505 C 15.708,506.69 24.775,495.642 28,504 C 32.05,505.638 32.603,498.709 35,502 C 34.528,508.862 28.875,510.542 24,513 C 19.026,524.851 24.127,540.696 36,538 C 32.354,532.802 32.499,524.722 39,523 C 38.963,514.964 39.921,507.921 47,507 C 45.948,511.005 41.553,516.381 46,520 C 44.364,524.697 40.75,527.416 38,531 C 50.279,534.832 55.021,526.36 58,518 C 58.129,514.813 51.302,513.441 55,510 C 59.535,509.465 57.336,515.664 59,518 C 64.857,517.81 67.498,520.836 70,524 C 73.896,512.145 68.25,502.866 60,500 C 68.339,498.006 68.641,487.975 75,484 C 74.003,486.668 72.698,492.936 77,493 C 76.525,488.858 76.997,485.663 81,486 C 74.43,495.679 89.482,509.07 92,500 C 86.602,504.325 83.425,490.765 88,488 C 90.886,491.984 100.585,492.382 101,486 C 98.137,486.197 95.542,486.124 96,483 C 95.567,479.233 98.113,478.446 100,477 C 101.313,476.646 101.573,475.239 103,475 C 105.699,473.365 107.758,471.091 109,468 C 109,466 109,464 109,462 C 109,461 109,460 109,459 C 107.359,459.164 107.359,452.836 109,453 C 109.224,452.224 109.027,451.027 110,451 C 114.212,459.686 117.115,477.681 107,482 C 107.184,482.851 106.61,482.943 106,483 C 106,483.333 106,483.667 106,484 C 112.115,491.218 123.055,493.611 127,503 C 123.635,503.631 119.709,499.714 118,502 C 118.779,502.221 119.163,502.837 119,504 C 123.516,509.15 128.913,513.42 130,522 C 132.974,522.24 137.994,519.417 139,521 C 129.994,534.143 125.905,551.03 123,569 C 120.971,581.55 142.614,600.068 126,604 C 122.85,604.483 125.251,599.416 123,599 C 119.301,601.871 121.339,609.604 123,613 C 135.514,618.787 136.322,605.274 137,596 C 138.61,602.39 137.999,611.001 141,616 C 146.582,617.248 147.443,613.776 148,610 C 145.591,609.591 145.826,611.826 143,611 C 143.826,608.174 141.591,608.409 142,606 C 142,601.333 142,596.667 142,592 C 144.87,591.537 147.51,590.844 148,588 C 146.547,587.453 142.832,589.169 143,587 C 141.047,584.753 142.128,579.479 143,577 C 143.622,574.289 147.178,574.511 147,571 C 144.721,571.279 143.241,570.759 143,569 C 141.342,567.275 141.342,558.725 143,557 C 142.429,562.904 143.352,567.314 147,569 C 154.696,571.85 144.117,577.506 145,583 C 148.166,584.248 154.294,586.466 151,591 C 149.758,593.092 148.092,594.759 146,596 C 146,598.333 146,600.667 146,603 C 147.532,606.801 153.116,606.551 155,610 C 148.877,619.877 140.91,627.91 140,643 C 133.636,645.636 130.291,651.291 125,655 C 117.661,650.717 110.52,655.752 104,658 C 102.526,661.763 102.526,669.237 104,673 C 110.905,668.994 117.75,669.617 124,664 C 123.997,665.003 124.81,665.19 125,666 C 124.667,670.333 119.462,669.795 117,672 C 115.536,680.66 115.583,691.477 126,691 C 125.833,688.167 124.167,686.833 124,684 C 126.103,683.104 128.446,682.445 130,681 C 129.732,674.398 129.867,668.2 137,669 C 129.44,676.455 136.815,687.715 130,694 C 143.014,699.883 144.54,685.97 148,679 C 150.536,680.797 152.723,682.943 152,688 C 158.538,688.871 160.354,685.021 163,682 C 164.362,670.296 151.668,667.343 154,658 C 155.867,662.466 159.001,665.666 164,667 C 163.932,658.932 163.94,650.94 167,646 C 169.409,649.042 166.563,656.404 168,658 C 169.232,657.138 170.768,651.562 172,654 C 171.515,656.275 170.016,659.108 172,661 C 179.762,665.532 186.477,655.653 183,649 C 182.288,651.001 177.292,652.18 177,649 C 175.626,636.581 190.864,646.909 190,635 C 190.032,633.179 184.968,636.907 185,633 C 187.855,623.012 188.668,612.358 185,606 C 186.157,603.491 188.984,602.651 189,599 C 185.892,597.774 183.686,595.647 183,592 C 154.001,585.546 176.046,548.976 173,527 C 178.82,535.517 188.568,533.557 191,524 z M 146,306 C 148.332,309.001 150.588,312.079 150,318 C 147.4,318.4 146.984,320.984 144,321 C 145.388,319.721 144.612,316.279 146,315 C 141.711,314.044 142.139,317.805 139,318 C 141.027,313.693 143.553,309.887 146,306 z M 66,326 C 67.332,324.999 69.018,324.352 70,323 C 73.921,322.079 70.726,328.274 73,329 C 78.25,341.083 108.742,327.924 111,343 C 99.823,331.993 66.334,350.331 66,326 z M 22,312 C 17.646,311.354 17.201,306.799 13,306 C 16.381,301.203 23.576,303.858 27,307 C 25.758,309.092 24.092,310.758 22,312 z M 14,335 C 17.939,331.738 25.038,332.978 27,337 C 23.582,341.834 16.283,339.284 14,335 z M 24,354 C 28.156,351.788 31.813,350.229 35,354 C 33.842,358.926 25.638,357.045 24,354 z M 41,305 C 40.159,302.508 39.691,299.643 40,296 C 44.267,296.733 46.917,299.083 47,304 C 44.644,303.978 44.056,305.723 41,305 z M 49,337 C 55.842,343.158 58.761,353.239 61,364 C 55.481,356.519 48.941,350.059 49,337 z M 118,365 C 117.944,353.944 122.578,347.578 127,341 C 128.163,340.837 128.779,341.221 129,342 C 128.461,352.795 124.654,360.32 118,365 z M 40,429 C 38.833,430.834 37.386,432.386 36,434 C 33.96,438.446 35.09,425.064 38,425 C 39,425 40,425 41,425 C 41.125,422.791 45.242,424.575 47,424 C 50.977,424.311 52.023,421.689 56,422 C 55.148,428.814 46.165,427.498 40,429 z M 26,498 C 22.196,498.529 19.422,500.089 16,501 C 14.896,494.039 26.425,487.156 26,498 z M 31,534 C 24.627,533.496 23.825,523.936 26,518 C 30.638,517.362 32.187,519.813 34,522 C 31.745,526.158 29.478,528.246 31,534 z M 64,507 C 67.928,507.738 68.764,511.569 69,516 C 66.933,517.773 63.437,514.912 61,514 C 61.357,511.023 62.593,508.926 64,507 z M 44,529 C 45.882,526.549 47.392,523.726 48,520 C 49.314,521.02 51.686,520.98 53,522 C 51.98,526.314 50.103,529.77 44,529 z M 62,472 C 59.19,477.938 59.854,488.474 53,490 C 49.889,493.301 47.717,488.727 52,488 C 58.448,480.448 55.867,463.867 68,462 C 70.547,464.571 64.184,467.384 62,472 z M 115,666 C 113.96,668.294 107.859,665.526 107,668 C 102.947,664.854 106.607,656.82 114,659 C 114.319,661.348 115.58,662.754 115,666 z M 123,687 C 118.878,690.449 117.678,678.101 120,675 C 126.463,677.376 120.759,682.91 123,687 z M 136,693 C 136.846,689.433 137.013,681.253 142,685 C 141.764,689.431 139.808,692.141 136,693 z M 147,678 C 144.914,676.42 141.983,675.684 142,672 C 143.161,671.161 144.681,670.681 147,671 C 148.374,674.164 147.218,674.342 147,678 z M 159,676 C 159.085,680.418 159.194,684.86 155,685 C 156.123,679.544 151.935,679.398 151,676 C 153.876,674.545 156.899,673.207 159,676 z M 165,541 C 167.183,536.669 168.206,546.942 166,547 C 165.734,552.067 164.292,555.958 163,560 C 158.167,556.282 159.075,542.678 165,541 z M 176,599 C 175.323,601.323 172.677,601.677 172,604 C 170.758,606.092 169.092,607.759 167,609 C 165.827,610.262 162.845,609.802 163,607 C 160.779,606.584 162.04,601.517 164,602 C 167.083,600.083 171.341,599.341 176,599 z M 158,334 C 161.332,333.665 162.436,331.103 167,332 C 163.146,326.167 159.725,305.364 173,304 C 169.237,316.184 177.406,319.512 179,329 C 183.604,327.321 181.931,318.472 181,314 C 190.023,323.75 190.355,352.47 181,362 C 182.277,381.277 174.055,391.055 172,407 C 165.334,410.001 159.746,414.079 157,421 C 152.511,394.217 184.801,372.314 164,350 C 163.69,346.023 166.31,344.977 166,341 C 164.978,337.293 156.007,338.529 157,343 C 153.84,340.417 158,336.734 158,334 z M 117,507 C 112.737,509.736 110.263,514.264 106,517 C 106.168,519.169 102.453,517.453 101,518 C 88.403,517.403 78.582,519.582 73,526 C 56.603,524.936 54.848,538.515 47,546 C 46.779,545.221 46.163,544.838 45,545 C 44.351,541.351 45.674,539.674 47,538 C 38.164,538.321 41.252,550.246 44,555 C 34.337,559.002 36.56,578.085 48,575 C 45.723,572.944 44.546,569.787 45,565 C 48.821,564.782 54.545,561.264 58,564 C 56.714,568.047 52.842,569.509 52,574 C 55.211,574.431 63.5,568.886 63,575 C 66.399,574.065 66.544,569.877 72,571 C 73.253,575.08 78.003,575.663 81,578 C 70.415,582.082 69.526,595.859 58,599 C 54.131,596.868 55.703,589.297 50,589 C 38.617,587.596 29.823,605.113 41,611 C 40.648,606.981 41.016,603.683 44,603 C 49.177,604.156 53.435,606.231 56,610 C 52.357,609.691 49.492,610.159 47,611 C 43.01,618.476 40.197,633.556 49,638 C 50.285,628.952 60.03,628.363 58,616 C 59.891,616.225 60.207,614.873 62,615 C 64.054,615.279 63.996,617.671 65,619 C 64.396,622.729 60.404,623.07 60,627 C 63.58,630.757 61.293,637.506 59,641 C 72.71,642.788 75.171,631.156 74,621 C 78.202,622.249 79.618,625.35 78,630 C 91.573,629.412 86.411,614.344 83,608 C 84.987,607.987 84.271,605.271 87,606 C 87.88,608.786 88.248,612.085 90,614 C 91.146,609.146 90.526,602.526 96,602 C 83.959,624.008 119.681,644.534 118,618 C 116.594,619.008 107.456,622.147 109,613 C 110.192,607.858 120.29,611.623 118,603 C 116.284,603.863 109.714,604.269 110,598 C 114.911,592.742 118.475,583.061 112,577 C 115.54,575.251 113.764,573.255 116,567 C 111.289,567.289 108.92,569.92 103,569 C 99.807,565.916 98.162,563.276 98,559 C 97.289,540.25 133.336,547.655 127,525 C 119.993,522.674 118.816,514.517 117,507 z M 47,600 C 43.835,601.169 39.962,601.629 39,605 C 33.12,596.928 48.125,586.635 47,600 z M 47,633 C 43.517,629.246 45.266,621.242 47,617 C 52.364,616.303 53.324,620.009 55,623 C 52.979,626.979 50.389,630.389 47,633 z M 63,639 C 64.7,636.366 63.1,630.434 65,628 C 67.656,628.01 70.711,627.622 72,629 C 72.448,635.781 67.958,637.625 63,639 z M 74,618 C 72.837,617.838 72.221,618.221 72,619 C 69.456,618.898 69.637,615.273 71,614 C 70.577,611.91 71.686,611.352 72,610 C 73.163,609.838 73.779,610.221 74,611 C 74,613.333 74,615.667 74,618 z M 81,628 C 81.684,623.649 79.201,622.465 77,621 C 77.869,618.536 79.331,616.664 83,617 C 85.354,619.431 86.739,628.288 81,628 z M 79,596 C 79.07,598.374 69.659,596.896 74,595 C 75.945,589.612 77.941,584.274 83,582 C 83.183,588.183 81.554,592.554 79,596 z M 80,548 C 80,549.667 80,551.333 80,553 C 79.591,555.409 81.826,555.174 81,558 C 73.829,557.171 68.665,554.335 68,547 C 70.488,546.846 71.096,548.571 73,549 C 74.893,545.227 76.048,540.715 79,538 C 80,538 81,538 82,538 C 82.125,535.791 86.242,537.575 88,537 C 89,537 90,537 91,537 C 89.511,542.845 83.441,544.108 80,548 z M 101,541 C 104.578,535.577 109.472,531.472 117,530 C 113.81,535.81 110.913,541.913 101,541 z "
             id="Löwe_1_" />
        </g>
      </g>
      <path
         transform="scale(1.1081378,0.9024148)"
         style="font-size:5.20556879px;font-style:normal;font-weight:normal;fill:#000000;fill-opacity:1;stroke:none;stroke-width:1px;stroke-linecap:butt;stroke-linejoin:miter;stroke-opacity:1;font-family:Bitstream Vera Sans"
         d="M 110.65412,75.407797 L 111.02522,74.985861 C 111.16417,75.0977 111.3243,75.18751 111.50561,75.25529 C 111.68693,75.323071 111.87671,75.356962 112.07497,75.356961 C 112.30373,75.356962 112.48335,75.309515 112.61383,75.214621 C 112.74431,75.119729 112.80955,74.995182 112.80955,74.84098 C 112.80955,74.549523 112.64857,74.382613 112.32661,74.340249 C 112.24188,74.330083 112.16309,74.319916 112.09022,74.309747 C 112.01736,74.299582 111.93263,74.28772 111.83605,74.274162 C 111.51578,74.230106 111.27177,74.112761 111.10401,73.922126 C 110.93625,73.731494 110.85238,73.501463 110.85238,73.232032 C 110.85238,72.916854 110.95786,72.657592 111.16883,72.454247 C 111.37979,72.250908 111.67676,72.149237 112.05972,72.149233 C 112.28848,72.149237 112.50368,72.185669 112.70533,72.258529 C 112.90698,72.331397 113.09253,72.423749 113.26198,72.535584 L 112.94935,72.998188 C 112.81378,72.913465 112.66805,72.844837 112.51216,72.792304 C 112.35626,72.739777 112.19698,72.713512 112.0343,72.713508 C 111.86146,72.713512 111.71489,72.757569 111.59458,72.845681 C 111.47426,72.933799 111.41411,73.065972 111.41411,73.242199 C 111.41411,73.347262 111.45478,73.445544 111.53611,73.537046 C 111.61745,73.628552 111.75217,73.688707 111.94026,73.717512 C 111.9894,73.725987 112.04871,73.734883 112.11818,73.744201 C 112.18766,73.753523 112.2673,73.763266 112.35711,73.773431 C 112.70279,73.815796 112.95824,73.941191 113.12346,74.149615 C 113.28867,74.358043 113.37128,74.588497 113.37128,74.84098 C 113.37128,75.181579 113.25351,75.445924 113.01797,75.634015 C 112.78243,75.822107 112.46641,75.916153 112.06989,75.916153 C 111.51239,75.916153 111.04047,75.746701 110.65412,75.407797 L 110.65412,75.407797 z M 113.57717,75.88311 L 114.92939,72.177192 L 115.392,72.177192 L 116.74423,75.88311 L 116.15453,75.88311 L 115.86985,75.046864 L 114.46425,75.046864 L 114.1694,75.88311 L 113.57717,75.88311 z M 114.62946,74.551216 L 115.7021,74.551216 C 115.62415,74.322458 115.56272,74.143262 115.51782,74.01363 C 115.47291,73.884001 115.43394,73.769197 115.40089,73.669218 C 115.36785,73.569244 115.33438,73.467573 115.30049,73.364204 C 115.2666,73.260841 115.2217,73.121043 115.16578,72.94481 C 115.10647,73.127822 115.05902,73.273974 115.02344,73.383268 C 114.98785,73.492567 114.95354,73.598051 114.9205,73.69972 C 114.88745,73.801393 114.84933,73.914926 114.80612,74.040318 C 114.76291,74.165715 114.70402,74.336014 114.62946,74.551216 L 114.62946,74.551216 z M 117.20937,75.885652 L 117.20937,72.182276 L 117.77111,72.182276 L 117.77111,75.356961 L 119.57831,75.356961 L 119.57831,75.885652 L 117.20937,75.885652 z M 119.88333,75.885652 L 119.88333,75.417964 L 121.56598,72.680465 L 119.95195,72.680465 L 119.95195,72.182276 L 122.25227,72.182276 L 122.25227,72.604212 L 120.56452,75.356961 L 122.25227,75.356961 L 122.25227,75.885652 L 119.88333,75.885652 z M 122.81146,75.885652 L 122.81146,72.182276 L 124.24757,72.182276 C 124.6085,72.18228 124.88174,72.275055 125.06729,72.460601 C 125.25284,72.646154 125.34561,72.884658 125.34561,73.176113 C 125.34561,73.328622 125.30833,73.475198 125.23378,73.615841 C 125.15921,73.756488 125.01433,73.875105 124.79913,73.97169 L 124.79913,73.981857 C 125.00247,74.029306 125.15413,74.136484 125.25411,74.303393 C 125.35408,74.470304 125.40407,74.647805 125.40408,74.835896 C 125.40407,75.156161 125.30198,75.411186 125.09779,75.600972 C 124.8936,75.790759 124.65255,75.885652 124.37465,75.885652 L 122.81146,75.885652 z M 124.2374,74.241119 L 123.37319,74.241119 L 123.37319,75.356961 L 124.2374,75.356961 C 124.44582,75.356962 124.59875,75.300619 124.69619,75.187933 C 124.79362,75.075248 124.84234,74.946041 124.84234,74.800311 C 124.84234,74.654583 124.79362,74.524953 124.69619,74.411418 C 124.59875,74.297887 124.44582,74.241121 124.2374,74.241119 L 124.2374,74.241119 z M 124.18656,72.680465 L 123.37319,72.680465 L 123.37319,73.74293 L 124.18656,73.74293 C 124.38821,73.742932 124.53817,73.691249 124.63646,73.587881 C 124.73474,73.484518 124.78388,73.359123 124.78388,73.211698 C 124.78388,73.069361 124.73474,72.945237 124.63646,72.839327 C 124.53817,72.733422 124.38821,72.680468 124.18656,72.680465 L 124.18656,72.680465 z M 125.91752,74.632553 L 125.91752,72.182276 L 126.47925,72.182276 L 126.47925,74.569009 C 126.47925,74.824883 126.55169,75.020176 126.69657,75.15489 C 126.84145,75.289605 127.02065,75.356962 127.23416,75.356961 C 127.44767,75.356962 127.62686,75.289605 127.77174,75.15489 C 127.91662,75.020176 127.98906,74.824883 127.98907,74.569009 L 127.98907,72.182276 L 128.5508,72.182276 L 128.5508,74.632553 C 128.5508,75.018905 128.42286,75.329426 128.16699,75.564116 C 127.91112,75.798808 127.60017,75.916153 127.23416,75.916153 C 126.86645,75.916153 126.55508,75.798808 126.30005,75.564116 C 126.04503,75.329426 125.91751,75.018905 125.91752,74.632553 L 125.91752,74.632553 z M 129.82932,72.680465 L 129.82932,73.803933 L 130.67827,73.803933 C 130.88839,73.803935 131.04598,73.745474 131.15104,73.62855 C 131.2561,73.51163 131.30863,73.374374 131.30863,73.216781 C 131.30863,73.028692 131.24593,72.888047 131.12054,72.794845 C 131.01548,72.718595 130.87907,72.680468 130.71132,72.680465 L 129.82932,72.680465 z M 129.26758,75.885652 L 129.26758,72.182276 L 130.7164,72.182276 C 131.03327,72.18228 131.28406,72.263617 131.46877,72.426287 C 131.57213,72.5161 131.65982,72.628786 131.73184,72.764344 C 131.80386,72.899909 131.83986,73.050721 131.83987,73.216781 C 131.83986,73.455711 131.7759,73.667102 131.64796,73.850956 C 131.52002,74.034813 131.34422,74.164867 131.12054,74.241119 L 131.97966,75.885652 L 131.31372,75.885652 L 130.54864,74.304664 L 129.82932,74.304664 L 129.82932,75.885652 L 129.26758,75.885652 z M 133.64199,74.378375 L 133.64199,73.847143 L 134.95863,73.847143 L 134.95863,74.602052 C 134.95863,74.969764 134.83069,75.280708 134.57482,75.534886 C 134.31895,75.789064 134.00631,75.916153 133.63691,75.916153 C 133.34545,75.916153 133.10101,75.846254 132.9036,75.706456 C 132.70619,75.566659 132.56427,75.415423 132.47785,75.252748 C 132.41685,75.1443 132.37449,75.025683 132.35077,74.896899 C 132.32704,74.768116 132.31518,74.480895 132.31518,74.035235 C 132.31518,73.589578 132.32704,73.302357 132.35077,73.173571 C 132.37449,73.04479 132.41685,72.926174 132.47785,72.817721 C 132.56427,72.656745 132.70619,72.505086 132.9036,72.362742 C 133.10101,72.220406 133.34545,72.149237 133.63691,72.149233 C 133.98767,72.149237 134.27786,72.257262 134.50747,72.47331 C 134.73707,72.689365 134.88068,72.947355 134.9383,73.247282 L 134.34606,73.247282 C 134.30031,73.104945 134.21516,72.980398 134.09061,72.873641 C 133.96607,72.766889 133.81483,72.713512 133.63691,72.713508 C 133.50473,72.713512 133.39035,72.740624 133.29377,72.794845 C 133.19718,72.849073 133.12092,72.91177 133.06501,72.982937 C 132.99214,73.077833 132.94258,73.182046 132.91631,73.295576 C 132.89005,73.409112 132.87691,73.655664 132.87691,74.035235 C 132.87691,74.416504 132.89005,74.663903 132.91631,74.777435 C 132.94258,74.890969 132.99214,74.993487 133.06501,75.084991 C 133.12092,75.15955 133.19718,75.223518 133.29377,75.276895 C 133.39035,75.330273 133.50473,75.356962 133.63691,75.356961 C 133.85041,75.356962 134.03046,75.284097 134.17704,75.138368 C 134.32361,74.99264 134.3969,74.802854 134.3969,74.569009 L 134.3969,74.378375 L 133.64199,74.378375 z "
         id="text2453" />
      <path
         sodipodi:nodetypes="ccsssscscsssssccssssscscssscc"
         id="text2459"
         d="M 78.345955,60.757869 C 76.81829,57.186934 81.524837,55.349225 82.877607,57.52668 C 84.13132,59.328303 84.043614,59.334188 85.205856,60.62583 C 86.496345,62.059997 87.224513,62.507247 89.291135,62.607783 C 91.675665,62.723799 93.575855,62.241805 94.991709,61.161797 C 96.407532,60.081804 97.160754,58.610542 97.251386,56.748005 C 97.422637,53.22764 95.842701,51.129973 92.51159,50.454999 C 91.63438,50.289247 90.819011,50.126483 90.065481,49.96671 C 89.311917,49.806973 88.435722,49.620735 87.436894,49.407996 C 84.124407,48.713451 81.649847,47.172345 80.013209,44.784676 C 78.376558,42.397053 77.637398,39.576079 77.795727,36.321746 C 77.980932,32.514858 79.232823,29.436853 81.551402,27.087724 C 83.869966,24.738675 87.025204,23.661234 91.017128,23.855401 C 93.401655,23.971455 95.632673,24.501605 97.682626,25.502951 C 100.44188,26.850765 101.63378,28.579116 103.13967,30.61386 C 105.00837,33.080212 101.10276,37.052875 98.778343,34.953197 C 97.353093,32.864044 96.574537,32.326632 94.9804,31.61305 C 93.386222,30.899541 92.116252,30.740664 90.420592,30.65813 C 88.618918,30.570516 87.065153,31.028332 85.759292,32.031584 C 84.453406,33.034907 83.74869,34.600851 83.645142,36.729419 C 83.583395,37.998424 83.949561,39.206151 84.743639,40.352606 C 85.537696,41.499117 86.90658,42.294023 88.850294,42.737328 C 89.357535,42.864612 89.970523,43.002142 90.689259,43.149919 C 91.40796,43.297747 92.232409,43.455822 93.162609,43.624147 C 96.741009,44.311159 99.330063,45.955284 100.92979,48.556528 C 102.52945,51.157812 103.25512,53.983257 103.10678,57.032875 C 102.90661,61.146815 101.52367,64.279991 98.95797,66.432413 C 96.392212,68.584838 93.042743,69.560507 88.909546,69.359425 C 83.199285,68.701162 79.586145,63.811746 78.345955,60.757869 z "
         style="font-size:58.47917938px;font-style:normal;font-weight:normal;fill:#000000;fill-opacity:1;stroke:none;stroke-width:1px;stroke-linecap:butt;stroke-linejoin:miter;stroke-opacity:1;font-family:Bitstream Vera Sans" />
      <path
         sodipodi:nodetypes="cccscccssssssssssccssssscccccccccccsssssssccccssssssscsssscccssssssscc"
         id="text2467"
         d="M 167.8304,48.453093 L 167.8304,24.232099 L 187.86322,24.287259 C 189.08,24.282428 189.68467,25.791737 189.70308,27.348545 C 189.72236,28.978242 189.54047,30.715151 187.86322,30.711355 L 173.05609,30.656195 L 173.05609,40.768768 C 174.8245,39.129474 176.88471,38.309814 179.23672,38.309784 C 180.70449,38.309814 182.04406,38.637678 183.25545,39.293377 C 184.4668,39.949135 185.42617,40.717566 186.13356,41.598674 C 187.19459,42.93065 187.96827,44.380425 188.45461,45.948003 C 188.9409,47.515626 189.18406,50.15391 189.18408,53.862858 C 189.18406,56.875126 188.99396,59.113824 188.61377,60.578958 C 188.23353,62.044111 187.62786,63.391427 186.79672,64.620914 C 186.00091,65.788934 184.8868,66.874985 183.4544,67.879068 C 182.02196,68.883153 180.34196,69.385195 178.4144,69.385196 C 175.92092,69.385195 173.51587,68.493815 171.19925,66.711051 C 169.36798,65.301804 168.13343,63.143493 167.4956,60.236113 C 167.0015,57.967583 172.3981,57.40886 173.09798,59.399176 C 173.97866,61.794289 175.68006,62.991842 178.20219,62.991837 C 180.90786,62.991843 182.4906,61.916038 182.9504,59.76442 C 183.41017,57.61282 183.64007,55.481702 183.64009,53.371061 C 183.64007,50.891604 183.27754,48.832207 182.5525,47.192864 C 181.82744,45.553564 180.32428,44.733904 178.04303,44.73388 C 175.90323,44.733904 174.24092,45.973641 173.05609,48.453093 C 172.16248,50.385265 167.80982,50.129162 167.8304,48.453093 z M 197.53761,24.232099 L 215.97566,24.232099 C 218.83684,24.150222 217.49707,26.330591 215.97566,30.656195 L 203.55657,66.824012 C 202.36787,70.378573 196.37787,69.985472 197.35446,66.814465 L 209.79503,30.656195 L 197.52935,30.656195 C 194.9606,30.698738 194.91982,24.259846 197.53761,24.232099 z M 224.80892,36.680706 C 224.80891,38.791364 225.37923,40.389703 226.51987,41.475725 C 227.66049,42.561803 228.93817,43.104828 230.35292,43.104802 C 231.76765,43.104828 233.04533,42.561803 234.18597,41.475725 C 235.32659,40.389703 235.8969,38.791364 235.89692,36.680706 C 235.8969,34.590604 235.32659,32.997388 234.18597,31.901056 C 233.04533,30.804797 231.76765,30.256648 230.35292,30.25661 C 228.93817,30.256648 227.66049,30.804797 226.51987,31.901056 C 225.37923,32.997388 224.80891,34.590604 224.80892,36.680706 L 224.80892,36.680706 z M 218.57524,55.952994 C 218.57524,51.588315 220.09608,48.227706 223.13776,45.871159 C 221.98828,44.682675 221.05545,43.366095 220.33924,41.921416 C 219.62303,40.476791 219.26492,38.770873 219.26492,36.803656 C 219.26492,33.197181 220.33039,30.133699 222.46135,27.613202 C 224.59228,25.092787 227.22281,23.832559 230.35292,23.832515 C 233.48301,23.832559 236.11354,25.092787 238.2445,27.613202 C 240.37542,30.133699 241.44089,33.197181 241.44092,36.803656 C 241.44089,38.770873 241.07837,40.476791 240.35334,41.921416 C 239.62826,43.366095 238.70868,44.682675 237.59461,45.871159 C 240.61858,48.248199 242.13058,51.608807 242.1306,55.952994 C 242.13058,59.928362 240.96784,63.160898 238.64239,65.650614 C 236.3169,68.140336 233.55375,69.385195 230.35292,69.385196 C 227.13439,69.385195 224.36681,68.140336 222.05018,65.650614 C 219.73355,63.160898 218.57524,59.928362 218.57524,55.952994 L 218.57524,55.952994 z M 224.11924,55.89152 C 224.11923,57.940684 224.7426,59.636357 225.98935,60.978543 C 227.23607,62.320746 228.69059,62.991843 230.35292,62.991837 C 231.99754,62.991843 233.45206,62.320746 234.7165,60.978543 C 235.9809,59.636357 236.61311,57.940684 236.61313,55.89152 C 236.61311,53.842382 235.9809,52.141586 234.7165,50.789128 C 233.45206,49.436707 231.99754,48.760486 230.35292,48.760466 C 228.69059,48.760486 227.23607,49.436707 225.98935,50.789128 C 224.7426,52.141586 224.11923,53.842382 224.11924,55.89152 L 224.11924,55.89152 z "
         style="font-size:58.47917938px;font-style:normal;font-weight:normal;fill:#000000;fill-opacity:1;stroke:none;stroke-width:1px;stroke-linecap:butt;stroke-linejoin:miter;stroke-opacity:1;font-family:Bitstream Vera Sans" />
      <path
         sodipodi:nodetypes="cccccccccccc"
         id="text2471"
         d="M 265.52792,67.886119 L 265.52792,25.442125 C 265.57938,23.027633 271.39865,23.319375 271.39024,25.442125 L 271.39024,67.886119 C 271.46435,70.006566 265.60982,69.759392 265.52792,67.886119 z M 279.53381,25.286108 C 279.40298,23.243776 285.3758,23.286605 285.39613,25.286108 L 285.39613,62.896913 L 303.63227,62.896913 C 305.72713,62.921803 304.99427,69.343391 303.63227,69.290272 L 279.54179,69.298644 L 279.53381,25.286108 z "
         style="font-size:58.47917938px;font-style:normal;font-weight:normal;fill:#000000;fill-opacity:1;stroke:none;stroke-width:1px;stroke-linecap:butt;stroke-linejoin:miter;stroke-opacity:1;font-family:Bitstream Vera Sans" />
    </g>
  </g>
</svg>
