<svg xmlns="http://www.w3.org/2000/svg" viewBox="0 0 789.8 168.71"><defs><style>.cls-1{fill:#fff;}.cls-2{fill:#509e2f;}.cls-3{fill:#ef3340;}.cls-4{fill:#00b5e2;}.cls-5{fill:#bcbcbc;}</style></defs><g id="Layer_2" data-name="Layer 2"><g id="Layer_1-2" data-name="Layer 1"><rect class="cls-1" x="3.5" y="3.5" width="782.8" height="161.71" rx="9.08"/><path d="M777.21,7a5.6,5.6,0,0,1,5.59,5.59V156.12a5.6,5.6,0,0,1-5.59,5.59H12.59A5.6,5.6,0,0,1,7,156.12V12.59A5.6,5.6,0,0,1,12.59,7H777.21m0-7H12.59A12.62,12.62,0,0,0,0,12.59V156.12a12.63,12.63,0,0,0,12.59,12.59H777.21a12.63,12.63,0,0,0,12.59-12.59V12.59A12.63,12.63,0,0,0,777.21,0Z"/><rect class="cls-2" x="16.33" y="24.52" width="76.87" height="38.44"/><rect class="cls-3" x="16.33" y="24.52" width="76.87" height="25.62"/><rect class="cls-4" x="16.33" y="24.52" width="76.87" height="12.81"/><circle class="cls-1" cx="52.84" cy="43.74" r="5.77"/><circle class="cls-3" cx="54.12" cy="43.74" r="4.8"/><path class="cls-1" d="M59.25,40.54l.61,1.72,1.65-.78-.78,1.65,1.72.61-1.72.61L61.51,46l-1.65-.78-.61,1.72-.62-1.72L57,46l.79-1.65L56,43.74l1.73-.61L57,41.48l1.65.78Z"/><rect class="cls-1" x="14.72" y="88.83" width="85.12" height="65.76" rx="13.66"/><path class="cls-5" d="M86.18,89.33a13.18,13.18,0,0,1,13.16,13.16v38.44a13.17,13.17,0,0,1-13.16,13.16H28.38a13.17,13.17,0,0,1-13.16-13.16V102.49A13.18,13.18,0,0,1,28.38,89.33h57.8m0-1H28.38a14.21,14.21,0,0,0-14.16,14.16v38.44a14.2,14.2,0,0,0,14.16,14.16h57.8a14.2,14.2,0,0,0,14.16-14.16V102.49A14.21,14.21,0,0,0,86.18,88.33Z"/><path d="M60.39,138.8a11.69,11.69,0,0,1,.47,1.78,1.08,1.08,0,0,1-.25,1,2,2,0,0,1-1.22.4C58.81,142,58,142,57,142s-1.89,0-2.48,0a6.29,6.29,0,0,1-1.35-.18,1.24,1.24,0,0,1-.66-.39,2.19,2.19,0,0,1-.31-.65l-2.71-8.1H34.36l-2.55,7.88a2.34,2.34,0,0,1-.33.73,1.33,1.33,0,0,1-.65.47,4.92,4.92,0,0,1-1.28.23q-.82.06-2.16.06a21.53,21.53,0,0,1-2.24-.09A1.69,1.69,0,0,1,24,141.5a1.23,1.23,0,0,1-.22-1,10.11,10.11,0,0,1,.47-1.74L36.7,103a3.06,3.06,0,0,1,.43-.85,1.56,1.56,0,0,1,.8-.5,6.32,6.32,0,0,1,1.51-.22c.64,0,1.49-.05,2.55-.05,1.23,0,2.2,0,2.93.05a7.9,7.9,0,0,1,1.69.22,1.66,1.66,0,0,1,.88.51,3.3,3.3,0,0,1,.45.94ZM41.9,109.26h0l-5.7,17.12H47.59Z"/><path d="M90.77,138.62a13,13,0,0,1-.07,1.52,4.05,4.05,0,0,1-.24,1,1.09,1.09,0,0,1-.39.55.91.91,0,0,1-.51.16H65.81a2.5,2.5,0,0,1-1.92-.72,3,3,0,0,1-.67-2.09v-1.37a7.8,7.8,0,0,1,.08-1.13,5.24,5.24,0,0,1,.27-1.05,6.81,6.81,0,0,1,.54-1.15c.24-.41.53-.91.89-1.49l15.62-24.78H65.12a1.2,1.2,0,0,1-.64-.17,1.29,1.29,0,0,1-.43-.55,3.23,3.23,0,0,1-.25-1,12.8,12.8,0,0,1-.08-1.5,13.72,13.72,0,0,1,.08-1.57,3.45,3.45,0,0,1,.25-1,1.1,1.1,0,0,1,.43-.54,1.19,1.19,0,0,1,.64-.16H87.38a2.43,2.43,0,0,1,1.88.66,2.55,2.55,0,0,1,.61,1.83v1.53a11.72,11.72,0,0,1-.08,1.44,5.42,5.42,0,0,1-.28,1.19A6.8,6.8,0,0,1,89,109.4c-.23.41-.52.89-.87,1.45L72.72,135.29H89.56c.39,0,.69.25.9.74A7.43,7.43,0,0,1,90.77,138.62Z"/><path d="M130.56,141.76v-98l-16.46,12V38.18l16.46-11.95h16.62V141.76Z"/><path d="M164.27,109.32V58.44q0-15.91,10-24.57a34.24,34.24,0,0,1,45.54,0q10,8.66,10,24.57v50.88q0,15.9-10,24.53a34.38,34.38,0,0,1-45.54,0Q164.27,125.23,164.27,109.32Zm49-.95v-49q0-8.31-4.47-13A15.54,15.54,0,0,0,197,41.74c-4.9,0-8.84,1.56-11.79,4.67s-4.43,7.44-4.43,13v49q0,8.38,4.43,13c2.95,3.08,6.89,4.63,11.79,4.63a15.62,15.62,0,0,0,11.75-4.63Q213.25,116.76,213.25,108.37Z"/><path d="M244.51,105V88.43h48.83V105Z"/><path d="M314,141.53V26.23H358.7q16.86,0,25.52,8.67t8.66,22.27a28.86,28.86,0,0,1-3.48,13.69q-3.48,6.57-13.53,11.08v.32a21.35,21.35,0,0,1,14.16,10,31.64,31.64,0,0,1,4.67,16.57q0,15-9.53,23.82a32,32,0,0,1-22.52,8.87ZM356.8,41.74H331.48V74.82H356.8q9.42,0,14-4.83a17.08,17.08,0,0,0,0-23.3Q366.22,41.74,356.8,41.74Zm1.58,48.59h-26.9v34.74h26.9q9.74,0,14.29-5.27a18.35,18.35,0,0,0,0-24.17Q368.11,90.32,358.38,90.33Z"/><path d="M472.17,109.32h18.44Q487.2,125.46,476.05,134a41.61,41.61,0,0,1-25.95,8.5q-13.62,0-22.83-6.52T414,121.82a35.26,35.26,0,0,1-3.95-11.08q-1.11-6-1.11-26.82t1.11-26.83A35.35,35.35,0,0,1,414,46q4-7.51,13.26-14.16T450.1,25.2q16.38,0,27.1,10.09a43.71,43.71,0,0,1,13.41,24.1H472.17a25.46,25.46,0,0,0-7.95-11.64,21,21,0,0,0-14.12-5,21.48,21.48,0,0,0-10.69,2.53,23.59,23.59,0,0,0-7.12,5.86,25.12,25.12,0,0,0-4.63,9.73q-1.23,5.3-1.22,23t1.22,23.1a23.8,23.8,0,0,0,4.63,9.58,22.09,22.09,0,0,0,7.12,6,21.69,21.69,0,0,0,10.69,2.5Q464.65,125.07,472.17,109.32Z"/><path d="M499.32,105V88.43h48.82V105Z"/><path d="M583.75,141.76v-98l-16.46,12V38.18l16.46-11.95h16.62V141.76Z"/><path d="M616.51,141.53V126l45.11-56.43A18.4,18.4,0,0,0,665,63.5a19.42,19.42,0,0,0,.79-5.38,17.27,17.27,0,0,0-4.27-11.2,14.3,14.3,0,0,0-11.64-5.18,16.27,16.27,0,0,0-11.51,4.47q-4.78,4.47-5.34,12.23H616.51a32.55,32.55,0,0,1,9.58-23.62,30.61,30.61,0,0,1,22.55-9.62q14.4,0,24,9.7a32,32,0,0,1,9.61,23.38,31.31,31.31,0,0,1-6.89,20.26l-37.11,46.53h44v16.46Z"/><path d="M717.64,89.38V74.82h5.7q8.22,0,13-4.63a15.66,15.66,0,0,0,4.78-11.75,15.88,15.88,0,0,0-5-11.87,16.48,16.48,0,0,0-11.87-4.83,16.27,16.27,0,0,0-9.89,3.48q-4.68,3.48-6,10.45H691.84a32.85,32.85,0,0,1,10.21-21.33,29.8,29.8,0,0,1,21.61-9.14q15.42,0,24.72,10.17t9.3,22.75a33.5,33.5,0,0,1-2.61,12.94q-2.61,6.28-9.73,10.88a27.41,27.41,0,0,1,10.44,11.47A32.4,32.4,0,0,1,759,107.18q0,16.14-10.13,25.72T724,142.47a32.72,32.72,0,0,1-21.09-7.55q-9.37-7.56-11.67-22h16.54a25.23,25.23,0,0,0,6.17,9.54q3.89,3.6,11,3.6a17.54,17.54,0,0,0,12.19-4.87q5.29-4.87,5.3-13.41t-5.26-13.5a17.86,17.86,0,0,0-12.55-4.86Z"/></g></g></svg>