<?xml version="1.0" encoding="UTF-8" standalone="no"?>
<!-- Created with Inkscape (http://www.inkscape.org/) -->

<svg
   version="1.1"
   width="1748.353"
   height="389.33801"
   viewBox="0 0 1748.353 389.338"
   id="svg2"
   xml:space="preserve"
   sodipodi:docname="Czech-License-Plate-Vector.svg"
   inkscape:version="1.2.2 (b0a8486541, 2022-12-01)"
   xmlns:inkscape="http://www.inkscape.org/namespaces/inkscape"
   xmlns:sodipodi="http://sodipodi.sourceforge.net/DTD/sodipodi-0.dtd"
   xmlns="http://www.w3.org/2000/svg"
   xmlns:svg="http://www.w3.org/2000/svg"
   xmlns:rdf="http://www.w3.org/1999/02/22-rdf-syntax-ns#"
   xmlns:cc="http://creativecommons.org/ns#"
   xmlns:dc="http://purl.org/dc/elements/1.1/"><sodipodi:namedview
   id="namedview122"
   pagecolor="#505050"
   bordercolor="#eeeeee"
   borderopacity="1"
   inkscape:showpageshadow="0"
   inkscape:pageopacity="0"
   inkscape:pagecheckerboard="0"
   inkscape:deskcolor="#505050"
   showgrid="false"
   showguides="false"
   inkscape:zoom="1"
   inkscape:cx="1087"
   inkscape:cy="187.5"
   inkscape:window-width="3840"
   inkscape:window-height="2063"
   inkscape:window-x="0"
   inkscape:window-y="0"
   inkscape:window-maximized="1"
   inkscape:current-layer="svg2"><sodipodi:guide
     position="118.85865,942.06439"
     orientation="0,-1"
     id="guide15994"
     inkscape:locked="false" /></sodipodi:namedview><metadata
   id="metadata89"><rdf:RDF><cc:Work
       rdf:about=""><dc:format>image/svg+xml</dc:format><dc:type
         rdf:resource="http://purl.org/dc/dcmitype/StillImage" /></cc:Work></rdf:RDF></metadata><defs
   id="defs87"><rect
     x="589.08046"
     y="-80.244263"
     width="160.02483"
     height="128.67639"
     id="rect32924" /><rect
     x="462.50083"
     y="-451.1741"
     width="45.064187"
     height="61.624693"
     id="rect32522" /><rect
     x="466.0083"
     y="-445.62114"
     width="66.580726"
     height="70.255256"
     id="rect31786" /><rect
     x="462.50082"
     y="-451.1741"
     width="45.064186"
     height="61.624695"
     id="rect32522-7" /><rect
     x="462.50082"
     y="-451.1741"
     width="45.064186"
     height="61.624695"
     id="rect32522-7-9" /><rect
     x="462.50082"
     y="-451.1741"
     width="45.064186"
     height="61.624695"
     id="rect32522-7-9-6" /><rect
     x="462.50082"
     y="-451.1741"
     width="45.064186"
     height="61.624695"
     id="rect32522-7-9-6-6" /><rect
     x="462.50082"
     y="-451.1741"
     width="45.064186"
     height="61.624695"
     id="rect32522-7-9-61" /><rect
     x="462.50082"
     y="-451.1741"
     width="45.064186"
     height="61.624695"
     id="rect32522-7-9-61-2" /><rect
     x="462.50082"
     y="-451.1741"
     width="45.064186"
     height="61.624695"
     id="rect32522-7-9-61-2-2" /><rect
     x="462.50082"
     y="-451.1741"
     width="45.064186"
     height="61.624695"
     id="rect32522-7-9-61-2-2-7" /><rect
     x="462.50082"
     y="-451.1741"
     width="45.064186"
     height="61.624695"
     id="rect32522-7-9-61-2-2-7-9" /><rect
     x="589.08044"
     y="-80.244263"
     width="160.02483"
     height="128.67639"
     id="rect32924-2" /><rect
     x="589.08044"
     y="-80.244263"
     width="160.02483"
     height="128.67639"
     id="rect32924-9" /></defs>
<path
   d="M 1695.7438,383.169 H 48.437835 c -24.729,0 -44.8469995,-20.118 -44.8469995,-44.847 V 50.016 c 0,-24.729 20.1179995,-44.847 44.8469995,-44.847 H 1695.7448 c 24.729,0 44.847,20.118 44.847,44.847 v 288.307 c -10e-4,24.728 -20.119,44.846 -44.848,44.846 z"
   id="path3"
   style="fill:#ffffff;stroke:#000000;stroke-width:3;stroke-miterlimit:10" />
<path
   d="m 50.016,21.669 c -15.656,0 -28.347,12.691 -28.347,28.347 v 288.307 c 0,15.655 12.691,28.347 28.347,28.347 h 132.548 v -345 H 50.016 z"
   id="path5"
   style="fill:#033fa2" />
<path
   d="m 1725.669,338.323 c 0,15.655 -12.691,28.347 -28.347,28.347 H 50.016 c -15.656,0 -28.347,-12.691 -28.347,-28.347 V 50.016 c 0,-15.656 12.691,-28.347 28.347,-28.347 h 1647.307 c 15.655,0 28.347,12.691 28.347,28.347 v 288.307 z"
   id="path7"
   style="fill:none;stroke:#000000;stroke-width:16;stroke-miterlimit:10" />


<g
   id="g19">
	<polygon
   points="106.402,73.162 111.721,73.17 107.423,76.303 109.059,81.363 104.751,78.244 100.444,81.363 102.08,76.303 97.782,73.17 103.1,73.162 104.751,68.106 "
   id="polygon21"
   style="stroke:#000000;stroke-width:0.5;stroke-miterlimit:10" />
	<polygon
   points="131.907,80.019 137.226,80.026 132.928,83.159 134.563,88.22 130.256,85.101 125.949,88.22 127.584,83.159 123.287,80.026 128.605,80.019 130.256,74.963 "
   id="polygon23"
   style="stroke:#000000;stroke-width:0.5;stroke-miterlimit:10" />
	<polygon
   points="150.552,98.76 155.87,98.768 151.572,101.9 153.208,106.961 148.901,103.842 144.593,106.961 146.229,101.9 141.931,98.768 147.25,98.76 148.901,93.704 "
   id="polygon25"
   style="stroke:#000000;stroke-width:0.5;stroke-miterlimit:10" />
	<polygon
   points="157.435,124.221 162.753,124.229 158.455,127.362 160.091,132.422 155.784,129.303 151.476,132.422 153.112,127.362 148.814,124.229 154.132,124.221 155.784,119.166 "
   id="polygon27"
   style="stroke:#000000;stroke-width:0.5;stroke-miterlimit:10" />
	<polygon
   points="150.592,149.751 155.91,149.759 151.612,152.892 153.248,157.952 148.941,154.833 144.633,157.952 146.269,152.892 141.971,149.759 147.29,149.751 148.941,144.695 "
   id="polygon29"
   style="stroke:#000000;stroke-width:0.5;stroke-miterlimit:10" />
	<polygon
   points="131.864,168.45 137.183,168.458 132.885,171.59 134.521,176.651 130.213,173.532 125.906,176.651 127.542,171.59 123.244,168.458 128.562,168.45 130.213,163.394 "
   id="polygon31"
   style="stroke:#000000;stroke-width:0.5;stroke-miterlimit:10" />
	<polygon
   points="106.33,175.228 111.648,175.235 107.351,178.368 108.986,183.429 104.679,180.31 100.372,183.429 102.007,178.368 97.709,175.235 103.028,175.228 104.679,170.172 "
   id="polygon33"
   style="stroke:#000000;stroke-width:0.5;stroke-miterlimit:10" />
	<polygon
   points="80.832,168.454 86.15,168.461 81.853,171.594 83.488,176.655 79.181,173.536 74.874,176.655 76.509,171.594 72.211,168.461 77.53,168.454 79.181,163.398 "
   id="polygon35"
   style="stroke:#000000;stroke-width:0.5;stroke-miterlimit:10" />
	<polygon
   points="62.185,149.789 67.503,149.797 63.206,152.93 64.841,157.99 60.534,154.871 56.227,157.99 57.862,152.93 53.564,149.797 58.883,149.789 60.534,144.733 "
   id="polygon37"
   style="stroke:#000000;stroke-width:0.5;stroke-miterlimit:10" />
	<polygon
   points="55.373,124.255 60.691,124.263 56.393,127.396 58.029,132.457 53.722,129.337 49.414,132.457 51.05,127.396 46.752,124.263 52.07,124.255 53.722,119.2 "
   id="polygon39"
   style="stroke:#000000;stroke-width:0.5;stroke-miterlimit:10" />
	<polygon
   points="62.115,98.688 67.433,98.696 63.135,101.829 64.771,106.889 60.464,103.77 56.156,106.889 57.792,101.829 53.494,98.696 58.812,98.688 60.464,93.632 "
   id="polygon41"
   style="stroke:#000000;stroke-width:0.5;stroke-miterlimit:10" />
	<polygon
   points="80.849,79.984 86.167,79.992 81.869,83.125 83.505,88.186 79.198,85.066 74.89,88.186 76.526,83.125 72.228,79.992 77.546,79.984 79.198,74.929 "
   id="polygon43"
   style="stroke:#000000;stroke-width:0.5;stroke-miterlimit:10" />
</g>
<g
   id="g45">
	<polygon
   points="105.835,72.595 111.153,72.603 106.855,75.735 108.491,80.796 104.184,77.677 99.876,80.796 101.512,75.735 97.214,72.603 102.533,72.595 104.184,67.539 "
   id="polygon47"
   style="fill:#ffc200;stroke:#000000;stroke-width:0.5;stroke-miterlimit:10" />
	<polygon
   points="131.34,79.451 136.658,79.459 132.36,82.592 133.996,87.652 129.689,84.533 125.381,87.652 127.017,82.592 122.719,79.459 128.038,79.451 129.689,74.396 "
   id="polygon49"
   style="fill:#ffc200;stroke:#000000;stroke-width:0.5;stroke-miterlimit:10" />
	<polygon
   points="149.984,98.192 155.303,98.2 151.005,101.333 152.641,106.394 148.333,103.274 144.026,106.394 145.662,101.333 141.364,98.2 146.682,98.192 148.333,93.137 "
   id="polygon51"
   style="fill:#ffc200;stroke:#000000;stroke-width:0.5;stroke-miterlimit:10" />
	<polygon
   points="156.867,123.654 162.186,123.662 157.888,126.794 159.523,131.855 155.216,128.736 150.909,131.855 152.544,126.794 148.247,123.662 153.565,123.654 155.216,118.598 "
   id="polygon53"
   style="fill:#ffc200;stroke:#000000;stroke-width:0.5;stroke-miterlimit:10" />
	<polygon
   points="150.024,149.184 155.343,149.191 151.045,152.324 152.681,157.385 148.374,154.266 144.066,157.385 145.702,152.324 141.404,149.191 146.722,149.184 148.374,144.128 "
   id="polygon55"
   style="fill:#ffc200;stroke:#000000;stroke-width:0.5;stroke-miterlimit:10" />
	<polygon
   points="131.297,167.882 136.615,167.89 132.317,171.023 133.953,176.083 129.646,172.964 125.338,176.083 126.974,171.023 122.676,167.89 127.995,167.882 129.646,162.827 "
   id="polygon57"
   style="fill:#ffc200;stroke:#000000;stroke-width:0.5;stroke-miterlimit:10" />
	<polygon
   points="105.763,174.66 111.081,174.668 106.783,177.801 108.419,182.861 104.112,179.742 99.804,182.861 101.44,177.801 97.142,174.668 102.46,174.66 104.112,169.604 "
   id="polygon59"
   style="fill:#ffc200;stroke:#000000;stroke-width:0.5;stroke-miterlimit:10" />
	<polygon
   points="80.265,167.886 85.583,167.894 81.285,171.027 82.921,176.087 78.614,172.968 74.306,176.087 75.942,171.027 71.644,167.894 76.962,167.886 78.614,162.831 "
   id="polygon61"
   style="fill:#ffc200;stroke:#000000;stroke-width:0.5;stroke-miterlimit:10" />
	<polygon
   points="61.618,149.222 66.936,149.229 62.638,152.362 64.274,157.423 59.967,154.304 55.659,157.423 57.295,152.362 52.997,149.229 58.315,149.222 59.967,144.166 "
   id="polygon63"
   style="fill:#ffc200;stroke:#000000;stroke-width:0.5;stroke-miterlimit:10" />
	<polygon
   points="54.805,123.688 60.124,123.696 55.826,126.829 57.461,131.889 53.154,128.77 48.847,131.889 50.482,126.829 46.185,123.696 51.503,123.688 53.154,118.632 "
   id="polygon65"
   style="fill:#ffc200;stroke:#000000;stroke-width:0.5;stroke-miterlimit:10" />
	<polygon
   points="61.547,98.121 66.866,98.128 62.568,101.261 64.204,106.322 59.896,103.203 55.589,106.322 57.225,101.261 52.927,98.128 58.245,98.121 59.896,93.065 "
   id="polygon67"
   style="fill:#ffc200;stroke:#000000;stroke-width:0.5;stroke-miterlimit:10" />
	<polygon
   points="80.281,79.417 85.6,79.425 81.302,82.558 82.938,87.618 78.63,84.499 74.323,87.618 75.958,82.558 71.661,79.425 76.979,79.417 78.63,74.361 "
   id="polygon69"
   style="fill:#ffc200;stroke:#000000;stroke-width:0.5;stroke-miterlimit:10" />
</g>







<g
   id="g28782"><path
     d="M 347.61037,68.774185 V 322.54224 H 312.37049 V 114.96776 c 0,-2.23773 -2.1966,-3.57684 -4.05845,-1.62689 l -55.17972,57.67587 v -50.98031 l 49.04802,-51.268123 z"
     id="path3080"
     style="stroke-width:5.87332" /><path
     d="m 459.06184,283.2473 h 35.12539 c 3.21819,0 6.20897,2.57514 6.68702,5.76928 l 4.79222,32.05214 h 35.36451 L 503.32284,68.768307 H 449.90293 L 412.20639,321.07455 h 35.37041 l 4.78642,-32.05214 c 0.47215,-3.19411 3.47463,-5.77511 6.69862,-5.77511 z m 29.88433,-35.03605 H 464.2971 c -3.22399,0 -5.45097,-2.58098 -4.97292,-5.77509 l 14.70314,-98.38122 c 0.65294,-4.42622 4.51238,-4.42622 5.18283,0 l 14.69733,98.38122 c 0.47805,3.19411 -1.74321,5.77509 -4.96131,5.77509 z"
     id="path3100"
     style="stroke-width:5.83464" /><path
     d="M 656.94352,321.07455 H 590.77641 V 68.768307 h 66.16711 c 36.48505,0 66.17294,29.682061 66.17294,66.172943 0,19.21772 -8.2395,36.54928 -21.36663,48.64868 13.12713,12.0994 21.36663,29.4368 21.36663,48.65452 v 22.67469 c 0,36.47336 -29.68789,66.15541 -66.17294,66.15541 z m -25.29078,-35.03684 h 25.29078 c 17.16805,0 31.13608,-13.96219 31.13608,-31.12441 v -22.67469 c 0,-17.16805 -13.96803,-31.13608 -31.13608,-31.13608 h -25.29078 c -3.22338,0 -5.83947,2.61024 -5.83947,5.83947 v 73.25624 c 0,3.22338 2.61609,5.83947 5.83947,5.83947 z m 0,-119.97204 h 25.29078 c 17.16805,0 31.13608,-13.96218 31.13608,-31.13025 0,-17.16222 -13.96803,-31.13609 -31.13608,-31.13609 h -25.29078 c -3.22338,0 -5.83947,2.61608 -5.83947,5.83948 v 50.58154 c 0,3.22923 2.61609,5.84532 5.83947,5.84532 z"
     id="path3102"
     style="stroke-width:5.83948" /></g><g
   id="g27160"
   transform="translate(-26.67967,-7.3562483)"><circle
     style="fill:#ffffff;fill-opacity:1;stroke:#a5a5a5;stroke-width:2.014;stroke-dasharray:none;stroke-opacity:1"
     id="path21189-6"
     cx="879.88336"
     cy="125.71723"
     r="55.635113" /><circle
     style="fill:#ffffff;fill-opacity:1;stroke:#a5a5a5;stroke-width:1.62312;stroke-dasharray:none;stroke-opacity:1"
     id="path21189-6-7"
     cx="879.88336"
     cy="125.71723"
     r="44.837418" /></g><g
   id="g27164"
   transform="translate(-26.67967,9.4383325)"><circle
     style="fill:#ffffff;fill-opacity:1;stroke:#a5a5a5;stroke-width:2.014;stroke-dasharray:none;stroke-opacity:1"
     id="path21189-6-5"
     cx="879.88336"
     cy="255.68471"
     r="55.635113" /><circle
     style="fill:#ffffff;fill-opacity:1;stroke:#a5a5a5;stroke-width:1.62312;stroke-dasharray:none;stroke-opacity:1"
     id="path21189-6-7-3"
     cx="879.88336"
     cy="255.68471"
     r="44.837418" /></g><g
   id="g28788"><path
     d="m 1529.0444,163.01774 c -3.0708,1.3118 -5.4406,-0.0968 -5.4406,-3.42758 v -30.72742 c 0,-17.77269 14.4659,-32.244746 32.2266,-32.244746 17.7666,0 32.2266,14.472056 32.2266,32.244746 h 36.2708 c 0,-37.782089 -30.7274,-68.515539 -68.4974,-68.515539 -37.77,0 -68.4974,30.73345 -68.4974,68.515539 v 120.75759 c 0,38.97902 31.3682,71.91896 68.4974,71.91896 37.1352,0 68.4974,-32.93994 68.4974,-71.91896 v -23.55184 c 0,-37.78209 -30.7274,-68.51553 -68.4974,-68.51553 -9.5029,-0.007 -18.5524,1.94652 -26.786,5.46478 z m 59.0126,86.59655 c 0,18.66132 -15.3606,35.64814 -32.2266,35.64814 -16.8659,0 -32.2266,-16.99891 -32.2266,-35.64814 v -23.55185 c 0,-17.77874 14.4659,-32.24474 32.2266,-32.24474 17.7666,0 32.2266,14.47205 32.2266,32.24474 z"
     id="path3090"
     style="stroke-width:6.04513" /><path
     d="m 1095.0118,232.42953 v 22.71646 c 0,36.55225 -29.7367,66.28897 -66.289,66.28897 -36.55225,0 -66.28891,-29.73672 -66.28891,-66.28897 h 35.10146 c 0,17.19382 13.99945,31.18758 31.18745,31.18758 17.1938,0 31.1876,-13.99376 31.1876,-31.18758 v -22.71646 c 0,-17.19385 -13.9938,-31.18759 -31.1876,-31.18759 v -35.10139 c 17.1938,0 31.1876,-13.99375 31.1876,-31.18759 0,-17.18798 -13.9938,-31.18759 -31.1876,-31.18759 -17.188,0 -31.18745,13.99961 -31.18745,31.18759 h -35.10146 c 0,-36.552246 29.73666,-66.288978 66.28891,-66.288978 36.5523,0 66.289,29.736732 66.289,66.288978 0,19.28236 -8.3249,36.6166 -21.5113,48.73829 13.1864,12.12166 21.5113,29.45591 21.5113,48.73828 z"
     id="path3084"
     style="stroke-width:5.85023" /><path
     d="m 1260.5986,276.8934 h -20.3054 c -3.2318,0 -5.855,2.61135 -5.855,5.85506 v 38.89516 h -35.1304 v -38.89516 c 0,-3.24371 -2.6231,-5.85506 -5.8552,-5.85506 h -65.5415 v -35.13038 l 57.9476,-173.099038 h 37.0392 l -56.0096,167.548448 c -1.0245,3.06219 0.767,5.55059 3.9992,5.55059 h 22.5651 c 3.2321,0 5.8552,-2.61721 5.8552,-5.85505 v -27.27874 h 35.1304 v 27.27874 c 0,3.23784 2.6232,5.85505 5.855,5.85505 h 20.3054 z"
     id="path3086"
     style="stroke-width:5.85508" /><path
     d="m 1339.332,102.66411 v 43.68315 c 0,3.33699 2.3817,4.73949 5.4406,3.42162 8.2336,-3.51833 17.2714,-5.46493 26.7866,-5.46493 37.771,0 68.4991,30.72209 68.4991,68.49295 v 40.22526 c 0,37.78296 -30.7281,68.51713 -68.4991,68.51713 -34.2464,0 -62.6108,-25.29342 -67.6344,-58.16762 h 37.2631 c 4.3345,12.69507 16.2436,21.89599 30.3653,21.89599 17.7672,0 32.2275,-14.46635 32.2275,-32.2455 V 212.7969 c 0,-17.76101 -14.4603,-32.2213 -32.2275,-32.2213 -17.7609,0 -32.2273,14.46029 -32.2273,32.2213 v 12.8583 h -36.2717 V 60.347201 h 136.9981 v 36.271646 h -94.6751 c -3.337,0 -6.0452,2.702237 -6.0452,6.045263 z"
     id="path3088"
     style="stroke-width:6.04528" /></g><g
   id="g28792"><path
     d="m 150.24761,250.03627 -27.86853,52.81436 c -0.44938,0.85172 -0.0349,1.54147 0.92837,1.54147 h 26.93842 v 10.4507 h -40.55046 v -10.4507 l 27.91905,-52.81609 c 0.45286,-0.84825 0.0366,-1.53974 -0.9249,-1.53974 h -26.99415 v -10.4507 h 40.55046 z"
     id="path3150"
     style="fill:#ffffff;fill-opacity:1;stroke-width:1.74179" /><path
     d="m 87.69215,291.94305 h 11.356083 v 3.15793 c 0,10.88641 -9.6205,19.74182 -21.44596,19.74182 -11.825483,0 -21.445982,-8.85542 -21.445982,-19.74183 v -35.77879 c 0,-10.88292 9.620499,-19.73661 21.445982,-19.73661 11.82546,0 21.44596,8.85369 21.44596,19.73661 v 3.22934 H 87.69215 v -3.22934 c 0,-5.11749 -4.527292,-9.28567 -10.089877,-9.28567 -5.560708,0 -10.089888,4.16644 -10.089888,9.28567 v 35.78053 c 0,5.1227 4.52918,9.2909 10.089888,9.2909 5.562585,0 10.089877,-4.1682 10.089877,-9.2909 z"
     id="path3104"
     style="fill:#ffffff;fill-opacity:1;stroke-width:1.81568" /></g><text
   xml:space="preserve"
   id="text31784"
   style="fill:#000000;opacity:1;stroke:#000000;stroke-opacity:1;stroke-width:0;stroke-dasharray:none;fill-opacity:1;white-space:pre;shape-inside:url(#rect31786)" /><text
   xml:space="preserve"
   style="font-size:48px;opacity:1;fill:#000000;fill-opacity:1;stroke:#000000;stroke-width:0;stroke-dasharray:none;stroke-opacity:1"
   x="745.10156"
   y="-240.62515"
   id="text32821"><tspan
     sodipodi:role="line"
     id="tspan32819"></tspan></text><g
   id="g33077"
   transform="matrix(0.303449,0,0,0.30489901,656.63335,200.31381)"><path
     sodipodi:type="star"
     style="opacity:1;fill:#ed1c24;fill-opacity:1;stroke:#000000;stroke-width:4.82812;stroke-dasharray:none;stroke-opacity:1"
     id="path28864"
     inkscape:flatsided="true"
     sodipodi:sides="6"
     sodipodi:cx="491.56686"
     sodipodi:cy="-297.18405"
     sodipodi:r1="136.06746"
     sodipodi:r2="117.83787"
     sodipodi:arg1="0"
     sodipodi:arg2="0.52359878"
     inkscape:rounded="0"
     inkscape:randomized="0"
     d="m 627.63432,-297.18405 -68.03373,117.83787 -136.06746,0 -68.03373,-117.83787 68.03373,-117.83788 136.06746,0 z"
     transform="matrix(1.0802761,0,0,1.080933,117.52805,52.449247)" /><path
     sodipodi:type="star"
     style="fill:#ed1c24;fill-opacity:1;stroke:#000000;stroke-width:3.72948;stroke-dasharray:none;stroke-opacity:1"
     id="path28864-6"
     inkscape:flatsided="true"
     sodipodi:sides="6"
     sodipodi:cx="491.56686"
     sodipodi:cy="-297.18405"
     sodipodi:r1="136.06746"
     sodipodi:r2="117.83787"
     sodipodi:arg1="0"
     sodipodi:arg2="0.52359878"
     inkscape:rounded="0"
     inkscape:randomized="0"
     d="m 627.63432,-297.18405 -68.03373,117.83787 -136.06746,0 -68.03373,-117.83787 68.03373,-117.83788 136.06746,0 z"
     transform="matrix(0.72745487,0,0,0.72797747,290.96328,-52.443507)" /><path
     sodipodi:type="star"
     style="fill:#d1d3d4;fill-opacity:1;stroke:#000000;stroke-width:8.622;stroke-dasharray:none;stroke-opacity:1"
     id="path28864-6-2"
     inkscape:flatsided="true"
     sodipodi:sides="6"
     sodipodi:cx="491.56686"
     sodipodi:cy="-297.18405"
     sodipodi:r1="136.06746"
     sodipodi:r2="117.83787"
     sodipodi:arg1="0"
     sodipodi:arg2="0.52359878"
     inkscape:rounded="0"
     inkscape:randomized="0"
     d="m 627.63432,-297.18405 -68.03373,117.83787 -136.06746,0 -68.03373,-117.83787 68.03373,-117.83788 136.06746,0 z"
     transform="matrix(0.42167654,0,0,0.42197947,441.27377,-143.38123)" /><path
     style="opacity:1;fill:#ed1c24;fill-opacity:1;stroke:#000000;stroke-width:3.637;stroke-dasharray:none;stroke-opacity:1"
     d="m 705.93244,-268.7868 h 89.61397"
     id="path30725" /><path
     style="opacity:1;fill:#ed1c24;fill-opacity:1;stroke:#000000;stroke-width:3.637;stroke-dasharray:none;stroke-opacity:1"
     d="m 648.55598,-318.51196 v -77.64969"
     id="path30783" /><path
     style="opacity:1;fill:#ed1c24;fill-opacity:1;stroke:#000000;stroke-width:3.637;stroke-dasharray:none;stroke-opacity:1"
     d="M 549.57305,-268.7868 H 501.56556"
     id="path30785" /><path
     style="opacity:1;fill:#ed1c24;fill-opacity:1;stroke:#000000;stroke-width:3.637;stroke-dasharray:none;stroke-opacity:1"
     d="M 591.17953,-268.7868 H 549.57305"
     id="path30789" /><path
     style="opacity:1;fill:#ed1c24;fill-opacity:1;stroke:#000000;stroke-width:3.637;stroke-dasharray:none;stroke-opacity:1"
     d="m 648.55598,-219.06163 v 77.64968"
     id="path30791" /><path
     style="opacity:1;fill:#ed1c24;fill-opacity:1;stroke:#000000;stroke-width:3.637;stroke-dasharray:none;stroke-opacity:1"
     d="m 698.04746,-354.57012 24.00374,-41.59153"
     id="path30793" /><path
     style="opacity:1;fill:#ed1c24;fill-opacity:1;stroke:#000000;stroke-width:3.637;stroke-dasharray:none;stroke-opacity:1"
     d="m 722.79319,-311.67846 36.00561,-20.79577"
     id="path30795" /><path
     style="opacity:1;fill:#ed1c24;fill-opacity:1;stroke:#000000;stroke-width:3.637;stroke-dasharray:none;stroke-opacity:1"
     d="m 722.0512,-141.41195 -24.00374,-41.59153"
     id="path30797" /><path
     style="opacity:1;fill:#ed1c24;fill-opacity:1;stroke:#000000;stroke-width:3.637;stroke-dasharray:none;stroke-opacity:1"
     d="m 722.79319,-225.89514 36.00561,20.79576"
     id="path30799" /><path
     style="opacity:1;fill:#ed1c24;fill-opacity:1;stroke:#000000;stroke-width:3.637;stroke-dasharray:none;stroke-opacity:1"
     d="m 575.06077,-141.41195 24.00375,-41.59153"
     id="path30801" /><path
     style="opacity:1;fill:#ed1c24;fill-opacity:1;stroke:#000000;stroke-width:3.637;stroke-dasharray:none;stroke-opacity:1"
     d="m 574.31879,-225.89514 -36.00562,20.79576"
     id="path30803" /><path
     style="opacity:1;fill:#ed1c24;fill-opacity:1;stroke:#000000;stroke-width:3.637;stroke-dasharray:none;stroke-opacity:1"
     d="m 574.31879,-311.67846 -36.00562,-20.79577"
     id="path30805" /><path
     style="opacity:1;fill:#ed1c24;fill-opacity:1;stroke:#000000;stroke-width:3.637;stroke-dasharray:none;stroke-opacity:1"
     d="m 599.06452,-354.57012 -24.00375,-41.59153"
     id="path30807" /><ellipse
     style="opacity:1;fill:#000000;fill-opacity:1;stroke:#000000;stroke-width:0;stroke-dasharray:none;stroke-opacity:1"
     id="path31671"
     cx="624.0603"
     cy="-336.34695"
     rx="13.831533"
     ry="14.270613" /><ellipse
     style="fill:#000000;fill-opacity:1;stroke:#000000;stroke-width:0;stroke-dasharray:none;stroke-opacity:1"
     id="path31671-9"
     cx="669.95691"
     cy="-336.34695"
     rx="13.831533"
     ry="14.270613" /><ellipse
     style="fill:#000000;fill-opacity:1;stroke:#000000;stroke-width:0;stroke-dasharray:none;stroke-opacity:1"
     id="path31671-1"
     cx="669.95691"
     cy="-201.22664"
     rx="13.831533"
     ry="14.270613" /><ellipse
     style="fill:#000000;fill-opacity:1;stroke:#000000;stroke-width:0;stroke-dasharray:none;stroke-opacity:1"
     id="path31671-1-2"
     cx="624.0603"
     cy="-201.22664"
     rx="13.831533"
     ry="14.270613" /><text
     xml:space="preserve"
     style="font-size:32.6891px;opacity:1;fill:#000000;fill-opacity:1;stroke:#000000;stroke-width:0;stroke-dasharray:none;stroke-opacity:1"
     x="614.78821"
     y="-287.02887"
     id="text31792"
     transform="scale(1.0227065,0.97779762)"><tspan
       sodipodi:role="line"
       id="tspan31790"
       x="614.78821"
       y="-287.02887"
       style="stroke-width:0">TK</tspan></text><text
     xml:space="preserve"
     id="text32520"
     style="font-size:48px;white-space:pre;shape-inside:url(#rect32522);opacity:1;fill:#000000;fill-opacity:1;stroke:#000000;stroke-width:0;stroke-dasharray:none;stroke-opacity:1"
     transform="matrix(-0.35760937,-0.54353681,0.52885794,-0.36230597,935.80387,-137.29554)"><tspan
       x="462.5"
       y="-407.49982"
       id="tspan33241">1</tspan></text><text
     xml:space="preserve"
     id="text32520-0"
     style="font-size:48px;white-space:pre;shape-inside:url(#rect32522-7);fill:#000000;fill-opacity:1;stroke:#000000;stroke-width:0;stroke-dasharray:none;stroke-opacity:1"
     transform="matrix(0.33320311,-0.55883129,0.55665708,0.31794532,619.8883,103.29415)"><tspan
       x="462.5"
       y="-407.49982"
       id="tspan33243">2</tspan></text><text
     xml:space="preserve"
     id="text32520-0-3"
     style="font-size:48px;white-space:pre;shape-inside:url(#rect32522-7-9);fill:#000000;fill-opacity:1;stroke:#000000;stroke-width:0;stroke-dasharray:none;stroke-opacity:1"
     transform="matrix(0.33320311,-0.55883129,0.55665708,0.31794532,647.95952,53.973185)"><tspan
       x="462.5"
       y="-407.49982"
       id="tspan33245">3</tspan></text><text
     xml:space="preserve"
     id="text32520-0-3-8"
     style="font-size:48px;white-space:pre;shape-inside:url(#rect32522-7-9-61);fill:#000000;fill-opacity:1;stroke:#000000;stroke-width:0;stroke-dasharray:none;stroke-opacity:1"
     transform="matrix(0.36905847,0.53582886,-0.52105367,0.37344264,329.63666,-443.71041)"><tspan
       x="462.5"
       y="-407.49982"
       id="tspan33247">6.</tspan></text><text
     xml:space="preserve"
     id="text32520-0-3-8-0"
     style="font-size:48px;white-space:pre;shape-inside:url(#rect32522-7-9-61-2);fill:#000000;fill-opacity:1;stroke:#000000;stroke-width:0;stroke-dasharray:none;stroke-opacity:1"
     transform="matrix(0.36905847,0.53582886,-0.52105367,0.37344264,357.89511,-393.56051)"><tspan
       x="462.5"
       y="-407.49982"
       id="tspan33249">7</tspan></text><text
     xml:space="preserve"
     id="text32520-0-3-8-0-3"
     style="font-size:48px;white-space:pre;shape-inside:url(#rect32522-7-9-61-2-2);fill:#000000;fill-opacity:1;stroke:#000000;stroke-width:0;stroke-dasharray:none;stroke-opacity:1"
     transform="matrix(-0.24791551,0.60154353,-0.59716184,-0.23313958,619.3231,-626.81208)"><tspan
       x="462.5"
       y="-407.49982"
       id="tspan33251">8</tspan></text><text
     xml:space="preserve"
     id="text32520-0-3-8-0-3-5"
     style="font-size:48px;white-space:pre;shape-inside:url(#rect32522-7-9-61-2-2-7);fill:#000000;fill-opacity:1;stroke:#000000;stroke-width:0;stroke-dasharray:none;stroke-opacity:1"
     transform="matrix(-0.24791551,0.60154353,-0.59716184,-0.23313958,592.73057,-577.9915)"><tspan
       x="462.5"
       y="-407.49982"
       id="tspan33253">9.</tspan></text><text
     xml:space="preserve"
     id="text32520-0-3-0"
     style="font-size:48px;white-space:pre;shape-inside:url(#rect32522-7-9-6);fill:#000000;fill-opacity:1;stroke:#000000;stroke-width:0;stroke-dasharray:none;stroke-opacity:1"
     transform="matrix(0.65056365,0.00914671,0.00297982,0.64105183,312.17346,-106.73975)"><tspan
       x="462.5"
       y="-407.49982"
       id="tspan33255">4</tspan></text><text
     xml:space="preserve"
     id="text32520-0-3-0-2"
     style="font-size:48px;white-space:pre;shape-inside:url(#rect32522-7-9-6-6);fill:#000000;fill-opacity:1;stroke:#000000;stroke-width:0;stroke-dasharray:none;stroke-opacity:1"
     transform="matrix(0.65056365,0.00914671,0.00297982,0.64105183,364.77778,-106.95624)"><tspan
       x="462.5"
       y="-407.49982"
       id="tspan33257">5</tspan></text><text
     xml:space="preserve"
     id="text32922"
     style="font-size:48px;white-space:pre;shape-inside:url(#rect32924);opacity:1;fill:#000000;fill-opacity:1;stroke:#000000;stroke-width:0;stroke-dasharray:none;stroke-opacity:1"
     transform="matrix(-0.62217452,0,0,-0.63708282,1061.1641,-197.14543)"><tspan
       x="589.08008"
       y="-36.570132"
       id="tspan33259">10</tspan></text><text
     xml:space="preserve"
     id="text32922-8"
     style="font-size:48px;white-space:pre;shape-inside:url(#rect32924-2);fill:#000000;fill-opacity:1;stroke:#000000;stroke-width:0;stroke-dasharray:none;stroke-opacity:1"
     transform="matrix(-0.62217452,0,0,-0.63708282,1004.3285,-197.07045)"><tspan
       x="589.08008"
       y="-36.570132"
       id="tspan33261">11</tspan></text><text
     xml:space="preserve"
     id="text32922-7"
     style="font-size:48px;white-space:pre;shape-inside:url(#rect32924-9);display:inline;fill:#000000;fill-opacity:1;stroke:#000000;stroke-width:0;stroke-dasharray:none;stroke-opacity:1"
     transform="matrix(-0.36037138,-0.50718202,0.51933491,-0.36900646,820.90038,103.63021)"><tspan
       x="589.08008"
       y="-36.570132"
       id="tspan33263">12</tspan></text></g></svg>
