<?xml version="1.0" encoding="UTF-8" standalone="no"?>
<!-- Created with Inkscape (http://www.inkscape.org/) -->

<svg
   xmlns:dc="http://purl.org/dc/elements/1.1/"
   xmlns:cc="http://creativecommons.org/ns#"
   xmlns:rdf="http://www.w3.org/1999/02/22-rdf-syntax-ns#"
   xmlns:svg="http://www.w3.org/2000/svg"
   xmlns="http://www.w3.org/2000/svg"
   version="1.1"
   width="1748.353"
   height="389.33801"
   viewBox="0 0 1748.353 389.338"
   id="svg2"
   xml:space="preserve"><metadata
   id="metadata57"><rdf:RDF><cc:Work
       rdf:about=""><dc:format>image/svg+xml</dc:format><dc:type
         rdf:resource="http://purl.org/dc/dcmitype/StillImage" /><dc:title></dc:title></cc:Work></rdf:RDF></metadata><defs
   id="defs55" />
<path
   d="M 1697.322,383.169 H 50.016 c -24.729,0 -44.847,-20.118 -44.847,-44.847 V 50.016 C 5.169,25.287 25.287,5.169 50.016,5.169 h 1647.307 c 24.729,0 44.847,20.118 44.847,44.847 v 288.307 c -10e-4,24.728 -20.119,44.846 -44.848,44.846 z"
   id="path3"
   style="fill:#ffffff;stroke:#000000;stroke-width:3;stroke-miterlimit:10" />
<path
   d="m 50.016,21.669 c -15.656,0 -28.347,12.691 -28.347,28.347 v 288.307 c 0,15.655 12.691,28.347 28.347,28.347 H 161.41 v -345 H 50.016 z"
   id="path5"
   style="fill:#033fa2" />
<path
   d="m 1725.669,338.323 c 0,15.655 -12.691,28.347 -28.347,28.347 H 50.016 c -15.656,0 -28.347,-12.691 -28.347,-28.347 V 50.016 c 0,-15.656 12.691,-28.347 28.347,-28.347 h 1647.307 c 15.655,0 28.347,12.691 28.347,28.347 v 288.307 z"
   id="path7"
   style="fill:none;stroke:#000000;stroke-width:16;stroke-miterlimit:10" />
<g
   id="g9">
	<polygon
   points="98.241,77.649 103.56,77.657 99.262,80.79 100.897,85.851 96.59,82.731 92.283,85.851 93.918,80.79 89.621,77.657 94.939,77.649 96.59,72.594 "
   id="polygon11"
   style="fill:#ffc200" />
	<polygon
   points="123.746,84.506 129.064,84.514 124.767,87.646 126.402,92.707 122.095,89.588 117.788,92.707 119.423,87.646 115.125,84.514 120.444,84.506 122.095,79.45 "
   id="polygon13"
   style="fill:#ffc200" />
	<polygon
   points="142.391,103.247 147.709,103.255 143.411,106.388 145.047,111.448 140.74,108.329 136.432,111.448 138.068,106.388 133.77,103.255 139.088,103.247 140.74,98.191 "
   id="polygon15"
   style="fill:#ffc200" />
	<polygon
   points="149.273,128.708 154.592,128.716 150.294,131.849 151.93,136.91 147.623,133.791 143.315,136.91 144.951,131.849 140.653,128.716 145.971,128.708 147.623,123.653 "
   id="polygon17"
   style="fill:#ffc200" />
	<polygon
   points="142.431,154.238 147.749,154.246 143.451,157.379 145.087,162.439 140.78,159.32 136.472,162.439 138.108,157.379 133.81,154.246 139.128,154.238 140.78,149.183 "
   id="polygon19"
   style="fill:#ffc200" />
	<polygon
   points="123.703,172.937 129.021,172.945 124.724,176.078 126.359,181.138 122.052,178.019 117.745,181.138 119.38,176.078 115.083,172.945 120.401,172.937 122.052,167.881 "
   id="polygon21"
   style="fill:#ffc200" />
	<polygon
   points="98.169,179.715 103.487,179.723 99.189,182.855 100.825,187.916 96.518,184.797 92.21,187.916 93.846,182.855 89.548,179.723 94.867,179.715 96.518,174.659 "
   id="polygon23"
   style="fill:#ffc200" />
	<polygon
   points="72.671,172.941 77.989,172.949 73.691,176.082 75.327,181.142 71.02,178.023 66.712,181.142 68.348,176.082 64.05,172.949 69.369,172.941 71.02,167.885 "
   id="polygon25"
   style="fill:#ffc200" />
	<polygon
   points="54.024,154.276 59.342,154.284 55.044,157.417 56.68,162.478 52.373,159.358 48.065,162.478 49.701,157.417 45.403,154.284 50.722,154.276 52.373,149.221 "
   id="polygon27"
   style="fill:#ffc200" />
	<polygon
   points="47.211,128.743 52.53,128.75 48.232,131.883 49.868,136.944 45.561,133.825 41.253,136.944 42.889,131.883 38.591,128.75 43.909,128.743 45.561,123.687 "
   id="polygon29"
   style="fill:#ffc200" />
	<polygon
   points="53.954,103.175 59.272,103.183 54.974,106.316 56.61,111.376 52.303,108.257 47.995,111.376 49.631,106.316 45.333,103.183 50.651,103.175 52.303,98.12 "
   id="polygon31"
   style="fill:#ffc200" />
	<polygon
   points="72.688,84.472 78.006,84.479 73.708,87.612 75.344,92.673 71.037,89.554 66.729,92.673 68.365,87.612 64.067,84.479 69.385,84.472 71.037,79.416 "
   id="polygon33"
   style="fill:#ffc200" />
</g>
<polygon
   points="124.046,238.316 70.66,238.316 70.66,306.068 124.046,306.068 124.046,292.078 85.179,292.078 85.179,278.658 114.374,278.658 114.374,265.197 85.179,265.197 85.179,252.306 124.046,252.306 "
   id="polygon35"
   style="fill:#ffffff" />
<g
   id="g37">
	<path
   d="m 275.198,120.861 c -1.089,1.814 -2.541,2.54 -4.355,1.814 -0.363,0 -0.726,0 -1.088,-0.363 l -24.313,-13.427 c -1.452,-1.089 -1.814,-2.54 -1.452,-4.354 0.363,-0.363 0.363,-0.363 0.363,-0.726 15.604,-26.491 38.465,-39.554 69.311,-39.191 41.006,0.726 79.835,35.562 78.746,78.746 0,27.942 -17.056,50.078 -33.748,69.311 l -70.4,72.94 c -0.363,0.726 -0.726,1.451 -0.726,2.178 0,2.54 1.088,3.629 2.903,3.629 h 93.987 c 1.814,0 2.903,1.088 2.903,3.266 v 26.49 c 0,1.814 -1.088,2.903 -2.903,2.903 h -143.339 -0.726 c -1.814,0 -2.903,-1.089 -2.903,-2.903 v -1.451 -31.934 -0.363 c 0,-1.089 0.363,-1.451 1.089,-2.178 l 94.35,-97.252 c 13.79,-14.153 24.313,-27.58 24.313,-44.635 0,-23.225 -19.233,-42.821 -43.183,-43.909 -14.153,-0.001 -30.12,7.257 -38.829,21.409 z"
   id="path39" />
	<path
   d="m 583.649,242.065 c 0,43.546 -33.385,82.012 -77.294,82.012 -44.635,0 -77.657,-37.74 -77.657,-82.012 v -95.802 c 0,-43.546 33.748,-82.012 77.657,-82.012 41.732,0 79.109,39.191 77.294,82.012 v 95.802 z m -34.837,-95.802 c 0,-23.587 -17.781,-47.538 -42.82,-47.538 -25.039,0 -42.82,22.861 -42.82,47.175 v 96.165 c 0,24.313 17.056,47.538 42.82,47.538 23.95,0 43.909,-22.862 42.82,-47.176 v -96.164 z"
   id="path41" />
	<path
   d="m 774.889,242.065 c 0,43.546 -33.385,82.012 -77.294,82.012 -44.635,0 -77.657,-37.74 -77.657,-82.012 v -95.802 c 0,-43.546 33.748,-82.012 77.657,-82.012 41.732,0 79.109,39.191 77.294,82.012 v 95.802 z m -34.837,-95.802 c 0,-23.587 -17.781,-47.538 -42.82,-47.538 -25.039,0 -42.82,22.861 -42.82,47.175 v 96.165 c 0,24.313 17.056,47.538 42.82,47.538 23.95,0 43.909,-22.862 42.82,-47.176 v -96.164 z"
   id="path43" />
	<path
   d="m 941.09,193.801 c 15.967,15.241 24.312,33.022 24.312,54.433 0,41.731 -35.562,75.843 -77.294,75.843 -41.732,0 -76.932,-33.748 -76.932,-75.843 0,-22.136 8.346,-40.643 25.039,-55.884 2.177,-2.177 2.54,-5.443 0.726,-7.983 -13.063,-13.427 -19.596,-29.757 -19.596,-48.99 0,-39.191 33.022,-70.762 71.851,-70.762 38.466,0 72.214,32.297 72.214,70.762 0,19.233 -6.532,35.563 -20.321,49.353 -2.54,2.539 -2.54,6.531 10e-4,9.071 z m -52.982,97.979 c 23.587,0 42.82,-18.87 42.82,-42.457 0,-23.588 -19.233,-42.821 -42.82,-42.821 -23.587,0 -42.458,19.233 -42.458,42.821 10e-4,23.587 18.871,42.457 42.458,42.457 z M 852.183,136.465 c 0,21.047 16.693,37.377 37.014,37.377 20.322,0 36.652,-16.33 36.652,-37.377 0,-19.958 -16.33,-37.014 -36.652,-37.014 -20.322,0 -37.014,17.056 -37.014,37.014 z"
   id="path45" />
	<path
   d="m 1152.285,279.442 c -2.903,4.718 -0.727,8.347 3.629,8.347 h 100.519 c 3.992,0 6.169,2.177 6.169,6.169 v 24.312 c 0,3.992 -1.814,5.807 -5.806,5.807 h -143.703 c -3.991,0 -5.806,-1.814 -5.806,-5.807 v -26.49 c 0,-2.54 0.726,-5.443 2.178,-7.62 l 108.14,-175.273 c 2.54,-3.992 1.451,-7.983 -3.629,-7.983 H 1113.82 c -3.992,0 -6.169,-1.814 -6.169,-5.806 V 70.783 c 0,-3.992 1.814,-6.169 5.806,-6.169 h 143.34 c 3.991,0 5.806,2.177 5.806,6.169 v 26.128 c 0,3.266 -0.726,5.806 -2.177,7.983 l -108.141,174.548 z"
   id="path47" />
	<path
   d="m 1445.857,126.305 c 0.363,0 0.363,0.363 0.363,0.726 0,1.814 -0.726,2.903 -2.54,3.266 l -26.128,6.895 h -0.363 c -2.177,0 -3.266,-1.088 -3.629,-2.903 -5.08,-19.958 -21.41,-34.474 -40.28,-34.474 -24.312,0 -41.731,22.862 -41.731,46.449 v 95.802 0.362 c -1.089,24.677 17.056,47.176 41.731,47.176 25.039,0 41.732,-22.862 41.732,-47.176 V 222.47 c 0,-2.541 -1.452,-3.992 -3.992,-3.992 h -28.305 c -1.814,0 -2.54,-1.088 -2.54,-2.903 v -30.12 c 0,-2.177 0.726,-3.266 2.54,-3.266 h 59.876 c 3.991,0 5.806,2.177 5.806,6.169 v 54.069 c 0,42.82 -31.57,81.649 -75.117,81.649 -43.908,0 -75.479,-38.829 -75.479,-81.649 v -0.726 -95.438 c 0,-42.095 32.297,-81.649 75.479,-81.649 34.838,0 65.683,27.579 72.94,61.69 h -0.363 z"
   id="path49" />
	<path
   d="m 1528.955,279.442 c -2.903,4.718 -0.727,8.347 3.629,8.347 h 100.519 c 3.992,0 6.169,2.177 6.169,6.169 v 24.312 c 0,3.992 -1.814,5.807 -5.806,5.807 h -143.703 c -3.991,0 -5.806,-1.814 -5.806,-5.807 v -26.49 c 0,-2.54 0.726,-5.443 2.178,-7.62 l 108.14,-175.273 c 2.54,-3.992 1.451,-7.983 -3.629,-7.983 H 1490.49 c -3.992,0 -6.169,-1.814 -6.169,-5.806 V 70.783 c 0,-3.992 1.814,-6.169 5.806,-6.169 h 143.34 c 3.991,0 5.806,2.177 5.806,6.169 v 26.128 c 0,3.266 -0.726,5.806 -2.177,7.983 l -108.141,174.548 z"
   id="path51" />
</g>
</svg>