<?xml version="1.0" encoding="UTF-8" standalone="no"?>
<!-- Created with Inkscape (http://www.inkscape.org/) -->
<svg
   xmlns:dc="http://purl.org/dc/elements/1.1/"
   xmlns:cc="http://creativecommons.org/ns#"
   xmlns:rdf="http://www.w3.org/1999/02/22-rdf-syntax-ns#"
   xmlns:svg="http://www.w3.org/2000/svg"
   xmlns="http://www.w3.org/2000/svg"
   xmlns:xlink="http://www.w3.org/1999/xlink"
   xmlns:sodipodi="http://sodipodi.sourceforge.net/DTD/sodipodi-0.dtd"
   xmlns:inkscape="http://www.inkscape.org/namespaces/inkscape"
   width="310"
   height="79.290001"
   id="svg2"
   sodipodi:version="0.32"
   inkscape:version="0.46"
   sodipodi:docbase="F:\License plates"
   sodipodi:docname="Finish license plate.svg"
   inkscape:output_extension="org.inkscape.output.svg.inkscape"
   version="1.0"
   sodipodi:modified="true">
  <defs
     id="defs4">
    <inkscape:perspective
       sodipodi:type="inkscape:persp3d"
       inkscape:vp_x="0 : 39.645 : 1"
       inkscape:vp_y="0 : 1000 : 0"
       inkscape:vp_z="346.70999 : 39.645 : 1"
       inkscape:persp3d-origin="173.355 : 26.43 : 1"
       id="perspective94" />
    <g
       id="s">
      <g
         id="c">
        <path
           transform="matrix(0.9510565,0.309017,-0.309017,0.9510565,0,-1)"
           d="M 0,0 L 0,1 L 0.5,1 L 0,0 z"
           id="t" />
        <use
           id="use3302"
           transform="scale(-1,1)"
           xlink:href="#t"
           x="0"
           y="0"
           width="744.09448"
           height="1052.3622" />
      </g>
      <g
         id="a">
        <use
           id="use3305"
           transform="matrix(0.309017,0.9510565,-0.9510565,0.309017,0,0)"
           xlink:href="#c"
           x="0"
           y="0"
           width="744.09448"
           height="1052.3622" />
        <use
           id="use3307"
           transform="matrix(-0.809017,0.5877853,-0.5877853,-0.809017,0,0)"
           xlink:href="#c"
           x="0"
           y="0"
           width="744.09448"
           height="1052.3622" />
      </g>
      <use
         id="use3309"
         transform="scale(-1,1)"
         xlink:href="#a"
         x="0"
         y="0"
         width="744.09448"
         height="1052.3622" />
    </g>
    <g
       id="g3538">
      <g
         id="g3540">
        <path
           id="path3542"
           d="M 0,0 L 0,1 L 0.5,1 L 0,0 z"
           transform="matrix(0.9510565,0.309017,-0.309017,0.9510565,0,-1)" />
        <use
           height="1052.3622"
           width="744.09448"
           y="0"
           x="0"
           xlink:href="#t"
           transform="scale(-1,1)"
           id="use3544" />
      </g>
      <g
         id="g3546">
        <use
           height="1052.3622"
           width="744.09448"
           y="0"
           x="0"
           xlink:href="#c"
           transform="matrix(0.309017,0.9510565,-0.9510565,0.309017,0,0)"
           id="use3548" />
        <use
           height="1052.3622"
           width="744.09448"
           y="0"
           x="0"
           xlink:href="#c"
           transform="matrix(-0.809017,0.5877853,-0.5877853,-0.809017,0,0)"
           id="use3550" />
      </g>
      <use
         height="1052.3622"
         width="744.09448"
         y="0"
         x="0"
         xlink:href="#a"
         transform="scale(-1,1)"
         id="use3552" />
    </g>
    <inkscape:perspective
       id="perspective3535"
       inkscape:persp3d-origin="173.355 : 26.43 : 1"
       inkscape:vp_z="346.70999 : 39.645 : 1"
       inkscape:vp_y="0 : 1000 : 0"
       inkscape:vp_x="0 : 39.645 : 1"
       sodipodi:type="inkscape:persp3d" />
  </defs>
  <sodipodi:namedview
     id="base"
     pagecolor="#ffffff"
     bordercolor="#666666"
     borderopacity="1.0"
     inkscape:pageopacity="0.0"
     inkscape:pageshadow="2"
     inkscape:zoom="4.5322408"
     inkscape:cx="47.615259"
     inkscape:cy="39.177781"
     inkscape:document-units="px"
     inkscape:current-layer="layer1"
     inkscape:window-width="1024"
     inkscape:window-height="742"
     inkscape:window-x="0"
     inkscape:window-y="0"
     showgrid="false"
     showguides="true"
     inkscape:guide-bbox="true"
     width="346.71px"
     height="79.29px">
    <inkscape:grid
       type="xygrid"
       id="grid3610"
       visible="true"
       enabled="true" />
  </sodipodi:namedview>
  <metadata
     id="metadata7">
    <rdf:RDF>
      <cc:Work
         rdf:about="">
        <dc:format>image/svg+xml</dc:format>
        <dc:type
           rdf:resource="http://purl.org/dc/dcmitype/StillImage" />
      </cc:Work>
    </rdf:RDF>
  </metadata>
  <g
     inkscape:label="Capa 1"
     inkscape:groupmode="layer"
     id="layer1"
     transform="translate(-5.5279208,-5.095195)">
    <path
       style="fill:#ffffff;fill-opacity:1;fill-rule:evenodd;stroke:#ffffff;stroke-width:2.99955249000000010px;stroke-linecap:butt;stroke-linejoin:miter;stroke-opacity:1"
       d="M 305.66057,12.813977 L 306.54313,77.558222 L 60.415493,78.661429 C 31.462031,78.649979 13.667287,79.130961 12.748763,74.519063 L 13.619863,16.860819 C 17.792499,12.250927 7.0645798,12.798122 35.527921,12.348103 L 305.66057,12.813977 z"
       id="path3614"
       sodipodi:nodetypes="ccccccc" />
    <path
       style="fill:#ffffff;fill-opacity:1;stroke:none;stroke-width:5.38288307;stroke-miterlimit:4;stroke-dasharray:none;stroke-opacity:1"
       d="M 15.98466,9.4124997 C 12.165233,9.4124997 9.0125,12.942238 9.0125,17.25625 L 9.0125,73.81875 C 9.0125,78.132763 12.165233,81.693751 15.98466,81.69375 L 301.9262,81.69375 C 305.74563,81.69375 308.89835,78.13276 308.89836,73.81875 L 308.89836,17.25625 C 308.89836,12.942237 305.74563,9.4124997 301.9262,9.4124997 L 15.98466,9.4124997 z M 15.98466,14.7875 L 301.9262,14.7875 C 303.18783,14.7875 304.13959,15.831245 304.13959,17.25625 L 304.13959,73.81875 C 304.13959,75.24376 303.18783,76.2875 301.9262,76.2875 L 15.98466,76.2875 C 14.723027,76.2875 13.798943,75.243755 13.798943,73.81875 L 13.798943,17.25625 C 13.798943,15.831247 14.723026,14.7875 15.98466,14.7875 z"
       id="rect2221" />
    <path
       style="fill:#003399;fill-opacity:1;fill-rule:evenodd;stroke:#003399;stroke-width:1px;stroke-linecap:butt;stroke-linejoin:miter;stroke-opacity:1"
       d="M 43.568685,10.76329 L 43.568685,79.706196 L 17.027325,79.706196 C 13.902305,79.694406 12.315076,78.144836 11.882541,75.440566 L 11.976562,16.066591 C 12.355475,12.90997 13.95521,10.974171 17.027325,10.510752 L 43.568685,10.76329 z"
       id="path3214"
       sodipodi:nodetypes="ccccccc" />
    <g
       style="fill:#ffcc00"
       transform="matrix(1.6138444,0,0,1.6138444,29.036844,31.652517)"
       id="g3313">
      <use
         height="1052.3622"
         width="744.09448"
         x="0"
         xlink:href="#s"
         y="-6"
         id="use3315" />
      <use
         height="1052.3622"
         width="744.09448"
         x="0"
         xlink:href="#s"
         y="6"
         id="use3317" />
      <g
         id="l">
        <use
           height="1052.3622"
           width="744.09448"
           y="0"
           xlink:href="#s"
           x="-6"
           id="use3320" />
        <use
           height="1052.3622"
           width="744.09448"
           y="0"
           x="0"
           xlink:href="#s"
           transform="matrix(-0.809017,-0.5877853,0.5877853,-0.809017,-3,-5.1961524)"
           id="use3322" />
        <use
           height="1052.3622"
           width="744.09448"
           y="0"
           x="0"
           xlink:href="#s"
           transform="matrix(-0.809017,0.5877853,-0.5877853,-0.809017,-5.1961524,-3)"
           id="use3324" />
        <use
           height="1052.3622"
           width="744.09448"
           y="0"
           x="0"
           xlink:href="#s"
           transform="matrix(0.309017,0.9510565,-0.9510565,0.309017,-5.1961524,3)"
           id="use3326" />
        <use
           height="1052.3622"
           width="744.09448"
           y="0"
           x="0"
           xlink:href="#s"
           transform="matrix(0.309017,0.9510565,-0.9510565,0.309017,-3,5.1961524)"
           id="use3328" />
      </g>
      <use
         height="1052.3622"
         width="744.09448"
         y="0"
         x="0"
         xlink:href="#l"
         transform="scale(-1,1)"
         id="use3330" />
    </g>
    <path
       style="fill:#ffffff;fill-opacity:1;stroke:#000000;stroke-width:1.50000000000000000;stroke-miterlimit:4;stroke-dasharray:none;stroke-opacity:1"
       d="M 16.887921,9.4129456 C 12.573908,9.4129456 9.0129208,12.942684 9.0129208,17.256696 L 9.0129208,73.819196 C 9.0129208,78.133209 12.573908,81.694197 16.887921,81.694196 L 303.85667,81.694196 C 308.17068,81.694196 311.73166,78.133206 311.73167,73.819196 L 311.73167,17.256696 C 311.73167,12.942683 308.17068,9.4129456 303.85667,9.4129456 L 16.887921,9.4129456 z M 16.887921,14.787946 L 303.85667,14.787946 C 305.28167,14.787946 306.35667,15.831691 306.35667,17.256696 L 306.35667,73.819196 C 306.35667,75.244206 305.28167,76.287946 303.85667,76.287946 L 16.887921,76.287946 C 15.462917,76.287946 14.419171,75.244201 14.419171,73.819196 L 14.419171,17.256696 C 14.419171,15.831693 15.462916,14.787946 16.887921,14.787946 z"
       id="path6188"
       sodipodi:nodetypes="cccccccccccccccccc" />
    <path
       style="font-size:14.38441277px;font-style:normal;font-weight:normal;fill:#ffffff;fill-opacity:1;stroke:#ffffff;stroke-width:0.35857138;stroke-linecap:butt;stroke-linejoin:miter;stroke-miterlimit:4;stroke-opacity:1;font-family:Bitstream Vera Sans"
       d="M 19.781375,64.02991 L 19.781375,53.655031 L 26.238168,53.655031 L 26.238168,55.143261 L 21.312439,55.143261 L 21.312439,58.198046 L 25.510739,58.198046 L 25.510739,59.600827 L 21.312439,59.600827 L 21.312439,64.02991 L 19.781375,64.02991 z M 27.402053,64.02991 L 27.402053,53.655031 L 28.933117,53.655031 L 28.933117,64.02991 L 27.402053,64.02991 z M 31.059978,64.02991 L 31.059978,53.655031 L 32.507906,53.655031 L 37.073386,61.03209 L 37.101097,61.03209 L 37.101097,53.655031 L 38.639088,53.655031 L 38.639088,64.02991 L 37.191159,64.02991 L 32.625681,56.652851 L 32.591041,56.652851 L 32.591041,64.02991 L 31.059978,64.02991 z"
       id="text3367" />
    <path
       style="font-size:64.07702637px;font-style:normal;font-weight:normal;fill:#000000;fill-opacity:1;stroke:none;stroke-width:1px;stroke-linecap:butt;stroke-linejoin:miter;stroke-opacity:1;font-family:Bitstream Vera Sans"
       d="M 57.390688,66.72443 L 57.390688,23.189252 L 75.900946,23.189252 C 80.553054,23.189296 84.074914,24.279916 86.466537,26.461114 C 88.858091,28.642393 90.053885,31.446131 90.053923,34.872337 C 90.053885,36.665168 89.573383,38.388247 88.612416,40.04158 C 87.651376,41.694965 85.783971,43.089364 83.010197,44.224781 L 83.010197,44.344301 C 85.631085,44.902083 87.585853,46.162023 88.874508,48.124122 C 90.16309,50.08626 90.807399,52.172879 90.807438,54.383985 C 90.807399,58.148876 89.49148,61.146834 86.859675,63.377869 C 84.2278,65.608911 81.12092,66.72443 77.539023,66.72443 L 57.390688,66.72443 z M 75.769901,47.392062 L 64.630983,47.392062 L 64.630983,60.509388 L 75.769901,60.509388 C 78.456319,60.509393 80.427468,59.847054 81.683355,58.522367 C 82.939183,57.197696 83.567111,55.678797 83.567142,53.965665 C 83.567111,52.252558 82.939183,50.72868 81.683355,49.394023 C 80.427468,48.059401 78.456319,47.392082 75.769901,47.392062 L 75.769901,47.392062 z M 75.11467,29.045735 L 64.630983,29.045735 L 64.630983,41.53558 L 75.11467,41.53558 C 77.713725,41.535605 79.646653,40.928046 80.913459,39.712899 C 82.180208,38.497807 82.813597,37.023728 82.813627,35.290658 C 82.813597,33.61741 82.180208,32.15827 80.913459,30.913236 C 79.646653,29.668272 77.713725,29.045772 75.11467,29.045735 L 75.11467,29.045735 z M 97.394049,66.72443 L 97.394049,61.226508 L 119.08217,29.045735 L 98.27861,29.045735 L 98.27861,23.189252 L 127.92779,23.189252 L 127.92779,28.149335 L 106.17414,60.509388 L 127.92779,60.509388 L 127.92779,66.72443 L 97.394049,66.72443 z M 139.13531,66.72443 L 139.13531,23.189252 L 155.67679,45.575264 L 171.92341,23.189252 L 171.92341,66.72443 L 164.68311,66.72443 L 164.68311,45.5635 L 164.55207,45.5635 L 155.52029,56.509387 L 146.53942,45.5635 L 146.37561,45.5635 L 146.37561,66.72443 L 139.13531,66.72443 z M 184.6256,52.919865 L 184.6256,46.674942 L 196.83946,46.674942 L 196.83946,52.919865 L 184.6256,52.919865 z M 211.66805,66.814071 L 211.66805,23.189252 L 218.54797,23.189252 L 218.54797,66.814071 L 211.66805,66.814071 z M 236.37333,35.290658 C 236.37332,37.342447 237.0777,38.896206 238.48644,39.951939 C 239.89518,41.007725 241.47319,41.535605 243.22048,41.53558 C 244.96775,41.535605 246.54576,41.007725 247.95452,39.951939 C 249.36325,38.896206 250.06762,37.342447 250.06764,35.290658 C 250.06762,33.25885 249.36325,31.710071 247.95452,30.644315 C 246.54576,29.578632 244.96775,29.045772 243.22048,29.045735 C 241.47319,29.045772 239.89518,29.578632 238.48644,30.644315 C 237.0777,31.710071 236.37332,33.25885 236.37333,35.290658 L 236.37333,35.290658 z M 228.67437,54.025425 C 228.67437,49.78248 230.55269,46.515602 234.30935,44.224781 C 232.88968,43.069444 231.73757,41.789585 230.85301,40.385199 C 229.96845,38.980867 229.52617,37.322528 229.52617,35.410177 C 229.52617,31.904291 230.84209,28.926252 233.47394,26.476054 C 236.10577,24.025935 239.35461,22.800856 243.22048,22.800812 C 247.08632,22.800856 250.33518,24.025935 252.96704,26.476054 C 255.59885,28.926252 256.91478,31.904291 256.9148,35.410177 C 256.91478,37.322528 256.46703,38.980867 255.57158,40.385199 C 254.67607,41.789585 253.54034,43.069444 252.16438,44.224781 C 255.89917,46.535522 257.76657,49.8024 257.7666,54.025425 C 257.76657,57.889916 256.33052,61.032294 253.45846,63.452569 C 250.58635,65.872851 247.17369,67.08299 243.22048,67.08299 C 239.24541,67.08299 235.82729,65.872851 232.96613,63.452569 C 230.10496,61.032294 228.67437,57.889916 228.67437,54.025425 L 228.67437,54.025425 z M 235.52152,53.965665 C 235.52152,55.957676 236.29141,57.606056 237.83122,58.910807 C 239.371,60.215574 241.16742,60.867953 243.22048,60.867948 C 245.25169,60.867953 247.0481,60.215574 248.60976,58.910807 C 250.17137,57.606056 250.95219,55.957676 250.95221,53.965665 C 250.95219,51.973679 250.17137,50.32032 248.60976,49.005583 C 247.0481,47.690882 245.25169,47.033522 243.22048,47.033503 C 241.16742,47.033522 239.371,47.690882 237.83122,49.005583 C 236.29141,50.32032 235.52152,51.973679 235.52152,53.965665 L 235.52152,53.965665 z M 262.8201,60.270348 L 276.14581,23.189252 L 283.77924,23.189252 L 273.62781,54.383985 L 282.07719,54.383985 L 282.07719,43.83438 L 288.92435,43.83438 L 288.92435,54.383985 L 292.75744,54.383985 L 292.75744,60.270348 L 288.92435,60.270348 L 288.92435,66.72443 L 282.07719,66.72443 L 282.07719,60.270348 L 262.8201,60.270348 z"
       id="text3621"
       sodipodi:nodetypes="cccsssccsssccccccsssccccccssscccccccccccccccccccccccccccccccccccccsssssssccccssssssscsssscccsssssssccccccccccccccccc" />
  </g>
</svg>
