<?xml version="1.0" encoding="UTF-8" standalone="no"?>
<!-- Created with Inkscape (http://www.inkscape.org/) -->

<svg
   xmlns:dc="http://purl.org/dc/elements/1.1/"
   xmlns:cc="http://creativecommons.org/ns#"
   xmlns:rdf="http://www.w3.org/1999/02/22-rdf-syntax-ns#"
   xmlns:svg="http://www.w3.org/2000/svg"
   xmlns="http://www.w3.org/2000/svg"
   version="1.1"
   width="1748.353"
   height="389.33801"
   viewBox="0 0 1748.353 389.338"
   id="svg2"
   xml:space="preserve"><metadata
   id="metadata72"><rdf:RDF><cc:Work
       rdf:about=""><dc:format>image/svg+xml</dc:format><dc:type
         rdf:resource="http://purl.org/dc/dcmitype/StillImage" /><dc:title></dc:title></cc:Work></rdf:RDF></metadata><defs
   id="defs70" />
<path
   d="M 1697.822,383.669 H 50.516 c -24.729,0 -44.847,-20.118 -44.847,-44.847 V 50.516 C 5.669,25.787 25.787,5.669 50.516,5.669 h 1647.307 c 24.729,0 44.847,20.118 44.847,44.847 v 288.307 c -10e-4,24.728 -20.119,44.846 -44.848,44.846 z"
   id="path3"
   style="fill:#ffffff;stroke:#000000;stroke-width:3;stroke-miterlimit:10" />
<path
   d="m 50.516,22.169 c -15.656,0 -28.347,12.691 -28.347,28.347 v 288.307 c 0,15.655 12.691,28.347 28.347,28.347 h 132.548 v -345 H 50.516 z"
   id="path5"
   style="fill:#033fa2" />
<path
   d="m 1726.169,338.823 c 0,15.655 -12.691,28.347 -28.347,28.347 H 50.516 c -15.656,0 -28.347,-12.691 -28.347,-28.347 V 50.516 c 0,-15.656 12.691,-28.347 28.347,-28.347 h 1647.307 c 15.655,0 28.347,12.691 28.347,28.347 v 288.307 z"
   id="path7"
   style="fill:none;stroke:#000000;stroke-width:16;stroke-miterlimit:10" />
<g
   id="g9">
	<polygon
   points="106.902,73.662 112.221,73.67 107.923,76.803 109.559,81.863 105.251,78.744 100.944,81.863 102.58,76.803 98.282,73.67 103.6,73.662 105.251,68.606 "
   id="polygon11"
   style="fill:#ffc200" />
	<polygon
   points="132.407,80.519 137.726,80.526 133.428,83.659 135.063,88.72 130.756,85.601 126.449,88.72 128.084,83.659 123.787,80.526 129.105,80.519 130.756,75.463 "
   id="polygon13"
   style="fill:#ffc200" />
	<polygon
   points="151.052,99.26 156.37,99.268 152.072,102.4 153.708,107.461 149.401,104.342 145.093,107.461 146.729,102.4 142.431,99.268 147.75,99.26 149.401,94.204 "
   id="polygon15"
   style="fill:#ffc200" />
	<polygon
   points="157.935,124.721 163.253,124.729 158.955,127.862 160.591,132.922 156.284,129.803 151.976,132.922 153.612,127.862 149.314,124.729 154.632,124.721 156.284,119.666 "
   id="polygon17"
   style="fill:#ffc200" />
	<polygon
   points="151.092,150.251 156.41,150.259 152.112,153.392 153.748,158.452 149.441,155.333 145.133,158.452 146.769,153.392 142.471,150.259 147.79,150.251 149.441,145.195 "
   id="polygon19"
   style="fill:#ffc200" />
	<polygon
   points="132.364,168.95 137.683,168.958 133.385,172.09 135.021,177.151 130.713,174.032 126.406,177.151 128.042,172.09 123.744,168.958 129.062,168.95 130.713,163.894 "
   id="polygon21"
   style="fill:#ffc200" />
	<polygon
   points="106.83,175.728 112.148,175.735 107.851,178.868 109.486,183.929 105.179,180.81 100.872,183.929 102.507,178.868 98.209,175.735 103.528,175.728 105.179,170.672 "
   id="polygon23"
   style="fill:#ffc200" />
	<polygon
   points="81.332,168.954 86.65,168.961 82.353,172.094 83.988,177.155 79.681,174.036 75.374,177.155 77.009,172.094 72.711,168.961 78.03,168.954 79.681,163.898 "
   id="polygon25"
   style="fill:#ffc200" />
	<polygon
   points="62.685,150.289 68.003,150.297 63.706,153.43 65.341,158.49 61.034,155.371 56.727,158.49 58.362,153.43 54.064,150.297 59.383,150.289 61.034,145.233 "
   id="polygon27"
   style="fill:#ffc200" />
	<polygon
   points="55.873,124.755 61.191,124.763 56.893,127.896 58.529,132.957 54.222,129.837 49.914,132.957 51.55,127.896 47.252,124.763 52.57,124.755 54.222,119.7 "
   id="polygon29"
   style="fill:#ffc200" />
	<polygon
   points="62.615,99.188 67.933,99.196 63.635,102.329 65.271,107.389 60.964,104.27 56.656,107.389 58.292,102.329 53.994,99.196 59.312,99.188 60.964,94.132 "
   id="polygon31"
   style="fill:#ffc200" />
	<polygon
   points="81.349,80.484 86.667,80.492 82.369,83.625 84.005,88.686 79.698,85.566 75.39,88.686 77.026,83.625 72.728,80.492 78.046,80.484 79.698,75.429 "
   id="polygon33"
   style="fill:#ffc200" />
</g>
<g
   id="g35">
	<path
   d="m 76.75,261.134 h 23.557 v 13.501 c 0,13.129 -10.428,23.557 -23.649,23.557 -10.428,0 -17.598,-6.146 -20.764,-11.918 -2.141,-3.91 -2.886,-5.866 -2.886,-21.787 0,-15.922 0.745,-17.877 2.886,-21.788 3.166,-5.772 10.335,-11.918 20.764,-11.918 12.569,0 21.229,8.846 23.277,19.646 H 89.32 c -1.583,-5.121 -6.332,-9.591 -12.663,-9.591 -4.749,0 -8.194,2.235 -10.242,4.842 -2.607,3.353 -3.352,5.214 -3.352,18.809 0,13.594 0.745,15.456 3.352,18.808 2.048,2.607 5.494,4.842 10.242,4.842 7.635,0 13.594,-5.772 13.594,-14.06 v -3.445 H 76.75 v -9.498 z"
   id="path37"
   style="fill:#ffffff" />
	<path
   d="m 112.037,231.339 h 25.884 c 5.586,0 9.962,1.304 13.5,4.376 3.725,3.166 6.611,8.194 6.611,14.153 0,8.565 -4.842,15.549 -12.849,18.342 l 15.363,29.423 h -11.918 l -13.687,-28.306 h -12.849 v 28.306 h -10.056 v -66.294 z m 10.056,29.051 h 15.177 c 7.542,0 11.266,-4.936 11.266,-10.521 0,-3.445 -1.304,-6.053 -3.352,-7.542 -1.862,-1.396 -3.911,-2.049 -7.355,-2.049 h -15.735 v 20.112 z"
   id="path39"
   style="fill:#ffffff" />
</g>
<g
   transform="matrix(0.72059,0,0,0.72059,35.964992,-52.032396)"
   id="g7296">
	
		<path
   d="m 1092.035,148.774 c -39.254,0.005 -71.067,31.832 -71.057,71.081 l 0,0 c 0,39.252 31.827,71.066 71.072,71.06 39.253,-0.005 71.067,-31.826 71.061,-71.078 -0.01,-39.254 -31.829,-71.069 -71.076,-71.063 z"
   id="path2512"
   style="fill:#ffffff;stroke:#000000;stroke-width:2.78550005" />
	
		<path
   d="m 1092.137,178.471 c -22.85,0.003 -41.372,18.529 -41.368,41.38 l 0,0 c 0,22.85 18.527,41.37 41.376,41.368 22.851,-0.002 41.371,-18.533 41.371,-41.379 -0.01,-22.85 -18.53,-41.373 -41.379,-41.369 z"
   id="path3284"
   style="fill:none;stroke:#000000;stroke-width:4.78459978" />
	<path
   d="m 1050.846,249.811 -1.296,1.199 6.229,6.766 -3.752,3.458 -5.621,-6.096 -1.288,1.191 5.619,6.097 -3.375,3.112 -6.002,-6.513 -1.299,1.198 7.344,7.971 11.019,-10.158 -7.578,-8.225 z m -16.91,0.422 16.027,-1.438 -0.898,-1.815 -11.545,1.231 c -0.869,0.091 -1.724,0.215 -2.561,0.386 0.538,-0.473 1.151,-1.075 1.859,-1.805 l 7.998,-8.341 -0.966,-1.929 -10.827,11.881 0.913,1.83 z m -5.995,-17.115 15.798,3.055 -0.369,-1.987 -11.435,-2.018 c -0.855,-0.154 -1.711,-0.27 -2.561,-0.339 0.637,-0.306 1.403,-0.716 2.278,-1.22 l 9.994,-5.798 -0.386,-2.118 -13.695,8.417 0.376,2.008 z m 13.603,-14.318 -7.019,-0.778 0.847,-7.747 7.019,0.773 0.219,-1.971 -14.895,-1.641 -0.219,1.973 6.116,0.675 -0.852,7.742 -6.112,-0.669 -0.216,1.97 14.897,1.638 0.215,-1.965 z m 2.686,-14.721 -10.781,-4.745 13.952,-2.461 0.823,-1.859 -13.719,-6.044 -0.764,1.745 10.763,4.742 -13.938,2.461 -0.823,1.863 13.72,6.034 0.767,-1.736 z m 7.442,-13.63 -12.152,-8.776 -1.157,1.611 12.147,8.774 1.162,-1.609 z m 3.394,-4.203 -3.534,-3.808 0.17,-3.421 9.073,1.932 1.918,-1.779 -10.876,-2.07 0.483,-8.73 -1.973,1.83 -0.402,10.51 -5.056,-5.448 -1.456,1.348 10.197,10.987 1.456,-1.351 z m 11,-8.849 -3.097,-6.349 6.996,-3.421 3.098,6.353 1.785,-0.875 -6.573,-13.465 -1.783,0.864 2.698,5.537 -6.997,3.413 -2.701,-5.526 -1.782,0.867 6.571,13.468 1.785,-0.866 z m 30.112,-7.031 -6.817,-14.691 -2.13,0.099 -5.064,15.233 14.011,-0.641 z m -8.531,-10.169 c 0.309,-0.998 0.533,-1.961 0.676,-2.897 0.262,0.781 0.664,1.799 1.202,3.059 l 3.633,8.375 -8.327,0.384 2.816,-8.921 z m 12.173,10.986 1.72,-6.855 7.555,1.9 -1.719,6.853 1.921,0.481 3.656,-14.534 -1.927,-0.484 -1.499,5.97 -7.554,-1.899 1.498,-5.97 -1.924,-0.485 -3.649,14.539 1.922,0.484 z m 14.237,4.562 6.938,-10.706 -3.295,13.066 1.502,0.97 10.479,-8.155 -6.825,10.525 1.603,1.04 8.149,-12.582 -2.241,-1.443 -8.682,6.794 c -0.875,0.691 -1.538,1.218 -1.975,1.583 0.142,-0.488 0.345,-1.243 0.609,-2.25 l 2.79,-10.836 -2.504,-1.624 -8.15,12.582 1.602,1.036 z m 18.202,4.128 c -1.041,0.806 -1.853,1.796 -2.437,2.966 -0.583,1.175 -0.804,2.411 -0.663,3.706 0.14,1.295 0.641,2.5 1.502,3.617 0.796,1.033 1.784,1.805 2.961,2.315 1.173,0.514 2.426,0.644 3.747,0.396 1.326,-0.249 2.589,-0.836 3.792,-1.767 1.187,-0.916 2.068,-1.967 2.647,-3.15 0.581,-1.19 0.793,-2.418 0.636,-3.704 -0.156,-1.285 -0.658,-2.471 -1.504,-3.567 -1.295,-1.672 -2.905,-2.603 -4.833,-2.799 -1.933,-0.196 -3.879,0.467 -5.848,1.987 l 0,0 z m 1.225,1.637 c 1.784,-1.382 3.368,-1.966 4.749,-1.755 1.384,0.209 2.504,0.871 3.362,1.983 0.608,0.78 0.95,1.638 1.041,2.576 0.091,0.934 -0.1,1.838 -0.569,2.724 -0.466,0.884 -1.183,1.698 -2.149,2.445 -1.525,1.179 -2.996,1.708 -4.419,1.586 -1.417,-0.122 -2.586,-0.775 -3.5,-1.952 -0.897,-1.161 -1.229,-2.441 -1.004,-3.848 0.232,-1.4 1.062,-2.656 2.489,-3.759 l 0,0 z m 3.452,18.392 4.871,-1.793 3.093,1.474 -5.275,7.629 0.903,2.458 6.101,-9.239 7.873,3.801 -0.93,-2.52 -9.546,-4.419 6.977,-2.568 -0.687,-1.861 -14.065,5.174 0.685,1.864 z m 3.892,13.505 6.076,-0.445 0.281,3.834 c 0.155,2.117 0.698,3.544 1.638,4.287 0.942,0.746 2.047,1.071 3.318,0.979 0.741,-0.054 1.412,-0.253 2.006,-0.602 0.596,-0.349 1.048,-0.786 1.355,-1.306 0.308,-0.518 0.495,-1.149 0.561,-1.895 0.061,-0.528 0.052,-1.29 -0.022,-2.284 l -0.411,-5.639 -14.945,1.09 0.143,1.981 z m 13.183,-0.963 0.277,3.823 c 0.066,0.898 0.066,1.517 0,1.855 -0.103,0.527 -0.369,0.964 -0.793,1.312 -0.417,0.348 -0.943,0.55 -1.569,0.595 -0.863,0.063 -1.552,-0.156 -2.068,-0.661 -0.512,-0.5 -0.818,-1.391 -0.912,-2.669 l -0.282,-3.866 5.342,-0.389 z m -12.856,13.441 4.1,2.547 -1.29,6.134 -4.8,0.775 -0.465,2.209 15.931,-2.913 0.44,-2.092 -13.483,-8.72 -0.433,2.06 z m 9.529,5.957 c 0.855,0.536 1.733,0.994 2.634,1.377 -0.838,0.065 -1.926,0.198 -3.259,0.403 l -4.388,0.672 1.049,-4.969 3.964,2.517 z m -15.494,12.335 11.74,6.079 -2.281,4.404 1.568,0.814 5.464,-10.548 -1.569,-0.814 -2.269,4.383 -11.739,-6.08 -0.914,1.762 z m -5.194,7.723 11.794,9.243 1.224,-1.557 -11.795,-9.246 -1.223,1.56 z m -2.459,3.131 1.701,4.522 -4.758,4.074 -4.281,-2.31 -1.716,1.468 14.41,7.387 1.622,-1.386 -5.38,-15.127 -1.598,1.372 z m 3.93,10.528 c 0.352,0.943 0.769,1.846 1.245,2.696 -0.701,-0.466 -1.644,-1.02 -2.83,-1.668 l -3.885,-2.132 3.858,-3.307 1.612,4.411 z m -13.637,4.374 1.02,1.832 1.83,-1.018 -1.018,-1.833 -1.832,1.019 z m -11.991,-1.878 1.933,6.05 -3.068,10.05 2.198,-0.71 1.425,-5.075 c 0.311,-1.13 0.564,-2.137 0.755,-3.023 0.703,0.667 1.439,1.31 2.221,1.956 l 4.188,3.407 2.298,-0.74 -8.128,-6.472 -1.936,-6.045 -1.886,0.602 z m -9.427,2.143 -0.07,12.761 -4.266,-12.785 -1.787,-0.009 -4.418,12.524 0.063,-12.543 -1.913,-0.013 -0.077,14.985 2.664,0.015 3.648,-10.411 c 0.366,-1.052 0.638,-1.848 0.808,-2.394 0.151,0.491 0.383,1.229 0.703,2.225 l 3.494,10.628 2.986,0.016 0.079,-14.989 -1.914,-0.01 z m -26.262,-4.412 -0.56,1.68 8.729,2.904 -1.613,4.839 -7.867,-2.616 -0.555,1.67 7.866,2.615 -1.446,4.359 -8.402,-2.795 -0.556,1.676 10.28,3.425 4.737,-14.227 -10.613,-3.53 z m -7.557,2.756 -1.046,1.816 1.819,1.044 1.041,-1.815 -1.814,-1.045 z"
   id="text3290"
   style="stroke:#000000;stroke-width:0.57679999" />
	<path
   d="m 1101.795,211.604 -0.01,-19.191 19.002,-0.005 0,19.193 -18.999,0.003 z"
   id="path7264"
   style="fill:#ffffff;stroke:#1f1a17;stroke-width:1.91349995" />
	<path
   d="m 1101.8,230.047 18.995,-0.005 0.01,13.726 c -0,4.638 -2.677,5.729 -6.689,5.731 -4.589,-0.003 -9.616,0.584 -12.314,0.921 v -20.373 z"
   id="path7262"
   style="fill:#ffffff;stroke:#1f1a17;stroke-width:1.91349995" />
	<path
   d="m 1083.355,230.044 v 20.329 c -2.811,-0.344 -7.448,-0.869 -11.808,-0.872 -4.012,0.005 -6.702,-1.088 -6.705,-5.727 v -13.722 l 18.513,-0.008 z"
   id="path7260"
   style="fill:#ffffff;stroke:#1f1a17;stroke-width:1.91349995" />
	<path
   d="m 1083.353,211.605 -18.518,0.001 v -19.188 l 18.514,-0.003 0,19.19 z"
   id="path7258"
   style="fill:#ffffff;stroke:#1f1a17;stroke-width:1.91349995" />
	<path
   d="m 1101.791,192.413 0.01,19.191 19,-0.003 v 18.441 l -18.995,0.005 v 20.373 c -0.447,0.058 -1.34,0.156 -1.614,0.19 -2.139,0.266 -5.617,1.617 -7.222,4.085 -1.604,-2.466 -5.349,-3.817 -7.507,-4.085 -0.353,-0.049 -1.461,-0.157 -2.102,-0.237 v -20.329 l -18.513,0.008 -0.01,-18.445 18.518,-0.001 -0,-19.19 18.441,-0.003 z"
   id="path5964"
   style="fill:#ffffff;stroke:#1f1a17;stroke-width:1.91349995" />
</g>
<g
   id="g50">
	<path
   d="m 1487.155,246.676 c 0,39.482 32.121,71.604 71.602,71.604 39.482,0 71.605,-32.121 71.605,-71.604 V 137.955 c 0,-39.482 -32.123,-71.604 -71.605,-71.604 -39.48,0 -71.602,32.122 -71.602,71.604 v 108.721 z m 107.621,0 c 0,19.861 -16.158,36.018 -36.02,36.018 -19.859,0 -36.018,-16.156 -36.018,-36.018 V 137.955 c 0,-19.861 16.158,-36.02 36.018,-36.02 19.861,0 36.02,16.158 36.02,36.02 v 108.721 z"
   id="path52"
   style="stroke:#000000;stroke-width:5;stroke-linecap:round;stroke-linejoin:round;stroke-miterlimit:10" />
	<path
   d="m 1450.285,101.558 -75.219,216.722 h -37.271 l 75.223,-216.722 h -78.764 v 37.787 h -35.207 V 66.35 h 14.695 l 0,0 h 136.543 v 35.208 z"
   id="path54"
   style="stroke:#000000;stroke-width:5;stroke-linecap:round;stroke-linejoin:round;stroke-miterlimit:10" />
	<path
   d="M 1267.159,280.432 H 1248.8 v 37.848 h -35.209 v -37.848 h -88.143 L 1176.032,66.35 h 35.211 l -42.268,178.873 h 44.615 v -37.139 h 35.209 v 37.139 h 18.359 v 35.209 z"
   id="path56"
   style="stroke:#000000;stroke-width:5;stroke-linecap:round;stroke-linejoin:round;stroke-miterlimit:10" />
	<path
   d="m 970.748,101.543 v 61.397 c 10.674,-6.327 23.114,-9.974 36.396,-9.974 39.479,0 71.6,32.12 71.6,71.6 v 22.109 c 0,39.482 -32.121,71.604 -71.6,71.604 -33.023,0 -60.884,-22.477 -69.12,-52.932 h 38.326 c 6.325,10.393 17.763,17.348 30.794,17.348 19.86,0 36.017,-16.158 36.017,-36.02 v -22.109 c 0,-19.861 -17.279,-36.019 -37.14,-36.019 -12.952,0 -26.403,6.875 -32.752,17.162 h -37.73 V 66.335 h 143.205 v 35.208 H 970.748 z"
   id="path58"
   style="stroke:#000000;stroke-width:5;stroke-linecap:round;stroke-linejoin:round;stroke-miterlimit:10" />
	<path
   d="m 773.842,207.903 v -31.175 h 97.811 v 31.175 h -97.811 z"
   id="path60"
   style="stroke:#000000;stroke-width:5;stroke-linecap:round;stroke-linejoin:round;stroke-miterlimit:10" />
	<path
   d="M 686.462,195.415 741.224,318.28 H 703.25 L 667.477,238.012 631.7,318.28 H 593.727 L 648.491,195.415 590.964,66.35 h 37.971 l 38.541,86.466 38.537,-86.466 h 37.973 l -57.524,129.065 z"
   id="path62"
   style="stroke:#000000;stroke-width:5;stroke-linecap:round;stroke-linejoin:round;stroke-miterlimit:10" />
	<path
   d="m 518.172,192.393 c 15.942,-13.169 26.047,-32.532 26.047,-54.101 0,-39.583 -33.984,-71.785 -75.754,-71.785 L 400.938,66.35 v 251.93 h 67.527 c 41.771,0 75.754,-32.203 75.754,-71.785 0,-21.569 -10.105,-40.932 -26.047,-54.102 z m -49.707,90.678 h -32.318 v -73.15 l 32.318,0.156 c 22.149,0 40.17,15.428 40.17,36.418 0,20.99 -18.021,36.576 -40.17,36.576 z m 0,-108.361 -32.318,0.001 v -73.15 h 32.318 c 22.149,0 40.17,15.742 40.17,36.732 0,20.988 -18.021,36.417 -40.17,36.417 z"
   id="path64"
   style="stroke:#000000;stroke-width:5;stroke-linecap:round;stroke-linejoin:round;stroke-miterlimit:10" />
	<path
   d="M 321.357,318.28 H 286.148 V 66.35 h 35.209 v 251.93 z"
   id="path66"
   style="stroke:#000000;stroke-width:5;stroke-linecap:round;stroke-linejoin:round;stroke-miterlimit:10" />
</g>
</svg>