<svg width="522" height="112" viewBox="0 0 138.112 29.633" xmlns:xlink="http://www.w3.org/1999/xlink" xmlns="http://www.w3.org/2000/svg"><path style="fill:#fff;stroke-width:.239836" d="M123.532-27.598h124.354V-1.14H123.532z" transform="translate(-111.362 29.185)"/><path style="fill:#039;fill-opacity:1;stroke-width:.25227" d="M112.949-27.598h10.583V-1.14h-10.583z" transform="translate(-111.362 29.185)"/><path style="font-size:23.4441px;font-family:'Charles Wright';-inkscape-font-specification:'Charles Wright';letter-spacing:.0366314px;stroke-width:.163821" d="M234.413-10.383c0-2.344-1.5-4.22-3.375-4.22h-2.945l.563-3.985h5.514v-3.189h-7.746l-1.388 10.222 2.532.984c.112-.468.45-.844 1.106-.844h1.8c.845 0 1.314.587 1.314 1.642v1.688c0 1.101-.47 1.64-1.313 1.64h-1.5c-.863 0-1.238-.374-1.313-1.054l-2.626.867c.281 1.946 1.519 3.376 3.376 3.376h2.626c1.875 0 3.375-1.876 3.375-4.22zM218.817-21.777l-5.251 11.511v3.071h5.251v3.939h2.626v-3.939h1.5v-3.188h-1.5v-11.394zm0 6.166v5.228h-2.288zM211.473-9.633c0-1.406-.45-2.344-1.237-2.93.712-.446 1.237-1.524 1.237-2.86v-2.134c0-2.344-1.5-4.22-3.376-4.22h-2.625c-1.876 0-3.189 1.758-3.376 3.775l2.625.844c0-.727.47-1.43 1.313-1.43h1.5c.845 0 1.314.586 1.314 1.64v1.196c0 1.055-.47 1.641-1.313 1.641h-1.407v3.189h1.407c.844 0 1.313.586 1.313 1.64v1.197c0 1.055-.47 1.64-1.313 1.64h-1.5c-.863 0-1.314-.585-1.314-1.406l-2.625.82c.131 2.04 1.5 3.775 3.376 3.775h2.625c1.913 0 3.376-1.876 3.376-4.22zM200.003-6.444h-5.739s.019-.211.263-.493l4.088-4.618c1.032-1.172 1.388-2.321 1.388-3.728v-2.274c0-2.344-1.5-4.22-3.376-4.22h-2.625c-1.876 0-3.376 1.946-3.376 3.798l2.625.844c0-.914.526-1.453 1.313-1.453h1.5c.845 0 1.314.586 1.314 1.64v1.173c0 .82-.188 1.36-.77 2.04l-4.37 4.97c-.993 1.148-1.612 2.72-1.612 4.126v1.383h9.377zM188.533-21.777h-2.625v18.521h2.625z" transform="translate(-111.362 29.185)"/><path style="font-size:23.4441px;font-family:'Charles Wright';-inkscape-font-specification:'Charles Wright';letter-spacing:.0366314px;fill:#000;stroke-width:.157114" d="M183.612-12.892h-5.82v2.646h5.82z" transform="translate(-111.362 29.185)"/><path style="font-size:23.4441px;font-family:'Charles Wright';-inkscape-font-specification:'Charles Wright';letter-spacing:.0366314px;fill:#000;stroke-width:.157115" d="M163.87-12.892h-5.82v2.646h5.82z" transform="translate(-111.362 29.185)"/><path style="font-size:23.4441px;font-family:'Charles Wright';-inkscape-font-specification:'Charles Wright';letter-spacing:.0366314px;stroke-width:.163821" d="m172.917-21.777-.412 9.284-.32-6.42h-2.644l-.206 6.42s-.386-6.247-.525-9.284h-2.645l.844 18.521h2.457l1.22-5.556c.018-.117.074-.258.187-.258.112 0 .169.14.187.258l1.2 5.556h2.476l.826-18.52zM155.82-21.777h-2.626v18.521h2.625zM151.101-9.633c0-1.406-.45-2.344-1.238-2.93.713-.446 1.238-1.524 1.238-2.86v-2.134c0-2.344-1.5-4.22-3.376-4.22H145.1c-1.876 0-3.189 1.758-3.376 3.775l2.625.844c0-.727.47-1.43 1.313-1.43h1.5c.845 0 1.314.586 1.314 1.64v1.196c0 1.055-.47 1.641-1.313 1.641h-1.407v3.189h1.407c.844 0 1.313.586 1.313 1.64v1.197c0 1.055-.47 1.64-1.313 1.64h-1.5c-.863 0-1.314-.585-1.314-1.406l-2.625.82c.131 2.04 1.5 3.775 3.376 3.775h2.625c1.913 0 3.376-1.876 3.376-4.22zM139.631-21.777h-2.625v18.521h2.625z" transform="translate(-111.362 29.185)"/><path style="font-weight:700;font-size:4.23333px;font-family:Arial;-inkscape-font-specification:'Arial Bold';letter-spacing:.0529167px;stroke-width:.2772" d="m188.11-26.407.299-.648h.682l-.595.648z" transform="translate(-111.362 29.185)"/><path style="font-weight:700;font-size:4.23333px;font-family:Arial;-inkscape-font-specification:'Arial Bold';letter-spacing:.0529167px;stroke-width:.2772" d="M198.242-24.423v-3.175h2.354v.537h-1.713v.704h1.593v.535h-1.593v.864h1.773v.535zM196.213-25.59v-.535h1.382v1.265q-.202.195-.585.344-.381.147-.773.147-.498 0-.868-.208-.37-.21-.557-.597-.186-.39-.186-.847 0-.496.208-.881.208-.386.608-.592.306-.158.76-.158.592 0 .923.25.333.246.429.684l-.637.119q-.067-.234-.253-.368-.184-.137-.462-.137-.42 0-.669.266-.247.267-.247.79 0 .566.252.85.25.281.658.281.201 0 .403-.078.203-.08.348-.192v-.403zM191.48-27.598v3.175h.64v-1.325h.131c.147 0 .255.012.322.037a.478.478 0 0 1 .193.132c.061.063.174.219.338.465l.464.691h.766l-.387-.619a3.545 3.545 0 0 0-.366-.515 1.473 1.473 0 0 0-.343-.267c.279-.04.489-.138.629-.292a.851.851 0 0 0 .21-.592.916.916 0 0 0-.14-.5.723.723 0 0 0-.37-.303c-.152-.058-.399-.087-.738-.087zm.64.537h.501c.26 0 .416.004.468.011.104.018.184.06.24.126.058.065.087.15.087.257a.414.414 0 0 1-.065.239.346.346 0 0 1-.18.134c-.076.026-.268.04-.576.04h-.474zM190.17-24.423v-3.175h.642v3.175zM187.845-27.598l-1.236 3.175h.68l.262-.721h1.27l.276.721h.698l-1.271-3.175zm.332.741.437 1.178h-.866zM184.184-24.423v-3.149h.641v2.614h1.594v.535zM180.83-24.423v-2.638h-.943v-.537h2.523v.537h-.94v2.638zM176.859-27.598v3.175h.64v-1.325h.13c.148 0 .256.012.323.037a.477.477 0 0 1 .193.132c.06.063.173.219.338.465l.463.691h.767l-.388-.619a3.545 3.545 0 0 0-.366-.515 1.473 1.473 0 0 0-.342-.267c.279-.04.488-.138.628-.292a.851.851 0 0 0 .21-.592.915.915 0 0 0-.138-.5.723.723 0 0 0-.37-.303c-.154-.058-.4-.087-.74-.087zm.64.537H178c.26 0 .416.004.468.011.104.018.184.06.24.126.058.065.086.15.086.257a.414.414 0 0 1-.064.239.346.346 0 0 1-.18.134c-.077.026-.269.04-.576.04h-.474zM174.757-27.652c-.259 0-.487.042-.685.126a1.246 1.246 0 0 0-.411.285 1.506 1.506 0 0 0-.295.436c-.096.22-.145.49-.145.814 0 .505.14.902.418 1.191.279.287.654.431 1.126.431.467 0 .84-.144 1.118-.433.279-.29.418-.691.418-1.204 0-.517-.141-.92-.423-1.21-.28-.29-.654-.436-1.121-.436zm.006.548c.264 0 .476.09.634.268.16.18.24.451.24.815 0 .368-.081.644-.246.83a.804.804 0 0 1-.628.275.813.813 0 0 1-.632-.278c-.166-.186-.25-.46-.25-.819 0-.365.081-.637.243-.818a.813.813 0 0 1 .639-.273zM170.337-27.598v3.175h.642v-1.198h.418c.29 0 .511-.014.664-.045a.928.928 0 0 0 .332-.15c.11-.076.2-.18.27-.313.071-.133.107-.297.107-.492 0-.253-.062-.458-.184-.617a.832.832 0 0 0-.458-.312c-.118-.032-.372-.048-.762-.048zm.642.537h.31c.23 0 .384.008.46.022.104.019.19.066.258.14.068.076.102.171.102.287a.422.422 0 0 1-.273.402c-.085.033-.254.05-.507.05h-.35z" transform="translate(-111.097 30.64)"/><g fill="#fc0" transform="translate(6.88 9.535) scale(.66294)"><path d="m0-7-.309.951.476.155Z"/><path d="m0-7 .309.951-.476.155z"/><path d="M.951-6.309h-1v.5Z"/><path d="m.951-6.309-.809.588-.294-.405z"/><path d="m.588-5.191-.31-.951-.475.154Z"/><path d="m.588-5.191-.81-.588.295-.404z"/><path d="M-.951-6.309h1v.5Z"/><path d="m-.951-6.309.809.588.294-.405z"/><path d="m-.588-5.191.31-.951.475.154Z"/><path d="m-.588-5.191.81-.588-.295-.404zM0 5l-.309.951.476.155Z"/><path d="m0 5 .309.951-.476.155z"/><path d="M.951 5.691h-1v.5Z"/><path d="m.951 5.691-.809.588-.294-.405z"/><path d="m.588 6.809-.31-.951-.475.154Z"/><path d="m.588 6.809-.81-.588.295-.404z"/><path d="M-.951 5.691h1v.5Z"/><path d="m-.951 5.691.809.588.294-.405z"/><path d="m-.588 6.809.31-.951.475.154Z"/><path d="m-.588 6.809.81-.588-.295-.404z"/><g id="a"><path d="M0 0v1h.5Z" transform="rotate(18 .157 -19.441)"/><path d="m0-1 .309.951-.476.155z" transform="translate(-6)"/><path d="M0 0v1h.5Z" transform="rotate(90 -2.37 -2.679)"/><path d="m0-1 .309.951-.476.155z" transform="rotate(72 -3 -4.13)"/><path d="M0 0v1h.5Z" transform="rotate(162 -2.77 -.024)"/><path d="m0-1 .309.951-.476.155z" transform="rotate(144 -3 -.975)"/><path d="M0 0v1h.5Z" transform="matrix(0 1 1 0 -6.951 -.309)"/><path d="m0-1 .309.951-.476.155z" transform="scale(-1 1) rotate(72 3 4.13)"/><path d="M0 0v1h.5Z" transform="scale(1 -1) rotate(-18 -5.848 20.392)"/><path d="m0-1 .309.951-.476.155z" transform="scale(1 -1) rotate(-36 -3 9.233)"/><path d="M0 0v1h.5Z" transform="rotate(-126 -2.912 -1.28)"/><path d="m0-1 .309.951-.476.155z" transform="rotate(-144 -2.344 -2.11)"/><path d="M0 0v1h.5Z" transform="rotate(-54 -7.378 1.125)"/><path d="m0-1 .309.951-.476.155z" transform="rotate(-72 -5.076 -.534)"/><path d="M0 0v1h.5Z" transform="rotate(18 18.06 -12.569)"/><path d="m0-1 .309.951-.476.155z" transform="translate(-3 -5.196)"/><path d="M0 0v1h.5Z" transform="scale(1 -1) rotate(54 -5.511 -.174)"/><path d="m0-1 .309.951-.476.155z" transform="scale(1 -1) rotate(36 -9.496 -2.018)"/><path d="M0 0v1h.5Z" transform="scale(-1 1) rotate(-54 -4.378 -4.763)"/><path d="m0-1 .309.951-.476.155z" transform="scale(-1 1) rotate(-72 -2.076 -4.663)"/><path d="M0 0v1h.5Z" transform="rotate(162 -2.13 -1.46)"/><path d="m0-1 .309.951-.476.155z" transform="rotate(144 -2.11 -2.344)"/><path d="M0 0v1h.5Z" transform="rotate(-126 -3.45 .378)"/><path d="m0-1 .309.951-.476.155z" transform="rotate(-144 -3.085 -.656)"/><path d="M0 0v1h.5Z" transform="rotate(-54 -6.32 4.378)"/><path d="m0-1 .309.951-.476.155z" transform="rotate(-72 -4.663 2.076)"/><path d="M0 0v1h.5Z" transform="scale(-1 1) rotate(-54 -1.125 -5.82)"/><path d="m0-1 .309.951-.476.155z" transform="scale(-1 1) rotate(-72 .534 -5.076)"/><path d="M0 0v1h.5Z" transform="scale(-1 1) rotate(18 15.226 14.404)"/><path d="m0-1 .309.951-.476.155z" transform="matrix(-1 0 0 1 -5.196 -3)"/><path d="M0 0v1h.5Z" transform="rotate(90 -3.468 -.777)"/><path d="m0-1 .309.951-.476.155z" transform="rotate(72 -4.663 -2.076)"/><path d="M0 0v1h.5Z" transform="rotate(162 -2.606 1.54)"/><path d="m0-1 .309.951-.476.155z" transform="rotate(144 -3.085 .656)"/><path d="M0 0v1h.5Z" transform="rotate(-126 -1.922 3.378)"/><path d="m0-1 .309.951-.476.155z" transform="rotate(-144 -2.11 2.344)"/><path d="M0 0v1h.5Z" transform="scale(-1 1) rotate(18 -3.716 17.404)"/><path d="m0-1 .309.951-.476.155z" transform="matrix(-1 0 0 1 -5.196 3)"/><path d="M0 0v1h.5Z" transform="matrix(0 1 1 0 -6.147 2.691)"/><path d="m0-1 .309.951-.476.155z" transform="scale(-1 1) rotate(72 .534 5.076)"/><path d="M0 0v1h.5Z" transform="rotate(90 -3.468 1.42)"/><path d="m0-1 .309.951-.476.155z" transform="rotate(72 -5.076 .534)"/><path d="M0 0v1h.5Z" transform="rotate(162 -1.682 2.812)"/><path d="m0-1 .309.951-.476.155z" transform="rotate(144 -2.344 2.11)"/><path d="M0 0v1h.5Z" transform="rotate(-126 -.264 3.917)"/><path d="m0-1 .309.951-.476.155z" transform="rotate(-144 -.656 3.085)"/><path d="M0 0v1h.5Z" transform="scale(-1 1) rotate(18 -11.747 11.569)"/><path d="m0-1 .309.951-.476.155z" transform="matrix(-1 0 0 1 -3 5.196)"/><path d="M0 0v1h.5Z" transform="matrix(0 1 1 0 -3.951 4.887)"/><path d="m0-1 .309.951-.476.155z" transform="scale(-1 1) rotate(72 -2.076 4.663)"/></g><use xlink:href="#a" transform="scale(-1 1)"/></g><path style="font-size:4.23333px;font-family:'Charles Wright';-inkscape-font-specification:'Charles Wright';letter-spacing:.0529167px;fill:#fff;stroke-width:1.90859" d="M122.1-6.63h-2.006v-4.378h-.78v5.288h2.786zM115.844-11.008v5.288h.78V-7.91h.502l.669 2.189h.836l-.68-2.202c.418-.127.68-.53.68-1.199v-.682c0-.67-.446-1.205-1.003-1.205zm.78.91h.837c.245 0 .39.168.39.469v.341c0 .301-.14.469-.39.469h-.836zM115.162-11.008h-.78v5.288h.78z" transform="translate(-111.362 29.185)"/><path style="fill:#000;stroke-width:.257532" d="M114.272-28.92a2.64 2.64 0 0 0-2.646 2.645v23.813a2.64 2.64 0 0 0 2.646 2.646h132.292a2.64 2.64 0 0 0 2.645-2.646v-23.813a2.64 2.64 0 0 0-2.645-2.646zm0 1.322h132.292c.733 0 1.323.59 1.323 1.323v23.813a1.32 1.32 0 0 1-1.323 1.323H114.272a1.32 1.32 0 0 1-1.323-1.323v-23.813c0-.733.59-1.323 1.323-1.323z" transform="translate(-111.362 29.185)"/></svg>