<?xml version="1.0" encoding="UTF-8" standalone="no"?>
<!-- Created with Inkscape (http://www.inkscape.org/) -->
<svg
   xmlns:dc="http://purl.org/dc/elements/1.1/"
   xmlns:cc="http://web.resource.org/cc/"
   xmlns:rdf="http://www.w3.org/1999/02/22-rdf-syntax-ns#"
   xmlns:svg="http://www.w3.org/2000/svg"
   xmlns="http://www.w3.org/2000/svg"
   xmlns:xlink="http://www.w3.org/1999/xlink"
   xmlns:sodipodi="http://sodipodi.sourceforge.net/DTD/sodipodi-0.dtd"
   xmlns:inkscape="http://www.inkscape.org/namespaces/inkscape"
   width="346.70999"
   height="79.290001"
   id="svg2"
   sodipodi:version="0.32"
   inkscape:version="0.45"
   sodipodi:docbase="F:\License plates"
   sodipodi:docname="Latvian license plate.svg"
   inkscape:output_extension="org.inkscape.output.svg.inkscape"
   version="1.0"
   sodipodi:modified="true">
  <defs
     id="defs4">
    <g
       id="s">
      <g
         id="c">
        <path
           transform="matrix(0.9510565,0.309017,-0.309017,0.9510565,0,-1)"
           d="M 0,0 L 0,1 L 0.5,1 L 0,0 z "
           id="t" />
        <use
           id="use3302"
           transform="scale(-1,1)"
           xlink:href="#t"
           x="0"
           y="0"
           width="744.09448"
           height="1052.3622" />
      </g>
      <g
         id="a">
        <use
           id="use3305"
           transform="matrix(0.309017,0.9510565,-0.9510565,0.309017,0,0)"
           xlink:href="#c"
           x="0"
           y="0"
           width="744.09448"
           height="1052.3622" />
        <use
           id="use3307"
           transform="matrix(-0.809017,0.5877853,-0.5877853,-0.809017,0,0)"
           xlink:href="#c"
           x="0"
           y="0"
           width="744.09448"
           height="1052.3622" />
      </g>
      <use
         id="use3309"
         transform="scale(-1,1)"
         xlink:href="#a"
         x="0"
         y="0"
         width="744.09448"
         height="1052.3622" />
    </g>
  </defs>
  <sodipodi:namedview
     id="base"
     pagecolor="#ffffff"
     bordercolor="#666666"
     borderopacity="1.0"
     inkscape:pageopacity="0.0"
     inkscape:pageshadow="2"
     inkscape:zoom="0.8236951"
     inkscape:cx="251.29851"
     inkscape:cy="-2.1476772"
     inkscape:document-units="px"
     inkscape:current-layer="layer1"
     inkscape:window-width="1024"
     inkscape:window-height="742"
     inkscape:window-x="0"
     inkscape:window-y="0"
     showgrid="true"
     showguides="true"
     inkscape:guide-bbox="true"
     width="346.71px"
     height="79.29px" />
  <metadata
     id="metadata7">
    <rdf:RDF>
      <cc:Work
         rdf:about="">
        <dc:format>image/svg+xml</dc:format>
        <dc:type
           rdf:resource="http://purl.org/dc/dcmitype/StillImage" />
      </cc:Work>
    </rdf:RDF>
  </metadata>
  <g
     inkscape:label="Capa 1"
     inkscape:groupmode="layer"
     id="layer1"
     transform="translate(-5.5279208,-5.095195)">
    <g
       id="g2436">
      <rect
         ry="5.3568945"
         y="10.143804"
         x="11.07223"
         height="69.192917"
         width="335.62152"
         id="rect2221"
         style="fill:#ffffff;fill-opacity:1;stroke:#000000;stroke-width:3.09279561;stroke-miterlimit:4;stroke-dasharray:none;stroke-opacity:1" />
      <path
         sodipodi:nodetypes="ccccccc"
         id="path3214"
         d="M 42.868685,10.363284 L 42.868685,79.30619 L 16.327325,79.30619 C 13.202305,79.2944 11.615076,77.74483 11.182541,75.04056 L 11.276562,15.666585 C 11.655475,12.509964 13.25521,10.574165 16.327325,10.110746 L 42.868685,10.363284 z "
         style="fill:#003399;fill-opacity:1;fill-rule:evenodd;stroke:#003399;stroke-width:1px;stroke-linecap:butt;stroke-linejoin:miter;stroke-opacity:1" />
      <g
         id="g3313"
         transform="matrix(1.6138444,0,0,1.6138444,27.337182,32.052517)"
         style="fill:#ffcc00">
        <use
           id="use3315"
           y="-6"
           xlink:href="#s"
           x="0"
           width="744.09448"
           height="1052.3622" />
        <use
           id="use3317"
           y="6"
           xlink:href="#s"
           x="0"
           width="744.09448"
           height="1052.3622" />
        <g
           id="l">
          <use
             id="use3320"
             x="-6"
             xlink:href="#s"
             y="0"
             width="744.09448"
             height="1052.3622" />
          <use
             id="use3322"
             transform="matrix(-0.809017,-0.5877853,0.5877853,-0.809017,-3,-5.1961524)"
             xlink:href="#s"
             x="0"
             y="0"
             width="744.09448"
             height="1052.3622" />
          <use
             id="use3324"
             transform="matrix(-0.809017,0.5877853,-0.5877853,-0.809017,-5.1961524,-3)"
             xlink:href="#s"
             x="0"
             y="0"
             width="744.09448"
             height="1052.3622" />
          <use
             id="use3326"
             transform="matrix(0.309017,0.9510565,-0.9510565,0.309017,-5.1961524,3)"
             xlink:href="#s"
             x="0"
             y="0"
             width="744.09448"
             height="1052.3622" />
          <use
             id="use3328"
             transform="matrix(0.309017,0.9510565,-0.9510565,0.309017,-3,5.1961524)"
             xlink:href="#s"
             x="0"
             y="0"
             width="744.09448"
             height="1052.3622" />
        </g>
        <use
           id="use3330"
           transform="scale(-1,1)"
           xlink:href="#l"
           x="0"
           y="0"
           width="744.09448"
           height="1052.3622" />
      </g>
      <path
         id="text3367"
         d="M 20.288851,61.144802 L 20.288851,49.752513 L 22.608052,49.752513 L 22.608052,59.209523 L 28.374712,59.209523 L 28.374712,61.144802 L 20.288851,61.144802 z M 32.966103,61.144802 L 28.860491,49.658492 L 31.37557,49.658492 L 34.282406,58.159615 L 37.09522,49.658492 L 39.555453,49.658492 L 35.442006,61.144802 L 32.966103,61.144802 z "
         style="font-size:16.04636002px;font-style:normal;font-weight:normal;fill:#ffffff;fill-opacity:1;stroke:none;stroke-width:1px;stroke-linecap:butt;stroke-linejoin:miter;stroke-opacity:1;font-family:Bitstream Vera Sans"
         transform="scale(0.9191116,1.0880072)" />
      <path
         id="text2372"
         d="M 180.71709,64.831231 L 180.71709,58.056051 L 197.50028,22.151033 L 205.51357,22.151033 L 188.55842,58.056051 L 201.62729,58.056051 L 201.62729,43.611503 L 208.81518,43.611503 L 208.81518,58.056051 L 212.83901,58.056051 L 212.83901,64.831231 L 208.81518,64.831231 L 208.81518,72.259856 L 201.62729,72.259856 L 201.62729,64.831231 L 180.71709,64.831231 z M 217.30995,36.561189 L 217.30995,22.151033 L 245.82073,22.151033 L 245.82073,29.338915 L 228.86558,72.259856 L 220.81791,72.259856 L 237.80745,29.338915 L 224.49783,29.338915 L 224.49783,36.561189 L 217.30995,36.561189 z M 261.95048,72.844516 C 259.19912,72.225464 257.01525,71.251031 255.39884,69.921215 C 253.78242,68.591403 252.30931,66.757176 250.9795,64.41853 C 250.70436,63.638992 250.52667,63.088724 250.44643,62.767725 C 250.36617,62.446744 250.19995,61.70159 249.94774,60.532259 C 249.90189,60.211281 249.86749,59.838704 249.84457,59.414526 C 249.82164,58.990374 249.81017,57.993013 249.81018,56.422441 C 249.81017,54.851901 249.81017,52.45021 249.81018,49.217363 C 249.81017,45.984562 249.81017,41.387532 249.81018,35.42626 C 250.22288,31.918339 251.24316,29.166999 252.87105,27.172233 C 254.49892,25.177557 256.9178,23.492361 260.12771,22.116641 C 265.74502,20.9703 270.835,22.403289 275.39766,26.415614 C 277.43821,29.006504 278.56167,32.342504 278.76806,36.423621 C 277.52992,36.423657 276.30901,36.423657 275.10533,36.423621 C 273.90159,36.423657 272.70361,36.423657 271.51139,36.423621 C 271.09867,34.085019 270.49681,32.439947 269.70582,31.488401 C 268.91479,30.536937 267.36143,29.705803 265.04574,28.994997 C 262.68415,28.99504 260.87858,29.390545 259.62903,30.181513 C 258.37945,30.972566 257.44514,32.502998 256.8261,34.772816 C 256.80316,36.60708 256.78597,38.441306 256.77451,40.275501 C 256.76304,42.109759 256.75731,43.932522 256.75732,45.743794 C 259.89842,43.932522 263.14844,42.917965 266.50739,42.700121 C 269.86629,42.482336 272.95582,43.783491 275.77597,46.603588 C 277.42675,48.690046 278.37252,50.942706 278.61329,53.361573 C 278.854,55.780478 278.83681,58.296807 278.5617,60.910568 C 277.73627,64.60196 276.35487,67.307444 274.4175,69.027028 C 272.48007,70.746619 269.70007,72.019113 266.07749,72.844516 C 265.38964,72.844515 264.7018,72.844515 264.01398,72.844516 C 263.32613,72.844515 262.6383,72.844515 261.95048,72.844516 L 261.95048,72.844516 z M 263.36054,65.656634 C 267.14361,65.656641 269.5797,64.315363 270.66879,61.632796 C 271.75784,58.95025 271.71772,55.99256 270.54842,52.759717 C 269.47079,51.246499 268.38172,50.294994 267.2812,49.905199 C 266.18065,49.515448 264.74766,49.320562 262.98223,49.320539 C 260.36844,50.031324 258.75203,51.183448 258.13299,52.776913 C 257.51393,54.370416 257.2044,56.393797 257.20441,58.847062 C 257.52539,61.048147 258.09859,62.607239 258.924,63.524344 C 259.74939,64.441466 261.22823,65.152228 263.36054,65.656634 L 263.36054,65.656634 z M 292.97186,49.595673 L 292.97186,43.267586 L 295.44807,43.267586 C 297.83255,43.267615 299.71836,42.596975 301.10551,41.255666 C 302.49263,39.914419 303.18619,38.212028 303.18622,36.148487 C 303.18619,34.107946 302.46397,32.388359 301.01953,30.98972 C 299.57506,29.591164 297.85547,28.891865 295.86077,28.891822 C 294.34752,28.891865 292.91453,29.396277 291.56179,30.40506 C 290.20904,31.413926 289.33778,32.927163 288.94802,34.944775 L 281.76014,34.944775 C 282.03527,31.413926 283.51412,28.324401 286.19668,25.67619 C 288.87923,23.028073 292.00888,21.70399 295.58563,21.70394 C 300.05654,21.70399 303.63902,23.177103 306.33306,26.123284 C 309.02706,29.069556 310.37407,32.365431 310.3741,36.01092 C 310.37407,37.936894 309.99576,39.811244 309.23917,41.633976 C 308.48252,43.456769 307.07246,45.033057 305.00898,46.362846 C 307.11832,47.715614 308.63155,49.377881 309.5487,51.349654 C 310.46578,53.321468 310.92434,55.316189 310.92437,57.333823 C 310.92434,62.011116 309.45696,65.736888 306.52222,68.511152 C 303.58743,71.285423 299.98776,72.672557 295.7232,72.672557 C 292.32987,72.672557 289.27473,71.577753 286.55779,69.388142 C 283.84084,67.198537 282.14991,64.005837 281.485,59.810031 L 288.67289,59.810031 C 289.33778,61.529631 290.23197,62.911033 291.35544,63.954241 C 292.4789,64.997465 294.07238,65.519074 296.1359,65.519067 C 298.13061,65.519074 299.89605,64.814043 301.43224,63.403972 C 302.96838,61.99392 303.73646,60.050786 303.73648,57.574566 C 303.73646,55.075447 302.97411,53.120849 301.44943,51.710767 C 299.92471,50.300726 298.10768,49.595696 295.99833,49.595673 L 292.97186,49.595673 z "
         style="font-size:70.43436432px;font-style:normal;font-weight:normal;fill:#000000;fill-opacity:1;stroke:none;stroke-width:1px;stroke-linecap:butt;stroke-linejoin:miter;stroke-opacity:1;font-family:Bitstream Vera Sans"
         transform="scale(1.0498567,0.9525109)" />
      <path
         id="text2376"
         d="M 62.486341,71.641948 L 62.486341,22.360352 L 94.010327,22.360352 L 94.010327,29.429572 L 69.961449,29.429572 L 69.961449,43.940076 L 90.458805,43.940076 L 90.458805,50.603408 L 69.961449,50.603408 L 69.961449,71.641948 L 62.486341,71.641948 z M 99.692762,71.641948 L 99.692762,22.360352 L 106.76198,22.360352 L 120.90042,54.49317 L 134.73445,22.360352 L 141.80367,22.360352 L 141.80367,71.641948 L 134.32856,71.641948 L 134.32856,40.895914 L 134.19326,40.895914 L 123.87694,64.606552 L 117.65332,64.606552 L 107.33699,40.895914 L 107.16787,40.895914 L 107.16787,71.641948 L 99.692762,71.641948 z "
         style="font-size:69.27159119px;font-style:normal;font-weight:normal;fill:#000000;fill-opacity:1;stroke:none;stroke-width:1px;stroke-linecap:butt;stroke-linejoin:miter;stroke-opacity:1;font-family:Bitstream Vera Sans"
         transform="scale(1.032525,0.9684995)" />
      <path
         id="text2380"
         d="M 199.95421,39.343817 L 199.95421,33.818609 L 216.26547,33.818609 L 216.26547,39.343817 L 199.95421,39.343817 z "
         style="font-size:54.14175034px;font-style:normal;font-weight:normal;fill:#000000;fill-opacity:1;stroke:none;stroke-width:1px;stroke-linecap:butt;stroke-linejoin:miter;stroke-opacity:1;font-family:Bitstream Vera Sans"
         transform="scale(0.8070078,1.2391454)" />
      <rect
         ry="5.3568945"
         y="10.14367"
         x="11.072082"
         height="69.192917"
         width="335.62152"
         id="rect3216"
         style="fill:none;fill-opacity:1;stroke:#000000;stroke-width:3.09279561;stroke-miterlimit:4;stroke-dasharray:none;stroke-opacity:1" />
    </g>
  </g>
</svg>
