<?xml version="1.0" encoding="UTF-8" standalone="no"?>
<!-- Created with Inkscape (http://www.inkscape.org/) -->

<svg
   xmlns:dc="http://purl.org/dc/elements/1.1/"
   xmlns:cc="http://creativecommons.org/ns#"
   xmlns:rdf="http://www.w3.org/1999/02/22-rdf-syntax-ns#"
   xmlns:svg="http://www.w3.org/2000/svg"
   xmlns="http://www.w3.org/2000/svg"
   xmlns:xlink="http://www.w3.org/1999/xlink"
   xmlns:sodipodi="http://sodipodi.sourceforge.net/DTD/sodipodi-0.dtd"
   xmlns:inkscape="http://www.inkscape.org/namespaces/inkscape"
   width="520mm"
   height="112mm"
   viewBox="0 0 1842.5197 396.85039"
   id="svg2"
   version="1.1"
   inkscape:version="0.91 r13725"
   sodipodi:docname="MD_license_plate_ABC012_2015.svg">
  <defs
     id="defs4">
    <linearGradient
       inkscape:collect="always"
       id="linearGradient4902">
      <stop
         style="stop-color:#808080;stop-opacity:1;"
         offset="0"
         id="stop4904" />
      <stop
         style="stop-color:#808080;stop-opacity:0;"
         offset="1"
         id="stop4906" />
    </linearGradient>
    <style
       id="style4623"
       type="text/css"><![CDATA[
    .fil1 {fill:black}
    .fil6 {fill:#CC092F}
    .fil5 {fill:#097754}
    .fil4 {fill:#0B45BB}
    .fil0 {fill:#B07F55}
    .fil3 {fill:#D10429}
    .fil2 {fill:#F5D402}
   ]]></style>
    <linearGradient
       inkscape:collect="always"
       xlink:href="#linearGradient4902"
       id="linearGradient4908"
       x1="970.56888"
       y1="741.72052"
       x2="1048.9281"
       y2="741.72052"
       gradientUnits="userSpaceOnUse"
       gradientTransform="translate(0,6)" />
  </defs>
  <sodipodi:namedview
     id="base"
     pagecolor="#ffffff"
     bordercolor="#666666"
     borderopacity="1.0"
     inkscape:pageopacity="0.0"
     inkscape:pageshadow="2"
     inkscape:zoom="0.25"
     inkscape:cx="418.52016"
     inkscape:cy="1023.9588"
     inkscape:document-units="px"
     inkscape:current-layer="layer1"
     showgrid="false"
     inkscape:window-width="1680"
     inkscape:window-height="979"
     inkscape:window-x="-3"
     inkscape:window-y="-3"
     inkscape:window-maximized="1" />
  <metadata
     id="metadata7">
    <rdf:RDF>
      <cc:Work
         rdf:about="">
        <dc:format>image/svg+xml</dc:format>
        <dc:type
           rdf:resource="http://purl.org/dc/dcmitype/StillImage" />
        <dc:title />
      </cc:Work>
    </rdf:RDF>
  </metadata>
  <g
     inkscape:label="Layer 1"
     inkscape:groupmode="layer"
     id="layer1"
     transform="translate(0,-655.51181)">
    <rect
       style="opacity:0.98999999;fill:#ffffff;fill-opacity:1;fill-rule:nonzero;stroke:none;stroke-width:3.52651691;stroke-linecap:round;stroke-linejoin:round;stroke-miterlimit:4;stroke-dasharray:none;stroke-opacity:1"
       id="rect4408"
       width="1838.9932"
       height="393.32388"
       x="1.7632585"
       y="657.27509"
       rx="35.433071"
       ry="35.433071" />
    <rect
       style="opacity:0.98999999;fill:#003399;fill-opacity:1;fill-rule:nonzero;stroke:none;stroke-width:24.80315018;stroke-linecap:round;stroke-linejoin:round;stroke-miterlimit:4;stroke-dasharray:none;stroke-opacity:1"
       id="eu_bg"
       width="233.85826"
       height="396.8504"
       x="21.259842"
       y="655.51178"
       inkscape:label="#rect4449"
       rx="24.80315" />
    <rect
       style="opacity:0.98999999;fill:none;fill-opacity:1;fill-rule:nonzero;stroke:#000000;stroke-width:24.01366043;stroke-linecap:round;stroke-linejoin:round;stroke-miterlimit:4;stroke-dasharray:none;stroke-opacity:1"
       id="rect4408-1"
       width="1818.506"
       height="372.83673"
       x="12.00683"
       y="667.51855"
       rx="35.038334"
       ry="33.58746" />
    <g
       id="md_flag"
       inkscape:label="#g4778">
      <rect
         inkscape:label="#rect4451"
         y="719.29132"
         x="33.661419"
         height="106.29921"
         width="70.866142"
         id="md_blue"
         style="opacity:0.98999999;fill:#0046ae;fill-opacity:1;fill-rule:nonzero;stroke:none;stroke-width:24.80315018;stroke-linecap:round;stroke-linejoin:round;stroke-miterlimit:4;stroke-dasharray:none;stroke-opacity:1" />
      <rect
         inkscape:label="#rect4451"
         y="719.29132"
         x="104.52756"
         height="106.29921"
         width="70.866142"
         id="md_yellow"
         style="opacity:0.98999999;fill:#ffd200;fill-opacity:1;fill-rule:nonzero;stroke:none;stroke-width:24.80315018;stroke-linecap:round;stroke-linejoin:round;stroke-miterlimit:4;stroke-dasharray:none;stroke-opacity:1" />
      <rect
         inkscape:label="#rect4451"
         y="719.29132"
         x="175.39371"
         height="106.29921"
         width="70.866142"
         id="md_red"
         style="opacity:0.98999999;fill:#cc092f;fill-opacity:1;fill-rule:nonzero;stroke:none;stroke-width:24.80315018;stroke-linecap:round;stroke-linejoin:round;stroke-miterlimit:4;stroke-dasharray:none;stroke-opacity:1" />
      <rect
         inkscape:label="#rect4451"
         y="720.53436"
         x="34.90448"
         height="103.81309"
         width="210.1123"
         id="md_border"
         style="opacity:0.98999999;fill:none;fill-opacity:1;fill-rule:nonzero;stroke:#ffffff;stroke-width:6.02942896;stroke-linecap:round;stroke-linejoin:round;stroke-miterlimit:4;stroke-dasharray:none;stroke-opacity:1" />
      <g
         transform="matrix(0.10468744,0,0,0.10468744,116.12717,740.73174)"
         id="g4703"
         style="clip-rule:evenodd;fill-rule:evenodd;image-rendering:optimizeQuality;shape-rendering:geometricPrecision;text-rendering:geometricPrecision">
        <g
           id="Layer_x0020_1">
          <polygon
             style="fill:#b07f55"
             id="path2778"
             points="93.183,437.39 114.7,383.13 121.05,360.61 150.05,394.89 139.09,415.14 149.05,414.4 149.92,422.89 159.07,419.01 161.54,430.71 181.72,410.26 209.79,424.09 156.53,518.98 137.56,533.01 171.76,545.84 206.85,504.95 201.77,531.81 191.34,557.87 234.04,582.46 280.42,555.06 257.63,507.22 265.05,503.81 295.12,547.38 327.87,531.14 285.3,481.36 257.3,421.49 286.83,411.73 306.95,431.04 309.95,418.48 320.58,423.62 319.24,413.14 329.93,415.47 316.9,394.82 349.98,367.1 370.89,432.44 401.7,467.66 408.24,466.86 430.64,494.52 430.43,111.17 389.06,67.669 348.91,100.41 350.58,135.69 332.54,136.36 305.68,150.13 290.64,155.07 283.56,156.48 274.34,146.45 261.97,121.73 261.17,97.338 268.79,81.436 267.38,66.4 274.21,66.534 269.86,56.375 275.88,53.973 266.86,46.019 270,42.345 235.92,27.711 209.92,25.974 202.9,29.046 199.5,35.395 206.38,54.841 199.03,62.191 206.31,76.423 206.58,107.63 200.77,133.96 189.07,153.87 182.93,156.21 168.29,152.87 137.62,136.69 118.24,135.63 116.91,98.073 79.754,68.204 41.866,109.1 36.454,121.13 38.192,493.19 62.715,463.52 67.859,464.79 "
             class="fil0" />
          <path
             style="fill:#000000"
             inkscape:connector-curvature="0"
             id="rect2244"
             d="m 176.23,0.0011811 c -3.8374,0 -7.1882,0.97913 -9.1429,2.5004 3.1063,0.90472 5.3646,3.7689 5.3646,7.252 l 0,8.8369999 -3.4134,0 -5.4224,0 c -3.4606,0 -6.3272,-2.2264 -7.2532,-5.302 -1.5213,1.9547 -2.4992,5.3055 -2.4992,9.1417 0,3.8374 0.97795,7.1894 2.4992,9.1417 0.90591,-3.1075 3.7689,-5.3646 7.2532,-5.3646 l 5.4224,0 3.4134,0 0,3.4146 0,27.546 0,11.518 c 0,3.339 -2.0882,6.1098 -4.9972,7.1303 4.2154,0.57402 7.8425,6.2315 8.837,9.3248 0.99685,-3.0874 4.624,-8.7508 8.8382,-9.3248 -2.9409,-1.0028 -5.061,-3.7689 -5.061,-7.1303 l 0,-19.867 0,-19.198 0,-3.4146 3.4146,0 5.4236,0 c 3.4618,0 6.3272,2.2264 7.2532,5.3043 1.5201,-1.9547 2.498,-5.3079 2.498,-9.1429 0,-3.8374 -0.97677,-7.1882 -2.498,-9.1417 -0.90591,3.1063 -3.7701,5.3622 -7.2532,5.3622 l -5.4236,0 -3.4146,0 0,-8.8357999 c 0,-3.4618 2.2252,-6.3272 5.3032,-7.2532 -1.9524,-1.5189 -5.3055,-2.498 -9.1417,-2.498 z"
             class="fil1" />
          <path
             style="fill:#f5d402"
             inkscape:connector-curvature="0"
             id="path2303"
             d="m 176.23,1.8307 c -1.9972,0 -3.7571,0.37323 -5.2406,0.85276 1.9807,1.722 3.2917,4.2189 3.2917,7.0701 l 0,8.837 c 0,0.12638 -0.0366,0.24685 -0.0614,0.36614 l 0,1.4008 -1.402,0 c -0.11929,0.0248 -0.24094,0.06024 -0.36496,0.06142 l -0.79252,0 -2.622,0 -5.4224,0 c -2.8181,0 -5.2842,-1.2898 -7.0075,-3.2303 -0.49488,1.4988 -0.91417,3.2102 -0.91417,5.2417 0,1.9972 0.37323,3.7571 0.85276,5.2406 1.722,-1.9807 4.2177,-3.2894 7.0689,-3.2894 l 5.4224,0 1.1587,0 2.2547,0 1.8295,0 c -0.0118,0.18307 -0.0614,0.36024 -0.0614,0.54685 l 0,0.91417 c 0.0248,0.11929 0.0602,0.23976 0.0614,0.36496 l 0,3.4146 0,27.546 0,11.518 c 0,2.7579 -1.422,4.9276 -3.2917,6.6425 1.337,0.82441 2.4886,1.8626 3.4736,3.0484 0.87756,1.0535 1.226,2.0846 1.8284,3.1677 0.60354,-1.0807 0.95079,-2.1142 1.8284,-3.1677 0.96968,-1.1646 2.1047,-2.1661 3.4134,-2.987 -1.8862,-1.7102 -3.2917,-3.9342 -3.2917,-6.7039 l 0,-19.867 0,-19.198 0,-0.4878 0,-2.9256 0,-1.7681 1.4634,0 c 0.11929,-0.02362 0.23976,-0.05906 0.36496,-0.05906 l 3.4134,0 5.4236,0 c 2.8169,0 5.2831,1.2898 7.0075,3.2291 0.4937,-1.4976 0.91535,-3.2079 0.91535,-5.2406 0,-1.9961 -0.37441,-3.7571 -0.85394,-5.2406 -1.722,1.9807 -4.2177,3.2894 -7.0689,3.2894 l -5.4236,0 -3.4134,0 c -0.1252,0 -0.24685,-0.03661 -0.36496,-0.06142 l -1.402,0 0,-1.4008 c -0.0248,-0.11811 -0.0602,-0.23976 -0.0614,-0.36614 l 0,-8.8358 c 0,-2.8181 1.2909,-5.2831 3.2303,-7.0087 -1.4988,-0.49252 -3.2091,-0.91417 -5.2406,-0.91417 l -0.001,-0.00118 0,0.00118 z"
             class="fil2" />
          <polygon
             style="fill:#d10429"
             id="path2516"
             points="157.9,418.41 150.72,422.95 148.07,414.26 143.54,415.77 117.83,455.08 105.36,454.7 92.509,460.75 88.349,474.74 90.239,481.16 104.22,496.28 115.56,489.85 124.64,480.03 126.9,471.33 159.41,429 "
             class="fil3" />
          <polygon
             style="fill:#d10429"
             id="path2750"
             points="318.56,421.44 310.99,419.17 307.97,427.48 342.36,473.98 345.77,483.05 360.89,496.66 365.42,495.52 382.06,476.24 378.28,463.02 362.77,453.57 351.06,454.7 324.97,415.77 320.44,413.88 "
             class="fil3" />
          <rect
             style="fill:#000000"
             y="0"
             x="0"
             id="rect2290"
             height="19.506001"
             width="20.32"
             transform="matrix(0.94917,0.51749,-0.2404,1.1002,121.02,486.2)"
             class="fil1" />
          <path
             style="fill:#000000"
             inkscape:connector-curvature="0"
             id="rect2273"
             d="m 31.242,280.34 -6.9472,3.1701 78.495,171.92 8.3504,0 -79.898,-175.09 0,-0.001 0,0.001 z m 92.574,202.76 -5.6669,5.8512 3.535,7.8012 6.8858,-3.1689 -4.7528,-10.484 -10e-4,0 z"
             class="fil1" />
          <rect
             style="fill:#f5d402"
             y="0"
             x="0"
             id="rect2288"
             height="12.099"
             width="12.604"
             transform="matrix(0.94917,0.51749,-0.2404,1.1002,123.79,492.27)"
             class="fil2" />
          <polygon
             style="fill:#0b45bb"
             id="path2754"
             points="120.86,370.41 127.66,381.37 170.75,405.18 225.94,430.51 233.12,438.07 280.76,411.99 336.69,385.53 347.28,369.27 347.28,278.18 120.48,277.8 "
             class="fil4" />
          <path
             style="fill:#d10429"
             inkscape:connector-curvature="0"
             id="path2355"
             d="m 117.84,166.32 c 0,0 2.863,8.3492 2.863,8.3492 l -0.66968,106.35 c 0,0 3.9614,4.3866 3.9614,4.3866 0,0 32.727,3.9012 32.727,3.9012 0,0 35.408,-5.1815 35.408,-5.1815 0,0 20.561,3.1748 34.74,5.3658 0.0142,0.0709 0.42638,2.1319 0.42638,2.1319 0,0 5.1437,-0.78425 6.7642,-1.037 1.5933,0.24685 6.7039,1.037 6.7039,1.037 l 0.42638,-2.1319 c 14.178,-2.1909 34.74,-5.3658 34.74,-5.3658 0,0 35.408,5.1815 35.408,5.1815 0,0 32.727,-3.9012 32.727,-3.9012 0,0 3.9614,-4.3866 3.9614,-4.3866 l -0.67087,-106.35 2.8654,-8.3492 -39.187,0.30236 c 0,0 -44.786,0.44528 -76.972,0.7937 -32.179,-0.34842 -77.034,-0.7937 -77.034,-0.7937 l -39.187,-0.30236 -0.001,0 -10e-4,0 z"
             class="fil3" />
          <polygon
             style="fill:#f5d402"
             id="path2762"
             points="205.64,259.18 194.42,257.58 181.59,244.21 178.92,220.16 194.42,177.39 175.17,192.89 158.6,215.34 158.6,244.74 170.36,264.52 191.75,278.42 197.63,280.03 187.47,298.74 205.11,304.08 214.2,313.17 219.01,331.34 217.94,370.37 212.59,379.46 200.83,387.48 200.3,394.96 213.13,402.98 224.35,412.06 240.93,412.6 255.36,402.44 267.65,395.49 264.45,384.8 251.62,374.65 248.94,343.64 252.68,312.64 271.4,300.88 281.02,297.67 270.87,278.42 286.37,273.08 303.47,258.11 311.49,228.17 306.68,210 294.92,195.03 275.14,178.46 279.95,195.56 287.43,217.48 288.5,238.33 279.95,253.3 264.45,259.71 255.9,262.38 245.74,257.04 234.51,263.99 222.22,256.51 212.06,263.46 "
             class="fil2" />
          <polygon
             style="fill:#f5d402"
             id="path2756"
             points="167.69,277.35 184.8,284.3 170.9,292.32 158.6,303.01 147.91,295 129.2,284.84 146.84,277.89 159.14,268.27 "
             class="fil2" />
          <polygon
             style="fill:#f5d402"
             id="path2758"
             points="299.73,294.46 309.89,303.55 321.12,294.46 339.29,285.37 320.58,277.89 308.82,268.8 300.8,277.35 283.69,284.3 "
             class="fil2" />
          <polygon
             style="fill:#f5d402"
             id="path2760"
             points="247.87,216.41 262.84,211.07 248.41,204.65 254.83,189.15 239.86,196.64 233.98,181.13 228.63,197.17 213.13,189.68 220.08,205.19 205.11,211.07 220.08,216.41 213.66,231.92 228.1,224.43 233.98,240.47 239.86,224.43 254.29,230.85 "
             class="fil2" />
          <polygon
             style="fill:#f5d402"
             id="path2764"
             points="195.22,319.58 201.9,312.37 209.38,319.85 202.44,326.8 "
             class="fil2" />
          <polygon
             style="fill:#f5d402"
             id="path2766"
             points="273.53,319.58 266.32,311.56 258.83,319.32 265.52,326.54 "
             class="fil2" />
          <polygon
             style="fill:#f5d402"
             id="path2768"
             points="260.17,375.72 267.65,378.92 266.59,350.86 271.67,331.34 258.3,334.55 254.83,342.3 254.56,363.69 "
             class="fil2" />
          <polygon
             style="fill:#f5d402"
             id="path2770"
             points="212.59,363.15 213.39,344.98 209.92,334.02 196.56,331.61 201.37,355.4 201.37,378.39 208.05,373.58 "
             class="fil2" />
          <polygon
             style="fill:#f5d402"
             id="path2772"
             points="288.77,346.31 281.02,355.4 280.22,370.1 291.18,382.93 293.85,383.73 293.58,369.83 305.34,353.8 319.24,350.59 303.74,343.11 "
             class="fil2" />
          <polygon
             style="fill:#f5d402"
             id="path2774"
             points="152.19,369.3 149.52,375.98 151.65,382.66 158.34,386.41 165.82,384.54 169.83,377.05 176.24,381.33 183.99,379.72 189.07,371.97 185.6,364.76 181.86,361.81 187.2,358.88 189.34,350.06 182.12,341.77 175.17,342.84 171.7,345.51 170.1,339.1 161.81,334.28 154.86,336.96 151.38,344.17 153.26,350.59 146.04,349.79 140.16,355.4 139.36,362.88 143.37,367.7 148.98,369.57 "
             class="fil2" />
          <path
             style="fill:#000000"
             inkscape:connector-curvature="0"
             id="path2169"
             d="m 195,172.29 c -1.1173,7.8295 -40.526,24.108 -40.526,56.921 0,42.013 39.308,51.925 39.308,51.925 l -1.6476,2.9858 -9.5669,17.43 c 0,0 16.244,0.8126 24.866,8.1673 10.396,8.8665 9.385,27.653 9.385,41.32 0,10.768 -1.3606,22.13 -6.8858,26.815 -7.4185,6.2906 -12.435,6.7559 -12.435,14.14 0,6.1594 4.735,7.3937 12.435,11.458 9.8658,5.2063 9.4063,12.188 24.071,12.188 14.668,0 14.268,-6.9815 24.135,-12.188 7.6996,-4.0642 12.434,-5.2984 12.434,-11.458 0,-7.3842 -5.0161,-7.8496 -12.434,-14.14 -5.5252,-4.6854 -6.8858,-16.048 -6.8858,-26.815 0,-13.666 -1.011,-32.453 9.385,-41.32 8.622,-7.3535 24.865,-8.1673 24.866,-8.1673 l -9.5693,-17.43 -1.6441,-2.9858 c 0,0 39.308,-9.9118 39.308,-51.925 0,-32.813 -39.409,-49.091 -40.528,-56.921 -3.8516,13.548 13.165,32.262 13.165,54.423 0,28.674 -21.148,30.046 -21.148,30.046 -4.9488,0 -6.9532,3.5339 -8.8984,3.5339 -4.1634,-0.43465 -6.1228,-5.7295 -10.239,-5.7295 -3.8658,0 -6.8339,5.9728 -11.944,5.9728 -5.1094,0 -8.0173,-5.9728 -11.884,-5.9728 -4.1138,0 -6.0744,5.2949 -10.238,5.7295 -1.9453,0 -3.9508,-3.5339 -8.8996,-3.5339 0,0 -21.146,-1.3724 -21.146,-30.046 0,-22.161 17.017,-40.876 13.163,-54.423 z m 80.933,111.83 c 0,0 26.412,11.65 33.338,21.575 15.027,-11.369 34.796,-20.295 34.796,-20.295 0,0 -18.948,-4.9417 -34.796,-19.198 -9.065,11.984 -33.338,17.917 -33.338,17.917 z m -83.797,0 c 0,0 -24.27,-5.9339 -33.335,-17.917 -15.849,14.257 -34.8,19.198 -34.8,19.198 0,0 19.77,8.9256 34.8,20.295 6.9248,-9.9236 33.335,-21.575 33.335,-21.575 z m 41.869,-108.91 -6.8268,19.382 -18.588,-8.8382 8.837,18.589 -19.38,6.8858 19.38,6.887 -8.837,18.527 18.588,-8.837 6.8268,19.38 6.887,-19.38 18.588,8.837 -8.8358,-18.527 19.38,-6.887 -19.38,-6.8858 8.8358,-18.589 -18.588,8.8382 -6.887,-19.382 z m -44.732,8.9587 c 1.6158,3.4807 -13.165,24.94 -13.165,42.54 0,21.581 11.509,34.311 26.876,34.311 2.9315,0 6.137,3.9614 8.8984,3.9614 4.5024,0 7.4976,-4.9972 10.239,-4.9972 3.4842,0 5.8335,5.485 11.883,5.485 6.0508,0 8.4602,-5.485 11.946,-5.485 2.7402,0 5.7354,4.9972 10.238,4.9972 2.7626,0 5.9669,-3.9614 8.8984,-3.9614 15.367,0 26.877,-12.73 26.877,-34.311 0,-17.6 -14.78,-39.059 -13.165,-42.54 0,0 28.826,20.678 28.826,45.038 0,39.242 -39.796,48.939 -39.796,48.939 l 8.9587,20.171 c 0,0 -12.335,1.8496 -19.867,7.924 -10.046,8.1012 -10.179,29.989 -10.179,44.793 0,17.438 0.64842,24.827 6.9484,29.558 6.6425,4.9913 11.64,6.0661 11.64,11.153 0,4.4327 -5.172,6.2457 -11.884,9.202 -7.6346,3.365 -8.3953,9.2032 -19.441,9.2032 -11.047,0 -11.746,-5.8382 -19.381,-9.2032 -6.711,-2.9575 -11.884,-4.7693 -11.884,-9.202 0,-5.087 4.9961,-6.1618 11.64,-11.153 6.3,-4.7315 6.9472,-12.12 6.9472,-29.558 0,-14.804 -0.1311,-36.692 -10.178,-44.793 -7.5331,-6.0756 -19.867,-7.924 -19.867,-7.924 l 8.9575,-20.171 c 0,0 -39.795,-9.6968 -39.795,-48.939 0,-24.36 28.826,-45.038 28.826,-45.038 l 0.002,0 z m 44.793,4.0831 4.3878,12.373 11.823,-5.6681 -5.6067,11.883 12.312,4.389 -12.312,4.3878 5.6067,11.823 -11.823,-5.6067 -4.4492,12.311 -4.3878,-12.311 -11.823,5.6067 5.6067,-11.823 -12.311,-4.3878 12.311,-4.389 -5.6067,-11.883 11.823,5.6681 4.4492,-12.373 z m -75.632,83.922 c 8.0102,9.1701 20.722,12.676 20.722,12.676 -0.002,0 -13.232,6.9342 -20.356,15.115 l 0,0.48661 c -0.0709,-0.065 -0.17008,-0.11575 -0.24567,-0.18307 -0.14055,0.16417 -0.29173,0.32126 -0.42638,0.4878 l 0,-0.85276 c -7.5378,-6.6626 -22.548,-14.139 -22.548,-14.139 0,0 14.389,-4.9606 22.854,-13.591 l 0,10e-4 z m 151.2,0 c 8.4661,8.6291 22.854,13.59 22.854,13.59 0,0 -15.011,7.4764 -22.551,14.139 10e-4,0.0484 0,0.85276 0,0.85276 -0.13465,-0.16535 -0.28583,-0.32244 -0.4252,-0.4878 -0.0732,0.0685 -0.17362,0.11693 -0.24331,0.18307 0,0 -10e-4,-0.47008 0,-0.48661 -7.1256,-8.1803 -20.355,-15.115 -20.355,-15.115 0,0 12.71,-3.5055 20.72,-12.676 z m -107.57,37.785 -9.4465,9.4453 9.4465,9.4465 9.4465,-9.4465 -9.4465,-9.4453 z m 63.931,0 -9.4453,9.4453 9.4453,9.4465 9.4465,-9.4465 -9.4465,-9.4453 z m -63.931,4.5094 4.937,4.9346 -4.937,4.9984 -4.9972,-4.9984 4.9972,-4.9346 z m 63.931,0 4.9984,4.9346 -4.9984,4.9984 -4.9358,-4.9984 4.9358,-4.9346 z m -72.644,14.382 c 1.8768,4.6417 6.3366,19.02 6.3366,36.262 0,11.935 -1.1575,18.222 -1.1575,18.222 0,0 13.317,-3.9201 15.968,-17.43 1.2425,-6.3331 2.628,-29.665 -3.7795,-33.641 0,0 -17.368,-3.4134 -17.368,-3.4134 z m 81.359,0 -17.37,3.4146 c -6.4063,3.9756 -5.0209,27.307 -3.7784,33.641 2.6516,13.509 15.967,17.43 15.967,17.43 0,0 -1.1575,-6.2882 -1.1575,-18.222 0,-17.242 4.461,-31.622 6.339,-36.262 l 0,-0.001 z m -113.72,3.7795 c -0.74409,0.0319 -1.5071,0.11693 -2.2559,0.30354 -5.9894,1.5024 -9.6083,7.6016 -8.1047,13.591 0.23032,0.91654 0.60827,1.7634 1.0358,2.5594 -0.87284,-0.29055 -1.7835,-0.48307 -2.7425,-0.54921 -0.38504,-0.026 -0.77953,-0.013 -1.1575,0 -5.6681,0.19016 -10.392,4.6465 -10.787,10.422 -0.42165,6.1594 4.2602,11.463 10.422,11.884 0.9189,0.0614 1.813,0.0283 2.6799,-0.12284 -0.53032,0.72756 -0.98858,1.5035 -1.3394,2.3764 -2.3055,5.7295 0.48661,12.322 6.2161,14.628 5.7284,2.3032 12.26,-0.54921 14.564,-6.2776 0.35197,-0.8752 0.54921,-1.7291 0.67087,-2.6209 0.52795,0.73228 1.1622,1.4032 1.8886,2.0102 4.7374,3.9614 11.823,3.3342 15.784,-1.4008 3.9626,-4.7362 3.3342,-11.763 -1.402,-15.724 -0.71693,-0.6 -1.5118,-1.0713 -2.315,-1.4622 0.86102,-0.27638 1.6972,-0.65669 2.498,-1.1575 5.2323,-3.2799 6.815,-10.248 3.535,-15.481 -2.2547,-3.5965 -6.2161,-5.4449 -10.178,-5.1803 -1.8012,0.12047 -3.6059,0.6815 -5.2417,1.7067 -0.79842,0.50079 -1.5083,1.0571 -2.1319,1.7055 0.001,-0.9 -0.0756,-1.826 -0.30472,-2.7413 -1.3146,-5.2417 -6.1323,-8.6965 -11.336,-8.472 l 10e-4,10e-4 0,10e-4 z m 38.454,1.461 9.3248,1.9512 c 3.4488,4.7598 2.863,12.455 2.863,23.16 0,10.794 -8.1047,14.93 -8.1047,14.93 0,-25.945 -2.6752,-32.183 -4.0831,-40.041 l 0,-10e-4 z m 69.17,0 c -1.4102,7.8591 -4.0819,14.096 -4.0819,40.041 0,0 -8.1059,-4.1362 -8.1059,-14.93 0,-10.706 -0.58583,-18.399 2.8642,-23.159 l 9.3236,-1.9512 z m -106.96,3.2315 c 4.0394,-0.17362 7.7528,2.5063 8.7756,6.5811 0.24331,0.97087 0.26929,1.9264 0.18189,2.8654 -0.0709,0.77835 -0.27874,1.4858 -0.54803,2.1933 -1.3488,-0.49252 -2.8087,-0.73228 -4.3276,-0.73228 -3.7606,0 -7.128,1.6547 -9.4465,4.2673 -0.60827,-0.53858 -1.1374,-1.1339 -1.5839,-1.8284 -0.49961,-0.77244 -0.92244,-1.6181 -1.1587,-2.5594 -1.1693,-4.6583 1.6795,-9.3756 6.3378,-10.544 0.5811,-0.14764 1.1906,-0.21968 1.7681,-0.24449 l 0,10e-4 0.001,0 z m 139.26,3.5953 c -14.307,0 -24.777,11.026 -23.34,24.56 1.2106,11.413 10.486,20.975 21.939,23.707 -1.9559,-3.1984 -3.2563,-6.7642 -3.6567,-10.542 -1.435,-13.535 9.0331,-24.501 23.342,-24.501 2.2547,0 4.4398,0.27874 6.5811,0.7937 -5.0445,-8.2701 -14.542,-14.017 -24.866,-14.017 l 10e-4,10e-4 -10e-4,0 0,-10e-4 z m -121.83,3.1075 c 2.7945,0.0933 5.4732,1.5402 7.0677,4.0831 2.5524,4.0689 1.3276,9.4547 -2.7413,12.006 -0.85039,0.53268 -1.7598,0.88583 -2.6835,1.0972 -0.7689,0.17716 -1.5508,0.16063 -2.315,0.12165 0.004,-0.12402 0,-0.23976 0,-0.36614 0,-5.178 -3.1134,-9.6543 -7.5567,-11.64 0.31417,-0.75945 0.68386,-1.4835 1.2177,-2.1331 0.57402,-0.69449 1.265,-1.3216 2.074,-1.8284 1.526,-0.95669 3.2575,-1.3972 4.9358,-1.3406 l 0.001,0 z m 121.83,1.9512 c 4.4787,0 8.7815,1.3713 12.494,3.6567 -13.963,2.7 -24.012,15.033 -22.55,29.437 -4.4504,-3.6862 -7.7055,-8.6504 -8.2878,-14.139 -1.1327,-10.689 6.6319,-18.954 18.345,-18.954 l -0.001,0 z m -149.92,5.2406 c 1.0134,0.0697 1.9216,0.34961 2.8028,0.72992 0.70512,0.30827 1.3559,0.70394 1.95,1.1587 -1.6925,2.1673 -2.6811,4.9051 -2.6811,7.8614 0,2.3197 0.62244,4.4693 1.7055,6.339 -0.73583,0.46063 -1.5083,0.82441 -2.3752,1.037 -0.84213,0.20433 -1.7126,0.30472 -2.622,0.24331 -4.7906,-0.32835 -8.4319,-4.4716 -8.1047,-9.2634 0.32835,-4.7917 4.5342,-8.4342 9.3248,-8.1059 z m 14.748,1.2791 c 4.6512,0 8.4106,3.8197 8.4106,8.4732 0,4.6512 -3.7594,8.4106 -8.4106,8.4106 -4.6535,0 -8.4118,-3.7594 -8.4118,-8.4106 0,-4.6535 3.7594,-8.4732 8.4118,-8.4732 z m 12.614,9.6898 c 0.83268,0.0933 1.637,0.29291 2.4366,0.60945 0.8315,0.33071 1.6547,0.73465 2.3764,1.3406 3.6839,3.0827 4.1173,8.5654 1.037,12.25 -3.0827,3.6839 -8.5665,4.1787 -12.25,1.0972 -0.77716,-0.65079 -1.3417,-1.4315 -1.8284,-2.2559 -0.38622,-0.65551 -0.63661,-1.3535 -0.85276,-2.0716 4.9039,-1.4161 8.5748,-5.7402 9.0815,-10.969 l 0,-10e-4 z m -23.159,5.8524 c 2.276,3.3709 6.163,5.6067 10.545,5.6067 0.92008,0 1.8142,-0.11811 2.6799,-0.30591 0.18307,0.79961 0.29528,1.6075 0.24449,2.439 -0.0555,0.90236 -0.19252,1.7953 -0.54921,2.6823 -1.7917,4.4551 -6.8799,6.6059 -11.336,4.8142 -4.4551,-1.7917 -6.6685,-6.8787 -4.8756,-11.336 0.3626,-0.89882 0.86457,-1.6819 1.4634,-2.3764 0.52677,-0.61181 1.1587,-1.0972 1.8284,-1.5236 l 10e-4,0 -10e-4,0 z m 63.746,20.72 c -7.8177,0 -12.797,1.65 -12.797,4.0228 0,2.374 4.9807,3.9614 12.797,3.9614 2.0835,0 4.4492,-1.213 4.4492,-3.9614 0,-2.7484 -2.3669,-4.0228 -4.4492,-4.0228 z m 30.169,0 c -2.0835,0 -4.4492,1.2744 -4.4492,4.0228 -0.001,2.7484 2.3658,3.9614 4.4492,3.9614 7.8189,0 12.797,-1.5874 12.797,-3.9614 0,-2.374 -4.9795,-4.0228 -12.797,-4.0228 z"
             class="fil1" />
          <path
             style="fill:#000000"
             inkscape:connector-curvature="0"
             id="path2206"
             d="m 476.75,250.48 -13.53,9.874 1.5248,3.2291 c 0,0 -2.4768,0.85039 -3.5976,3.0461 -1.1185,2.1992 0.73228,5.3032 0.73228,5.3032 0,0 -12.862,-1.122 -14.87,0.18307 -1.8189,1.1787 0.77008,10.088 -0.42756,17.613 -1.6689,10.488 -5.8039,9.6071 -5.9728,11.64 -0.16417,1.9748 1.585,5.0587 1.585,5.0587 0,0 -2.4118,0.75945 -2.9256,1.7681 -0.82677,1.6216 0.57638,4.6134 -0.42638,6.5811 -5.5949,10.98 -13.857,27.185 -19.319,37.909 -0.76299,1.4965 -2.8134,2.0681 -3.8409,4.0831 -0.94724,1.8591 -0.18189,4.5697 -0.18189,4.5697 0,0 -3.6201,0.21614 -4.8756,2.6823 -1.3346,2.6185 -0.54921,6.1547 -0.54921,6.1547 0,0 -2.289,0.29291 -3.4146,2.4992 -1.2012,2.3587 0.83386,3.5953 0.30827,4.6323 -7.3441,14.407 -15.993,31.39 -21.27,41.747 -1.9417,3.8079 -8.7354,4.5709 -12.678,12.311 -3.8256,7.5071 1.6453,13.042 1.6453,13.042 0,0 -5.6811,0.51378 -7.1906,3.4748 -1.5378,3.0177 -0.32126,7.6004 3.7784,9.6898 4.0996,2.0882 8.5795,0.39803 10.118,-2.6197 1.5083,-2.961 -1.5248,-7.8614 -1.5248,-7.8614 0,0 7.6937,1.1079 11.518,-6.4004 3.9437,-7.7398 0.6189,-13.62 2.5594,-17.43 5.2784,-10.357 13.929,-27.339 21.27,-41.747 0.52913,-1.037 2.6988,-0.13937 3.9,-2.498 1.1232,-2.2063 0,-4.2047 0,-4.2047 0,0 3.3591,-1.4646 4.6937,-4.0842 1.2567,-2.465 -0.67087,-5.5453 -0.67087,-5.5453 0,0 2.6468,-0.94252 3.5953,-2.8028 1.0264,-2.015 0.27165,-3.9886 1.0346,-5.4874 5.4638,-10.721 13.727,-26.928 19.32,-37.906 1.0039,-1.9701 4.2319,-2.6445 5.0587,-4.2673 0.51378,-1.0075 -0.30354,-3.4122 -0.30354,-3.4122 0,0 3.5575,-0.35197 5.0575,-1.6465 1.5449,-1.3311 -1.5921,-4.1858 5.9126,-11.701 5.3835,-5.3906 14.068,-8.5618 13.955,-10.726 -0.1252,-2.3929 -8.5925,-12.128 -8.5925,-12.128 0,0 3.5728,-0.30118 4.6925,-2.498 1.1197,-2.198 0.36614,-4.7551 0.36614,-4.7551 l 3.5339,-0.60945 0,-16.76 0,-0.001 0,0.001 10e-4,0 z m -127.19,241.4 c -1.7339,0.1748 -2.8169,1.2024 -3.1677,1.8909 -0.53386,1.0441 -0.63071,2.4709 0,3.7158 0,0 -4.265,-1.3335 -5.7284,-0.60945 -1.3784,0.68268 0,20.783 0,20.783 0,0 17.017,-10.736 16.759,-12.25 -0.27402,-1.6098 -3.8398,-4.3276 -3.8398,-4.3276 1.3784,-0.22087 2.4532,-1.0854 2.987,-2.1319 0.55984,-1.1008 0.63425,-4.2472 -3.2303,-6.2173 -1.448,-0.73819 -2.7366,-0.95669 -3.7795,-0.85276 z"
             class="fil1" />
          <path
             style="fill:#000000"
             inkscape:connector-curvature="0"
             id="rect2205"
             d="m 217.92,23.954 c -4.2567,0 -10.525,0.11693 -14.2,2.5606 -3.3626,2.2323 -3.0898,5.1354 -4.2661,6.1547 -2.7732,2.4 -7.5248,2.315 -9.8126,2.315 -14.81,0 -15.358,15.847 -15.358,15.847 0,0 3.7866,-5.7295 10.482,-5.7295 11.132,0 19.563,6.0638 19.563,8.3492 0,0.9248 -1.148,1.0961 -1.2177,1.0961 -7.2709,0 -18.246,-4.1858 -24.074,-4.3878 l 0,2.3161 c 0.078,0.05079 0.1311,0.11929 0.24567,0.18307 -0.0839,-0.01535 -0.16299,-0.04488 -0.24567,-0.06142 l 0,0.42638 c 13.013,4.5272 26.206,10.937 26.206,39.187 0,17.79 -2.1295,35.94 -11.03,50.218 -3.1524,5.0563 -7.6406,9.3827 -13.042,13.226 -2.4035,-0.72638 -13.706,-4.2378 -21.635,-8.6539 -13.959,-7.7764 -21.197,-15.513 -37.786,-16.272 l 0,-12.616 c 0,-6.7406 2.439,-12.813 2.439,-19.258 -6.9933,-1.8744 -26.402,-25.608 -44.307,-36.141 -26.346,17.065 -46.744,45.077 -46.744,57.959 0,0 0.79134,276.8 0,373.22 0,5.5571 -3.3508,13.408 -3.3508,13.408 9.6177,-4.0689 27.248,-28.191 30.959,-37.359 l 0,4.389 c 14.525,-6.6236 25.161,-24.028 29.923,-33.032 0.08504,1.3016 0.30591,4.5685 0.30591,4.5685 12.976,-11.375 29.496,-78.616 29.496,-78.616 l -0.85276,-14.139 c 0,0 -11.425,54.9 -24.438,66.185 l 0,-236.4 10.3,9.5669 15.601,-14.565 0,-11.092 -13.834,12.919 0,-33.458 c 2.0846,-3.1535 3.4665,-5.5075 4.5094,-7.3736 2.2394,3.9035 9.476,15.868 17.978,23.22 1.3984,-5.6882 10.605,-11.093 10.605,-11.093 0,0 3.2988,8.9386 8.348,11.152 1.7764,-3.1287 12.373,-10.055 12.373,-10.055 0,0 -9.0661,1.3772 -12.738,4.8154 -3.1535,-0.7063 -3.9614,-13.165 -3.9614,-13.165 0,0 -13.342,6.4984 -15.661,11.152 -2.5441,-0.68858 -6.5043,-10.7 -8.0468,-14.81 2.328,-0.25394 5.6138,-0.54803 9.9342,-0.54803 3.8043,0 8.6728,1.8024 13.773,4.2047 5.6032,2.6386 11.465,5.9787 16.7,8.3504 6.7051,3.0354 16.848,3.652 19.806,3.7784 -3.3874,2.3811 -7.1102,4.5543 -11.151,6.5823 0,0 15.965,-0.14764 27.181,-5.7295 4.0016,-2.5736 8.1532,-5.1378 11.701,-8.1661 -1.539,4.278 -3.9354,9.3319 -7.6807,13.651 16.472,-1.3937 24.673,-10.8 26.999,-13.956 1.0925,2.8276 3.039,7.3654 6.0945,11.274 3.0567,-3.9083 5.0622,-8.4461 6.1559,-11.274 2.328,3.1559 10.527,12.562 26.998,13.956 -3.7441,-4.3193 -6.1406,-9.3732 -7.6784,-13.651 3.5468,3.0272 7.7008,5.5925 11.701,8.1661 11.215,5.5819 27.182,5.7295 27.182,5.7295 -4.0441,-2.028 -7.8284,-4.2071 -11.213,-6.5823 2.8465,-0.10984 13.108,-0.71811 19.867,-3.7784 5.2335,-2.3716 11.095,-5.7118 16.697,-8.3504 5.1012,-2.4024 9.9709,-4.2047 13.775,-4.2047 4.3205,0 7.6051,0.29409 9.9331,0.54803 -1.5413,4.1102 -5.5004,14.121 -8.0457,14.81 -2.3209,-4.6535 -15.663,-11.152 -15.663,-11.152 0,0 -0.80787,12.458 -3.9602,13.165 -3.672,-3.4382 -12.738,-4.8154 -12.738,-4.8154 0,0 10.596,6.926 12.371,10.055 5.0504,-2.2134 8.289,-11.152 8.289,-11.152 0,0 9.2669,5.4059 10.665,11.093 8.5028,-7.3535 15.737,-19.313 17.978,-23.22 1.0819,1.9264 2.5276,4.3736 4.5094,7.3736 l 0,33.458 -13.833,-12.919 0,11.092 15.601,14.565 10.3,-9.5669 0,236.4 c -13.016,-11.285 -24.438,-66.185 -24.438,-66.185 l -0.85512,14.139 c 0,0 16.522,67.241 29.498,78.616 0,0 0.21968,-3.2669 0.30472,-4.5685 4.7622,9.0035 15.4,26.408 29.923,33.032 l 0,-4.389 c 3.711,9.1689 21.341,33.291 30.958,37.359 0,0 -3.3508,-7.8508 -3.3508,-13.408 -0.79134,-96.428 0,-373.22 0,-373.22 0,-12.884 -20.398,-40.894 -46.744,-57.959 -17.901,10.533 -37.313,34.266 -44.306,36.141 0,6.4453 2.4366,12.517 2.4366,19.258 l 0,12.555 c -16.552,0.77598 -23.838,8.5642 -37.785,16.334 -7.9807,4.4468 -19.404,7.9701 -21.694,8.6539 -5.3988,-3.835 -9.8303,-8.1685 -12.98,-13.226 -7.5862,-12.17 -10.787,-27.111 -10.787,-42.294 0,-6.4181 7.1906,-13.643 7.1906,-18.833 0,-7.8449 -0.7311,-12.553 -0.7311,-12.553 2.5512,0.34724 7.0087,4.8744 7.0087,4.8744 0,0 -0.15354,-13.022 -4.2673,-15.296 0,0 1.6642,-1.7114 7.6795,-1.8898 -1.6902,-4.2815 -10.055,-9.5067 -10.055,-9.5067 0.41811,-0.74882 1.1906,-1.3961 2.1933,-1.95 2.1012,-1.1622 5.0539,-1.9287 7.3122,-2.3776 -2.4071,-0.49842 -5.1803,-1.2626 -8.2264,-2.2559 -6.9543,-2.2654 -15.142,-5.5913 -22.793,-9.2622 -13.966,-6.7004 -24.606,-7.1315 -30.472,-7.1315 l 0,0.0012 10e-4,0 z m 0.30472,3.8398 c 1.2945,0.01181 2.4957,0.06142 3.5339,0.06142 13.641,0 23.235,6.2185 36.142,11.944 3.3827,1.5 6.4878,2.7154 9.261,3.6555 -1.7374,1.539 -3.0886,3.0862 -3.4736,4.389 0,0 5.785,1.0713 8.4094,5.9126 0,0 -5.5004,0.62362 -6.3992,3.8386 3.0803,0.23268 6.1417,4.115 6.1559,7.8626 l -7.8012,-2.439 c 0,0 1.8898,8.7591 1.8898,18.284 0,4.8638 -7.0075,10.589 -7.0075,18.832 0,25.873 6.5173,35.819 11.153,43.818 1.813,3.1299 3.287,6.7311 6.3378,9.4465 -13.355,-7.1102 -23.281,-15.999 -23.281,-24.255 l 0,-31.264 -3.4736,0 0,31.264 c 0,5.987 1.4622,8.7756 1.4622,8.7756 2.0965,6.6236 6.3342,16.847 8.9598,20.965 -12.287,-6.6402 -18.528,-14.956 -18.528,-18.039 l 0,-42.966 -3.4736,0 0,43.574 0.66968,2.9858 c -1.4894,2.2382 -3.4252,4.8886 -4.7539,5.7898 -1.3252,-0.9 -3.202,-3.5551 -4.6937,-5.7898 l 0.67087,-2.9858 0,-43.574 -3.4736,0 0,42.966 c 0,3.0827 -6.2421,11.399 -18.527,18.039 2.6244,-4.1173 6.8622,-14.341 8.9575,-20.965 0,0 1.4634,-2.7886 1.4634,-8.7756 l 0,-31.264 -3.4736,0 0,31.264 c 0,8.2465 -9.8894,17.148 -23.22,24.255 3.0201,-2.7177 4.4728,-6.3342 6.2764,-9.4465 5.0693,-8.7472 11.336,-19.86 11.336,-51.497 0,-11.874 -1.7563,-19.946 -4.8142,-25.597 -0.92953,-1.8638 -2.1827,-6.8256 4.9358,-6.8256 3.6874,0 12.129,6.5209 12.129,6.5209 0,0 -0.34724,-5.2039 -4.6323,-8.1661 -0.71102,-0.49134 -1.8886,-2.0386 -1.8886,-3.4748 0,-1.076 1.8461,-3.7323 3.2894,-4.3878 0.99213,-0.45 -14.504,-3.15 -14.504,-10.178 0,-1.4634 0.92008,-2.4378 4.1421,-2.4378 4.2201,0 11.086,5.0587 17.189,5.0587 4.5106,0 6.2894,-1.0972 10.909,-1.0972 5.6457,0 17.422,10.689 21.451,10.299 -4.5035,-2.8276 -11.779,-13.53 -22.792,-13.53 -3.822,0 -7.2827,0.85394 -10.85,0.85394 -4.572,0 -9.0744,-4.2059 -14.016,-4.2059 -3.3118,0 -7.011,0.18425 -7.5579,-0.67087 -0.95787,-1.4941 -0.0957,-2.361 0.79252,-3.5953 1.6772,-2.3303 6.3886,-3.0059 11.033,-3.1677 1.3925,-0.04843 2.7839,-0.07323 4.0819,-0.06142 l 0,0.0012 0.002,0 0.001,0 z m -138.34,46.926 0,0.05905 c 0,0 24.482,22.432 32.727,25.29201 0,0 0.30354,7.5567 0.30354,7.5567 l 0,22.24598 c -5.9752,-2.05628 -13.484,-11.87198 -17.124,-17.06498 l 0,-3.0472 c 0,-2.8665 1.6866,-4.9606 2.9244,-6.0945 l -3.5953,-1.2791 c -1.3713,1.5626 -2.8642,3.8846 -2.8642,6.8858 l 0,1.7681 -1.1575,1.2201 -0.60945,0.67087 -8.9587,9.6272 -10.542,-15.967 0,-3.9 c 0,-2.6291 2.0209,-5.55941 3.7181,-7.55671 l -3.5362,-1.2803 c -1.7846,2.3114 -3.6567,5.4272 -3.6567,8.34921 l 0,3.1677 c -2.4803,2.5665 -12.128,12.495 -12.128,12.495 l -6.1547,-13.225 c 7.3866,-10.23201 19.364,-21.69001 30.654,-29.92401 l -0.0012,0.0012 z m 308.31,0 c 11.268,8.2158 23.251,19.711 30.657,29.923 -1.3146,2.8228 -6.1559,13.225 -6.1559,13.225 0,0 -9.6461,-9.9284 -12.126,-12.494 l 0,-3.1689 c 0,-2.9209 -1.872,-6.0366 -3.6567,-8.3492 l -3.535,1.2803 c 1.6961,1.9961 3.7181,4.9276 3.7181,7.5567 l 0,3.9 -10.545,15.967 -8.9575,-9.6272 -0.60945,-0.67087 -1.1587,-1.2189 0,-1.7693 c 0,-3.0012 -1.4929,-5.3232 -2.863,-6.8858 l -3.5976,1.2791 c 1.2402,1.135 2.9268,3.2268 2.9268,6.0957 l 0,3.0472 c -3.6425,5.1921 -11.148,15.007 -17.125,17.065 l 0,-22.246 c 0,0 0.30472,-7.5567 0.30472,-7.5567 8.2441,-2.8594 32.726,-25.292 32.726,-25.292 l 0,-0.06024 -0.001,0 -10e-4,0 z m -343.24,36.749 5.6079,10.178 0,18.346 -8.5323,7.9216 0,-27.242 c 0,-2.6079 1.0925,-5.7508 2.9244,-9.2032 z m 378.16,0 c 1.8354,3.4524 2.9256,6.5953 2.9256,9.2032 l 0,27.242 -8.5323,-7.9216 0,-18.346 5.6067,-10.178 z m -355.79,2.3161 9.8102,14.93 0,11.336 -9.8102,9.2032 0,-35.468 0,-0.001 z m 333.42,0 0,35.468 -9.8126,-9.202 0,-11.336 9.8126,-14.93 0,0.001 0,-0.001 z m -336.9,2.6811 0,32.727 -9.8126,-9.1417 0,-13.285 9.8126,-10.299 0,-10e-4 z m 340.37,0 9.8126,10.299 0,13.285 -9.8126,9.1417 0,-32.727 0,0.001 z m -310.27,2.3764 c 1.4776,2.4579 8.2547,13.422 14.687,16.577 -2.2784,3.2197 -8.2465,11.096 -14.687,14.566 l 0,-31.143 z m 280.16,0 0,31.143 c -6.4394,-3.4689 -12.406,-11.347 -14.687,-14.566 6.4346,-3.1535 13.211,-14.119 14.687,-16.577 z m -283.63,1.585 0,28.766 -9.8126,-9.1417 0,-10.178 9.8126,-9.4465 z m 287.11,0 9.8126,9.4465 0,10.178 -9.8126,9.1417 0,-28.766 z m -327.02,30.654 0,28.706 -8.5323,-7.9842 0,-12.738 8.5323,-7.9831 z m 366.94,0 8.5323,7.9831 0,12.738 -8.5323,7.9842 0,-28.706 z m -363.47,0.0626 5.6079,5.2406 4.2059,3.9 0,10.299 -4.2059,3.9 -5.6079,5.2406 0,-28.583 0,0.002 z m 23.098,0 0,28.583 -5.6067,-5.2417 -4.2035,-3.9614 0,-10.178 4.2035,-3.9614 5.6067,-5.2406 z m 3.5362,0 9.8126,9.202 0,10.178 -4.2673,4.0216 -5.5453,5.1815 0,-28.583 z m 23.098,0 0,28.643 -5.6067,-5.2406 -4.2071,-3.9626 0,-9.5669 c 3.385,-2.0658 6.7878,-5.8618 9.8126,-9.874 l 0,0.001 0.001,0 z m 260.54,0 c 3.026,4.0087 6.4276,7.8083 9.8102,9.8716 l 0,9.5681 -4.2035,3.9614 -5.6067,5.2406 0,-28.643 0,0.001 z m 23.098,0 0,28.583 -5.5465,-5.1815 -4.265,-4.0216 0,-10.178 9.8126,-9.202 -0.001,0 z m 3.535,0 5.6067,5.2406 4.2059,3.9614 0,10.178 -4.2059,3.9614 -5.6067,5.2406 0,-28.583 0,0.001 z m 23.098,0 0,28.583 -5.6079,-5.2417 -4.2047,-3.9 0,-10.299 4.2047,-3.9 5.6079,-5.2417 z m -345.49,31.63 10.359,9.6898 10.361,-9.6295 0,236.46 c 0,0 0.72284,11.733 1.2189,19.38 -4.6075,4.6571 -21.939,22.184 -21.939,22.184 l 0,-278.09 z m 330.99,0 0,278.09 c 0,0 -17.332,-17.528 -21.94,-22.182 0.49606,-7.6476 1.2177,-19.381 1.2177,-19.381 l 0,-236.46 10.361,9.6295 10.361,-9.6909 0,0.001 10e-4,0 z m -336.9,0.0602 0,269.19 c 0,7.6016 -13.88,25.325 -20.598,29.375 l 0,-298.5 10.238,9.5669 10.361,-9.6284 z m 342.81,0 10.361,9.6284 10.239,-9.5669 0,298.5 c -6.7169,-4.05 -20.6,-21.775 -20.6,-29.375 l 0,-269.19 z m -257.43,211.48 c 0,0 -9.9532,20.209 -13.832,23.828 0,0 2.5996,0.32953 5.5453,0.30472 -1.8118,2.6043 -15.651,22.53 -19.989,30.045 -4.0594,7.0311 -6.9236,3.9012 -13.165,3.9012 -5.1744,0 -16.905,8.2441 -18.832,11.58 -2.0244,3.5055 -3.5339,7.7658 -3.5339,11.275 0,3.8575 4.0831,9.1417 4.0831,9.1417 0.43937,-1.8461 1.2177,-2.4992 1.2177,-2.4992 0,0 10.73,13.366 12.311,15.113 1.2307,1.3606 6.7205,2.2453 8.6551,0.48898 4.8402,-4.4008 9.5256,-7.4787 13.834,-13.834 2.2181,-3.2752 2.387,-7.0287 4.9358,-10.545 8.5264,-11.761 25.494,-34.285 29.375,-39.43 0.25984,1.4327 0.48189,2.6256 0.72874,4.0831 4.3972,-8.8772 25.537,-25.84 25.537,-25.84 l -5.8512,-3.8409 c 0,0 -12.743,14.856 -16.882,17.614 0,0 -1.7681,-7.3878 -2.8039,-9.9957 0,0 -4.8827,3.6933 -7.5543,3.7807 0,0 -0.79842,-5.0138 -1.402,-8.2902 -3.3626,2.2417 -8.9587,1.7681 -8.9587,1.7681 4.9134,-2.3268 10.726,-16.577 10.726,-16.577 l -4.1433,-2.0728 -0.002,0.002 z m 172.04,0 -4.1445,2.0716 c 0,0 5.8146,14.251 10.726,16.577 0,0 -5.5961,0.4748 -8.9587,-1.7669 -0.60236,3.2752 -1.402,8.289 -1.402,8.289 -2.6716,-0.0874 -7.5567,-3.7795 -7.5567,-3.7795 -1.0346,2.6055 -2.8039,9.9957 -2.8039,9.9957 -4.1362,-2.7579 -16.88,-17.615 -16.88,-17.615 l -5.85,3.8398 c 0,0 21.138,16.963 25.534,25.842 0.24921,-1.4587 0.47126,-2.6516 0.7311,-4.0831 3.8799,5.1449 20.848,27.668 29.375,39.43 2.5488,3.5161 2.7165,7.2697 4.937,10.544 4.3063,6.3555 8.9929,9.4335 13.834,13.834 1.9323,1.7575 7.422,0.87284 8.6539,-0.4878 1.5803,-1.748 12.311,-15.113 12.311,-15.113 0,0 0.77835,0.65197 1.2189,2.498 0,0 4.0831,-5.2842 4.0831,-9.1417 0,-3.5091 -1.5118,-7.7681 -3.535,-11.274 -1.9264,-3.3366 -13.656,-11.581 -18.832,-11.581 -6.2409,0 -9.1051,3.1311 -13.163,-3.9 -4.3394,-7.5154 -18.18,-27.441 -19.99,-30.045 2.9468,0.026 5.5453,-0.30472 5.5453,-0.30472 -3.8787,-3.6201 -13.834,-23.83 -13.834,-23.83 l 0.001,0 z m -173.45,22.793 c 0,0 -0.0815,6.8492 2.074,9.2646 l 7.5567,-5.1815 c 0,0 0.50315,2.5004 1.1575,5.9126 -3.2362,4.4232 -21.822,29.791 -31.02,42.172 -2.2866,3.0768 -4.2071,10.909 -4.2071,10.909 0,0 -3.3496,-1.585 -3.3496,-4.448 0,-2.8122 0.36614,-6.1559 0.36614,-6.1559 0,0 -2.5016,2.8642 -6.8268,2.8642 0,-3.4559 6.6839,-7.2047 6.9472,-12.126 -5.0965,3.7784 -9.522,1.839 -15.418,3.6567 -6.4205,1.9772 -8.2087,4.6748 -10.178,4.5709 -1.1598,-0.0626 -2.2098,-2.0634 -1.7669,-3.2917 0.76654,-2.1272 8.7071,-8.015 14.258,-9.0803 1.3299,-0.25512 11.79,2.276 13.897,-0.97559 8.6811,-13.395 22.774,-35.14 24.134,-37.235 0.89528,-0.21378 1.7185,-0.44173 2.3752,-0.85394 l 0,-10e-4 0.001,0 z m 174.85,0 c 0.65906,0.41339 1.4823,0.64016 2.3776,0.85394 1.3606,2.0953 15.452,23.841 24.134,37.235 2.1071,3.2528 12.566,0.72047 13.894,0.97559 5.5547,1.0665 13.494,6.9543 14.262,9.0803 0.44291,1.2284 -0.60709,3.2291 -1.7681,3.2917 -1.9677,0.10394 -3.7559,-2.5925 -10.178,-4.5709 -5.8961,-1.8177 -10.32,0.12165 -15.418,-3.6567 0.26339,4.9205 6.9472,8.6716 6.9472,12.128 -4.324,0 -6.8256,-2.8642 -6.8256,-2.8642 0,0 0.36496,3.3425 0.36496,6.1547 0,2.863 -3.3508,4.4492 -3.3508,4.4492 0,0 -1.9205,-7.8331 -4.2059,-10.911 -9.1972,-12.38 -27.784,-37.748 -31.019,-42.172 0.65433,-3.411 1.1575,-5.9126 1.1575,-5.9126 l 7.5555,5.1815 c 2.1555,-2.4142 2.0728,-9.2646 2.0728,-9.2646 l 0,0.001 0,10e-4 z m -114.45,4.9972 c 0,0 -41.294,94.923 -77.947,109.52 0,0 15.946,6.7748 35.53,16.943 2.8571,1.4835 5.7992,3.0768 8.7756,4.6937 2.465,-2.9693 5.061,-6.2681 7.6181,-9.6921 11.709,-15.666 23.16,-33.823 23.16,-33.823 0.79724,4.715 -5.3858,19.278 -15.846,37.239 -2.0575,3.5291 -4.2024,7.2189 -6.5823,10.968 2.6539,1.5154 5.2866,3.0461 7.9228,4.6335 19.398,11.673 37.617,25.091 44.366,37.418 6.7512,-12.327 24.968,-25.746 44.369,-37.418 2.635,-1.5874 5.2677,-3.1181 7.9216,-4.6335 -2.3799,-3.7488 -4.5248,-7.4374 -6.5811,-10.968 -10.461,-17.961 -16.643,-32.524 -15.846,-37.239 0,0 11.451,18.157 23.16,33.823 2.5559,3.4228 5.152,6.7228 7.6169,9.6921 2.9752,-1.6169 5.9197,-3.2091 8.7768,-4.6937 19.584,-10.169 35.528,-16.943 35.528,-16.943 -36.651,-14.592 -77.947,-109.52 -77.947,-109.52 l -6.0933,1.7669 c 0,0 32.937,82.023 65.148,106.84 -7.3252,2.2051 -15.899,5.3705 -24.744,9.1429 -10.748,-12.591 -21.866,-29.574 -30.898,-44.674 -9.7512,-16.304 -17.734,-44.915 -17.734,-44.915 -4.5213,10.982 5.1142,66.145 24.561,101.05 -16.082,8.3705 -30.392,17.441 -37.238,24.865 -6.8445,-7.4232 -21.154,-16.494 -37.235,-24.865 19.446,-34.9 29.081,-90.065 24.56,-101.05 0,0 -7.9819,28.611 -17.735,44.915 -9.0307,15.1 -20.148,32.084 -30.898,44.674 -8.8429,-3.7724 -17.418,-6.9378 -24.744,-9.1429 32.212,-24.813 65.15,-106.84 65.15,-106.84 l -6.0945,-1.7669 -0.001,0 z m -107.87,45.587 c 0.28346,0.0307 0.5811,0.18189 0.79252,0.42638 0.42047,0.48543 0.38386,1.1976 -0.0626,1.5839 l -3.4122,2.9858 c -0.44646,0.38622 -1.1634,0.30354 -1.5839,-0.18307 -0.42165,-0.48543 -0.38622,-1.1976 0.06142,-1.585 l 3.4122,-2.9858 c 0.22205,-0.1937 0.50906,-0.27756 0.79252,-0.24449 l 0,0.002 z m 269.8,0 c 0.28346,-0.0343 0.57047,0.0484 0.7937,0.24331 l 3.4122,2.9858 c 0.44528,0.3874 0.48307,1.0996 0.0614,1.585 -0.42284,0.48661 -1.1398,0.56929 -1.5839,0.18307 l -3.4146,-2.987 c -0.44646,-0.38622 -0.48307,-1.0972 -0.0614,-1.5839 0.21142,-0.24331 0.50906,-0.39449 0.79252,-0.42638 l -10e-4,0 10e-4,0 z m -266.2,2.9858 c 0.84803,-0.0685 1.7386,0.30236 2.3776,1.0358 1.0205,1.1764 0.95433,2.8429 -0.12284,3.7795 l -8.2878,7.2508 c -1.0784,0.9378 -2.8181,0.75 -3.8409,-0.4252 -1.0205,-1.1764 -0.95551,-2.9032 0.12284,-3.8398 l 8.2878,-7.1917 c 0.40394,-0.35197 0.95433,-0.56811 1.4634,-0.60945 z m 261.94,0 c 0.21378,-0.0354 0.45709,-0.0177 0.66968,0 0.51024,0.0413 1.0571,0.25748 1.4634,0.60827 l 8.289,7.1917 c 1.0772,0.93543 1.1433,2.6646 0.12165,3.8409 -1.0216,1.174 -2.7614,1.363 -3.8398,0.42402 l -8.289,-7.2508 c -1.0772,-0.93543 -1.1433,-2.6008 -0.12047,-3.7795 0.47835,-0.55039 1.0665,-0.92598 1.7055,-1.0358 l 0,10e-4 z m -257.24,5.6067 c 0.84685,-0.0685 1.7976,0.3 2.4366,1.0358 1.0205,1.1764 0.95551,2.8417 -0.12284,3.7784 l -8.348,7.252 c -1.0784,0.93661 -2.7567,0.75 -3.7795,-0.42638 -1.0216,-1.1752 -0.95551,-2.902 0.12402,-3.8386 l 8.2866,-7.1917 c 0.40394,-0.35079 0.89291,-0.56693 1.402,-0.60945 l 10e-4,0 z m 252.55,0 c 0.2185,-0.0366 0.45709,-0.0165 0.66968,0 0.50906,0.0413 0.99685,0.25866 1.4008,0.60945 l 8.289,7.1917 c 1.0784,0.93543 1.1457,2.6634 0.12047,3.8386 -1.0193,1.1764 -2.7,1.363 -3.7784,0.42638 l -8.348,-7.2532 c -1.0784,-0.93543 -1.1445,-2.6008 -0.12284,-3.7772 0.47953,-0.55039 1.1138,-0.92598 1.7693,-1.037 l 0,0.001 z m -247.25,5.485 c 0.84921,-0.0685 1.7398,0.23976 2.3776,0.97441 1.0216,1.1764 0.95551,2.9032 -0.12165,3.8398 l -8.289,7.1929 c -1.0784,0.93661 -2.7567,0.74882 -3.7784,-0.42756 -1.0216,-1.1764 -1.0169,-2.8429 0.0602,-3.7795 l 8.3504,-7.2508 c 0.40276,-0.35197 0.89173,-0.50787 1.4008,-0.54921 z m 241.95,0 c 0.2126,-0.0319 0.45827,-0.0165 0.66968,0 0.51024,0.0413 0.99803,0.19724 1.4008,0.54921 l 8.3516,7.2508 c 1.0784,0.93543 1.0807,2.6032 0.0602,3.7795 -1.0216,1.1764 -2.7012,1.3642 -3.7784,0.42756 l -8.289,-7.1929 c -1.0795,-0.93543 -1.1433,-2.6634 -0.12165,-3.8398 0.47953,-0.55039 1.0689,-0.88228 1.7067,-0.97441 z"
             class="fil1" />
          <path
             style="fill:#f5d402"
             inkscape:connector-curvature="0"
             id="path2220"
             d="m 474.24,255.42 -7.924,5.6067 4.0216,2.074 4.0228,2.0102 -0.12047,-9.6909 -0.002,0 0.002,0 z m -7.6807,9.3248 c -1.4374,0.0992 -2.7047,0.86575 -3.3508,2.1331 -1.0335,2.0291 -0.0295,4.6264 2.2547,5.7898 2.2854,1.1634 4.9382,0.44409 5.974,-1.5839 1.0335,-2.0291 0.0283,-4.6252 -2.2559,-5.7898 -0.85748,-0.43701 -1.7575,-0.60827 -2.6209,-0.54921 l -0.001,0 z m -14.93,9.3248 c -1.1929,0.0142 -2.0587,0.0555 -2.2547,0.18307 -0.84685,0.54803 0.30472,7.7917 0.0614,13.955 -0.23032,5.8122 -2.0906,7.4492 -3.1087,9.4465 -0.93898,1.8437 -4.3264,4.0228 -4.3264,4.0228 l 2.8028,2.8039 c 0,0 1.8236,-2.8406 4.6925,-8.4732 3.385,-6.6413 3.2752,-18.676 4.2673,-19.318 0.86339,-0.55866 7.9228,-2.3161 7.9228,-2.3161 -0.001,0 -6.4784,-0.34961 -10.055,-0.30354 l -0.001,0 -10e-4,0 z m 12.309,1.6453 c 0,0 -7.422,1.4232 -8.472,2.439 -1.0146,0.98032 -0.56693,11.033 -4.5094,18.77 -3.2669,6.4146 -4.8744,8.7756 -4.8744,8.7756 l 2.0102,1.0358 2.0114,0.97559 c 0,0 0.93661,-2.6043 4.2059,-9.0201 3.9413,-7.7374 12.356,-13.349 12.553,-14.748 0.20433,-1.4433 -2.9244,-8.2264 -2.9244,-8.2264 l 0,-10e-4 z m 2.3776,0.97441 c 0,0 2.687,6.776 2.7425,7.8012 0.0626,1.1776 -9.7181,8.1673 -13.103,14.809 -2.8689,5.6327 -4.0831,8.7768 -4.0831,8.7768 l 3.9012,0.60945 c 0,0 -0.26929,-4.0087 0.66968,-5.8512 1.0169,-1.9961 1.285,-4.4421 5.8512,-8.0445 4.8425,-3.8197 11.389,-7.1598 11.336,-8.1673 -0.0496,-0.93071 -7.3134,-9.9331 -7.3134,-9.9331 l -10e-4,0 z m -22.061,31.936 c -1.2295,0.13228 -2.1236,0.91299 -2.6209,1.8886 -0.74055,1.4551 -0.33898,3.3992 -6.2173,14.933 -2.576,5.0563 -3.6142,7.0902 -6.4004,12.554 -2.8311,5.5594 -6.9472,13.591 -6.9472,13.591 0,0 -1.3984,2.5665 1.2189,3.9 2.6173,1.3323 3.7784,-1.3417 3.7784,-1.3417 0,0 4.1161,-8.0327 6.9472,-13.591 2.7862,-5.4626 3.8232,-7.5579 6.4004,-12.615 5.876,-11.534 7.6713,-12.319 8.4106,-13.773 0.79606,-1.5614 0.60591,-3.6638 -2.0102,-4.9984 -0.9815,-0.49842 -1.8224,-0.62598 -2.5583,-0.54685 l 0,-0.001 -10e-4,0.001 z m -25.293,48.085 c -0.9874,0.0862 -1.7681,0.50433 -2.1319,1.2177 -0.72756,1.4303 0.5185,3.5291 2.8039,4.6937 2.2842,1.1622 4.7575,0.94134 5.485,-0.4878 0.72756,-1.4291 -0.57874,-3.5291 -2.8642,-4.6937 -1.1421,-0.58228 -2.3032,-0.81732 -3.2906,-0.72992 l -10e-4,0 -10e-4,0 z m -3.4122,7.0075 c -1.637,-0.0779 -3.0673,0.48898 -3.6567,1.6453 -0.94252,1.8484 0.52677,4.5035 3.2917,5.9138 2.7638,1.4079 5.7614,1.0547 6.7039,-0.7937 0.94252,-1.8496 -0.52795,-4.5024 -3.2917,-5.9126 -1.037,-0.52677 -2.0634,-0.80551 -3.0472,-0.85276 z m -4.6323,8.7154 c -0.98622,0.0874 -1.7681,0.50433 -2.1331,1.2201 -0.72756,1.428 0.51968,3.528 2.8039,4.6913 2.2842,1.1646 4.7563,0.94134 5.4862,-0.48661 0.72756,-1.4291 -0.51968,-3.5291 -2.8039,-4.6925 -1.1433,-0.58346 -2.3646,-0.8185 -3.3508,-0.73228 l -0.002,0 z m -2.0102,7.4976 c -1.4433,0.18543 -2.1342,1.6453 -2.1342,1.6453 0,0 -14.819,29.166 -20.048,39.43 -1.6713,3.2787 -8.7047,5.3209 -11.458,10.727 -2.7732,5.4378 -0.81614,10.528 2.8028,12.371 3.6177,1.8437 8.9303,0.50315 11.702,-4.9358 2.7532,-5.4047 0.27992,-12.325 1.9488,-15.602 5.2299,-10.266 20.052,-39.431 20.052,-39.431 0,0 1.4598,-2.5665 -1.1587,-3.9 -0.65433,-0.33307 -1.2236,-0.36614 -1.7055,-0.30354 l -10e-4,0 z m -35.774,67.16 c -1.6654,0.0461 -3.1465,0.83268 -3.8398,2.1933 -1.1102,2.1791 0.15945,5.0823 2.863,6.4594 2.7047,1.3784 5.8382,0.71575 6.9484,-1.4622 1.1102,-2.1791 -0.22087,-5.0835 -2.9244,-6.4606 -1.0146,-0.51732 -2.0492,-0.75827 -3.0472,-0.7311 l 0,0.001 z m -23.585,46.744 c -0.84567,0.0283 -1.5449,0.29646 -1.8272,0.85394 -0.56811,1.1126 0.60472,2.8724 2.6209,3.9 2.015,1.0264 4.1232,0.93071 4.6925,-0.18307 0.56811,-1.115 -0.60709,-2.8736 -2.6209,-3.9 -1.0087,-0.51378 -2.0173,-0.70039 -2.8654,-0.67087 z m -6.9472,5.4839 0,14.384 11.702,-8.4106 c 0,0 -1.5874,-2.8028 -5.0598,-4.5709 -3.4724,-1.7681 -6.6425,-1.402 -6.6425,-1.402 z"
             class="fil2" />
          <path
             style="fill:#000000"
             inkscape:connector-curvature="0"
             id="path2280"
             d="m 55.626,415.9 c 0,0 6.6118,13.657 11.637,15.53 -2.5984,-0.70866 -11.037,2.3882 -11.037,2.3882 0,0 14.88,13.292 27.5,14.164 10.702,0.73701 15.899,-4.6051 15.899,-4.6051 l -2.1437,-11.339 c 0,0 -6.548,-7.9075 -17.026,-11.556 -10.589,-3.6886 -24.829,-4.5815 -24.829,-4.5815 l 0,-10e-4 z"
             class="fil1" />
          <path
             style="fill:#000000"
             inkscape:connector-curvature="0"
             id="path2282"
             d="m 105.47,391.44 c 0,0 -9.1299,7.8154 -11.628,16.867 -2.5004,9.0532 1.6287,19.342 1.6287,19.342 l 7.6713,14.31 c 0,0 10.632,-5.6587 15.155,-14.119 4.5224,-8.4614 2.8642,-19.878 2.8642,-19.878 0,0 -8.4224,3.1358 -9.4937,4.5236 1.7776,-9.3862 -6.1972,-21.046 -6.1972,-21.046 l -10e-4,0 10e-4,0 z"
             class="fil1" />
          <path
             style="fill:#000000"
             inkscape:connector-curvature="0"
             id="path2284"
             d="m 76.136,387.77 c 0,0 -10.383,3.5091 -20.466,2.902 -9.6047,-0.57992 -17.591,-8.6457 -17.591,-8.6457 0,0 7.9618,-5.3882 11.891,-4.6701 -4.3228,-1.5803 -10.591,-12.409 -10.591,-12.409 0,0 8.9067,-2.6917 16.805,0.28583 7.898,2.9799 14.785,11.632 14.785,11.632 l 5.1685,10.905 -0.0012,0 z"
             class="fil1" />
          <path
             style="fill:#000000"
             inkscape:connector-curvature="0"
             id="path2286"
             d="m 79.706,337.06 c 0,0 5.1933,10.753 3.9614,14.49 1.611,-2.4886 7.7067,-6.3626 7.7067,-6.3626 0,0 3.6862,17.409 0.16063,28.162 -3.5232,10.752 -14.255,14.845 -14.255,14.845 l -11.837,-23.02 c 0,0 -1.7622,-8.5287 1.9287,-15.282 3.6921,-6.7535 12.333,-12.833 12.333,-12.833 l 0.0012,0 z"
             class="fil1" />
          <path
             style="fill:#000000"
             inkscape:connector-curvature="0"
             id="path2293"
             d="m 12.138,308.6 c 0,0 11.223,-1.1787 21.489,3.0744 8.5831,3.5634 11.215,10.039 11.215,10.039 l 4.2272,11.334 c 0,0 -12.215,4.5815 -21.867,1.0784 -9.652,-3.5055 -16.744,-15.096 -16.744,-15.096 0,0 6.7453,-2.5583 9.313,-1.5992 -3.7406,-1.6547 -7.6311,-8.8323 -7.6311,-8.8323 l 0,0.001 -0.0012,0 z"
             class="fil1" />
          <path
             style="fill:#000000"
             inkscape:connector-curvature="0"
             id="path2295"
             d="m 47.441,287.56 c 0,0 4.9252,6.3248 5.0728,13.6 1.3134,-3.8681 7.4622,-8.1425 7.4622,-8.1425 0,0 6.3236,15.304 4.9358,26.168 -1.3878,10.866 -10.487,17.294 -10.487,17.294 l -11.347,-21.539 c 0,0 -3.698,-8.8276 -2.6079,-15.674 1.0902,-6.8457 6.9709,-11.709 6.9709,-11.709 l 0,0.002 z"
             class="fil1" />
          <path
             style="fill:#000000"
             inkscape:connector-curvature="0"
             id="path2297"
             d="m 8.5736,246.37 c 0,0 -2.035,11.731 1.428,18.488 3.0933,6.0295 5.0622,7.3524 5.0622,7.3524 -5.8972,-3.8917 -14.815,-4.2272 -14.815,-4.2272 0,0 3.1736,12.763 10.759,18.586 7.585,5.8228 19.28,4.4622 19.28,4.4622 0,0 7.6902,-10.238 7.1551,-21.268 -0.53504,-11.03 -9.2953,-22.853 -9.2953,-22.853 0,0 -3.4547,7.1669 -3.7594,12.516 -2.2358,-5.5158 -15.815,-13.055 -15.815,-13.055 l 0,-0.001 z"
             class="fil1" />
          <path
             style="fill:#097754"
             inkscape:connector-curvature="0"
             id="path2299"
             d="m 12.024,253.51 c 0,0 -0.30354,8.5724 2.5323,13.435 2.837,4.8638 9.1713,6.8032 9.1713,6.8032 0,0 0.30236,-8.5701 -2.5335,-13.433 -2.837,-4.8638 -9.1701,-6.8055 -9.1701,-6.8055 z"
             class="fil5" />
          <path
             style="fill:#097754"
             inkscape:connector-curvature="0"
             id="path2301"
             d="m 6.0933,272.9 c 0,0 7.4468,0.43819 11.747,3.7335 4.298,3.2953 5.9634,10.161 5.9634,10.161 0,0 -4.9358,0.50079 -9.2339,-2.7945 C 10.2706,280.7035 6.093,272.9 6.093,272.9 Z"
             class="fil5" />
          <path
             style="fill:#097754"
             inkscape:connector-curvature="0"
             id="path2304"
             d="m 29.46,255.6 c 0,0 -2.4756,5.6787 -2.1909,11.8 0.28465,6.1228 3.8575,13.02 3.8575,13.02 0,0 3.2303,-7.35 2.9457,-13.474 -0.28346,-6.1228 -3.7465,-9.613 -4.6122,-11.347 z"
             class="fil5" />
          <path
             style="fill:#097754"
             inkscape:connector-curvature="0"
             id="path2306"
             d="m 16.923,310.78 c 0,0 3.6555,5.1047 9.2846,7.8886 5.6291,2.7827 14.015,2.8854 14.015,2.8854 0,0 -4.1858,-5.4307 -9.815,-8.2146 -5.6291,-2.7827 -13.485,-2.5618 -13.485,-2.5618 l 0,0.002 z"
             class="fil5" />
          <path
             style="fill:#097754"
             inkscape:connector-curvature="0"
             id="path2308"
             d="m 18.738,322.64 c 0,0 2.687,5.263 7.6004,7.5189 4.9158,2.2571 14.969,2.0716 14.969,2.0716 0,0 -3.8575,-4.9181 -8.7709,-7.1752 -4.9146,-2.2583 -13.799,-2.4154 -13.799,-2.4154 z"
             class="fil5" />
          <path
             style="fill:#097754"
             inkscape:connector-curvature="0"
             id="path2310"
             d="m 47.039,294.57 c 0,0 -2.9705,4.9087 -2.6799,10.317 0.29173,5.4106 3.8421,11.322 3.8421,11.322 0,0 2.4968,-6.7772 2.2051,-12.187 -0.29055,-5.4106 -3.3673,-9.4524 -3.3673,-9.4524 z"
             class="fil5" />
          <path
             style="fill:#097754"
             inkscape:connector-curvature="0"
             id="path2312"
             d="m 57.978,301.51 c 0,0 -5.0823,6.8209 -5.8122,13.834 -0.72992,7.0122 2.8902,14.217 2.8902,14.217 0,0 6.1394,-6.1642 6.8693,-13.176 0.72992,-7.0146 -3.9472,-14.872 -3.9472,-14.872 l 0,-0.002 z"
             class="fil5" />
          <path
             style="fill:#097754"
             inkscape:connector-curvature="0"
             id="path2320"
             d="m 43.961,366.27 c 0,0 0.61063,2.5216 2.7342,5.1992 2.1224,2.6799 5.7567,5.5146 5.7567,5.5146 0,0 3.5102,-1.1291 7.8744,-0.18425 4.363,0.94606 10.167,4.8331 10.167,4.8331 0,0 -6.2468,-9.3224 -12.732,-12.947 -6.4854,-3.6224 -13.799,-2.4154 -13.799,-2.4154 l -0.0012,0 z"
             class="fil5" />
          <path
             style="fill:#097754"
             inkscape:connector-curvature="0"
             id="path2322"
             d="m 43.317,382.29 c 0,0 8.087,-3.4547 14.746,-2.563 6.6602,0.89173 12.665,6.1559 12.665,6.1559 0,0 -9.0012,3.1146 -15.66,2.224 C 48.4066,387.21517 43.316,382.29 43.316,382.29 l 0.0012,-0.001 0,0.001 z"
             class="fil5" />
          <path
             style="fill:#097754"
             inkscape:connector-curvature="0"
             id="path2324"
             d="m 77.506,344.7 c 0,0 -7.1516,7.5756 -7.7516,14.151 -0.59882,6.574 5.7992,12.702 5.7992,12.702 0,0 -0.31417,-4.2165 0.78661,-6.9933 1.102,-2.7756 3.4441,-5.7402 3.4441,-5.7402 0,0 0.99803,-3.385 0.61181,-6.0992 -0.53976,-3.7925 -2.8902,-8.0197 -2.8902,-8.0197 z"
             class="fil5" />
          <path
             style="fill:#097754"
             inkscape:connector-curvature="0"
             id="path2326"
             d="m 87.764,353.47 c 0,0 -6.7406,6.8197 -8.5216,14.124 -1.7823,7.3039 1.3925,15.091 1.3925,15.091 0,0 6.1299,-4.8354 7.9122,-12.138 1.7823,-7.3039 -0.78425,-17.076 -0.78425,-17.076 l 0.0012,0 z"
             class="fil5" />
          <path
             style="fill:#097754"
             inkscape:connector-curvature="0"
             id="path2328"
             d="m 104.64,397.5 c 0,0 3.0532,6.3744 3.828,11.706 0.77598,5.3303 0.0567,7.1752 0.0567,7.1752 0,0 -3.1571,3.1039 -4.572,4.9287 -1.8189,2.3457 -2.0858,6.6378 -2.0858,6.6378 0,0 -6.338997,-9.424 -5.362197,-16.313 0.97677,-6.8882 8.135397,-14.135 8.135397,-14.135 l 0,10e-4 z"
             class="fil5" />
          <path
             style="fill:#097754"
             inkscape:connector-curvature="0"
             id="path2330"
             d="m 118,412.24 c 0,0 -8.1165,5.361 -11.337,10.86 -3.2232,5.4968 -1.552,11.13 -1.552,11.13 0,0 5.7839,-0.50906 9.0071,-6.0071 3.2209,-5.498 3.8811,-15.984 3.8811,-15.984 l 0.001,0 0,10e-4 z"
             class="fil5" />
          <path
             style="fill:#097754"
             inkscape:connector-curvature="0"
             id="path2333"
             d="m 64.672,434.88 c 0,0 11.698,-0.3189 18.848,1.4398 7.1504,1.7563 9.7524,5.589 9.7524,5.589 0,0 -8.0398,3.7642 -15.189,2.0067 -7.1504,-1.7563 -13.411,-9.0366 -13.411,-9.0366 l 0,0.001 z"
             class="fil5" />
          <path
             style="fill:#097754"
             inkscape:connector-curvature="0"
             id="path2335"
             d="m 62.695,421.01 c 0,0 5.2772,8.1827 12.1,11.151 9.4028,4.089 20.289,2.1071 20.289,2.1071 0,0 -5.9138,-7.2484 -14.053,-10.449 -8.1402,-3.1984 -18.337,-2.8087 -18.337,-2.8087 l 0.0012,0 -0.0012,0 z"
             class="fil5" />
          <path
             style="fill:#000000"
             inkscape:connector-curvature="0"
             id="path2350"
             d="m 100.24,442.89 0.31535,4.2106 c 6.9945,0.065 8.0362,-0.63071 9.8291,1.5732 1.1941,1.4693 4.0346,2.7508 6.8894,1.4468 2.8571,-1.3039 4.1374,-4.735 2.8335,-7.5909 -1.3039,-2.8559 -3.9591,-3.476 -6.5173,-2.9716 -1.5697,0.30945 -2.6032,1.5626 -3.9354,2.2512 -2.5335,1.3122 -9.4158,1.0807 -9.4158,1.0807 l 0.001,0 z"
             class="fil1" />
          <path
             style="fill:#f5d402"
             inkscape:connector-curvature="0"
             id="path2348"
             d="m 117.74,443.63 0.001,10e-4 c 0.70984,1.5543 0.0213,3.4004 -1.5331,4.1102 -1.5543,0.71102 -3.4016,0.0224 -4.1114,-1.5342 -0.005,-0.009 -0.0142,-0.0331 -0.0201,-0.0425 l 0.0177,0.0378 c -0.71102,-1.5555 -0.0213,-3.4028 1.5331,-4.1126 1.5543,-0.70984 3.4016,-0.0201 4.1102,1.5342 0.006,0.0106 0.0153,0.0331 0.0201,0.0437 l -0.0189,-0.0402 0,0.002 10e-4,0 z"
             class="fil2" />
          <path
             style="fill:#000000"
             inkscape:connector-curvature="0"
             id="path2357"
             d="m 99.634,439.67 3.4039,2.4945 c -3.6508,5.9693 -4.7906,6.4831 -3.8705,9.1724 0.61299,1.7906 0.19724,4.878 -2.4224,6.6106 -2.6185,1.7327 -6.2067,1.0016 -7.9394,-1.6169 -1.7315,-2.6185 -0.85158,-5.198 0.93189,-7.1008 1.0949,-1.1693 2.7024,-1.3807 3.9921,-2.1461 2.4543,-1.4563 5.9032,-7.4138 5.9032,-7.4138 l 0.0012,0 z"
             class="fil1" />
          <path
             style="fill:#f5d402"
             inkscape:connector-curvature="0"
             id="path2359"
             d="m 90.989,454.91 0.0012,0.004 c 0.9437,1.4256 2.876,1.8177 4.3004,0.8752 1.4256,-0.94252 1.8189,-2.8748 0.87638,-4.2992 -0.0083,-0.0106 -0.02008,-0.0307 -0.02598,-0.0413 l 0.02244,0.0343 c -0.94252,-1.4244 -2.8748,-1.8177 -4.2992,-0.8752 -1.4256,0.94252 -1.8189,2.8724 -0.87638,4.298 0.0071,0.009 0.02008,0.0319 0.02716,0.0413 l -0.0248,-0.0378 -0.0012,0 0,0.001 z"
             class="fil2" />
          <path
             style="fill:#000000"
             inkscape:connector-curvature="0"
             id="path2361"
             d="m 75.941,389.67 0.31417,4.2106 c 6.9957,0.0638 8.0362,-0.63071 9.8291,1.572 1.1929,1.4681 4.0346,2.7508 6.8894,1.4468 2.8583,-1.3039 4.1386,-4.7339 2.8323,-7.5898 -1.3039,-2.8571 -3.9579,-3.476 -6.5161,-2.9716 -1.5709,0.31063 -2.6032,1.5626 -3.9342,2.2512 -2.5346,1.311 -9.4158,1.0807 -9.4158,1.0807 l 0.0012,0 z"
             class="fil1" />
          <path
             style="fill:#f5d402"
             inkscape:connector-curvature="0"
             id="path2363"
             d="m 93.444,390.4 0.0012,0.004 c 0.71102,1.5543 0.02126,3.4016 -1.5331,4.1102 -1.5532,0.70984 -3.4016,0.0201 -4.1102,-1.5342 -0.0047,-0.0106 -0.01417,-0.0319 -0.02008,-0.0437 0.01654,0.0378 0.01654,0.0378 0.01654,0.0378 -0.70984,-1.5543 -0.02126,-3.4016 1.5354,-4.1114 1.5532,-0.70866 3.4004,-0.0201 4.1102,1.5342 0.0047,0.0106 0.01417,0.0343 0.02008,0.0449 l -0.02008,-0.0413 -0.0012,0 0.0012,0 z"
             class="fil2" />
          <path
             style="fill:#000000"
             inkscape:connector-curvature="0"
             id="path2365"
             d="m 77.361,391.16 2.9764,2.9965 c -4.5342,5.3268 -5.7425,5.6587 -5.2512,8.4567 0.32835,1.865 -0.56339,4.8508 -3.4216,6.1547 -2.8559,1.3039 -6.2846,0.0248 -7.5909,-2.8323 -1.3039,-2.8559 -0.03307,-5.2677 2.0244,-6.8705 1.2626,-0.98268 2.8866,-0.9437 4.278,-1.4976 2.6516,-1.0559 6.985,-6.4075 6.985,-6.4075 l -0.0012,0 0.0012,0 z"
             class="fil1" />
          <path
             style="fill:#f5d402"
             inkscape:connector-curvature="0"
             id="path2367"
             d="m 66.449,404.87 0.0024,0.004 c 0.70984,1.5543 2.5571,2.2417 4.1114,1.5331 1.5532,-0.71102 2.2429,-2.5559 1.5331,-4.1102 -0.0047,-0.0106 -0.01535,-0.0331 -0.02008,-0.0437 0.01654,0.0366 0.01654,0.0366 0.01654,0.0366 -0.70984,-1.5543 -2.5559,-2.2441 -4.1114,-1.5342 -1.5543,0.70984 -2.2429,2.5571 -1.5342,4.1102 0.0059,0.0118 0.01653,0.0342 0.02244,0.0449 l -0.02008,-0.0402 z"
             class="fil2" />
          <path
             style="fill:#000000"
             inkscape:connector-curvature="0"
             id="path2370"
             d="m 52.395,339.86 0.31535,4.2106 c 6.9957,0.0638 8.0362,-0.63071 9.8303,1.5744 1.1941,1.4658 4.0335,2.7484 6.8906,1.4445 2.8547,-1.3039 4.1362,-4.7327 2.8323,-7.5921 -1.3063,-2.8559 -3.9591,-3.4748 -6.5185,-2.9705 -1.5709,0.31063 -2.6032,1.5626 -3.9354,2.2512 -2.5335,1.3122 -9.4146,1.0795 -9.4146,1.0795 l 0,0.002 z"
             class="fil1" />
          <path
             style="fill:#f5d402"
             inkscape:connector-curvature="0"
             id="path2374"
             d="m 69.9,340.59 0.0012,0.001 c 0.71102,1.5543 0.02008,3.4028 -1.5342,4.1114 -1.5543,0.70984 -3.4016,0.0213 -4.1102,-1.5342 -0.0047,-0.009 -0.01535,-0.0319 -0.02008,-0.0437 0.01654,0.0366 0.01654,0.0366 0.01654,0.0366 -0.70984,-1.5543 -0.02008,-3.4004 1.5342,-4.1102 1.5543,-0.70984 3.4016,-0.0201 4.1091,1.5342 0.0059,0.0106 0.01654,0.0331 0.02244,0.0437 l -0.02008,-0.0402 0.0012,0.001 z"
             class="fil2" />
          <path
             style="fill:#000000"
             inkscape:connector-curvature="0"
             id="path2376"
             d="m 54.335,338.97 2.9752,2.9953 c -4.5342,5.3268 -5.7402,5.6598 -5.2512,8.4579 0.32835,1.8638 -0.56339,4.8496 -3.4205,6.1535 -2.8559,1.3028 -6.2858,0.0236 -7.5909,-2.8323 -1.3028,-2.8571 -0.03189,-5.2689 2.0244,-6.8705 1.2626,-0.98504 2.8854,-0.9437 4.2791,-1.5 2.6516,-1.0559 6.9839,-6.4051 6.9839,-6.4051 l 0,0.001 z"
             class="fil1" />
          <path
             style="fill:#f5d402"
             inkscape:connector-curvature="0"
             id="path2378"
             d="m 43.424,352.68 0.0024,10e-4 c 0.70866,1.5555 2.5559,2.2429 4.1102,1.5354 1.5555,-0.71102 2.2441,-2.5571 1.5342,-4.1114 -0.0059,-0.0106 -0.01535,-0.0331 -0.02126,-0.0437 l 0.01772,0.0378 c -0.70984,-1.5543 -2.5571,-2.2453 -4.1114,-1.5342 -1.5532,0.70866 -2.2429,2.5559 -1.5331,4.1102 0.0047,0.0106 0.01535,0.0331 0.02008,0.0437 l -0.0189,-0.039 z"
             class="fil2" />
          <path
             style="fill:#000000"
             inkscape:connector-curvature="0"
             id="path2380"
             d="m 27.313,287.26 0.31417,4.2094 c 6.9957,0.065 8.0374,-0.63071 9.8291,1.572 1.1953,1.4693 4.0358,2.7508 6.8906,1.4492 2.8571,-1.3063 4.1374,-4.735 2.8335,-7.5921 -1.3039,-2.8571 -3.9591,-3.4772 -6.5185,-2.9716 -1.5685,0.31063 -2.602,1.5638 -3.9342,2.2512 -2.5335,1.311 -9.4158,1.0807 -9.4158,1.0807 l 0,10e-4 0.0012,0 z"
             class="fil1" />
          <path
             style="fill:#f5d402"
             inkscape:connector-curvature="0"
             id="path2382"
             d="m 44.816,288 0.0024,0.002 c 0.71102,1.5567 0.02008,3.4028 -1.5342,4.1114 -1.5543,0.70984 -3.4004,0.0213 -4.1114,-1.5331 -0.0047,-0.0106 -0.01417,-0.0331 -0.02008,-0.0449 l 0.01772,0.0378 c -0.70984,-1.5543 -0.02008,-3.4004 1.5342,-4.1114 1.5543,-0.70866 3.4004,-0.0201 4.1102,1.5342 0.0047,0.0106 0.01535,0.0331 0.02008,0.0437 l -0.0189,-0.0402 z"
             class="fil2" />
          <path
             style="fill:#000000"
             inkscape:connector-curvature="0"
             id="path2384"
             d="m 29.252,286.37 2.974,2.9965 c -4.5331,5.3268 -5.7413,5.6587 -5.25,8.4579 0.32835,1.8638 -0.56457,4.8496 -3.4205,6.1535 -2.8571,1.3039 -6.2858,0.0248 -7.5898,-2.8323 -1.3051,-2.8559 -0.03307,-5.2701 2.022,-6.8705 1.2638,-0.98268 2.8866,-0.9437 4.2791,-1.5 2.6504,-1.0547 6.9839,-6.4051 6.9839,-6.4051 l 0,-10e-4 0,10e-4 0.0012,0 z"
             class="fil1" />
          <path
             style="fill:#f5d402"
             inkscape:connector-curvature="0"
             id="path2386"
             d="m 18.342,300.08 0.0024,0.004 c 0.70866,1.5543 2.5559,2.2441 4.1091,1.5342 1.5555,-0.70984 2.2441,-2.5547 1.5342,-4.1102 -0.0047,-0.0106 -0.01417,-0.0331 -0.02008,-0.0437 l 0.01772,0.0366 c -0.70984,-1.5543 -2.5571,-2.2429 -4.1114,-1.5342 -1.5543,0.71102 -2.2429,2.5583 -1.5342,4.1114 0.0059,0.0106 0.01535,0.0331 0.02008,0.0437 l -0.01772,-0.0413 z"
             class="fil2" />
          <path
             style="fill:#f5d402"
             inkscape:connector-curvature="0"
             id="path2340"
             d="m 71.498,377.2 c -2.5075,1.0406 -6.2268,-9.8752 -8.9575,-15.855 -2.8016,-6.137 -8.4898,-15.595 -6.874,-16.334 1.7728,-0.80906 4.1079,4.1575 6.9744,10.437 2.8665,6.2776 11.205,20.772 8.8559,21.749 l 0,0.002 0.0012,0 z"
             class="fil2" />
          <path
             style="fill:#f5d402"
             inkscape:connector-curvature="0"
             id="path2342"
             d="m 45.752,319.71 c -2.5063,1.0441 -5.25,-6.1039 -7.9795,-12.085 -2.8016,-6.1358 -5.5299,-10.47 -3.9142,-11.209 1.774,-0.80906 4.3925,4.5673 6.6862,9.5894 2.2216,4.8661 7.5567,12.726 5.2075,13.704 z"
             class="fil2" />
          <path
             style="fill:#f5d402"
             inkscape:connector-curvature="0"
             id="path2337"
             d="m 105.33,450.05 c -1.9677,0.52677 -10.558,-17.454 -17.504,-32.669 -6.9437,-15.213 -12.116,-27.522 -10.5,-28.257 1.774,-0.81024 7.3961,13.56 14.344,28.776 6.9461,15.215 15.135,31.754 13.661,32.15 l -0.001,0 z"
             class="fil2" />
          <path
             style="fill:#000000"
             inkscape:connector-curvature="0"
             id="path2193"
             d="m 228.34,48.428 c 0.001,3.6685 -3.9413,6.6602 -8.7768,6.6602 -4.8342,0 -8.7768,-2.9917 -8.7768,-6.6614 0,-3.6697 3.9425,-6.6626 8.7768,-6.6626 4.8354,0 8.778,2.9929 8.778,6.6626 l -10e-4,0.0012 z"
             class="fil1" />
          <path
             style="fill:#cc092f"
             inkscape:connector-curvature="0"
             id="path2192"
             d="m 177.47,44.577 c 0,0 2.8795,-5.4532 10.16,-5.4532 3.0425,0 13.085,-0.21024 13.085,-0.21024 1.3382,3.4772 7.4398,9.2882 7.4398,15.331 0,0 -6.1925,-11.163 -23.479,-11.163 -4.3441,0 -7.2071,1.4953 -7.2071,1.4953 l 10e-4,0 z"
             class="fil6" />
          <path
             style="fill:#000000"
             inkscape:connector-curvature="0"
             id="path2194"
             d="m 199.74,46.104 c 0,0 -4.2472,-1.3618 -4.2472,-2.7886 0,-1.8165 2.0634,-1.8165 3.2965,-0.40158 0.84921,0.97559 0.94961,3.1902 0.94961,3.1902 l 0.001,0 z"
             class="fil1" />
          <path
             style="fill:#d10429"
             inkscape:connector-curvature="0"
             id="path2196"
             d="m 205.57,56.381 c 0,0 -3.6827,3.8787 -4.4823,5.9492 -3.6437,-1.3807 -9.9992,-7.9299 -9.9992,-7.9299 0,0 5.387,3.1453 14.48,1.9807 l 0.001,0 z"
             class="fil3" />
          <path
             style="fill:#f5d402"
             inkscape:connector-curvature="0"
             id="path2191"
             d="m 225.65,48.428 c 0.001,3.3567 -2.7378,6.0933 -6.0957,6.0933 -3.3579,0 -6.0945,-2.7366 -6.0945,-6.0945 0,-3.3567 2.7366,-6.0957 6.0945,-6.0957 3.3567,0 6.0957,2.739 6.0957,6.0957 l -0.001,0.0012 0.001,0 z"
             class="fil2" />
          <path
             style="fill:#000000"
             inkscape:connector-curvature="0"
             id="path2189"
             d="m 222.35,48.428 c 0,1.5378 -1.2532,2.7933 -2.7933,2.7933 -1.539,0 -2.7933,-1.2555 -2.7933,-2.7933 0,-1.539 1.2555,-2.7933 2.7933,-2.7933 1.539,0 2.7933,1.2543 2.7933,2.7933 z"
             class="fil1" />
          <path
             style="fill:#f5d402"
             inkscape:connector-curvature="0"
             id="rect2189"
             d="m 107.67,163.33 c 0,0 10.361,7.774 10.361,15.663 l 0,163.33 0,24.745 c 0,4.9547 1.5307,8.1815 3.9614,11.335 2.4295,3.3968 7.6075,8.0894 12.98,11.58 16.596,10.778 44.341,22.142 65.333,31.691 17.493,7.9571 24.608,11.167 33.702,22.427 9.0945,-11.259 16.27,-14.468 33.763,-22.427 20.989,-9.5492 48.736,-20.914 65.332,-31.691 5.3752,-3.4902 10.552,-8.1827 12.98,-11.58 2.4307,-3.1535 3.9,-6.3803 3.9,-11.335 l 0,-24.745 0,-163.33 c 0,-7.8886 10.361,-15.663 10.361,-15.663 l -11.032,0 -6.4594,0 -108.85,0 -108.84,0 -6.4606,0 -11.032,0 0.001,0 0.001,0 z m 13.284,5.9728 4.2059,0 108.85,0 108.85,0 4.2059,0 c 0,0 -3.0472,3.6673 -3.0472,9.6898 l 0,163.33 0,24.745 c 0,4.1043 -4.2591,13.72 -28.826,25.961 -40.61,20.235 -71.823,29.684 -81.177,41.199 -9.3555,-11.516 -40.568,-20.963 -81.177,-41.199 -24.568,-12.241 -28.827,-21.856 -28.827,-25.961 l 0,-24.745 0,-163.33 c 0,-6.0224 -3.0472,-9.6898 -3.0472,-9.6898 l -0.001,0 z"
             class="fil2" />
        </g>
      </g>
    </g>
    <path
       inkscape:connector-curvature="0"
       id="path4880"
       style="font-style:normal;font-variant:normal;font-weight:normal;font-stretch:normal;font-size:90px;line-height:125%;font-family:DINSchrift;-inkscape-font-specification:DINSchrift;letter-spacing:0px;word-spacing:0px;fill:#ffffff;fill-opacity:1;stroke:none;stroke-width:1px;stroke-linecap:butt;stroke-linejoin:miter;stroke-opacity:1"
       d="m 70.866142,988.58268 11.014557,0 0,-59.65894 0.203973,0 15.196008,45.9535 9.1788,0 15.196,-45.9535 0.20398,0 0,59.65894 11.01455,0 0,-95.6693 -10.40263,0 -20.39733,62.34628 -20.805271,-62.34628 -10.402637,0 0,95.6693 z" />
    <path
       inkscape:connector-curvature="0"
       id="path4882"
       style="font-style:normal;font-variant:normal;font-weight:normal;font-stretch:normal;font-size:90px;line-height:125%;font-family:DINSchrift;-inkscape-font-specification:DINSchrift;letter-spacing:0px;word-spacing:0px;fill:#ffffff;fill-opacity:1;stroke:none;stroke-width:1px;stroke-linecap:butt;stroke-linejoin:miter;stroke-opacity:1"
       d="m 147.04724,988.58268 29.77362,0 c 13.04133,0 22.14566,-6.98709 27.31298,-15.85531 3.93702,-6.71835 4.92127,-10.48062 4.92127,-31.97934 0,-20.02068 -0.3691,-23.64859 -4.67521,-31.71061 -5.65944,-10.48062 -15.13287,-16.12404 -26.69782,-16.12404 l -30.63484,0 0,95.6693 z m 13.2874,-81.96386 15.87106,0 c 7.13582,0 11.56496,2.0155 15.62499,8.06202 3.56792,5.24031 3.93701,9.40568 3.93701,26.60466 0,17.73644 -0.36909,20.42378 -3.32185,25.26099 -3.44488,5.50905 -8.73523,8.33075 -16.24015,8.33075 l -15.87106,0 0,-68.25842 z" />
    <path
       inkscape:connector-curvature="0"
       id="path4229"
       style="font-style:normal;font-variant:normal;font-weight:normal;font-stretch:normal;font-size:300px;line-height:125%;font-family:FE-Font;-inkscape-font-specification:FE-Font;letter-spacing:0px;word-spacing:0px;fill:#000000;fill-opacity:1;stroke:none;stroke-width:1px;stroke-linecap:butt;stroke-linejoin:miter;stroke-opacity:1"
       d="m 489.3,983.86218 q 0.6,4.5 -4.2,4.5 l -33.3,0 q -4.8,0 -6,-4.5 l -10.8,-49.2 -83.1,0 -10.8,49.2 q -1.2,4.5 -6.3,4.5 l -33,0 q -1.8,0 -3.3,-1.5 -1.2,-1.5 -0.9,-3 l 57.6,-259.2 q 1.2,-4.5 6,-4.5 l 64.5,0 q 5.1,0 6,4.5 l 57.6,259.2 z m -71.1,-85.5 q 5.1,0 6,-0.9 1.2,-1.2 1.2,-3.3 -0.3,-2.4 -0.3,-3.6 l -27.6,-125.7 q -0.3,-1.8 -1.5,-2.1 -1.2,-0.3 -2.4,-0.6 -1.2,0 -2.7,0.3 -1.5,0.3 -1.8,2.4 l -27.3,125.7 q -1.2,5.1 0.9,6.3 1.5,1.5 6,1.5 l 49.5,0 z" />
    <path
       inkscape:connector-curvature="0"
       id="path4231"
       style="font-style:normal;font-variant:normal;font-weight:normal;font-stretch:normal;font-size:300px;line-height:125%;font-family:FE-Font;-inkscape-font-specification:FE-Font;letter-spacing:0px;word-spacing:0px;fill:#000000;fill-opacity:1;stroke:none;stroke-width:1px;stroke-linecap:butt;stroke-linejoin:miter;stroke-opacity:1"
       d="m 687.3375,908.56218 q 0,28.8 -17.1,51.6 -21,28.2 -57.3,28.2 l -90,0 q -7.8,0 -7.8,-6.3 l 0,-253.8 q 0,-5.4 2.1,-6.3 2.1,-1.2 9.9,-1.2 l 82.2,0 q 30.6,0 48.6,17.7 18,17.7 18,45.3 0,16.5 -7.8,33.3 -7.8,16.5 -21.6,24.6 l -0.9,1.5 q 0.3,1.5 0.9,1.5 17.1,8.7 29.4,29.1 11.4,18.9 11.4,34.8 z m -55.2,-106.2 q 0.9,-3.6 0.9,-9.6 0,-10.2 -3.3,-17.7 -4.5,-10.2 -14.4,-15 -5.4,-2.4 -13.8,-3.6 -8.4,-1.5 -17.1,-1.5 l -15.6,0 q -4.5,0 -6.9,0.9 -2.1,0.6 -2.1,3.3 l 0,66 q 0,5.1 6,5.1 l 32.7,0 q 17.7,0 26.4,-10.8 4.5,-5.7 7.2,-17.1 z m 9.9,111.9 q 0.9,-4.5 0.9,-9.6 0,-8.4 -3,-15.9 -2.7,-7.5 -9.9,-15.6 -4.8,-5.4 -13.8,-9 -9,-3.6 -17.1,-3.6 l -32.7,0 q -5.4,0 -6.6,2.1 -1.2,1.8 -1.2,6.3 l 0,73.8 q 0,5.7 5.7,5.7 l 36.6,0 q 16.2,0 28.2,-11.7 10.2,-9.9 12.9,-22.5 z" />
    <path
       inkscape:connector-curvature="0"
       id="path4233"
       style="font-style:normal;font-variant:normal;font-weight:normal;font-stretch:normal;font-size:300px;line-height:125%;font-family:FE-Font;-inkscape-font-specification:FE-Font;letter-spacing:0px;word-spacing:0px;fill:#000000;fill-opacity:1;stroke:none;stroke-width:1px;stroke-linecap:butt;stroke-linejoin:miter;stroke-opacity:1"
       d="m 881.82656,907.36218 q 0,39.9 -24.3,61.5 -22.5,19.8 -58.5,19.8 -30.9,0 -49.2,-8.4 -24.6,-11.1 -33.3,-38.1 -1.2,-3 -1.8,-5.4 -2.1,-8.1 -2.1,-15.3 l 0,-164.7 q 0,-15.9 9,-25.2 10.8,-11.4 33,-11.4 l 89.4,0 q 12.6,0 17.7,3.6 5.1,3.6 5.1,11.4 0,15.6 -2.7,39 -0.9,8.1 -3,21.6 0,4.2 -3.9,4.2 l -26.4,0 q -4.8,0 -6.3,-1.8 -1.5,-1.8 -1.5,-5.7 l 0,-39.6 -49.5,0 q -9,0 -13.5,3 -4.2,2.7 -4.2,12 l 0,139.5 q 0,19.2 10.5,30.9 10.8,11.4 29.1,11.4 13.2,0 20.4,-3.6 7.2,-3.3 14.1,-10.5 6.9,-7.5 9.6,-18.3 1.8,-7.2 1.8,-18.6 0,-2.4 4.8,-2.4 l 29.1,0 q 4.2,0 5.4,2.1 1.2,2.1 1.2,9 z" />
    <path
       inkscape:connector-curvature="0"
       id="path4235"
       style="font-style:normal;font-variant:normal;font-weight:normal;font-stretch:normal;font-size:300px;line-height:125%;font-family:FE-Font;-inkscape-font-specification:FE-Font;letter-spacing:0px;word-spacing:0px;fill:#000000;fill-opacity:1;stroke:none;stroke-width:1px;stroke-linecap:butt;stroke-linejoin:miter;stroke-opacity:1"
       d="m 1296.175,938.56218 q 0,24.3 -14.1,38.1 -12,11.7 -28.8,11.7 l -62.4,0 q -22.5,0 -35.1,-16.8 -11.4,-15 -11.4,-37.8 l 0,-159 q 0,-29.7 15.3,-43.5 12.9,-11.7 34.8,-11.7 l 47.7,0 q 25.5,0 39,10.2 10.2,7.8 10.2,17.1 0,4.8 -1.8,6.6 l -23.4,23.7 q -1.8,1.8 -5.4,0.3 -3.3,-1.5 -3.3,-4.8 l 0,-13.2 q 0,-6 -7.8,-6 l -56.1,0 q -3.9,0 -6.3,2.4 -2.1,2.1 -2.1,5.1 l 0,177.6 q 0,4.5 2.7,6 2.7,1.8 6.6,1.8 l 52.8,0 q 7.8,0 7.8,-5.7 l 0,-131.4 q 0,-1.2 0.3,-1.8 0.6,-0.9 0.9,-1.2 20.1,-18 26.1,-23.7 6.3,-6 11.4,-11.4 0.3,-0.3 1.2,0.3 1.2,0.3 1.2,1.2 l 0,165.9 z" />
    <path
       inkscape:connector-curvature="0"
       id="path4237"
       style="font-style:normal;font-variant:normal;font-weight:normal;font-stretch:normal;font-size:300px;line-height:125%;font-family:FE-Font;-inkscape-font-specification:FE-Font;letter-spacing:0px;word-spacing:0px;fill:#000000;fill-opacity:1;stroke:none;stroke-width:1px;stroke-linecap:butt;stroke-linejoin:miter;stroke-opacity:1"
       d="m 1489.8578,984.76218 q 0,3.6 -5.1,3.6 l -148.2,0 q -2.7,0 -3.9,-2.1 -1.2,-2.1 -1.2,-5.4 l 0,-30.6 q 0,-5.4 5.1,-5.4 l 63,0 q 5.7,0 5.7,-1.8 l 0,-165.6 q -3.3,-1.8 -5.7,0 -2.7,1.8 -18.3,18.9 -11.4,12.3 -18,12.3 l -27.9,0 q -2.4,0 -2.4,-5.1 l 0,-24.6 q 0,-4.2 6.9,-7.5 10.2,-4.8 12.6,-7.2 l 47.1,-43.2 q 2.1,-1.5 5.7,-1.5 l 35.1,0 q 3,0 5.1,1.8 2.4,1.5 2.4,3.9 l 0,214.5 q 0,6 7.2,5.1 l 29.7,0 q 5.1,0 5.1,3.9 l 0,36 z" />
    <path
       inkscape:connector-curvature="0"
       id="path4239"
       style="font-style:normal;font-variant:normal;font-weight:normal;font-stretch:normal;font-size:300px;line-height:125%;font-family:FE-Font;-inkscape-font-specification:FE-Font;letter-spacing:0px;word-spacing:0px;fill:#000000;fill-opacity:1;stroke:none;stroke-width:1px;stroke-linecap:butt;stroke-linejoin:miter;stroke-opacity:1"
       d="m 1687.0328,782.86218 q 0,13.2 -4.5,30 -4.5,16.8 -10.8,30.3 -6.3,13.2 -15.6,24.3 -8.1,9.6 -26.1,27.3 l -39.3,39 q -4.8,4.5 -4.8,8.7 0,3.9 4.8,3.9 l 90,0 q 5.1,0 5.1,3.3 l 0,34.2 q 0,4.5 -5.1,4.5 l -148.5,0 q -5.7,0 -5.7,-7.2 l 0,-37.2 q 0,-6.6 11.4,-18.3 10.2,-9.9 20.7,-19.8 l 35.7,-36.6 q 26.1,-28.8 30,-34.2 19.5,-26.7 19.5,-48.3 0,-9.3 -3.9,-16.2 -3.9,-7.2 -11.7,-7.2 l -41.7,0 q -2.1,0 -4.5,1.8 -2.4,1.5 -2.4,4.5 l 0,24 q 0,4.2 -7.5,4.2 l -29.1,0 q -6.3,0 -6.3,-4.2 l 0,-33.6 q 0,-12.3 12.3,-24.6 14.7,-14.7 36.3,-14.7 l 55.5,0 q 21.9,0 34.8,20.7 11.4,18.3 11.4,41.4 z" />
    <circle
       style="opacity:0.98999999;fill:none;fill-opacity:1;fill-rule:nonzero;stroke:#c0c0c0;stroke-width:10.62992126;stroke-linecap:round;stroke-linejoin:round;stroke-miterlimit:4;stroke-dasharray:none;stroke-opacity:1"
       id="path4890"
       cx="1008.3343"
       cy="905.284"
       r="67.112183" />
    <circle
       style="opacity:0.98999999;fill:url(#linearGradient4908);fill-opacity:1;fill-rule:nonzero;stroke:#c0c0c0;stroke-width:10.62992096;stroke-linecap:round;stroke-linejoin:round;stroke-miterlimit:4;stroke-dasharray:none;stroke-opacity:1"
       id="path4892"
       cx="1009.7485"
       cy="747.72052"
       r="33.864635" />
    <text
       xml:space="preserve"
       style="font-style:normal;font-variant:normal;font-weight:normal;font-stretch:normal;font-size:40px;line-height:125%;font-family:Wingdings;-inkscape-font-specification:Wingdings;letter-spacing:0px;word-spacing:0px;fill:#000000;fill-opacity:1;stroke:none;stroke-width:1px;stroke-linecap:butt;stroke-linejoin:miter;stroke-opacity:1"
       x="269"
       y="1020.3622"
       id="text4910"
       sodipodi:linespacing="125%"><tspan
         sodipodi:role="line"
         id="tspan4912"
         x="269"
         y="1020.3622"
         style="font-style:normal;font-variant:normal;font-weight:normal;font-stretch:normal;font-size:25px;font-family:'Courier New';-inkscape-font-specification:'Courier New'">0000123456</tspan></text>
  </g>
</svg>
