<?xml version="1.0" encoding="UTF-8" standalone="no"?>
<!-- Created with Inkscape (http://www.inkscape.org/) -->
<svg
   xmlns:dc="http://purl.org/dc/elements/1.1/"
   xmlns:cc="http://creativecommons.org/ns#"
   xmlns:rdf="http://www.w3.org/1999/02/22-rdf-syntax-ns#"
   xmlns:svg="http://www.w3.org/2000/svg"
   xmlns="http://www.w3.org/2000/svg"
   xmlns:xlink="http://www.w3.org/1999/xlink"
   xmlns:sodipodi="http://sodipodi.sourceforge.net/DTD/sodipodi-0.dtd"
   xmlns:inkscape="http://www.inkscape.org/namespaces/inkscape"
   width="1828.3466"
   height="411.02362"
   id="svg2"
   sodipodi:version="0.32"
   inkscape:version="0.46"
   version="1.0"
   sodipodi:docname="T001AA.svg"
   inkscape:output_extension="org.inkscape.output.svg.inkscape">
  <defs
     id="defs4">
    <linearGradient
       id="linearGradient3256">
      <stop
         style="stop-color:#e9d1cc;stop-opacity:1;"
         offset="0"
         id="stop3258" />
      <stop
         id="stop3264"
         offset="0.50955415"
         style="stop-color:#d1e6cc;stop-opacity:1;" />
      <stop
         style="stop-color:#c4d1eb;stop-opacity:1;"
         offset="1"
         id="stop3260" />
    </linearGradient>
    <inkscape:perspective
       sodipodi:type="inkscape:persp3d"
       inkscape:vp_x="0 : 526.18109 : 1"
       inkscape:vp_y="0 : 1000 : 0"
       inkscape:vp_z="744.09448 : 526.18109 : 1"
       inkscape:persp3d-origin="372.04724 : 350.78739 : 1"
       id="perspective10" />
    <inkscape:perspective
       id="perspective82"
       inkscape:persp3d-origin="150 : 126 : 1"
       inkscape:vp_z="300 : 189 : 1"
       inkscape:vp_y="0 : 1000 : 0"
       inkscape:vp_x="0 : 189 : 1"
       sodipodi:type="inkscape:persp3d" />
    <inkscape:perspective
       id="perspective3922"
       inkscape:persp3d-origin="150 : 126 : 1"
       inkscape:vp_z="300 : 189 : 1"
       inkscape:vp_y="0 : 1000 : 0"
       inkscape:vp_x="0 : 189 : 1"
       sodipodi:type="inkscape:persp3d" />
    <linearGradient
       inkscape:collect="always"
       xlink:href="#linearGradient3256"
       id="linearGradient3262"
       x1="107.83333"
       y1="356.85696"
       x2="221.33333"
       y2="356.85696"
       gradientUnits="userSpaceOnUse"
       spreadMethod="pad" />
  </defs>
  <sodipodi:namedview
     id="base"
     pagecolor="#ffffff"
     bordercolor="#666666"
     borderopacity="1.0"
     gridtolerance="10000"
     guidetolerance="10"
     objecttolerance="10"
     inkscape:pageopacity="0.0"
     inkscape:pageshadow="2"
     inkscape:zoom="0.24"
     inkscape:cx="1139.101"
     inkscape:cy="-153.90585"
     inkscape:document-units="px"
     inkscape:current-layer="layer1"
     showgrid="false"
     units="mm"
     inkscape:window-width="1680"
     inkscape:window-height="986"
     inkscape:window-x="-4"
     inkscape:window-y="-4"
     showguides="true"
     inkscape:guide-bbox="true">
    <sodipodi:guide
       orientation="0,1"
       position="-175.55556,208.88889"
       id="guide3736" />
    <sodipodi:guide
       orientation="1,0"
       position="257.77778,300"
       id="guide4130" />
    <sodipodi:guide
       orientation="0,1"
       position="-254.16667,425"
       id="guide4132" />
    <sodipodi:guide
       orientation="1,0"
       position="50,472.91667"
       id="guide3438" />
  </sodipodi:namedview>
  <metadata
     id="metadata7">
    <rdf:RDF>
      <cc:Work
         rdf:about="">
        <dc:format>image/svg+xml</dc:format>
        <dc:type
           rdf:resource="http://purl.org/dc/dcmitype/StillImage" />
      </cc:Work>
    </rdf:RDF>
  </metadata>
  <g
     inkscape:label="Layer 1"
     inkscape:groupmode="layer"
     id="layer1"
     transform="translate(364.26832,637.85939)">
    <flowRoot
       xml:space="preserve"
       id="flowRoot3175"
       style="font-size:40px;font-style:normal;font-weight:normal;fill:#000000;fill-opacity:1;stroke:none;stroke-width:1px;stroke-linecap:butt;stroke-linejoin:miter;stroke-opacity:1;font-family:Bitstream Vera Sans"><flowRegion
         id="flowRegion3177"><rect
           id="rect3179"
           width="419.11765"
           height="107.35294"
           x="542.64703"
           y="63.848972" /></flowRegion><flowPara
         id="flowPara3181" /></flowRoot>    <rect
       style="opacity:1;fill:#ffffff;fill-opacity:1;stroke:#000000;stroke-width:21.25984191999999950;stroke-linecap:round;stroke-linejoin:round;stroke-miterlimit:4;stroke-dasharray:none;stroke-opacity:1"
       id="rect3348"
       width="1807.0867"
       height="389.76379"
       x="-375.55554"
       y="-689.10266"
       rx="35.433071"
       ry="35.433071"
       transform="translate(21.917139,61.873193)" />
    <path
       style="fill:none;fill-rule:evenodd;stroke:#000000;stroke-width:10.85931683;stroke-linecap:round;stroke-linejoin:round;stroke-miterlimit:4;stroke-dasharray:none;stroke-opacity:1"
       d="M -145.99929,-603.96586 L -145.99929,-260.72881"
       id="path3352" />
    <flowRoot
       xml:space="preserve"
       id="flowRoot3372"
       style="fill:black;stroke:none;stroke-opacity:1;stroke-width:1px;stroke-linejoin:miter;stroke-linecap:butt;fill-opacity:1;font-family:Bitstream Vera Sans;font-style:normal;font-weight:normal;font-size:40px"><flowRegion
         id="flowRegion3374"><rect
           id="rect3376"
           width="39.987129"
           height="93.303299"
           x="188.82811"
           y="84.462074" /></flowRegion><flowPara
         id="flowPara3378" /></flowRoot>    <path
       transform="translate(-387.78221,-751.50521)"
       style="font-size:144px;font-style:normal;font-variant:normal;font-weight:normal;font-stretch:normal;text-align:start;line-height:125%;writing-mode:lr-tb;text-anchor:start;fill:#000000;fill-opacity:1;stroke:none;stroke-width:1px;stroke-linecap:butt;stroke-linejoin:miter;stroke-opacity:1;font-family:DINSchrift;-inkscape-font-specification:DINSchrift"
       d="M 380.525,461.95833 L 423.725,461.95833 L 423.725,215.55833 L 501.725,215.55833 L 501.725,177.15833 L 302.525,177.15833 L 302.525,215.55833 L 380.525,215.55833 L 380.525,461.95833 M 734.21875,379.95833 C 734.21875,407.55831 718.21873,423.55833 694.21875,423.55833 C 670.21877,423.55833 654.21875,407.55831 654.21875,379.95833 L 654.21875,259.15833 C 654.21875,231.55836 670.21877,215.55833 694.21875,215.55833 C 718.21873,215.55833 734.21875,231.55836 734.21875,259.15833 L 734.21875,379.95833 M 613.41875,382.35833 C 613.41875,434.75828 652.21879,464.35833 694.21875,464.35833 C 736.21871,464.35833 775.01875,434.75828 775.01875,382.35833 L 775.01875,256.75833 C 775.01875,204.35839 736.21871,174.75833 694.21875,174.75833 C 652.21879,174.75833 613.41875,204.35839 613.41875,256.75833 L 613.41875,382.35833 M 926.40625,379.95833 C 926.40625,407.55831 910.40623,423.55833 886.40625,423.55833 C 862.40627,423.55833 846.40625,407.55831 846.40625,379.95833 L 846.40625,259.15833 C 846.40625,231.55836 862.40627,215.55833 886.40625,215.55833 C 910.40623,215.55833 926.40625,231.55836 926.40625,259.15833 L 926.40625,379.95833 M 805.60625,382.35833 C 805.60625,434.75828 844.40629,464.35833 886.40625,464.35833 C 928.40621,464.35833 967.20625,434.75828 967.20625,382.35833 L 967.20625,256.75833 C 967.20625,204.35839 928.40621,174.75833 886.40625,174.75833 C 844.40629,174.75833 805.60625,204.35839 805.60625,256.75833 L 805.60625,382.35833 M 1060.1937,461.95833 L 1100.9938,461.95833 L 1100.9938,177.15833 L 1060.1937,177.15833 L 1019.7938,206.75833 L 1019.7938,249.95833 L 1060.1937,220.35833 L 1060.1937,461.95833 M 1351.275,359.95833 L 1392.475,235.55833 L 1393.275,235.55833 L 1434.475,359.95833 L 1351.275,359.95833 M 1468.875,461.95833 L 1514.475,461.95833 L 1410.875,177.15833 L 1374.875,177.15833 L 1271.275,461.95833 L 1316.875,461.95833 L 1338.875,398.35833 L 1446.875,398.35833 L 1468.875,461.95833 M 1595.025,359.95833 L 1636.225,235.55833 L 1637.025,235.55833 L 1678.225,359.95833 L 1595.025,359.95833 M 1712.625,461.95833 L 1758.225,461.95833 L 1654.625,177.15833 L 1618.625,177.15833 L 1515.025,461.95833 L 1560.625,461.95833 L 1582.625,398.35833 L 1690.625,398.35833 L 1712.625,461.95833"
       id="flowRoot3380" />
    <path
       sodipodi:type="arc"
       style="opacity:1;fill:#000000;fill-opacity:1;stroke:none;stroke-width:10.62992096;stroke-linecap:round;stroke-linejoin:round;stroke-miterlimit:4;stroke-dasharray:none;stroke-opacity:1"
       id="path3734"
       sodipodi:cx="47.777779"
       sodipodi:cy="198.80139"
       sodipodi:rx="10"
       sodipodi:ry="10"
       d="M 57.777779,198.80139 A 10,10 0 1 1 37.777779,198.80139 A 10,10 0 1 1 57.777779,198.80139 z"
       transform="translate(-356.32105,-634.52605)" />
    <path
       sodipodi:type="arc"
       style="opacity:1;fill:#000000;fill-opacity:1;stroke:none;stroke-width:10.62992096;stroke-linecap:round;stroke-linejoin:round;stroke-miterlimit:4;stroke-dasharray:none;stroke-opacity:1"
       id="path3738"
       sodipodi:cx="47.777779"
       sodipodi:cy="198.80139"
       sodipodi:rx="10"
       sodipodi:ry="10"
       d="M 57.777779,198.80139 A 10,10 0 1 1 37.777779,198.80139 A 10,10 0 1 1 57.777779,198.80139 z"
       transform="translate(1353.7542,-634.52605)" />
    <flowRoot
       xml:space="preserve"
       id="flowRoot2502"
       style="fill:black;stroke:none;stroke-opacity:1;stroke-width:1px;stroke-linejoin:miter;stroke-linecap:butt;fill-opacity:1;font-family:Bitstream Vera Sans;font-style:normal;font-weight:normal;font-size:32"><flowRegion
         id="flowRegion2504"><rect
           id="rect2506"
           width="1579.1666"
           height="95.833336"
           x="37.5"
           y="165.19029" /></flowRegion><flowPara
         id="flowPara2508" /></flowRoot>    <path
       sodipodi:type="arc"
       style="opacity:1;fill:url(#linearGradient3262);fill-opacity:1;stroke:none;stroke-opacity:1"
       id="path2484"
       sodipodi:cx="164.58333"
       sodipodi:cy="356.85696"
       sodipodi:rx="56.25"
       sodipodi:ry="56.25"
       d="M 220.83333,356.85696 A 56.25,56.25 0 1 1 108.33333,356.85696 A 56.25,56.25 0 1 1 220.83333,356.85696 z"
       transform="matrix(0.5019714,-1.0229427,1.0229427,0.5019714,-698.38814,-351.45449)" />
    <rect
       style="opacity:1;fill:#ff0000;fill-opacity:1;stroke:none;stroke-opacity:1"
       id="rect3434"
       width="135.41664"
       height="100.00002"
       x="-314.26831"
       y="-574.75244"
       rx="0"
       ry="0" />
    <rect
       style="opacity:1;fill:#00ff00;fill-opacity:1;stroke:none;stroke-opacity:1"
       id="rect3440"
       width="135.41664"
       height="33.333355"
       x="-314.26831"
       y="-541.08575"
       rx="0"
       ry="0" />
    <path
       transform="matrix(6.4979362e-2,0,0,6.4979362e-2,-317.9262,-361.72168)"
       style="font-size:144px;font-style:normal;font-variant:normal;font-weight:normal;font-stretch:normal;text-align:start;line-height:125%;writing-mode:lr-tb;text-anchor:start;fill:#000000;fill-opacity:1;stroke:none;stroke-width:1px;stroke-linecap:butt;stroke-linejoin:miter;stroke-opacity:1;font-family:DINSchrift;-inkscape-font-specification:DINSchrift"
       d="M 380.525,461.95833 L 423.725,461.95833 L 423.725,215.55833 L 501.725,215.55833 L 501.725,177.15833 L 302.525,177.15833 L 302.525,215.55833 L 380.525,215.55833 L 380.525,461.95833 M 734.21875,379.95833 C 734.21875,407.55831 718.21873,423.55833 694.21875,423.55833 C 670.21877,423.55833 654.21875,407.55831 654.21875,379.95833 L 654.21875,259.15833 C 654.21875,231.55836 670.21877,215.55833 694.21875,215.55833 C 718.21873,215.55833 734.21875,231.55836 734.21875,259.15833 L 734.21875,379.95833 M 613.41875,382.35833 C 613.41875,434.75828 652.21879,464.35833 694.21875,464.35833 C 736.21871,464.35833 775.01875,434.75828 775.01875,382.35833 L 775.01875,256.75833 C 775.01875,204.35839 736.21871,174.75833 694.21875,174.75833 C 652.21879,174.75833 613.41875,204.35839 613.41875,256.75833 L 613.41875,382.35833 M 926.40625,379.95833 C 926.40625,407.55831 910.40623,423.55833 886.40625,423.55833 C 862.40627,423.55833 846.40625,407.55831 846.40625,379.95833 L 846.40625,259.15833 C 846.40625,231.55836 862.40627,215.55833 886.40625,215.55833 C 910.40623,215.55833 926.40625,231.55836 926.40625,259.15833 L 926.40625,379.95833 M 805.60625,382.35833 C 805.60625,434.75828 844.40629,464.35833 886.40625,464.35833 C 928.40621,464.35833 967.20625,434.75828 967.20625,382.35833 L 967.20625,256.75833 C 967.20625,204.35839 928.40621,174.75833 886.40625,174.75833 C 844.40629,174.75833 805.60625,204.35839 805.60625,256.75833 L 805.60625,382.35833 M 1060.1937,461.95833 L 1100.9938,461.95833 L 1100.9938,177.15833 L 1060.1937,177.15833 L 1019.7938,206.75833 L 1019.7938,249.95833 L 1060.1937,220.35833 L 1060.1937,461.95833 M 1351.275,359.95833 L 1392.475,235.55833 L 1393.275,235.55833 L 1434.475,359.95833 L 1351.275,359.95833 M 1468.875,461.95833 L 1514.475,461.95833 L 1410.875,177.15833 L 1374.875,177.15833 L 1271.275,461.95833 L 1316.875,461.95833 L 1338.875,398.35833 L 1446.875,398.35833 L 1468.875,461.95833 M 1595.025,359.95833 L 1636.225,235.55833 L 1637.025,235.55833 L 1678.225,359.95833 L 1595.025,359.95833 M 1712.625,461.95833 L 1758.225,461.95833 L 1654.625,177.15833 L 1618.625,177.15833 L 1515.025,461.95833 L 1560.625,461.95833 L 1582.625,398.35833 L 1690.625,398.35833 L 1712.625,461.95833"
       id="flowRoot3442" />
  </g>
</svg>
