<?xml version="1.0" encoding="utf-8"?>
<svg xmlns="http://www.w3.org/2000/svg" viewBox="7.374 10.363 480.783 100.949" width="480.783px" height="100.949px">
  <path d="M 486.891 20.548 L 486.615 102.096 C 486.468 107.377 482.447 109.816 477.075 109.81 L 18.675 109.81 C 13.303 109.816 9.282 107.377 9.135 102.096 L 8.859 20.548 C 8.803 15.745 11.981 11.956 16.668 11.864 L 479.082 11.864 C 483.769 11.956 486.947 15.745 486.891 20.548 Z" style="stroke: rgb(0, 0, 0); fill: rgb(255, 255, 255); stroke-width: 3px;">
    <title>BG 1</title>
  </path>
  <path stroke-width="0" d="M 8.858 17.875 C 12.791 7.147 51.932 11.864 51.932 11.864 L 51.932 109.882 C 51.932 109.887 8.858 114.743 8.858 102.24 L 8.858 17.875 Z" style="stroke-width: 2px; fill: rgb(17, 69, 234);"/>
  <path d="M 486.891 20.548 L 486.615 102.096 C 486.468 107.377 482.447 109.816 477.075 109.81 L 18.675 109.81 C 13.303 109.816 9.005 107.351 8.858 102.07 L 8.859 20.548 C 8.803 15.745 11.981 11.956 16.668 11.864 L 479.082 11.864 C 483.769 11.956 486.947 15.745 486.891 20.548 Z" style="stroke: rgb(0, 0, 0); fill-opacity: 0.61; stroke-width: 3px; fill: none;">
    <title>BG 1</title>
  </path>
  <path d="M 278.893 25.463 L 288.628 25.462 L 288.627 96.693 L 279.073 96.683 L 279.065 35.177 L 268.465 43.318 L 268.457 33.482 L 278.893 25.463 Z" style="stroke-width: 1.273;"/>
  <path d="M 320.857 25.146 C 324.037 25.198 330.097 26.094 333.117 31.438 C 335.677 35.814 336.007 48.644 334.077 53.352 L 317.287 86.98 L 335.647 87.019 L 335.647 96.693 L 305.227 96.693 L 305.227 87.019 L 325.607 49.374 C 325.807 48.971 326.247 47.427 326.257 46.329 C 326.297 43.886 326.537 40.647 326.137 38.37 C 326.127 36.024 323.577 34.125 320.447 34.125 C 319.307 34.125 318.257 34.373 317.367 34.8 C 317.237 34.857 317.117 34.922 316.997 34.995 C 315.627 35.774 314.647 37.004 314.647 38.389 C 314.647 38.83 314.617 40.251 314.647 40.69 L 314.697 44.702 L 306.307 44.789 L 306.177 39.253 C 306.167 33.566 308.877 29.461 313.097 27.003 C 314.397 26.245 318.787 25.112 320.857 25.146 Z" style="stroke-width: 1.267;"/>
  <rect x="354.468" y="56.589" width="8.406" height="8.406" style="stroke-width: 1.05;"/>
  <path d="M 38.031 80.079 L 42.979 80.079 C 44.573 80.11 46.791 81.27 46.791 83.827 C 46.78 86.315 46.613 86.603 44.997 87.876 C 46.534 88.708 46.88 89.506 46.88 91.357 C 46.88 94.298 45.642 96.32 42.8 96.42 L 38.031 96.446 L 38.031 80.079 Z M 40.75 82.232 L 40.762 86.801 L 42.8 86.766 C 43.938 86.762 44.339 85.375 44.35 84.553 C 44.35 83.699 43.96 82.238 42.8 82.232 L 40.75 82.232 Z M 40.762 88.847 L 40.762 94.108 L 42.8 94.111 C 43.19 94.101 44.394 94.022 44.372 91.272 C 44.339 88.933 43.236 88.852 42.868 88.849 L 40.762 88.847 Z" style="stroke-width: 0.326; fill: rgb(255, 255, 255);"/>
  <path d="M 27.24 80.079 L 31.969 80.079 C 33.491 80.11 35.676 81.421 35.676 83.978 C 35.665 86.466 35.549 87.346 34.005 88.618 C 34.015 88.624 32.997 89.138 32.997 89.138 C 32.997 89.138 33.199 89.222 33.538 89.591 C 33.689 89.754 33.967 90.082 34.137 90.373 C 34.532 91.05 35.871 94.031 36.465 96.446 L 33.909 96.446 C 33.791 95.615 31.206 89.473 30.422 89.531 L 29.807 89.531 L 29.849 96.446 L 27.24 96.446 L 27.24 80.079 Z M 29.839 82.232 L 29.826 87.232 L 31.775 87.197 C 32.861 87.193 33.268 85.375 33.278 84.553 C 33.278 83.699 32.906 82.238 31.798 82.232 L 29.839 82.232 Z" style="stroke-width: 0.311; fill: rgb(255, 255, 255);"/>
  <path style="stroke-width: 0.295; fill: rgb(255, 255, 255);" d="M 19.658 88.886 C 19.353 88.711 17.481 87.523 17.214 86.693 C 16.975 85.951 16.761 85.534 16.784 84.53 C 16.795 84.028 16.929 83.093 17.119 82.627 C 17.399 81.928 17.885 81.287 18.425 80.866 C 19.045 80.378 20.089 80.081 20.879 80.079 C 21.639 80.077 22.156 80.258 22.926 80.559 C 23.366 80.73 23.846 81.335 24.046 81.614 C 24.306 81.968 24.503 82.384 24.647 82.827 C 24.717 83.044 24.842 84.283 24.897 84.634 L 23.007 84.748 C 22.95 84.438 22.825 83.604 22.647 83.344 C 22.443 83.047 22.245 82.906 21.865 82.689 C 21.535 82.496 21.15 82.451 20.78 82.481 C 20.33 82.518 19.808 82.613 19.49 82.936 C 19.002 83.431 19.085 83.644 19.093 84.314 C 19.101 84.976 19.495 85.376 19.959 85.708 C 20.523 86.112 20.835 86.321 21.521 86.623 C 21.837 86.762 22.58 87.163 22.777 87.333 C 22.925 87.414 23.07 87.498 23.207 87.588 C 24.108 88.176 24.438 88.604 24.705 89.41 C 24.947 90.141 24.943 90.991 24.943 91.995 C 24.943 92.497 24.798 93.432 24.608 93.898 C 24.328 94.597 23.842 95.238 23.302 95.659 C 22.682 96.147 21.638 96.444 20.848 96.446 C 20.088 96.448 19.571 96.267 18.801 95.966 C 18.361 95.795 17.881 95.19 17.681 94.911 C 17.421 94.557 17.224 94.141 17.08 93.698 C 17.01 93.481 16.831 92.9 16.776 92.549 L 16.592 91.095 L 18.268 90.929 L 18.556 92.161 C 18.613 92.471 18.902 92.921 19.08 93.181 C 19.284 93.478 19.482 93.619 19.862 93.836 C 20.192 94.029 20.577 94.074 20.947 94.044 C 21.397 94.007 21.919 93.912 22.237 93.589 C 22.725 93.094 23.102 92.484 23.094 91.814 C 23.086 91.152 22.881 90.821 22.365 90.255 C 21.842 89.682 20.686 89.475 19.658 88.886 Z"/>
  <g transform="matrix(1, 0, 0, 1, -413.743982, -164.94499)">
    <path d="M 615.802 203.443 L 615.802 226.28 C 615.802 230.364 614.1 234.072 611.358 236.758 C 608.615 239.445 604.83 241.111 600.658 241.111 L 600.657 241.111 C 596.488 241.111 592.704 239.446 589.961 236.758 C 587.217 234.072 585.517 230.364 585.517 226.278 L 585.517 203.443 L 615.802 203.443 Z" stroke-miterlimit="22.926" style="stroke-width: 4px;" fill="none"/>
    <path d="M 615.802 203.443 L 615.802 226.28 C 615.802 230.364 614.1 234.072 611.358 236.758 C 608.615 239.445 604.83 241.111 600.659 241.111 L 600.657 241.111 C 596.488 241.111 592.704 239.446 589.961 236.758 C 587.217 234.072 585.517 230.364 585.517 226.278 L 585.517 203.443 L 615.802 203.443 Z" stroke="#21231e" stroke-miterlimit="22.926" style="fill: rgb(198, 54, 54); stroke-width: 0.15px;"/>
    <g fill="#fff" stroke="#21231e" stroke-miterlimit="22.926" transform="matrix(0.356134, 0, 0, 0.332218, 499.709381, 130.929321)">
      <path d="m325.98 260.43v17.715h-33.66v52.527c-2.8594 0.64063-5.8242 0.97656-8.8594 0.97656h-4e-3c-3.0352 0-5.9961-0.33593-8.8555-0.97656v-52.527h-33.66v-17.715h33.66v-42.164h17.719v42.164z" stroke-width=".73101" style="stroke: none;"/>
      <g fill-rule="evenodd" stroke-linejoin="round">
        <g transform="matrix(1, 0, 0, 1, -0.865997, 0)">
          <path d="M 256.283 238.775 C 256.393 236.802 259.179 235.2 258.351 233.218 C 255.292 225.895 253.77 233.515 251.755 233.273 C 250.779 233.156 249.998 232.056 249.856 231.35 C 248.405 224.123 261.933 227.307 266.626 228.024 C 267.117 228.057 267.443 233.375 267.492 238.775 C 267.492 238.778 267.492 238.78 267.492 238.783 C 267.492 238.786 267.492 238.788 267.492 238.791 C 267.443 244.191 267.117 249.509 266.626 249.542 C 261.933 250.259 248.405 253.443 249.856 246.216 C 249.998 245.51 250.779 244.41 251.755 244.293 C 253.77 244.051 255.292 251.671 258.351 244.348 C 259.179 242.366 256.569 240.318 256.283 238.791 C 256.284 238.788 256.284 238.786 256.285 238.783 C 256.284 238.78 256.283 238.778 256.283 238.775 Z" style="stroke-width: 0.581098px;"/>
          <path d="M 259.798 247.423 C 261.002 244.927 260.841 241.299 259.103 238.791 C 259.105 238.788 259.107 238.786 259.109 238.783 C 259.107 238.78 259.105 238.778 259.103 238.775 C 260.841 236.267 261.002 232.639 259.798 230.143 C 259.798 230.143 263.386 230.152 264.148 230.951 C 265.348 232.21 265.25 235.728 265.275 238.775 C 265.275 238.778 265.275 238.78 265.275 238.783 C 265.275 238.786 265.275 238.788 265.275 238.791 C 265.25 241.838 265.348 245.356 264.148 246.615 C 263.386 247.414 259.798 247.423 259.798 247.423 Z" style="stroke-width: 0.581098px;"/>
        </g>
        <g transform="matrix(-1, 0, 0, 1, 567.157715, 0)" style="">
          <path d="M 256.283 238.775 C 256.393 236.802 259.179 235.2 258.351 233.218 C 255.292 225.895 253.77 233.515 251.755 233.273 C 250.779 233.156 249.998 232.056 249.856 231.35 C 248.405 224.123 261.933 227.307 266.626 228.024 C 267.117 228.057 267.443 233.375 267.492 238.775 C 267.492 238.778 267.492 238.78 267.492 238.783 C 267.492 238.786 267.492 238.788 267.492 238.791 C 267.443 244.191 267.117 249.509 266.626 249.542 C 261.933 250.259 248.405 253.443 249.856 246.216 C 249.998 245.51 250.779 244.41 251.755 244.293 C 253.77 244.051 255.292 251.671 258.351 244.348 C 259.179 242.366 256.569 240.318 256.283 238.791 C 256.284 238.788 256.284 238.786 256.285 238.783 C 256.284 238.78 256.283 238.778 256.283 238.775 Z" style="stroke-width: 0.581098px;"/>
          <path d="M 259.798 247.423 C 261.002 244.927 260.841 241.299 259.103 238.791 C 259.105 238.788 259.107 238.786 259.109 238.783 C 259.107 238.78 259.105 238.778 259.103 238.775 C 260.841 236.267 261.002 232.639 259.798 230.143 C 259.798 230.143 263.386 230.152 264.148 230.951 C 265.348 232.21 265.25 235.728 265.275 238.775 C 265.275 238.778 265.275 238.78 265.275 238.783 C 265.275 238.786 265.275 238.788 265.275 238.791 C 265.25 241.838 265.348 245.356 264.148 246.615 C 263.386 247.414 259.798 247.423 259.798 247.423 Z" style="stroke-width: 0.581098px;"/>
        </g>
        <g transform="matrix(-1, 0, 0, 1, 567.796021, 58.41803)" style="">
          <path d="M 256.283 238.775 C 256.393 236.802 259.179 235.2 258.351 233.218 C 255.292 225.895 253.77 233.515 251.755 233.273 C 250.779 233.156 249.998 232.056 249.856 231.35 C 248.405 224.123 261.933 227.307 266.626 228.024 C 267.117 228.057 267.443 233.375 267.492 238.775 C 267.492 238.778 267.492 238.78 267.492 238.783 C 267.492 238.786 267.492 238.788 267.492 238.791 C 267.443 244.191 267.117 249.509 266.626 249.542 C 261.933 250.259 248.405 253.443 249.856 246.216 C 249.998 245.51 250.779 244.41 251.755 244.293 C 253.77 244.051 255.292 251.671 258.351 244.348 C 259.179 242.366 256.569 240.318 256.283 238.791 C 256.284 238.788 256.284 238.786 256.285 238.783 C 256.284 238.78 256.283 238.778 256.283 238.775 Z" style="stroke-width: 0.581098px;"/>
          <path d="M 259.798 247.423 C 261.002 244.927 260.841 241.299 259.103 238.791 C 259.105 238.788 259.107 238.786 259.109 238.783 C 259.107 238.78 259.105 238.778 259.103 238.775 C 260.841 236.267 261.002 232.639 259.798 230.143 C 259.798 230.143 263.386 230.152 264.148 230.951 C 265.348 232.21 265.25 235.728 265.275 238.775 C 265.275 238.778 265.275 238.78 265.275 238.783 C 265.275 238.786 265.275 238.788 265.275 238.791 C 265.25 241.838 265.348 245.356 264.148 246.615 C 263.386 247.414 259.798 247.423 259.798 247.423 Z" style="stroke-width: 0.581098px;"/>
        </g>
        <g transform="matrix(1, 0, 0, 1, -0.865997, 58.41803)">
          <path d="M 256.283 238.775 C 256.393 236.802 259.179 235.2 258.351 233.218 C 255.292 225.895 253.77 233.515 251.755 233.273 C 250.779 233.156 249.998 232.056 249.856 231.35 C 248.405 224.123 261.933 227.307 266.626 228.024 C 267.117 228.057 267.443 233.375 267.492 238.775 C 267.492 238.778 267.492 238.78 267.492 238.783 C 267.492 238.786 267.492 238.788 267.492 238.791 C 267.443 244.191 267.117 249.509 266.626 249.542 C 261.933 250.259 248.405 253.443 249.856 246.216 C 249.998 245.51 250.779 244.41 251.755 244.293 C 253.77 244.051 255.292 251.671 258.351 244.348 C 259.179 242.366 256.569 240.318 256.283 238.791 C 256.284 238.788 256.284 238.786 256.285 238.783 C 256.284 238.78 256.283 238.778 256.283 238.775 Z" style="stroke-width: 0.581098px;"/>
          <path d="M 259.798 247.423 C 261.002 244.927 260.841 241.299 259.103 238.791 C 259.105 238.788 259.107 238.786 259.109 238.783 C 259.107 238.78 259.105 238.778 259.103 238.775 C 260.841 236.267 261.002 232.639 259.798 230.143 C 259.798 230.143 263.386 230.152 264.148 230.951 C 265.348 232.21 265.25 235.728 265.275 238.775 C 265.275 238.778 265.275 238.78 265.275 238.783 C 265.275 238.786 265.275 238.788 265.275 238.791 C 265.25 241.838 265.348 245.356 264.148 246.615 C 263.386 247.414 259.798 247.423 259.798 247.423 Z" style="stroke-width: 0.581098px;"/>
        </g>
      </g>
    </g>
    <path d="M 615.802 203.443 L 615.802 226.28 C 615.802 230.364 614.1 234.072 611.358 236.758 C 608.615 239.445 604.83 241.111 600.658 241.111 L 600.657 241.111 C 596.488 241.111 592.704 239.446 589.961 236.758 C 587.217 234.072 585.517 230.364 585.517 226.278 L 585.517 203.443 L 615.802 203.443 Z" stroke="#21231e" stroke-miterlimit="22.926" style="stroke-width: 0.2px;" fill="none"/>
  </g>
  <path d="M 69.16 25.145 L 80.179 25.116 L 94.459 64.492 L 94.459 25.145 L 104.761 25.116 L 104.761 96.451 L 94.459 96.347 L 79.967 55.66 L 80.265 96.347 L 69.16 96.347 L 69.16 25.145 Z" style="stroke-width: 1.271;"/>
  <path d="M 177.654 88.074 L 181.618 88.074 L 181.622 81.594 L 183.726 81.594 L 183.726 96.106 L 181.617 96.106 L 181.618 94.254 L 181.618 89.921 L 177.654 89.921 L 177.654 94.254 L 177.655 96.106 L 175.546 96.106 L 175.546 81.594 L 177.65 81.594 L 177.654 88.074 Z" style="stroke-width: 0.264;"/>
  <path d="M 189.982 84.068 C 190.019 83.261 191.112 81.593 194.088 81.593 C 196.831 81.593 197.28 82.334 197.543 82.729 C 198.104 83.493 198.185 84.508 198.157 85.692 L 196.103 85.672 L 196.07 84.364 C 196.056 83.429 195.069 83.327 194.171 83.288 C 193.081 83.241 192.158 83.678 192.112 84.524 L 192.129 92.849 C 192.151 93.901 193.083 94.274 194.077 94.255 C 195.031 94.237 196.185 93.81 196.164 92.798 L 196.168 91.571 L 198.157 91.571 L 198.148 92.988 C 198.23 94.668 196.171 96.068 194.135 96.105 C 192.099 96.142 190.308 95.025 190.017 93.488 C 190.017 93.488 189.984 93.182 189.982 93.068 L 189.982 84.068 Z" style="stroke-width: 0.267;"/>
  <path d="M 251.81 81.784 C 251.8 82.345 251.651 83.397 251.651 83.397 C 250.282 90.942 243.357 96.693 235.119 96.693 C 235.103 96.693 235.087 96.693 235.07 96.693 C 235.053 96.693 235.037 96.693 235.021 96.693 C 226.783 96.693 219.858 90.942 218.489 83.397 C 218.489 83.397 218.339 82.345 218.33 81.784 L 218.33 76.928 L 228.308 69.249 L 228.308 82.519 C 228.417 85.653 232.079 87.319 234.804 87.377 C 234.891 87.379 234.98 87.379 235.07 87.378 C 235.16 87.379 235.249 87.379 235.336 87.377 C 238.061 87.319 241.723 85.653 241.832 82.519 L 241.832 58.843 L 251.81 51.158 L 251.81 81.784 Z M 218.33 37.622 C 218.499 33.655 221.672 29.26 225.69 27.426 C 228.697 26.05 232.047 25.462 234.55 25.462 C 234.725 25.462 234.899 25.472 235.07 25.472 C 235.241 25.472 235.415 25.462 235.59 25.462 C 238.093 25.462 241.443 26.05 244.45 27.426 C 248.468 29.26 251.641 33.655 251.81 37.622 L 251.81 46.444 L 241.832 54.119 L 241.832 39.855 C 241.927 36.825 238.428 34.562 235.07 34.463 C 231.712 34.562 228.213 36.825 228.308 39.855 L 228.308 64.545 L 218.33 72.218 L 218.33 37.622 Z" style="stroke-width: 1.247;"/>
  <path style="stroke-width: 1.284;" d="M 151.377 65.53 C 153.301 68.782 153.515 72.153 153.578 76.684 C 153.609 78.865 153.528 82.96 152.702 84.983 C 151.484 88.027 149.604 90.818 147.253 92.648 C 144.558 94.774 140.172 96.097 136.736 96.106 C 133.432 96.115 130.162 94.812 128.659 94.026 C 126.839 93.073 123.992 90.513 122.965 89.423 C 121.727 88.102 120.32 85.819 119.615 83.556 C 118.783 80.868 118.693 76.793 118.67 75.295 L 128.075 75.365 C 128.078 76.714 128.28 80.204 128.581 81.086 C 129.131 82.673 130.885 84.647 132.212 85.24 C 133.729 85.929 135.375 86.161 136.986 86.031 C 138.941 85.874 140.321 85.334 141.704 83.923 C 143.827 81.77 144.042 78.746 143.954 76.763 C 143.857 74.552 144.083 70.953 141.864 68.613 C 139.115 65.886 137.028 65.103 134.004 63.863 C 131.488 62.843 127.333 60.908 126.087 60.007 C 124.59 58.916 121.757 55.882 120.899 54.414 C 118.977 51.192 118.379 49.407 118.317 44.876 C 118.286 42.704 118.367 38.61 119.193 36.587 C 120.411 33.543 122.29 30.756 124.64 28.923 C 127.338 26.781 131.723 25.462 135.159 25.462 C 138.463 25.442 141.733 26.742 143.237 27.534 C 145.056 28.486 147.903 31.055 148.929 32.135 C 150.17 33.463 151.576 35.754 152.281 38.014 C 153.112 40.692 153.202 44.766 153.225 46.264 L 143.819 46.204 C 143.818 44.846 143.615 41.356 143.314 40.474 C 142.764 38.878 141.01 36.914 139.683 36.319 C 138.166 35.626 136.519 35.397 134.91 35.536 C 132.954 35.685 131.573 36.24 130.191 37.628 C 128.068 39.789 128.166 42.1 128.254 44.092 C 128.351 46.324 128.194 49.001 130.412 51.35 C 133.163 54.058 135.25 54.871 138.272 56.081 C 140.79 57.111 143.996 58.559 146.19 59.937 C 148.147 61.176 150.522 64.082 151.377 65.53 Z"/>
  <path d="M 384.506 96.096 L 374.592 96.106 L 392.28 34.167 L 392.493 33.455 L 392.487 33.426 L 394.937 24.799 L 399.444 24.799 L 402.12 34.157 L 419.809 96.096 L 409.894 96.086 L 405.685 80.937 L 388.685 80.937 L 384.506 96.096 Z M 397.152 50.225 L 391.475 70.818 L 402.873 70.818 L 397.152 50.225 Z" style="stroke-width: 1.265;"/>
  <path d="M 427.674 25.639 L 445.926 25.639 C 451.799 25.777 459.995 30.768 459.979 41.776 C 459.965 52.488 459.324 53.723 453.373 59.207 C 459.026 62.794 460.342 66.233 460.327 74.198 C 460.305 86.857 455.768 95.563 445.288 95.997 L 427.674 96.106 L 427.674 25.639 Z M 437.704 34.908 L 437.734 54.583 L 445.28 54.434 C 449.48 54.405 450.943 48.446 450.976 44.908 C 451.011 41.223 449.569 34.938 445.28 34.908 L 437.704 34.908 Z M 437.734 63.387 L 437.734 86.036 L 445.28 86.056 C 446.731 86.007 451.163 85.671 451.054 73.832 C 450.961 63.763 446.88 63.407 445.536 63.397 L 437.734 63.387 Z" style="stroke-width: 1.259;"/>
</svg>