<svg xmlns="http://www.w3.org/2000/svg" xmlns:xlink="http://www.w3.org/1999/xlink" width="603.25" height="134.5" viewBox="0 0 603.25 134.5"><defs><style>.cls-1,.cls-5{fill:#fff;}.cls-1,.cls-11,.cls-4{stroke:#000;stroke-miterlimit:10;}.cls-1,.cls-11{stroke-width:4px;}.cls-2{fill:#003698;}.cls-3{opacity:0.05;}.cls-11,.cls-4{fill:none;}.cls-6{fill:#e0e0e0;}.cls-7{fill:url(#linear-gradient);}.cls-8{fill:url(#linear-gradient-2);}.cls-9{fill:url(#linear-gradient-3);}.cls-10{fill:url(#linear-gradient-4);}</style><linearGradient id="linear-gradient" x1="220.61" y1="418.65" x2="274.02" y2="472.07" gradientTransform="matrix(1, 0, 0, -1, 0, 463.84)" gradientUnits="userSpaceOnUse"><stop offset="0" stop-color="#ededed"/><stop offset="1" stop-color="#f6f6f6" stop-opacity="0"/></linearGradient><linearGradient id="linear-gradient-2" x1="350.39" y1="418.65" x2="403.8" y2="472.07" xlink:href="#linear-gradient"/><linearGradient id="linear-gradient-3" x1="204.12" y1="359.81" x2="228.99" y2="384.67" xlink:href="#linear-gradient"/><linearGradient id="linear-gradient-4" x1="369.71" y1="359.82" x2="394.57" y2="384.68" xlink:href="#linear-gradient"/></defs><g id="Layer_2" data-name="Layer 2"><g id="Layer_1-2" data-name="Layer 1"><g id="Layer_2-2" data-name="Layer 2"><g id="Layer_1-2-2" data-name="Layer 1-2"><rect class="cls-1" x="2" y="2" width="599.25" height="130.5" rx="9.76"/><path class="cls-2" d="M12.11,2H59.57V132.5H12.11A10.11,10.11,0,0,1,2,122.39H2V12.11A10.11,10.11,0,0,1,12.11,2Z"/><g class="cls-3"><path class="cls-4" d="M2.39,109.7c7-7.54,16.57-15.79,26.21-12.28,7.14,2.6,10.88,10.82,17.77,14C62.89,119.13,82,93.72,98,102.32c4.92,2.64,8.15,8.1,13.47,9.76,10.38,3.25,20.07-9.7,30.81-8,8.76,1.38,14,12,22.81,13,9.07,1.07,15.95-8.35,24.83-10.47,14-3.35,26.41,12.13,40.83,11.77,14.59-.37,24.53-16.46,39-18.75,15-2.39,28.48,10.9,43.69,11.23,9,.19,17.35-4.16,25.84-7.13s18.66-4.39,25.88,1c3.61,2.67,6,6.74,9.69,9.32C390,124.7,409.74,103.45,428,106.6c11,1.89,18.93,12.3,29.86,14.37,18.39,3.48,35.34-17.79,53.43-13,8.26,2.19,14.57,9.54,23,11.09,13.09,2.4,24.72-10,38-10.31,13.93-.34,19.19,12,29.4,2.45"/><path class="cls-4" d="M2.39,108.7c6.84-7.54,16.25-15.79,25.71-12.28,7,2.6,10.68,10.82,17.44,14,16.21,7.69,34.93-17.72,50.69-9.12,4.83,2.64,8,8.09,13.22,9.76,10.18,3.25,19.7-9.7,30.23-8,8.6,1.38,13.74,12,22.39,13,8.9,1.07,15.65-8.35,24.36-10.47,13.78-3.35,25.92,12.13,40.07,11.77,14.32-.37,24.07-16.46,38.22-18.75,14.73-2.39,27.95,10.9,42.87,11.23,8.82.19,17-4.16,25.36-7.14s18.31-4.38,25.4,1c3.53,2.67,5.9,6.74,9.5,9.32,14.91,10.68,34.26-10.57,52.2-7.42,10.76,1.89,18.58,12.29,29.31,14.36,18.05,3.49,34.67-17.78,52.43-13,8.11,2.19,14.3,9.54,22.55,11.09,12.84,2.4,24.26-10,37.32-10.31,13.67-.34,28.41,12,38.44,2.44"/></g><path class="cls-5" d="M17.85,117V91.24h-7v-4h18v4h-7V117Z"/><path class="cls-5" d="M31.54,117V87.23H41.59a7,7,0,0,1,5.21,2A9.11,9.11,0,0,1,48.63,92a8.61,8.61,0,0,1,.75,3.64,9.82,9.82,0,0,1-1.33,5.1,7.3,7.3,0,0,1-3.66,3.14l6,13.24H45.73l-5.31-12.73h-5V117Zm3.89-25.8v9h5.89a3.89,3.89,0,0,0,3.28-1.41,5.21,5.21,0,0,0,1.09-3.31,3.84,3.84,0,0,0-4.14-4.32Z"/><path d="M117.58,70.29V61h3.66a11.45,11.45,0,0,0,8.34-3,10,10,0,0,0,3.07-7.53,10.17,10.17,0,0,0-3.19-7.61,10.48,10.48,0,0,0-17.85,5.83H101A21.09,21.09,0,0,1,107.59,35a19.1,19.1,0,0,1,13.85-5.86q9.9,0,15.86,6.52a20.92,20.92,0,0,1,4.32,22.88,15.41,15.41,0,0,1-6.24,7,17.57,17.57,0,0,1,6.7,7.36,20.72,20.72,0,0,1,2,8.82q0,10.36-6.49,16.5a22.34,22.34,0,0,1-15.94,6.13,21,21,0,0,1-13.52-4.84q-6-4.85-7.48-14.13h10.6a16.12,16.12,0,0,0,4,6.11,9.9,9.9,0,0,0,7,2.31,11.27,11.27,0,0,0,7.82-3.12,11.12,11.12,0,0,0,3.4-8.6q0-5.53-3.38-8.65a11.43,11.43,0,0,0-8-3.12Z"/><path d="M150.41,92.77v-10l24.76-53H187l-25,53h19.28V61.46h10.61V82.77h5.93v10h-5.93v11H181.26v-11Z"/><path d="M224,103.67l27-74h9.23l27,74H275.44L269.75,87H241.69l-5.88,16.69Zm21-26.58h21.4q-2.32-6.86-3.67-10.73t-2.34-6.88c-.67-2-1.33-4-2-6.09s-1.56-4.86-2.69-8.39c-1.19,3.65-2.13,6.57-2.84,8.75l-2.06,6.32-2.28,6.8Q247.24,70.67,245,77.09Z"/><path d="M296.49,103.73V29.8h28.67q10.8,0,16.36,5.55t5.56,14.29a18.44,18.44,0,0,1-2.23,8.78q-2.24,4.2-8.68,7.1v.2a13.68,13.68,0,0,1,9.08,6.42,20.36,20.36,0,0,1,3,10.63q0,9.58-6.12,15.27a20.46,20.46,0,0,1-14.43,5.69Zm27.45-64H307.71V61h16.23q6,0,9-3.09a11,11,0,0,0,0-15q-2.94-3.16-9-3.17Zm1,31.16H307.71V93.17H325q6.24,0,9.16-3.37a11.78,11.78,0,0,0,0-15.5q-3-3.4-9.16-3.4Z"/><path d="M394.37,103.88V41l-10.55,7.71V37.46l10.55-7.66H405v74.08Z"/><path d="M415.38,103.73v-10L444.3,57.6a12.08,12.08,0,0,0,2.18-3.9,12.58,12.58,0,0,0,.51-3.45,11.1,11.1,0,0,0-2.74-7.18,9.17,9.17,0,0,0-7.46-3.33,10.46,10.46,0,0,0-7.39,2.87,11.35,11.35,0,0,0-3.4,7.84H415.4a20.89,20.89,0,0,1,6.14-15.15A19.61,19.61,0,0,1,436,29.14a20.83,20.83,0,0,1,15.4,6.21,20.56,20.56,0,0,1,6.16,15,20.1,20.1,0,0,1-4.41,13l-23.8,29.83h28.21v10.56Z"/><path d="M480.22,70.29V61h3.66a11.54,11.54,0,0,0,8.34-3,10,10,0,0,0,3.07-7.53,10.17,10.17,0,0,0-3.19-7.61,10.57,10.57,0,0,0-7.62-3.1,10.42,10.42,0,0,0-10.19,8.93H463.68A21.07,21.07,0,0,1,470.23,35a19.06,19.06,0,0,1,13.85-5.86q9.89,0,15.85,6.52a20.92,20.92,0,0,1,4.32,22.88,15.52,15.52,0,0,1-6.24,7,17.64,17.64,0,0,1,6.7,7.36,20.72,20.72,0,0,1,2,8.82q0,10.36-6.5,16.5a22.33,22.33,0,0,1-15.93,6.13,21,21,0,0,1-13.52-4.84q-6-4.85-7.49-14.13h10.61a16.12,16.12,0,0,0,4,6.11q2.47,2.31,7.05,2.31a11.15,11.15,0,0,0,11.21-11.72q0-5.53-3.37-8.65a11.43,11.43,0,0,0-8-3.12Z"/><path d="M513.05,92.77v-10l24.76-53h11.82l-25,53H543.9V61.46h10.6V82.77h5.94v10H554.5v11H543.9v-11Z"/><path class="cls-6" d="M194.75,56.28A29.65,29.65,0,0,1,193.6,53a21.55,21.55,0,0,1-.54-3.66,20.43,20.43,0,0,1,.1-3.41,17.07,17.07,0,0,1,1.14-4.55,15.8,15.8,0,0,1,2.63-4.73,14.75,14.75,0,0,1,2.63-2.78c1.11-.75,2.17-1.58,3.25-2.37h.08c1.3-.53,2.57-1.14,3.9-1.57a14.34,14.34,0,0,1,4.82-.75,24.57,24.57,0,0,1,4.36.41,25.26,25.26,0,0,1,3.87,1.33,14,14,0,0,1,6,4.24c.56.66,1.12,1.32,1.64,2a16.55,16.55,0,0,1,.92,1.43,7.52,7.52,0,0,1,.56,1c.52,1.29,1.05,2.57,1.51,3.88a6.63,6.63,0,0,1,.28,1.59A36,36,0,0,1,231,48.8a8.49,8.49,0,0,1-.44,3.35,12,12,0,0,0-.3,1.47c-.27.9-.58,1.79-.91,2.66a5.4,5.4,0,0,1-.55,1,14.25,14.25,0,0,1-.89,1.42c-.49.73-1,1.48-1.54,2.16-.26.31-.86.42-1,.74a1.83,1.83,0,0,1-.7,1c-.67.5-1.3,1.07-2,1.59a6.79,6.79,0,0,1-.74.43c-.43.27-.85.56-1.3.79s-1.2.53-1.81.76a14.59,14.59,0,0,1-4,1c-1.2.11-2.42.09-3.63.08a14.07,14.07,0,0,1-2.05-.18,19.06,19.06,0,0,1-2.11-.51c-.87-.26-1.73-.53-2.58-.86A10.64,10.64,0,0,1,203,65c-.64-.37-1.27-.76-1.91-1.15l-.14-.11c-.8-.7-1.65-1.36-2.38-2.13a15.21,15.21,0,0,1-2.46-3.08C195.63,57.68,195.12,56.89,194.75,56.28Zm24.79,8.82c1.26-.72,2.47-1.5,3.65-2.34a21.27,21.27,0,0,0,3-3,15.49,15.49,0,0,0,2.21-3.49A17.81,17.81,0,0,0,230.17,49a18.78,18.78,0,0,0-.46-4.9,17.15,17.15,0,0,0-2.12-5.34c-.53-.81-1.08-1.62-1.67-2.39a17.24,17.24,0,0,0-1.59-1.81.13.13,0,0,1-.11-.08c-.69-.46-1.37-.94-2.07-1.39-.42-.28-.86-.55-1.3-.79s-.91-.43-1.36-.66a11.51,11.51,0,0,0-3.25-1.22c-1.07-.19-2.15-.34-3.23-.47a12.79,12.79,0,0,0-4,.24,34.6,34.6,0,0,0-3.48,1,8.6,8.6,0,0,0-1.77.74,15,15,0,0,0-3,2c-.39.38-.85.67-1.22,1.06a15.77,15.77,0,0,0-1.34,1.6,24.07,24.07,0,0,0-2,3,35.08,35.08,0,0,0-1.43,3.55,3.19,3.19,0,0,0-.12.6c-.16.79-.35,1.56-.48,2.35a15.35,15.35,0,0,0-.16,1.65c0,.61,0,1.21,0,1.82s.27,1.38.34,2.08a12.27,12.27,0,0,0,1.14,3.83,23.92,23.92,0,0,0,1.66,2.86,13.31,13.31,0,0,0,1.55,2.09,21.22,21.22,0,0,0,3.82,3.19,18.32,18.32,0,0,0,3.71,1.84,18.9,18.9,0,0,0,4,1,17.94,17.94,0,0,0,4.63,0,20.46,20.46,0,0,0,4.73-1.35Z"/><path class="cls-6" d="M229.38,51.2c-.4-.08-.57-.24-.52-.63a17.1,17.1,0,0,0,0-4.52,19.71,19.71,0,0,0-.73-3.41A12.11,12.11,0,0,0,226,38.57a28.16,28.16,0,0,0-2.37-2.75,22.25,22.25,0,0,0-3.09-2.29,14.82,14.82,0,0,0-4.68-2,16.54,16.54,0,0,0-7.14-.11,17.47,17.47,0,0,0-3.53,1.12,14.92,14.92,0,0,0-1.9.89,16.93,16.93,0,0,0-2,1.48,19.18,19.18,0,0,0-2,1.93,17.78,17.78,0,0,0-1.55,2.2,22.8,22.8,0,0,0-1.38,2.58,13.7,13.7,0,0,0-.5,1.77c-.11.39-.23.77-.35,1.15a11.51,11.51,0,0,0-.35,4.17c.07,1,.14,2,.28,2.94a17.19,17.19,0,0,0,1.84,5,15.18,15.18,0,0,0,1,1.47A9.3,9.3,0,0,0,199.76,60c.8.72,1.61,1.43,2.45,2.11a15.07,15.07,0,0,0,4.25,2.29,15.82,15.82,0,0,0,4.19,1,16.15,16.15,0,0,0,5.79-.45,12.91,12.91,0,0,0,2.77-1A28.3,28.3,0,0,0,222.37,62a13,13,0,0,0,3.17-3.23,34.7,34.7,0,0,0,1.92-3,11.73,11.73,0,0,0,.75-2c.18-.56.3-1.14.49-1.69.06-.17.29-.28.45-.42l.13.1c-.13.58-.24,1.16-.4,1.73A14.73,14.73,0,0,1,227.37,57a23.43,23.43,0,0,1-2,2.74,18.37,18.37,0,0,1-2.21,2.2,15.74,15.74,0,0,1-4.94,2.85,15.9,15.9,0,0,1-3.89,1,13.22,13.22,0,0,0-1.53.06,12.68,12.68,0,0,1-1.51,0,28.53,28.53,0,0,1-3.06-.44,18.3,18.3,0,0,1-2.7-.83A14.67,14.67,0,0,1,200,61c-.62-.67-1.27-1.31-1.83-2a23.55,23.55,0,0,1-1.76-2.77,11.62,11.62,0,0,1-1.15-2.91,13.05,13.05,0,0,1-.72-3.91,21,21,0,0,1,0-2.51,8.08,8.08,0,0,1,.39-2.39c.29-.73.45-1.51.71-2.26a11.91,11.91,0,0,1,1.93-3.87c.63-.8,1.25-1.6,1.91-2.37A13.63,13.63,0,0,1,203,33.25c.44-.27,1-.43,1.41-.66s1.13-.6,1.71-.85a10.91,10.91,0,0,1,3.63-.92,34.61,34.61,0,0,1,3.53-.15,19,19,0,0,1,3.51.62c.9.23,1.74.68,2.63,1a12.58,12.58,0,0,1,4.11,2.5A19.75,19.75,0,0,1,226,37.52,15.27,15.27,0,0,1,227.65,40c.42.78.65,1.66,1,2.48a12.22,12.22,0,0,1,.83,3.62,10.16,10.16,0,0,1,.05,3.39,7,7,0,0,0-.08,1.21C229.44,50.86,229.4,51,229.38,51.2Z"/><path class="cls-6" d="M218.64,44.49a7.54,7.54,0,0,1-2.74,10.29,7.44,7.44,0,0,1-.85.42,7.63,7.63,0,0,1-10-4c-1.63-3.6.41-7.89,3.37-9.49a7.47,7.47,0,0,1,5.73-.81A7.27,7.27,0,0,1,218.64,44.49Zm-.4.36a6.92,6.92,0,0,0-5.57-3.62,6.72,6.72,0,0,0-5.43,2,7.33,7.33,0,0,0-2.16,5.38A5.7,5.7,0,0,0,206.23,52a7.4,7.4,0,0,0,3.47,2.75,6.79,6.79,0,0,0,5.72-.42,6.64,6.64,0,0,0,3.23-3.86A7.6,7.6,0,0,0,218.24,44.85Z"/><path class="cls-6" d="M207,38.64l.44.13a2.55,2.55,0,0,1-.2.48,1.61,1.61,0,0,1-.38.31c-.42.29-.86.56-1.25.88s-.4.07-.52-.08,0-.28.14-.36a.38.38,0,0,0,.13-.52l-.07-.09-1.69-2.34c0-.06-.11-.12-.12-.19,0-.29-.17-.49-.47-.34s-.59.25-.37.67a4,4,0,0,1,.26.6,1.48,1.48,0,0,1,0,.42c-.15,0-.37.07-.45,0a12.92,12.92,0,0,1-1-1.09s0-.23.1-.29l3.1-2.38c.25-.19.47-.22.63.15s.37.55.51.84v.42l-.36-.14c-.2-.1-.38-.28-.58-.3a1.92,1.92,0,0,0-.66.19,2.33,2.33,0,0,0,.2.52c.63.83,1.29,1.65,1.93,2.48C206.49,38.83,206.65,38.9,207,38.64Z"/><path class="cls-6" d="M210.24,32.93a2.49,2.49,0,0,1,2-.15.79.79,0,0,0,.3.08.91.91,0,0,1,.72,1.08.66.66,0,0,1-.06.2c-.08.12-.24.28-.36.28s-.24-.19-.3-.32c-.29-.67-.55-.84-1.19-.72a.94.94,0,0,0-.84.87,10.11,10.11,0,0,0,0,1.74,2.35,2.35,0,0,0,.42,1.08.89.89,0,0,0,.69.34,1.75,1.75,0,0,0,.71-.52c.1-.09.08-.29.16-.41s.2-.22.31-.32c.12.16.32.32.32.48a1.73,1.73,0,0,1-1.59,1.54,3.76,3.76,0,0,1-1.19-.28,2,2,0,0,1-1-1.37,3.39,3.39,0,0,1,.26-2.91A5.23,5.23,0,0,1,210.24,32.93Z"/><path class="cls-6" d="M215.85,37.92c-.21-.24-.37-.58-.63-.69a2.25,2.25,0,0,0-1.06.07c.13-.2.19-.31.27-.42a.76.76,0,0,0,0-1.09l-.1-.09c-.06-.05,0-.19-.06-.28s.23-.08.32-.05c.75.27.75.27,1.28-.29a1.29,1.29,0,0,1,.33-.17c0,.12.13.25.1.35-.16.55,0,.91.57,1,.11,0,.18.2.28.31l-.33.16a1.7,1.7,0,0,0-.43.11.44.44,0,0,0-.36.51,1.52,1.52,0,0,1-.07.52Z"/><path class="cls-6" d="M200.65,40l.75.15a.42.42,0,0,0,.55-.22s0,0,0-.06a.68.68,0,0,1,.18-.26.44.44,0,0,1,.29-.11c.05,0,.11.16.12.25a1.61,1.61,0,0,1,0,.31c0,.33.12.46.45.47a1.56,1.56,0,0,1,.47.17,1.5,1.5,0,0,1-.48.3c-.28.08-.41.22-.37.51a2.3,2.3,0,0,1,.05.45c0,.08,0,.22-.09.25a.24.24,0,0,1-.26-.08c-.57-.56-.57-.56-1.25-.19a.16.16,0,1,1-.23-.23.94.94,0,0,1,.17-.31c.27-.36.23-.61-.18-.83-.14-.08-.21-.29-.31-.44Z"/><path class="cls-6" d="M213.65,38.28a.41.41,0,0,1-.57-.09.34.34,0,0,1-.06-.12c-.13-.27-.06-.52.22-.56a.83.83,0,0,1,.64.21C214.08,38,213.89,38.16,213.65,38.28Z"/><path class="cls-6" d="M208,37.71c.27.19.52.26.56.41s-.09.37-.14.56a2.4,2.4,0,0,1-.62-.31C207.74,38.32,207.89,38,208,37.71Z"/><path class="cls-6" d="M213,43.7a4.58,4.58,0,0,0-2.85.26l.09-.55c-1.19-.18-2.88,1.08-3.32,2.25A4.08,4.08,0,0,0,209,51l.28.11c1,.41,3.08.3,3.35-.57a3.75,3.75,0,0,1-4.35-2.21,3.18,3.18,0,0,1,.36-3.35c.31.3.09.57,0,.81a3.26,3.26,0,0,0,0,2.22,3.34,3.34,0,0,0,2.24,2.1,2.71,2.71,0,0,0,2-.11,2.76,2.76,0,0,0,1.45-1.13c0-.1.2-.14.35-.22-.07,1.05-1.69,2.53-3.18,3a4.55,4.55,0,0,1-4.85-2.15,4.45,4.45,0,0,1,1.42-5.76C209.51,42.69,212.06,42.67,213,43.7Z"/><path class="cls-6" d="M215.35,47.64c-.07-.2-.15-.39-.21-.59-.17-.61-.31-.7-.93-.61h-.72l-.07-.15a5.17,5.17,0,0,1,.51-.42c.52-.32.6-.61.31-1.16,0-.08-.11-.15-.12-.23a.31.31,0,0,1,.06-.28c0-.05.2,0,.28,0a3.84,3.84,0,0,1,.61.45c.26.26.41.17.63,0a1.64,1.64,0,0,1,.77-.43l-.09.27c-.3.9-.27,1,.57,1.45a1.78,1.78,0,0,1,.35.32h-1c-.32,0-.46.22-.53.52a7.24,7.24,0,0,1-.25.79Zm.7-1.7c-.13-.47-.19-1-.94-.78h-.21a.67.67,0,0,1,0,.2c-.21.41-.4.8.31.89.1,0,.18.14.24.19Z"/><path class="cls-6" d="M211.77,53.69c.27.1.53.42.79-.07a3,3,0,0,0-.43-.09.44.44,0,0,1-.49-.42,1,1,0,0,1,.24-.66.8.8,0,0,1,.66-.07c.4.14.5.63.33,1.3a.69.69,0,0,1-.77.58h0C211.73,54.22,211.66,54.09,211.77,53.69Z"/><path class="cls-6" d="M214.73,52.17c0-.68.18-.9.69-.89s.55.63.9.89c.06,0,0,.45-.18.62a.65.65,0,0,1-.89,0l.58-.25v-.13l-.48-.11-.09-.47Z"/><path class="cls-6" d="M214.87,53.44l-1.18.43-.14-.14c.12-.25.26-.5.37-.76a1.61,1.61,0,0,0,.05-.44l-.34.16a.42.42,0,0,1-.27,0s-.09-.2-.06-.23c.2-.17.42-.32.63-.48.17.22.52.52.46.66-.2.5,0,.62.47.59Z"/><path class="cls-6" d="M210.86,54.12c-.14-.14-.28-.22-.29-.3a5.43,5.43,0,0,1,0-1.14c0-.14.29-.24.45-.36a2.68,2.68,0,0,1,.11.49,4.63,4.63,0,0,1-.1.65A6.5,6.5,0,0,1,210.86,54.12Z"/><path class="cls-6" d="M208.94,45.13c-.14-.57.32-1.05,1-1.16Z"/><path class="cls-6" d="M216.05,45.94l-.63.46c-.06,0-.14-.18-.24-.19-.71-.09-.52-.48-.31-.89a.67.67,0,0,0,0-.2c.1,0,.17.06.21,0C215.86,44.9,215.92,45.47,216.05,45.94Z"/><path class="cls-6" d="M197.48,51.28l5.09-1.23-.46-1.91.68-.16,1.11,4.58-.68.16-.46-1.91L197.66,52Z"/><path class="cls-6" d="M199.92,57.84l.69-.3L201,58l-.42.18a.9.9,0,0,1,.17.53.49.49,0,0,1-.18.38.65.65,0,0,1-.6.13,1.42,1.42,0,0,1-.74-.53,2.69,2.69,0,0,1-.34-.47l.39-.28.23.31a1.1,1.1,0,0,0,.43.34.24.24,0,0,0,.23,0,.14.14,0,0,0,.06-.12.31.31,0,0,0,0-.19A1.47,1.47,0,0,0,199.92,57.84Zm.7-3.05.53.53a1.55,1.55,0,0,0-.4.66,1.4,1.4,0,0,0,0,.76,2.39,2.39,0,0,0,1.07,1.33,1.09,1.09,0,0,0,.61.16,1,1,0,0,0,.5-.2.72.72,0,0,0,.26-.44,1.16,1.16,0,0,0-.07-.64c-.06-.16-.21-.49-.46-1a6.43,6.43,0,0,1-.46-1.12,1.5,1.5,0,0,1,0-.84,1.4,1.4,0,0,1,.43-.64,1.6,1.6,0,0,1,.81-.35,1.66,1.66,0,0,1,.93.19,3.29,3.29,0,0,1,1.45,1.71,1.7,1.7,0,0,1,0,1,1.75,1.75,0,0,1-.53.83l-.53-.54a1.21,1.21,0,0,0,.39-.86,1.62,1.62,0,0,0-.45-1,1.67,1.67,0,0,0-.87-.63.78.78,0,0,0-.69.16.67.67,0,0,0-.26.51,3.3,3.3,0,0,0,.44,1.18,8.23,8.23,0,0,1,.56,1.25,1.89,1.89,0,0,1,0,1,1.4,1.4,0,0,1-.49.73,1.52,1.52,0,0,1-.86.37,1.82,1.82,0,0,1-1-.17,2.67,2.67,0,0,1-.91-.73,3.5,3.5,0,0,1-.7-1.19,2.09,2.09,0,0,1,0-1.11A2.17,2.17,0,0,1,200.62,54.79Z"/><path class="cls-6" d="M205.47,58.66A3.24,3.24,0,0,1,207,56.75a2.69,2.69,0,0,1,2.22-.1,2.86,2.86,0,0,1,1.26.88,2.51,2.51,0,0,1,.58,1.37,3.59,3.59,0,0,1-.22,1.62,3.46,3.46,0,0,1-.89,1.4,2.55,2.55,0,0,1-1.34.67,3,3,0,0,1-1.48-.15,2.81,2.81,0,0,1-1.28-.89,2.56,2.56,0,0,1-.56-1.38A3.23,3.23,0,0,1,205.47,58.66Zm.76.28a2.41,2.41,0,0,0,0,1.79,1.92,1.92,0,0,0,1.15,1.08,1.88,1.88,0,0,0,1.59-.1,2.54,2.54,0,0,0,1.14-1.47,2.9,2.9,0,0,0,.2-1.27,1.93,1.93,0,0,0-.39-1,2.05,2.05,0,0,0-2.44-.58A2.52,2.52,0,0,0,206.23,58.94Z"/><path class="cls-6" d="M212.84,63.34l-1-5.87,4-.64.12.7-3.19.51.3,1.82,2.75-.45.11.7-2.75.44.43,2.67Z"/><path class="cls-6" d="M220.47,59.09l.45-.59a1.49,1.49,0,0,0,.93.33,1,1,0,0,0,.72-.32,1.23,1.23,0,0,0,0-1.75,1.16,1.16,0,0,0-.82-.35,1.11,1.11,0,0,0-.82.36,2.53,2.53,0,0,0-.31.42l-.4-.51.09-.08a1.51,1.51,0,0,0,.42-.76.81.81,0,0,0-.26-.8.91.91,0,0,0-.66-.28,1.06,1.06,0,0,0-1,1,1.39,1.39,0,0,0,.31.83l-.61.42a1.81,1.81,0,0,1-.37-1.23,1.72,1.72,0,0,1,.55-1.12,2.06,2.06,0,0,1,.78-.49,1.71,1.71,0,0,1,.84,0,1.48,1.48,0,0,1,.7.39,1.23,1.23,0,0,1,.35.64,1.42,1.42,0,0,1-.08.79,1.42,1.42,0,0,1,.94-.22,1.5,1.5,0,0,1,.88.47,1.73,1.73,0,0,1,.53,1.34A2,2,0,0,1,223,59a2,2,0,0,1-1.25.59A1.86,1.86,0,0,1,220.47,59.09Z"/><path class="cls-6" d="M226.45,53.4l-1.32-.53-1,2.39-.62-.25L221,51.06l.22-.56,3.58,1.44.3-.75.62.25-.3.75,1.32.53Zm-1.94-.78-2.49-1,1.79,2.72Z"/><path class="cls-6" d="M227.32,49.7l-.83-.07.07-.83.83.07Z"/><path class="cls-6" d="M226.84,44l.17.71-4.54,1a3.49,3.49,0,0,1,.65.56,4.32,4.32,0,0,1,.54.66l-.69.16a4.32,4.32,0,0,0-.92-.89,2.92,2.92,0,0,0-.92-.45l-.1-.46Z"/><path class="cls-6" d="M224.4,41.72l-.5-.58a1.37,1.37,0,0,0,.45-.81,1.08,1.08,0,0,0-.21-.78,1.16,1.16,0,0,0-.85-.48,1.47,1.47,0,0,0-1.07.32,1.41,1.41,0,0,0-.59.86,1.28,1.28,0,0,0,.25,1,1.36,1.36,0,0,0,.5.42,1.24,1.24,0,0,0,.6.12l.33.6-2.81,1.33-1.73-2.39.56-.41,1.39,1.92,1.49-.68a1.9,1.9,0,0,1-1-.69,1.83,1.83,0,0,1-.33-1.38,1.9,1.9,0,0,1,.81-1.25,2.15,2.15,0,0,1,1.4-.44A2.1,2.1,0,0,1,225,40.54,1.7,1.7,0,0,1,224.4,41.72Z"/><rect class="cls-7" x="226.86" y="22.63" width="16.3" height="16.3"/><path class="cls-5" d="M230.93,35.55V27.29h-2.25V26h5.75v1.29h-2.25v8.26Z"/><path class="cls-5" d="M235.31,35.55V26h3.22a2.24,2.24,0,0,1,1.67.63,2.85,2.85,0,0,1,.59.87,2.78,2.78,0,0,1,.23,1.17,3.1,3.1,0,0,1-.42,1.63,2.43,2.43,0,0,1-1.17,1l1.91,4.24h-1.48l-1.7-4.08h-1.6v4.08Zm1.25-8.26v2.89h1.89a1.28,1.28,0,0,0,1.05-.45,1.69,1.69,0,0,0,.35-1.06,1.35,1.35,0,0,0-.42-1.09,1.42,1.42,0,0,0-.91-.29Z"/><rect class="cls-8" x="356.64" y="22.63" width="16.3" height="16.3"/><path class="cls-5" d="M360.71,35.55V27.29h-2.25V26h5.75v1.29H362v8.26Z"/><path class="cls-5" d="M365.09,35.55V26h3.22a2.24,2.24,0,0,1,1.67.63,3,3,0,0,1,.58.87,2.79,2.79,0,0,1,.24,1.17,3.1,3.1,0,0,1-.42,1.63,2.43,2.43,0,0,1-1.17,1l1.9,4.24h-1.48l-1.69-4.08h-1.6v4.08Zm1.25-8.26v2.89h1.88a1.24,1.24,0,0,0,1-.45,1.63,1.63,0,0,0,.35-1.06,1.39,1.39,0,0,0-.41-1.09,1.42,1.42,0,0,0-.91-.29Z"/><rect class="cls-9" x="206.47" y="85.38" width="16.3" height="16.3"/><path class="cls-5" d="M208.06,93.53a4.77,4.77,0,0,1,8.8-2.55,3.82,3.82,0,1,0-.29,5.39,4,4,0,0,0,.29-.29,4.77,4.77,0,0,1-8.8-2.55Z"/><polygon class="cls-5" points="221.18 92.13 219.53 92.66 218.51 91.26 218.51 93 216.86 93.53 218.51 94.07 218.51 95.8 219.53 94.4 221.18 94.93 220.16 93.53 221.18 92.13"/><rect class="cls-10" x="372.05" y="85.38" width="16.3" height="16.3"/><path class="cls-5" d="M373.64,93.53a4.77,4.77,0,0,1,8.8-2.55,3.82,3.82,0,1,0-.29,5.39,4,4,0,0,0,.29-.29,4.77,4.77,0,0,1-8.8-2.55Z"/><polygon class="cls-5" points="386.76 92.13 385.11 92.66 384.09 91.26 384.09 93 382.44 93.53 384.09 94.07 384.09 95.8 385.11 94.4 386.76 94.93 385.74 93.53 386.76 92.13"/><rect class="cls-11" x="2" y="2" width="599.25" height="130.5" rx="9.76"/></g></g></g></g></svg>